<?xml version="1.0" encoding="UTF-8" standalone="no"?>
<!-- Created with Inkscape (http://www.inkscape.org/) -->

<svg
   version="1.1"
   width="59.999996pt"
   height="231.74985pt"
   id="svg2"
   xmlns:xlink="http://www.w3.org/1999/xlink"
   xmlns="http://www.w3.org/2000/svg"
   xmlns:svg="http://www.w3.org/2000/svg">
  <defs
     id="defs1" />
  <g
     transform="translate(-47.500005,-16.112518)"
     id="g24079"
     style="fill:#c6e77f;fill-opacity:1">
    <path
       d="m 95,163.61252 c 0,-20 32,-40 32,-60 0,0 -79,0 -79,0 0,20 32,40 32,60 z"
       id="path24075"
       style="fill:#c6e77f;fill-opacity:1;fill-rule:evenodd;stroke:none;stroke-width:1px;stroke-linecap:round;stroke-linejoin:round;stroke-opacity:1" />
  </g>
  <path
     d="m 42.5,302.5 c 0,0 0,-18 0,-20 0,-2 5,-8 5,-10 0,-1 0,-125 0,-125 -5,0 -10,0 -15,0 0,0 0,124 0,125 0,2 5,8 5,10 0,2 0,20 0,20 h 5 c -3,1 -5,6 -5,6 0,0 0,-6 0,-6"
     id="path20569"
     style="fill:#c8efff;fill-opacity:1;fill-rule:evenodd;stroke:none;stroke-width:1px;stroke-linecap:round;stroke-linejoin:round;stroke-opacity:1" />
  <path
     d="M 23.5,7.5000001 26.5,47.5 h 27 l 3,-39.9999999 z"
     id="path2196"
     style="fill:none;fill-opacity:0.75;fill-rule:evenodd;stroke:#000000;stroke-width:1px;stroke-linecap:round;stroke-linejoin:round;stroke-opacity:1" />
  <path
     d="m 26.5,32.5 -2,-28.9999999 h 31 L 53.5,32.5 Z"
     id="path3073"
     style="fill:#e6e6e6;fill-opacity:1;fill-rule:evenodd;stroke:#c8c8dc;stroke-width:1;stroke-linecap:round;stroke-linejoin:round;stroke-miterlimit:4;stroke-dasharray:none;stroke-opacity:1" />
  <path
     d="m 17.5,3.5000001 h 45 V 0.50000007 h -45 z"
     id="path3075"
     style="fill:#e6e6e6;fill-opacity:1;fill-rule:evenodd;stroke:#c8c8dc;stroke-width:1;stroke-linecap:round;stroke-linejoin:round;stroke-miterlimit:4;stroke-dasharray:none;stroke-opacity:1" />
  <path
     d="m 22.5,7.5000001 h 1 v 1 h -1 z"
     id="path6569"
     style="fill:none;fill-opacity:0.75;fill-rule:evenodd;stroke:#000000;stroke-width:1px;stroke-linecap:round;stroke-linejoin:round;stroke-opacity:1" />
  <path
     d="m 56.5,8.5000001 v -1 h 1 v 1 z"
     id="path6571"
     style="fill:none;fill-opacity:0.75;fill-rule:evenodd;stroke:#000000;stroke-width:1px;stroke-linecap:round;stroke-linejoin:round;stroke-opacity:1" />
  <path
     d="M 26.5,47.5 C 7.5000005,51.5 0.50000047,67.5 0.50000047,87.500002 0.50000047,107.5 32.5,127.5 32.5,147.5 c 0,0 0,124 0,125 0,2 5,8 5,10 0,2 0,20 0,20"
     id="path8319"
     style="fill:none;fill-opacity:0.75;fill-rule:evenodd;stroke:#000000;stroke-width:1px;stroke-linecap:round;stroke-linejoin:round;stroke-opacity:1" />
  <use
     transform="matrix(-1,0,0,1,79.99999,-2.9077149e-8)"
     id="use8321"
     x="0"
     y="0"
     width="305.35001"
     height="433.61252"
     xlink:href="#path8319" />
  <path
     d="m 52.5,283.5 1,-11 h 2 l 1,11"
     id="path11825"
     style="fill:#cc0000;fill-opacity:1;fill-rule:evenodd;stroke:#cc0000;stroke-width:1px;stroke-linecap:round;stroke-linejoin:round;stroke-opacity:1" />
  <path
     d="m 52.5,286.5 1,11 h 2 l 1,-11"
     id="path11827"
     style="fill:#cc0000;fill-opacity:1;fill-rule:evenodd;stroke:#cc0000;stroke-width:1px;stroke-linecap:round;stroke-linejoin:round;stroke-opacity:1" />
  <path
     d="m 32.5,282.5 h 16 v 5 h -16 z m 16,0 1,1 2,-1 c 2,1 4,1 6,0 h 1 v 5 c 0,0 -1,0 -1,0 -2,-1 -4,-1 -6,0 -2e-6,0 -2,-1 -2,-1 l -1,1"
     id="rect10071"
     style="fill:#ffffff;fill-opacity:1;fill-rule:evenodd;stroke:#999999;stroke-width:0.8;stroke-linecap:round;stroke-linejoin:round;stroke-miterlimit:4;stroke-dashoffset:0;stroke-opacity:1" />
  <path
     d="m 32.5,281.5 c -2,1 -5,1 -5,1 v 5 c 0,0 3,0 5,1 2e-6,0 2e-6,-7 0,-7 z"
     id="path10946"
     style="fill:#cc0000;fill-opacity:1;fill-rule:evenodd;stroke:#cc0000;stroke-width:1px;stroke-linecap:round;stroke-linejoin:round;stroke-opacity:1" />
  <path
     d="m 37.5,302.5 c 0,0 0,6 0,6 0,0 2,-5 5,-6"
     id="path8323"
     style="fill:none;fill-opacity:0.75;fill-rule:evenodd;stroke:#000000;stroke-width:1px;stroke-linecap:round;stroke-linejoin:round;stroke-opacity:1" />
</svg>
