<?xml version="1.0" encoding="UTF-8" standalone="no"?>
<!-- Created with Inkscape (http://www.inkscape.org/) -->

<svg
   version="1.1"
   id="svg1"
   width="222.79164mm"
   height="103.86277mm"
   viewBox="0 0 842.04716 392.5522"
   xmlns="http://www.w3.org/2000/svg"
   xmlns:svg="http://www.w3.org/2000/svg">
  <defs
     id="defs1" />
  <g
     id="layer1"
     transform="translate(-187.51057,-129.7072)">
    <path
       style="fill:#e6e6e6;stroke:#000000;stroke-width:0.457938;stroke-linecap:round;stroke-linejoin:round"
       d="m 658.75471,413.86793 c -7.76041,-2.6453 -13.89807,-9.79991 -17.42815,-20.31583 l -1.27398,-3.7951 v -41.62204 -41.62204 h 25.87763 25.87763 l -0.14284,42.21859 -0.14283,42.21858 -1.3615,3.67424 c -2.95471,7.97377 -7.80679,14.65544 -12.73616,17.53865 -5.24448,3.0675 -12.6804,3.74656 -18.6698,1.70495 z"
       id="path20" />
    <path
       style="fill:#e6e6e6;stroke:#000000;stroke-width:0.457938;stroke-linecap:round;stroke-linejoin:round"
       d="m 351.20251,413.55222 c -3.19665,-1.83351 -5.55026,-4.46977 -7.25455,-8.12578 -1.6138,-3.46189 -1.52634,-0.23317 -1.7075,-63.03406 l -0.13715,-47.54345 H 457.2704 572.43749 l 0.33659,37.65441 c 0.18511,20.70993 0.33674,44.5814 0.33695,53.04773 l 3.8e-4,15.3933 -1.85677,3.53344 c -2.32515,4.42478 -5.62757,8.13711 -8.45714,9.50688 l -2.17744,1.05408 -103.42121,-0.005 -103.42122,-0.005 z"
       id="path19" />
    <path
       style="fill:#e6e6e6;stroke:#000000;stroke-width:0.457938;stroke-linecap:round;stroke-linejoin:round"
       d="m 640.05258,186.89138 v -16.79646 h 10.56713 c 5.81192,0 17.45055,-0.1509 25.86364,-0.33534 l 15.29651,-0.33534 v 16.25451 16.25451 l -5.45165,0.2996 c -2.99841,0.16477 -11.61328,0.42151 -19.14416,0.57053 -7.53089,0.14902 -16.71628,0.40898 -20.41199,0.5777 l -6.71948,0.30675 z"
       id="path16" />
    <path
       style="fill:#e6e6e6;stroke:#000000;stroke-width:0.457938;stroke-linecap:round;stroke-linejoin:round"
       d="m 502.11319,186.57665 v -16.98886 h 14.96034 14.96034 v 16.98886 16.98886 h -14.96034 -14.96034 z"
       id="path15" />
    <path
       style="fill:#e6e6e6;stroke:#000000;stroke-width:0.457938;stroke-linecap:round;stroke-linejoin:round"
       d="m 382.93761,187.08378 c 0,-8.78603 0.0571,-15.98191 0.12678,-15.99085 0.7437,-0.0953 28.50497,-1.47678 29.92068,-1.48888 l 1.90174,-0.0163 v 16.73529 16.73529 h -15.9746 -15.9746 z"
       id="path14" />
    <path
       style="fill:none;stroke:#000000;stroke-width:0.903;stroke-linecap:round;stroke-linejoin:round"
       d="m 334.43656,250.87031 c 0,0 6.84788,8.89428 6.84788,13.40592 l 0.39278,135.48915 c 0,0 0.49057,11.47066 11.77621,15.84407 l 207.52972,-0.0969 c 8.34849,-1.93687 12.94863,-14.93662 12.94863,-14.93662 L 573.00425,261.3497 c 0.76775,-4.55971 6.74705,-10.45882 6.74705,-10.45882"
       id="path1" />
    <path
       style="display:inline;fill:none;stroke:#000000;stroke-width:0.903;stroke-linecap:round;stroke-linejoin:round"
       d="m 382.31311,170.365 v 167.98582 c 0,0 0.57776,65.86534 74.90885,66.43225 74.33109,0.56691 75.51717,-66.54 75.51717,-66.54 V 168.84595 h -31.5323 v 169.32877 c 0,0 -4.89991,33.01922 -43.22832,33.64167 -38.32841,0.62245 -42.39381,-33.85741 -42.39381,-33.85741 V 168.78197 Z"
       id="path2" />
    <path
       style="fill:none;stroke:#000000;stroke-width:0.903;stroke-linecap:round;stroke-linejoin:round"
       d="m 382.64446,203.60914 h 33.93485"
       id="path3" />
    <path
       style="fill:none;stroke:#000000;stroke-width:0.903;stroke-linecap:round;stroke-linejoin:round"
       d="m 500.3733,204.41727 h 33.00989"
       id="path4" />
    <path
       style="display:inline;fill:none;stroke:#000000;stroke-width:0.903;stroke-linecap:round;stroke-linejoin:round"
       d="M 187.96207,350.4214 224.1693,303.42362 V 136.98758 c 1.41188,-4.32169 2.37204,-5.94549 7.65862,-5.70738 l 167.52505,2.37294 c 3.89779,0.0682 4.57758,1.76191 4.77407,8.05791 v 90.95068"
       id="path5" />
    <path
       style="display:inline;fill:none;stroke:#000000;stroke-width:0.903;stroke-linecap:round;stroke-linejoin:round"
       d="m 393.53401,233.41215 v -83.09337 c 0.9999,-6.54701 -1.86047,-7.8046 -7.86958,-9.32663 H 238.16642 c -2.59744,0.1724 -3.58449,-0.43821 -3.58449,3.57497 v 161.80512 l 35.2171,44.6498"
       id="path6" />
    <path
       style="fill:none;stroke:#000000;stroke-width:0.903;stroke-linecap:round;stroke-linejoin:round"
       d="m 639.46046,169.65319 v 220.12627 c 0,0 5.06585,26.34353 26.96574,26.11834 21.89989,-0.22519 25.91248,-26.97546 25.91248,-26.97546 V 168.81772 Z"
       id="path7" />
    <path
       style="fill:none;stroke:#000000;stroke-width:0.903;stroke-linecap:round;stroke-linejoin:round"
       d="m 638.9212,204.22499 53.46614,-1.39148"
       id="path8" />
    <path
       style="display:inline;fill:none;stroke:#000000;stroke-width:0.903;stroke-linecap:round;stroke-linejoin:round"
       d="M 680.63977,226.87223 V 151.3141 c 0.54446,-5.40561 4.36713,-8.7739 9.8116,-9.81161 h 21.83531"
       id="path9" />
    <path
       style="display:inline;fill:none;stroke:#000000;stroke-width:0.903;stroke-linecap:round;stroke-linejoin:round"
       d="m 712.67446,130.44644 h -29.69169 c -8.13866,2.58398 -8.8432,5.48289 -10.10193,13.10952 v 85.33482"
       id="path10" />
    <path
       style="display:inline;fill:none;stroke:#000000;stroke-width:0.903;stroke-linecap:round;stroke-linejoin:round"
       d="M 661.7033,390.2885 V 144.46584 c 0,-5.94725 -6.94914,-13.25458 -14.91564,-14.30714 H 527.2768 c 0,0 -13.8149,3.87589 -13.8149,14.66692 v 87.98846"
       id="path11" />
    <path
       style="display:inline;fill:none;stroke:#000000;stroke-width:0.903;stroke-linecap:round;stroke-linejoin:round"
       d="m 521.83292,233.02267 v -83.01432 c 0.42848,-4.50262 2.76676,-9.06646 9.45086,-9.45086 h 109.78975 c 8.1069,2.3235 10.66485,6.47026 11.00279,11.00279 v 239.20954"
       id="path12" />
    <path
       style="display:inline;fill:none;stroke:#000000;stroke-width:0.903;stroke-linecap:round;stroke-linejoin:round"
       d="m 424.96509,398.1033 c 0,0 20.82308,-15.04996 34.22249,-15.99075 13.39941,-0.94079 40.94655,12.52822 40.94655,12.52822"
       id="path13" />
    <rect
       style="fill:none;stroke:#000000;stroke-width:0.903;stroke-linecap:round;stroke-linejoin:round"
       id="rect23"
       width="46.039719"
       height="43.910244"
       x="204.70877"
       y="372.29352" />
    <path
       style="fill:none;stroke:#000000;stroke-width:0.903;stroke-linecap:round;stroke-linejoin:round"
       d="m 220.53574,371.40989 c 0,0 -13.27715,-14.80116 -12.37939,-23.57515 0.89776,-8.77399 16.68368,-20.31934 16.68368,-20.31934 0,0 17.66849,12.20273 19.23077,20.98371 1.56227,8.78098 -9.51665,23.1722 -9.51665,23.1722"
       id="path23" />
    <text
       xml:space="preserve"
       style="font-size:10.6667px;font-family:sans-serif;-inkscape-font-specification:sans-serif;text-align:center;text-anchor:middle;fill:none;stroke:#000000;stroke-width:0.903;stroke-linecap:round;stroke-linejoin:round"
       x="616.44043"
       y="486.87704"
       id="text23"><tspan
         id="tspan23"
         x="616.44043"
         y="486.87704">..........................................</tspan></text>
    <text
       xml:space="preserve"
       style="font-size:10.6667px;font-family:sans-serif;-inkscape-font-specification:sans-serif;text-align:center;text-anchor:middle;fill:none;stroke:#000000;stroke-width:0.903;stroke-linecap:round;stroke-linejoin:round"
       x="304.70871"
       y="479.80792"
       id="text23-3"><tspan
         id="tspan23-5"
         x="304.70871"
         y="479.80792">..........................................</tspan></text>
    <text
       xml:space="preserve"
       style="font-size:10.6667px;font-family:sans-serif;-inkscape-font-specification:sans-serif;text-align:center;text-anchor:middle;fill:none;stroke:#000000;stroke-width:0.903;stroke-linecap:round;stroke-linejoin:round"
       x="755.12909"
       y="444.42245"
       id="text25"><tspan
         id="tspan25"
         x="755.12909"
         y="444.42245">..........................................</tspan></text>
    <path
       style="fill:none;stroke:#000000;stroke-width:0.903;stroke-linecap:round;stroke-linejoin:round"
       d="m 680.03215,367.54435 43.93201,58.31774"
       id="path26" />
    <path
       style="fill:none;stroke:#000000;stroke-width:0.79668;stroke-linecap:round;stroke-linejoin:round"
       d="m 523.71705,330.07493 77.19003,125.48713"
       id="path28" />
    <path
       style="fill:none;stroke:#000000;stroke-width:0.782493;stroke-linecap:round;stroke-linejoin:round"
       d="m 460.74717,396.2625 -5.88539,94.21413"
       id="path29" />
    <text
       xml:space="preserve"
       style="font-size:10.6667px;font-family:sans-serif;-inkscape-font-specification:sans-serif;text-align:center;text-anchor:middle;fill:none;stroke:#000000;stroke-width:0.903;stroke-linecap:round;stroke-linejoin:round"
       x="454.70871"
       y="521.80792"
       id="text29"><tspan
         id="tspan29"
         x="454.70871"
         y="521.80792">..........................................</tspan></text>
    <path
       style="fill:none;stroke:#000000;stroke-width:0.903;stroke-linecap:round;stroke-linejoin:round"
       d="m 356.87685,394.8307 -40.82044,65.04501"
       id="path30" />
    <text
       xml:space="preserve"
       style="font-size:13.3333px;font-family:sans-serif;-inkscape-font-specification:sans-serif;text-align:center;text-anchor:middle;fill:#000000;stroke:#000000;stroke-width:0.903;stroke-linecap:round;stroke-linejoin:round"
       x="765.80707"
       y="297.85675"
       id="text26"><tspan
         id="tspan26"
         x="765.80707"
         y="297.85675"
         style="font-size:13.3333px;fill:#000000">Eau de chaux</tspan></text>
    <text
       xml:space="preserve"
       style="font-size:13.3333px;font-family:sans-serif;-inkscape-font-specification:sans-serif;text-align:center;text-anchor:middle;fill:#000000;stroke:#000000;stroke-width:0.903;stroke-linecap:round;stroke-linejoin:round"
       x="879.81592"
       y="296.82291"
       id="text27"><tspan
         id="tspan27"
         x="879.81592"
         y="296.82291"
         style="font-size:13.3333px;fill:#000000">Eau galcée</tspan></text>
    <text
       xml:space="preserve"
       style="font-size:13.3333px;font-family:sans-serif;-inkscape-font-specification:sans-serif;text-align:center;text-anchor:middle;fill:#000000;stroke:#000000;stroke-width:0.903;stroke-linecap:round;stroke-linejoin:round"
       x="919.46667"
       y="252.28365"
       id="text28"><tspan
         id="tspan28"
         x="919.46667"
         y="252.28365"
         style="font-size:13.3333px;fill:#000000">papier de dichlorure de cobalt</tspan></text>
    <text
       xml:space="preserve"
       style="font-size:13.3333px;font-family:sans-serif;-inkscape-font-specification:sans-serif;text-align:center;text-anchor:middle;fill:#000000;stroke:#000000;stroke-width:0.903;stroke-linecap:round;stroke-linejoin:round"
       x="752.34485"
       y="253.3175"
       id="text30"><tspan
         id="tspan30"
         x="752.34485"
         y="253.3175"
         style="font-size:13.3333px;fill:#000000">Tube en U</tspan></text>
    <rect
       style="fill:none;stroke:#000000;stroke-width:0.979298;stroke-linecap:round;stroke-linejoin:round"
       id="rect30"
       width="318.71057"
       height="78.221573"
       x="710.35748"
       y="232.73434" />
  </g>
</svg>
