<?xml version="1.0" encoding="UTF-8" standalone="no"?>
<!-- Created with Inkscape (http://www.inkscape.org/) -->

<svg
   width="28.396652mm"
   height="29.064854mm"
   viewBox="0 0 28.396652 29.064854"
   version="1.1"
   id="svg1"
   xml:space="preserve"
   xmlns="http://www.w3.org/2000/svg"
   xmlns:svg="http://www.w3.org/2000/svg"><defs
     id="defs1" /><g
     id="layer2"
     transform="translate(-26.925898,-64.21591)"><g
       id="g46"
       transform="translate(14.465869,-50.656439)"><path
         style="fill:none;stroke:#000000;stroke-width:0.239;stroke-linecap:round;stroke-linejoin:round"
         d="m 40.737181,140.847 v 2.9707"
         id="path2" /><path
         style="fill:none;stroke:#000000;stroke-width:0.239;stroke-linecap:round;stroke-linejoin:round"
         d="m 17.327404,131.29465 4.978575,-5.20227 1.852565,5.80641 8.130668,-5.62528 -0.628615,-0.91106 -8.705018,2.76088"
         id="path9" /><path
         style="fill:none;stroke:#000000;stroke-width:0.239;stroke-linecap:round;stroke-linejoin:round"
         d="m 35.488554,131.53877 -3.833884,-6.20781 -0.188648,-0.87729 0.955813,-0.51621 -0.286454,-0.47071 0.742691,-0.15859 0.696653,0.81928 -0.651465,0.26444 -0.46573,-0.18822 -0.701977,0.61494 0.738706,1.12449 1.160518,-0.0185 1.41351,0.0847 -0.0647,0.57884 -1.493126,0.1486 0.03623,0.72995"
         id="path10" /><path
         style="fill:none;stroke:#000000;stroke-width:0.239;stroke-linecap:round;stroke-linejoin:round"
         d="m 17.30322,131.39239 5.259647,0.28615"
         id="path11" /><ellipse
         style="fill:none;stroke:#000000;stroke-width:0.239;stroke-linecap:round;stroke-linejoin:round"
         id="path12"
         cx="24.460548"
         cy="132.14656"
         rx="1.5197835"
         ry="1.3048105" /><path
         style="fill:none;stroke:#000000;stroke-width:0.239;stroke-linecap:round;stroke-linejoin:round"
         d="m 23.953415,133.5536 -6.23615,-0.37964 -0.273339,-0.40747 -0.219016,-1.44892"
         id="path13" /><path
         style="fill:none;stroke:#000000;stroke-width:0.239;stroke-linecap:round;stroke-linejoin:round"
         d="m 18.106224,130.92874 2.778161,-0.25843 1.118583,0.95108"
         id="path14" /><path
         style="fill:none;stroke:#000000;stroke-width:0.239;stroke-linecap:round;stroke-linejoin:round"
         d="m 20.873581,130.61396 2.351672,-1.51614"
         id="path15" /><path
         style="fill:none;stroke:#000000;stroke-width:0.239;stroke-linecap:round;stroke-linejoin:round"
         d="m 26.553646,132.10538 1.768184,-0.77952 -2.301032,-0.8387 2.949981,-4.8151 -4.462171,-1.9462 -0.05399,-0.84239 3.277967,-3.2382 -2.551695,-1.92233 -1.466469,1.22427 -3.148458,3.90438 0.598143,0.61288 1.838071,0.41111 1.533762,-0.15125"
         id="path16" /><path
         style="fill:none;stroke:#000000;stroke-width:0.239;stroke-linecap:round;stroke-linejoin:round"
         d="m 20.875145,123.25474 0.122739,0.99903 1.271104,0.90217 4.123853,1.29477 -1.626924,3.71811 1.152807,0.27705"
         id="path17" /><path
         style="fill:none;stroke:#000000;stroke-width:0.239;stroke-linecap:round;stroke-linejoin:round"
         d="m 22.411844,125.28588 3.143837,2.10552 -3.137324,2.38907"
         id="path18" /><path
         style="fill:none;stroke:#000000;stroke-width:0.239;stroke-linecap:round;stroke-linejoin:round"
         d="m 24.356757,130.67329 -0.142081,-0.56703 0.859355,-0.79893"
         id="path19" /><path
         style="fill:none;stroke:#000000;stroke-width:0.239;stroke-linecap:round;stroke-linejoin:round"
         d="m 26.564658,120.80859 1.361948,1.14244 4.389319,1.22434 1.074928,0.51652 0.893503,-0.48173 -0.844542,-0.83034 -1.080363,0.21969 -4.646861,-2.21188 0.0013,-0.85628"
         id="path20" /><path
         style="fill:none;stroke:#000000;stroke-width:0.239;stroke-linecap:round;stroke-linejoin:round"
         d="m 26.926278,118.97262 0.01773,-0.8647 0.218829,-0.0158 0.888164,0.53544 0.410405,-0.19537 0.535938,-0.97905 -0.0745,-1.23905 0.89343,0.0316 -1.606632,-1.25384 -2.412494,0.0642 -0.950459,0.9452 0.367631,0.96315 -0.0062,0.71106"
         id="path21" /><path
         style="fill:none;stroke:#000000;stroke-width:0.239;stroke-linecap:round;stroke-linejoin:round"
         d="m 25.179294,116.90954 1.06396,-0.0466 1.217911,1.25513 0.605635,-1.93554 1.154488,0.02"
         id="path22" /><path
         style="fill:none;stroke:#000000;stroke-width:0.1;stroke-linecap:round;stroke-linejoin:round;stroke-dasharray:none"
         d="m 26.304342,116.88375 c 0,0 0.889284,-0.78258 0.999589,-0.77365 0.110307,0.009 0.87331,0.0779 0.87331,0.0779"
         id="path23" /><g
         id="g34"><ellipse
           style="fill:none;stroke:#000000;stroke-width:0.238699;stroke-linecap:round;stroke-linejoin:round"
           id="ellipse8"
           cx="35.593475"
           cy="131.15431"
           rx="5.0224252"
           ry="3.9067862" /><path
           style="fill:none;stroke:#000000;stroke-width:0.1;stroke-linecap:round;stroke-linejoin:round;stroke-dasharray:none"
           d="m 34.056857,134.96764 1.400016,-3.46855 -0.610571,3.63422"
           id="path24" /><path
           style="fill:none;stroke:#000000;stroke-width:0.1;stroke-linecap:round;stroke-linejoin:round;stroke-dasharray:none"
           d="m 35.69445,135.13981 -0.175683,-3.57793 0.711616,3.50083"
           id="path25" /><path
           style="fill:none;stroke:#000000;stroke-width:0.1;stroke-linecap:round;stroke-linejoin:round;stroke-dasharray:none"
           d="m 36.895457,134.95294 -1.384657,-3.50467 2.107367,3.24586"
           id="path26" /><path
           style="fill:none;stroke:#000000;stroke-width:0.1;stroke-linecap:round;stroke-linejoin:round;stroke-dasharray:none"
           d="m 38.972953,128.24158 -3.406894,3.31703 0.454166,-4.354"
           id="path27" /><path
           style="fill:none;stroke:#000000;stroke-width:0.1;stroke-linecap:round;stroke-linejoin:round;stroke-dasharray:none"
           d="m 30.553517,130.8579 4.959313,0.67558 -3.907977,1.98546"
           id="path28" /><path
           style="fill:none;stroke:#000000;stroke-width:0.1;stroke-linecap:round;stroke-linejoin:round;stroke-dasharray:none"
           d="m 31.38888,128.99027 4.066696,2.53491 5.140682,0.0138"
           id="path29" /><path
           style="fill:none;stroke:#000000;stroke-width:0.1;stroke-linecap:round;stroke-linejoin:round;stroke-dasharray:none"
           d="m 39.575927,133.59833 -3.956349,-2.08528 4.654634,-1.84226"
           id="path30" /><path
           style="fill:none;stroke:#000000;stroke-width:0.1;stroke-linecap:round;stroke-linejoin:round;stroke-dasharray:none"
           d="m 34.547606,127.25102 0.949155,4.21615 -4.664545,0.78296"
           id="path31" /><path
           style="fill:none;stroke:#000000;stroke-width:0.1;stroke-linecap:round;stroke-linejoin:round;stroke-dasharray:none"
           d="m 32.799051,134.40584 2.62934,-2.82511 3.176043,2.7098"
           id="path32" /><path
           style="fill:none;stroke:#000000;stroke-width:0.1;stroke-linecap:round;stroke-linejoin:round;stroke-dasharray:none"
           d="m 37.660704,127.58592 -2.096643,3.91674 4.748087,1.18462"
           id="path33" /><path
           style="fill:none;stroke:#000000;stroke-width:0.1;stroke-linecap:round;stroke-linejoin:round;stroke-dasharray:none"
           d="m 30.814258,129.89524 4.630963,1.55335 -3.29954,-3.14275"
           id="path34" /></g><g
         id="g45"
         transform="translate(-17.991672)"><ellipse
           style="fill:none;stroke:#000000;stroke-width:0.238699;stroke-linecap:round;stroke-linejoin:round"
           id="ellipse34"
           cx="35.593475"
           cy="131.15431"
           rx="5.0224252"
           ry="3.9067862" /><path
           style="fill:none;stroke:#000000;stroke-width:0.1;stroke-linecap:round;stroke-linejoin:round;stroke-dasharray:none"
           d="m 34.056857,134.96764 1.400016,-3.46855 -0.610571,3.63422"
           id="path35" /><path
           style="fill:none;stroke:#000000;stroke-width:0.1;stroke-linecap:round;stroke-linejoin:round;stroke-dasharray:none"
           d="m 35.69445,135.13981 -0.175683,-3.57793 0.711616,3.50083"
           id="path36" /><path
           style="fill:none;stroke:#000000;stroke-width:0.1;stroke-linecap:round;stroke-linejoin:round;stroke-dasharray:none"
           d="m 36.895457,134.95294 -1.384657,-3.50467 2.107367,3.24586"
           id="path37" /><path
           style="fill:none;stroke:#000000;stroke-width:0.1;stroke-linecap:round;stroke-linejoin:round;stroke-dasharray:none"
           d="m 38.972953,128.24158 -3.406894,3.31703 0.454166,-4.354"
           id="path38" /><path
           style="fill:none;stroke:#000000;stroke-width:0.1;stroke-linecap:round;stroke-linejoin:round;stroke-dasharray:none"
           d="m 30.553517,130.8579 4.959313,0.67558 -3.907977,1.98546"
           id="path39" /><path
           style="fill:none;stroke:#000000;stroke-width:0.1;stroke-linecap:round;stroke-linejoin:round;stroke-dasharray:none"
           d="m 31.38888,128.99027 4.066696,2.53491 5.140682,0.0138"
           id="path40" /><path
           style="fill:none;stroke:#000000;stroke-width:0.1;stroke-linecap:round;stroke-linejoin:round;stroke-dasharray:none"
           d="m 39.575927,133.59833 -3.956349,-2.08528 4.654634,-1.84226"
           id="path41" /><path
           style="fill:none;stroke:#000000;stroke-width:0.1;stroke-linecap:round;stroke-linejoin:round;stroke-dasharray:none"
           d="m 34.547606,127.25102 0.949155,4.21615 -4.664545,0.78296"
           id="path42" /><path
           style="fill:none;stroke:#000000;stroke-width:0.1;stroke-linecap:round;stroke-linejoin:round;stroke-dasharray:none"
           d="m 32.799051,134.40584 2.62934,-2.82511 3.176043,2.7098"
           id="path43" /><path
           style="fill:none;stroke:#000000;stroke-width:0.1;stroke-linecap:round;stroke-linejoin:round;stroke-dasharray:none"
           d="m 37.660704,127.58592 -2.096643,3.91674 4.748087,1.18462"
           id="path44" /><path
           style="fill:none;stroke:#000000;stroke-width:0.1;stroke-linecap:round;stroke-linejoin:round;stroke-dasharray:none"
           d="m 30.814258,129.89524 4.630963,1.55335 -3.29954,-3.14275"
           id="path45" /></g><path
         style="fill:none;stroke:#000000;stroke-width:0.1;stroke-linecap:round;stroke-linejoin:round;stroke-dasharray:none"
         d="m 26.585643,132.08417 -0.812318,-0.29021"
         id="path46" /></g></g></svg>
