<?xml version="1.0" encoding="UTF-8" standalone="no"?>
<!-- Created with Inkscape (http://www.inkscape.org/) -->

<svg
   width="179.72832mm"
   height="84.599152mm"
   viewBox="0 0 179.72832 84.599152"
   version="1.1"
   id="svg1"
   xml:space="preserve"
   xmlns="http://www.w3.org/2000/svg"
   xmlns:svg="http://www.w3.org/2000/svg"><defs
     id="defs1" /><g
     id="layer2"
     transform="translate(-13.576815,-94.849523)"><path
       style="fill:none;stroke:#000000;stroke-width:0.239"
       d="m 13.703057,95.207869 v 66.414321 c 0,0 1.511704,5.4153 6.406565,5.38197 4.894861,-0.0333 6.982963,-5.66255 6.982963,-5.66255 V 94.849525"
       id="path1" /><path
       style="fill:none;stroke:#000000;stroke-width:0.239"
       d="m 65.961245,95.607396 v 66.414324 c 0,0 1.511704,5.4153 6.406565,5.38197 4.894861,-0.0333 6.982963,-5.66255 6.982963,-5.66255 V 95.249052"
       id="path4" /><path
       style="fill:none;stroke:#000000;stroke-width:0.239"
       d="m 114.24486,95.207869 v 66.414321 c 0,0 1.51172,5.4153 6.40661,5.38197 4.89489,-0.0333 6.983,-5.66255 6.983,-5.66255 V 94.849525"
       id="path7" /><g
       id="g13"
       transform="translate(32.279181,1.0583333)"
       style="display:inline"><path
         id="path12"
         style="fill:none;stroke:#000000;stroke-width:0.239"
         d="m 36.568311,132.32164 a 2.7640233,0.97572303 0 0 0 -2.763656,0.97565 2.7640233,0.97572303 0 0 0 2.763656,0.97565 2.7640233,0.97572303 0 0 0 2.764172,-0.97565 2.7640233,0.97572303 0 0 0 -2.764172,-0.97565 z m 1.363741,1.97921 -2.209168,0.0636 2.984314,27.50943 1.261422,3.97443 0.510046,-4.11912 z" /></g><g
       id="g14"
       transform="translate(80.633011,1.0583333)"><path
         id="path13"
         style="fill:none;stroke:#000000;stroke-width:0.239"
         d="m 36.568311,132.32164 a 2.7640233,0.97572303 0 0 0 -2.763656,0.97565 2.7640233,0.97572303 0 0 0 2.763656,0.97565 2.7640233,0.97572303 0 0 0 2.764172,-0.97565 2.7640233,0.97572303 0 0 0 -2.764172,-0.97565 z m 1.363741,1.97921 -2.209168,0.0636 2.984314,27.50943 1.261422,3.97443 0.510046,-4.11912 z" /></g><text
       xml:space="preserve"
       style="font-size:4.23333px;fill:#1a1a1a;stroke:#000000;stroke-width:0.239"
       x="16.303822"
       y="173.20528"
       id="text16"><tspan
         id="tspan16"
         style="font-size:4.23333px;stroke-width:0.239"
         x="16.303822"
         y="173.20528">Air</tspan></text><text
       xml:space="preserve"
       style="font-size:4.23333px;fill:#1a1a1a;stroke:#000000;stroke-width:0.239"
       x="57.420174"
       y="173.716"
       id="text17"><tspan
         id="tspan17"
         style="font-size:4.23333px;stroke-width:0.239"
         x="57.420174"
         y="173.716">Couche d'huile </tspan><tspan
         style="font-size:4.23333px;stroke-width:0.239"
         x="57.420174"
         y="179.00766"
         id="tspan1">sur l'eau bouillie</tspan></text><text
       xml:space="preserve"
       style="font-size:4.23333px;fill:#1a1a1a;stroke:#000000;stroke-width:0.239"
       x="102.70469"
       y="173.15694"
       id="text18"><tspan
         id="tspan18"
         style="font-size:4.23333px;stroke-width:0.239"
         x="102.70469"
         y="173.15694">Air et chlorure de </tspan><tspan
         style="font-size:4.23333px;stroke-width:0.239"
         x="102.70469"
         y="178.44859"
         id="tspan2">calcium anhydre</tspan></text><g
       id="g12"
       transform="translate(-20.10834,1.0583333)"
       style="display:inline"><path
         id="path11"
         style="fill:none;stroke:#000000;stroke-width:0.239"
         d="m 36.568311,132.32164 a 2.7640233,0.97572303 0 0 0 -2.763656,0.97565 2.7640233,0.97572303 0 0 0 2.763656,0.97565 2.7640233,0.97572303 0 0 0 2.764172,-0.97565 2.7640233,0.97572303 0 0 0 -2.764172,-0.97565 z m 1.363741,1.97921 -2.209168,0.0636 2.984314,27.50943 1.261422,3.97443 0.510046,-4.11912 z" /></g><rect
       style="fill:#e6e6e6;stroke:#000000;stroke-width:0.239"
       id="rect19"
       width="13.294423"
       height="2.4642656"
       x="65.98111"
       y="129.98932" /><circle
       style="fill:none;stroke:#000000;stroke-width:0.239"
       id="path36"
       cx="123.16222"
       cy="162.35873"
       r="1.0811667" /><circle
       style="fill:none;stroke:#000000;stroke-width:0.239"
       id="circle36"
       cx="115.75388"
       cy="162.35873"
       r="1.0811667" /><circle
       style="fill:none;stroke:#000000;stroke-width:0.239"
       id="circle37"
       cx="122.63305"
       cy="159.18378"
       r="1.0811667" /><circle
       style="fill:none;stroke:#000000;stroke-width:0.239"
       id="circle38"
       cx="122.10388"
       cy="165.53369"
       r="1.0811667" /><path
       style="fill:none;stroke:#000000;stroke-width:0.239"
       d="m 167.16186,95.207869 v 66.414321 c 0,0 1.51172,5.4153 6.40661,5.38197 4.89489,-0.0333 6.983,-5.66255 6.983,-5.66255 V 94.849525"
       id="path31" /><path
       style="display:inline;fill:none;stroke:#000000;stroke-width:0.239"
       d="M 180.55094,143.39345 H 167.2575"
       id="path32" /><text
       xml:space="preserve"
       style="font-size:4.23333px;fill:#1a1a1a;stroke:#000000;stroke-width:0.239"
       x="160.23677"
       y="173.20528"
       id="text33"><tspan
         id="tspan33"
         style="font-size:4.23333px;stroke-width:0.239"
         x="160.23677"
         y="173.20528">Eau salee et air</tspan></text><g
       id="g37"
       transform="translate(133.35027,1.0583333)"
       style="display:inline"><path
         id="path37"
         style="fill:none;stroke:#000000;stroke-width:0.239"
         d="m 36.568311,132.32164 a 2.7640233,0.97572303 0 0 0 -2.763656,0.97565 2.7640233,0.97572303 0 0 0 2.763656,0.97565 2.7640233,0.97572303 0 0 0 2.764172,-0.97565 2.7640233,0.97572303 0 0 0 -2.764172,-0.97565 z m 1.363741,1.97921 -2.209168,0.0636 2.984314,27.50943 1.261422,3.97443 0.510046,-4.11912 z" /></g><circle
       style="fill:none;stroke:#000000;stroke-width:0.239"
       id="circle2"
       cx="115.75388"
       cy="159.18378"
       r="1.0811667" /><circle
       style="fill:none;stroke:#000000;stroke-width:0.239"
       id="circle3"
       cx="117.87053"
       cy="163.94621"
       r="1.0811667" /><circle
       style="fill:none;stroke:#000000;stroke-width:0.239"
       id="circle4"
       cx="123.69138"
       cy="163.94621"
       r="1.0811667" /><circle
       style="fill:none;stroke:#000000;stroke-width:0.239"
       id="circle5"
       cx="125.27886"
       cy="161.30042"
       r="1.0811667" /><circle
       style="fill:none;stroke:#000000;stroke-width:0.239"
       id="circle6"
       cx="119.98721"
       cy="160.2421"
       r="1.0811667" /><circle
       style="fill:none;stroke:#000000;stroke-width:0.239"
       id="circle7"
       cx="125.80804"
       cy="159.71294"
       r="1.0811667" /></g></svg>
