<?xml version="1.0" encoding="UTF-8" standalone="no"?>
<!-- Created with Inkscape (http://www.inkscape.org/) -->

<svg
   width="207.00945mm"
   height="92.42173mm"
   viewBox="0 0 207.00945 92.42173"
   version="1.1"
   id="svg1"
   xml:space="preserve"
   xmlns="http://www.w3.org/2000/svg"
   xmlns:svg="http://www.w3.org/2000/svg"><defs
     id="defs1"><marker
       style="overflow:visible"
       id="RoundedArrow"
       refX="0"
       refY="0"
       orient="auto-start-reverse"
       markerWidth="1"
       markerHeight="1"
       viewBox="0 0 1 1"
       preserveAspectRatio="xMidYMid"><path
         transform="scale(0.7)"
         d="m -0.21114562,-4.1055728 6.42229122,3.21114561 a 1,1 90 0 1 0,1.78885438 L -0.21114562,4.1055728 A 1.236068,1.236068 31.717474 0 1 -2,3 v -6 a 1.236068,1.236068 148.28253 0 1 1.78885438,-1.1055728 z"
         style="fill:context-stroke;fill-rule:evenodd;stroke:none"
         id="path8" /></marker></defs><g
     id="layer2"
     transform="translate(-1.9061346,-81.473714)"><path
       style="fill:none;stroke:#000000;stroke-width:0.239"
       d="m 13.703057,95.207869 v 66.414321 c 0,0 1.511704,5.4153 6.406565,5.38197 4.894861,-0.0333 6.982963,-5.66255 6.982963,-5.66255 V 94.849525"
       id="path1" /><path
       style="display:inline;fill:none;stroke:#000000;stroke-width:0.239"
       d="M 27.092058,143.39345 H 13.798685"
       id="path2" /><path
       style="fill:#cccccc;stroke:#000000;stroke-width:0.239"
       d="m 29.074504,89.893147 -4.217098,9.472448 -9.058934,0.0909 -4.308525,-9.92274 z"
       id="path3" /><path
       style="fill:none;stroke:#000000;stroke-width:0.239"
       d="m 65.961245,95.607396 v 66.414324 c 0,0 1.511704,5.4153 6.406565,5.38197 4.894861,-0.0333 6.982963,-5.66255 6.982963,-5.66255 V 95.249052"
       id="path4" /><path
       style="fill:#cccccc;stroke:#000000;stroke-width:0.239"
       d="m 81.332688,90.292674 -4.217094,9.472448 -9.058934,0.0909 -4.308525,-9.92274 z"
       id="path6" /><path
       style="fill:none;stroke:#000000;stroke-width:0.239"
       d="m 114.24486,95.207869 v 66.414321 c 0,0 1.51172,5.4153 6.40661,5.38197 4.89489,-0.0333 6.983,-5.66255 6.983,-5.66255 V 94.849525"
       id="path7" /><path
       style="fill:#cccccc;stroke:#000000;stroke-width:0.239"
       d="m 129.6164,89.893147 -4.21712,9.472448 -9.05899,0.0909 -4.30855,-9.92274 z"
       id="path9" /><g
       id="g13"
       transform="translate(32.279181,1.0583333)"
       style="display:inline"><path
         id="path12"
         style="fill:none;stroke:#000000;stroke-width:0.239"
         d="m 36.568311,132.32164 a 2.7640233,0.97572303 0 0 0 -2.763656,0.97565 2.7640233,0.97572303 0 0 0 2.763656,0.97565 2.7640233,0.97572303 0 0 0 2.764172,-0.97565 2.7640233,0.97572303 0 0 0 -2.764172,-0.97565 z m 1.363741,1.97921 -2.209168,0.0636 2.984314,27.50943 1.261422,3.97443 0.510046,-4.11912 z" /></g><g
       id="g14"
       transform="translate(80.633011,1.0583333)"><path
         id="path13"
         style="fill:none;stroke:#000000;stroke-width:0.239"
         d="m 36.568311,132.32164 a 2.7640233,0.97572303 0 0 0 -2.763656,0.97565 2.7640233,0.97572303 0 0 0 2.763656,0.97565 2.7640233,0.97572303 0 0 0 2.764172,-0.97565 2.7640233,0.97572303 0 0 0 -2.764172,-0.97565 z m 1.363741,1.97921 -2.209168,0.0636 2.984314,27.50943 1.261422,3.97443 0.510046,-4.11912 z" /></g><text
       xml:space="preserve"
       style="font-size:4.23333px;fill:#1a1a1a;stroke:#000000;stroke-width:0.239"
       x="12.599658"
       y="173.20528"
       id="text16"><tspan
         id="tspan16"
         style="font-size:4.23333px;stroke-width:0.239"
         x="12.599658"
         y="173.20528">Tube A</tspan></text><text
       xml:space="preserve"
       style="font-size:4.23333px;fill:#1a1a1a;stroke:#000000;stroke-width:0.239"
       x="64.299347"
       y="173.716"
       id="text17"><tspan
         id="tspan17"
         style="font-size:4.23333px;stroke-width:0.239"
         x="64.299347"
         y="173.716">Tube B</tspan></text><text
       xml:space="preserve"
       style="font-size:4.23333px;fill:#1a1a1a;stroke:#000000;stroke-width:0.239"
       x="114.34634"
       y="173.15694"
       id="text18"><tspan
         id="tspan18"
         style="font-size:4.23333px;stroke-width:0.239"
         x="114.34634"
         y="173.15694">Tube C</tspan></text><path
       style="fill:#1a1a1a;stroke:#000000;stroke-width:0.239;marker-start:url(#RoundedArrow)"
       d="m 22.736076,118.04567 h 11.65193"
       id="path18" /><text
       xml:space="preserve"
       style="font-size:4.23333px;fill:#1a1a1a;stroke:#000000;stroke-width:0.239"
       x="35.462147"
       y="119.50112"
       id="text19"><tspan
         id="tspan19"
         style="font-size:4.23333px;stroke-width:0.239"
         x="35.462147"
         y="119.50112">Air</tspan></text><g
       id="g12"
       transform="translate(-20.10834,1.0583333)"
       style="display:inline"><path
         id="path11"
         style="fill:none;stroke:#000000;stroke-width:0.239"
         d="m 36.568311,132.32164 a 2.7640233,0.97572303 0 0 0 -2.763656,0.97565 2.7640233,0.97572303 0 0 0 2.763656,0.97565 2.7640233,0.97572303 0 0 0 2.764172,-0.97565 2.7640233,0.97572303 0 0 0 -2.764172,-0.97565 z m 1.363741,1.97921 -2.209168,0.0636 2.984314,27.50943 1.261422,3.97443 0.510046,-4.11912 z" /></g><rect
       style="fill:#e6e6e6;stroke:#000000;stroke-width:0.239"
       id="rect19"
       width="13.294423"
       height="2.4642656"
       x="65.98111"
       y="129.98932" /><path
       style="fill:#1a1a1a;stroke:#000000;stroke-width:0.239;marker-start:url(#RoundedArrow)"
       d="m 24.323577,149.79587 h 11.65193"
       id="path20" /><text
       xml:space="preserve"
       style="font-size:4.23333px;fill:#e6e6e6;stroke:#000000;stroke-width:0.239"
       x="36.992725"
       y="151.25177"
       id="text20"><tspan
         id="tspan20"
         style="fill:#1a1a1a;stroke-width:0.239"
         x="36.992725"
         y="151.25177">Eau</tspan></text><text
       xml:space="preserve"
       style="font-size:4.23333px;fill:#1a1a1a;stroke:#000000;stroke-width:0.239"
       x="82.732315"
       y="132.78607"
       id="text21"><tspan
         id="tspan21"
         style="stroke-width:0.239"
         x="82.732315"
         y="132.78607">Huile</tspan></text><path
       style="fill:#1a1a1a;stroke:#000000;stroke-width:0.190762;marker-start:url(#RoundedArrow)"
       d="m 74.916018,131.27492 h 7.423074"
       id="path21" /><path
       style="display:inline;fill:#1a1a1a;stroke:#000000;stroke-width:0.239;marker-start:url(#RoundedArrow)"
       d="M 76.181943,149.79587 H 87.833869"
       id="path22" /><text
       xml:space="preserve"
       style="font-size:4.23333px;fill:#e6e6e6;stroke:#000000;stroke-width:0.239"
       x="88.851089"
       y="149.13513"
       id="text22"><tspan
         id="tspan22"
         style="fill:#1a1a1a;stroke-width:0.239"
         x="88.851089"
         y="149.13513">Eau </tspan><tspan
         style="fill:#1a1a1a;stroke-width:0.239"
         x="88.851089"
         y="154.42679"
         id="tspan34">bouillante</tspan></text><path
       style="fill:#1a1a1a;stroke:#000000;stroke-width:0.239;marker-start:url(#RoundedArrow)"
       d="m 122.74876,118.04567 h 11.652"
       id="path23" /><text
       xml:space="preserve"
       style="font-size:4.23333px;fill:#1a1a1a;stroke:#000000;stroke-width:0.239"
       x="135.47459"
       y="119.50112"
       id="text23"><tspan
         id="tspan23"
         style="font-size:4.23333px;stroke-width:0.239"
         x="135.47459"
         y="119.50112">Air sec</tspan></text><text
       xml:space="preserve"
       style="font-size:4.23333px;fill:#e6e6e6;stroke:#000000;stroke-width:0.239"
       x="31.75956"
       y="158.85266"
       id="text24"><tspan
         id="tspan24"
         style="fill:#1a1a1a;stroke-width:0.239"
         x="31.75956"
         y="158.85266">Clou rouillé</tspan></text><path
       style="fill:#1a1a1a;stroke:#000000;stroke-width:0.213505;marker-start:url(#RoundedArrow)"
       d="m 20.661803,157.20425 h 9.298576"
       id="path24" /><path
       id="path26"
       style="display:inline;fill:#1a1a1a;stroke:#000000;stroke-width:0.177731"
       d="m 18.499713,149.86372 a 0.41113461,0.41113489 0 0 1 -0.411134,0.41113 0.41113461,0.41113489 0 0 1 -0.411134,-0.41113 0.41113461,0.41113489 0 0 1 0.411134,-0.41114 0.41113461,0.41113489 0 0 1 0.411134,0.41114 z" /><path
       id="path27"
       style="display:inline;fill:#1a1a1a;stroke:#000000;stroke-width:0.177731"
       d="m 19.02888,153.03874 a 0.41113461,0.41113489 0 0 1 -0.411134,0.41113 0.41113461,0.41113489 0 0 1 -0.411134,-0.41113 0.41113461,0.41113489 0 0 1 0.411134,-0.41114 0.41113461,0.41113489 0 0 1 0.411134,0.41114 z" /><path
       id="path28"
       style="display:inline;fill:#1a1a1a;stroke:#000000;stroke-width:0.177731"
       d="m 19.228788,156.31401 a 0.41113461,0.41113489 0 0 1 -0.411134,0.41113 0.41113461,0.41113489 0 0 1 -0.411134,-0.41113 0.41113461,0.41113489 0 0 1 0.411134,-0.41114 0.41113461,0.41113489 0 0 1 0.411134,0.41114 z" /><path
       id="path29"
       style="display:inline;fill:#1a1a1a;stroke:#000000;stroke-width:0.177731"
       d="m 19.628788,159.48903 a 0.41113461,0.41113489 0 0 1 -0.411134,0.41113 0.41113461,0.41113489 0 0 1 -0.411134,-0.41113 0.41113461,0.41113489 0 0 1 0.411134,-0.41114 0.41113461,0.41113489 0 0 1 0.411134,0.41114 z" /><text
       xml:space="preserve"
       style="font-size:4.23333px;fill:#e6e6e6;stroke:#000000;stroke-width:0.239"
       x="139.52182"
       y="157.17377"
       id="text35"><tspan
         id="tspan35"
         style="fill:#1a1a1a;stroke-width:0.239"
         x="139.52182"
         y="157.17377">chlorure de </tspan><tspan
         style="fill:#1a1a1a;stroke-width:0.239"
         x="139.52182"
         y="162.46542"
         id="tspan36">calcium </tspan><tspan
         style="fill:#1a1a1a;stroke-width:0.239"
         x="139.52182"
         y="167.7571"
         id="tspan38">anhydre</tspan></text><circle
       style="fill:none;stroke:#000000;stroke-width:0.239"
       id="path36"
       cx="124.22055"
       cy="161.30042"
       r="1.0811667" /><circle
       style="fill:none;stroke:#000000;stroke-width:0.239"
       id="circle36"
       cx="116.81222"
       cy="161.30042"
       r="1.0811667" /><circle
       style="fill:none;stroke:#000000;stroke-width:0.239"
       id="circle37"
       cx="123.69138"
       cy="157.06714"
       r="1.0811667" /><circle
       style="fill:none;stroke:#000000;stroke-width:0.239"
       id="circle38"
       cx="123.16222"
       cy="164.47537"
       r="1.0811667" /><path
       style="fill:#1a1a1a;stroke:#000000;stroke-width:0.239;marker-start:url(#RoundedArrow)"
       d="m 126.98212,160.90844 h 11.652"
       id="path38" /><text
       xml:space="preserve"
       style="font-size:3.175px;fill:none;stroke:#000000;stroke-width:0.239"
       x="1.7527831"
       y="84.132599"
       id="text39"><tspan
         style="font-size:3.175px;fill:#1a1a1a;stroke-width:0.239"
         x="1.7527831"
         y="84.132599"
         id="tspan40">(exposé à l’air et à l’eau)</tspan></text><text
       xml:space="preserve"
       style="font-size:3.175px;fill:none;stroke:#000000;stroke-width:0.239"
       x="48.920448"
       y="84.778099"
       id="text39-0"><tspan
         style="font-size:3.175px;fill:#1a1a1a;stroke-width:0.239"
         x="48.920448"
         y="84.778099"
         id="tspan40-9">(exposé uniquement à l’eau)</tspan></text><text
       xml:space="preserve"
       style="font-size:3.175px;fill:none;stroke:#000000;stroke-width:0.239"
       x="101.062"
       y="85.344978"
       id="text39-6"><tspan
         style="font-size:3.175px;fill:#1a1a1a;stroke-width:0.239"
         x="101.062"
         y="85.344978"
         id="tspan40-2">(exposé uniquement à l’air)</tspan></text><path
       style="fill:none;stroke:#000000;stroke-width:0.239"
       d="m 167.16186,95.207869 v 66.414321 c 0,0 1.51172,5.4153 6.40661,5.38197 4.89489,-0.0333 6.983,-5.66255 6.983,-5.66255 V 94.849525"
       id="path31" /><path
       style="display:inline;fill:none;stroke:#000000;stroke-width:0.239"
       d="M 180.55094,143.39345 H 167.2575"
       id="path32" /><path
       style="fill:#cccccc;stroke:#000000;stroke-width:0.239"
       d="m 182.5334,89.893147 -4.21712,9.472448 -9.05899,0.0909 -4.30855,-9.92274 z"
       id="path33" /><text
       xml:space="preserve"
       style="font-size:4.23333px;fill:#1a1a1a;stroke:#000000;stroke-width:0.239"
       x="166.05753"
       y="173.20528"
       id="text33"><tspan
         id="tspan33"
         style="font-size:4.23333px;stroke-width:0.239"
         x="166.05753"
         y="173.20528">Tube A</tspan></text><path
       style="fill:#1a1a1a;stroke:#000000;stroke-width:0.239;marker-start:url(#RoundedArrow)"
       d="m 176.19493,118.04567 h 11.652"
       id="path34" /><text
       xml:space="preserve"
       style="font-size:4.23333px;fill:#1a1a1a;stroke:#000000;stroke-width:0.239"
       x="188.91971"
       y="119.50112"
       id="text37"><tspan
         id="tspan37"
         style="font-size:4.23333px;stroke-width:0.239"
         x="188.91971"
         y="119.50112">Air</tspan></text><g
       id="g37"
       transform="translate(133.35027,1.0583333)"
       style="display:inline"><path
         id="path37"
         style="fill:none;stroke:#000000;stroke-width:0.239"
         d="m 36.568311,132.32164 a 2.7640233,0.97572303 0 0 0 -2.763656,0.97565 2.7640233,0.97572303 0 0 0 2.763656,0.97565 2.7640233,0.97572303 0 0 0 2.764172,-0.97565 2.7640233,0.97572303 0 0 0 -2.764172,-0.97565 z m 1.363741,1.97921 -2.209168,0.0636 2.984314,27.50943 1.261422,3.97443 0.510046,-4.11912 z" /></g><path
       style="fill:#1a1a1a;stroke:#000000;stroke-width:0.239;marker-start:url(#RoundedArrow)"
       d="m 177.78244,149.79587 h 11.652"
       id="path39" /><text
       xml:space="preserve"
       style="font-size:4.23333px;fill:#e6e6e6;stroke:#000000;stroke-width:0.239"
       x="190.45023"
       y="148.07681"
       id="text40"><tspan
         id="tspan39"
         style="fill:#1a1a1a;stroke-width:0.239"
         x="190.45023"
         y="148.07681">Eau</tspan><tspan
         style="fill:#1a1a1a;stroke-width:0.239"
         x="190.45023"
         y="153.36847"
         id="tspan50">salee</tspan></text><text
       xml:space="preserve"
       style="font-size:4.23333px;fill:#e6e6e6;stroke:#000000;stroke-width:0.239"
       x="185.21718"
       y="158.85266"
       id="text41"><tspan
         id="tspan41"
         style="fill:#1a1a1a;stroke-width:0.239"
         x="185.21718"
         y="158.85266">Clou rouillé</tspan></text><path
       style="fill:#1a1a1a;stroke:#000000;stroke-width:0.213505;marker-start:url(#RoundedArrow)"
       d="m 174.12065,157.20425 h 9.29863"
       id="path41" /><path
       id="path42"
       style="display:inline;fill:#1a1a1a;stroke:#000000;stroke-width:0.177731"
       d="m 171.95855,149.86372 a 0.41113461,0.41113489 0 0 1 -0.41114,0.41113 0.41113461,0.41113489 0 0 1 -0.41113,-0.41113 0.41113461,0.41113489 0 0 1 0.41113,-0.41114 0.41113461,0.41113489 0 0 1 0.41114,0.41114 z" /><path
       id="path43"
       style="display:inline;fill:#1a1a1a;stroke:#000000;stroke-width:0.177731"
       d="m 172.48772,153.03874 a 0.41113461,0.41113489 0 0 1 -0.41114,0.41113 0.41113461,0.41113489 0 0 1 -0.41113,-0.41113 0.41113461,0.41113489 0 0 1 0.41113,-0.41114 0.41113461,0.41113489 0 0 1 0.41114,0.41114 z" /><path
       id="path44"
       style="display:inline;fill:#1a1a1a;stroke:#000000;stroke-width:0.177731"
       d="m 172.68763,156.31401 a 0.41113461,0.41113489 0 0 1 -0.41114,0.41113 0.41113461,0.41113489 0 0 1 -0.41114,-0.41113 0.41113461,0.41113489 0 0 1 0.41114,-0.41114 0.41113461,0.41113489 0 0 1 0.41114,0.41114 z" /><path
       id="path45"
       style="display:inline;fill:#1a1a1a;stroke:#000000;stroke-width:0.177731"
       d="m 173.08763,159.48903 a 0.41113461,0.41113489 0 0 1 -0.41114,0.41113 0.41113461,0.41113489 0 0 1 -0.41113,-0.41113 0.41113461,0.41113489 0 0 1 0.41113,-0.41114 0.41113461,0.41113489 0 0 1 0.41114,0.41114 z" /><text
       xml:space="preserve"
       style="font-size:3.175px;fill:none;stroke:#000000;stroke-width:0.239"
       x="155.2108"
       y="84.132599"
       id="text45"><tspan
         style="font-size:3.175px;fill:#1a1a1a;stroke-width:0.239"
         x="155.2108"
         y="84.132599"
         id="tspan45">(exposé à l’air et à l’eau)</tspan></text><path
       id="path46"
       style="display:inline;fill:#1a1a1a;stroke:#000000;stroke-width:0.177731"
       d="m 171.95855,146.6887 a 0.41113461,0.41113489 0 0 1 -0.41114,0.41113 0.41113461,0.41113489 0 0 1 -0.41113,-0.41113 0.41113461,0.41113489 0 0 1 0.41113,-0.41114 0.41113461,0.41113489 0 0 1 0.41114,0.41114 z" /><path
       id="path47"
       style="display:inline;fill:#1a1a1a;stroke:#000000;stroke-width:0.177731"
       d="m 173.08763,162.13488 a 0.41113461,0.41113489 0 0 1 -0.41114,0.41113 0.41113461,0.41113489 0 0 1 -0.41113,-0.41113 0.41113461,0.41113489 0 0 1 0.41113,-0.41114 0.41113461,0.41113489 0 0 1 0.41114,0.41114 z" /><path
       id="path48"
       style="display:inline;fill:#1a1a1a;stroke:#000000;stroke-width:0.177731"
       d="m 173.08763,158.43069 a 0.41113461,0.41113489 0 0 1 -0.41114,0.41113 0.41113461,0.41113489 0 0 1 -0.41113,-0.41113 0.41113461,0.41113489 0 0 1 0.41113,-0.41114 0.41113461,0.41113489 0 0 1 0.41114,0.41114 z" /><path
       id="path49"
       style="display:inline;fill:#1a1a1a;stroke:#000000;stroke-width:0.177731"
       d="m 172.48772,154.09708 a 0.41113461,0.41113489 0 0 1 -0.41114,0.41113 0.41113461,0.41113489 0 0 1 -0.41113,-0.41113 0.41113461,0.41113489 0 0 1 0.41113,-0.41114 0.41113461,0.41113489 0 0 1 0.41114,0.41114 z" /><path
       id="path50"
       style="display:inline;fill:#1a1a1a;stroke:#000000;stroke-width:0.177731"
       d="m 171.95855,147.74704 a 0.41113461,0.41113489 0 0 1 -0.41114,0.41113 0.41113461,0.41113489 0 0 1 -0.41113,-0.41113 0.41113461,0.41113489 0 0 1 0.41113,-0.41114 0.41113461,0.41113489 0 0 1 0.41114,0.41114 z" /><path
       id="path51"
       style="display:inline;fill:#1a1a1a;stroke:#000000;stroke-width:0.177731"
       d="m 172.48772,151.9804 a 0.41113461,0.41113489 0 0 1 -0.41114,0.41113 0.41113461,0.41113489 0 0 1 -0.41113,-0.41113 0.41113461,0.41113489 0 0 1 0.41113,-0.41114 0.41113461,0.41113489 0 0 1 0.41114,0.41114 z" /><path
       id="path52"
       style="display:inline;fill:#1a1a1a;stroke:#000000;stroke-width:0.177731"
       d="m 173.08763,161.07654 a 0.41113461,0.41113489 0 0 1 -0.41114,0.41113 0.41113461,0.41113489 0 0 1 -0.41113,-0.41113 0.41113461,0.41113489 0 0 1 0.41113,-0.41114 0.41113461,0.41113489 0 0 1 0.41114,0.41114 z" /></g></svg>
