<?xml version="1.0" encoding="UTF-8" standalone="no"?>
<!-- Created with Inkscape (http://www.inkscape.org/) -->

<svg
   width="183.17189mm"
   height="89.376297mm"
   viewBox="0 0 183.17189 89.376297"
   version="1.1"
   id="svg1"
   xml:space="preserve"
   xmlns="http://www.w3.org/2000/svg"
   xmlns:svg="http://www.w3.org/2000/svg"><defs
     id="defs1" /><g
     id="layer2"
     transform="translate(-3.6640187,-134.26022)"><path
       style="fill:none;stroke:#000000;stroke-width:0.239"
       d="M 156.97829,140.05765 V 206.472 c 0,0 1.51171,5.4153 6.4066,5.38197 4.89489,-0.0333 6.983,-5.66255 6.983,-5.66255 V 139.6993"
       id="path4" /><path
       style="fill:#cccccc;stroke:#000000;stroke-width:0.239"
       d="m 172.34982,134.7429 -4.21712,9.4725 -9.05898,0.0909 -4.30855,-9.9228 z"
       id="path6" /><path
       style="fill:none;stroke:#000000;stroke-width:0.239"
       d="m 13.173885,140.71646 v 66.41435 c 0,0 1.511711,5.4153 6.406571,5.38197 4.894863,-0.0333 6.982961,-5.66255 6.982961,-5.66255 v -66.49212"
       id="path7" /><path
       style="fill:#cccccc;stroke:#000000;stroke-width:0.239"
       d="m 28.545338,135.40171 -4.217096,9.4725 -9.058939,0.0909 -4.308526,-9.9228 z"
       id="path9" /><g
       id="g14"
       transform="translate(-20.437874,46.56669)"
       style="fill:#e6e6e6"><path
         id="path13"
         style="fill:#e6e6e6;stroke:#000000;stroke-width:0.239"
         d="m 36.568311,132.32164 a 2.7640233,0.97572303 0 0 0 -2.763656,0.97565 2.7640233,0.97572303 0 0 0 2.763656,0.97565 2.7640233,0.97572303 0 0 0 2.764172,-0.97565 2.7640233,0.97572303 0 0 0 -2.764172,-0.97565 z m 1.363741,1.97921 -2.209168,0.0636 2.984314,27.50943 1.261422,3.97443 0.510046,-4.11912 z" /></g><text
       xml:space="preserve"
       style="font-size:4.23333px;fill:#1a1a1a;stroke:#000000;stroke-width:0.239"
       x="147.37828"
       y="218.16541"
       id="text17"><tspan
         id="tspan17"
         style="font-size:4.23333px;stroke-width:0.239"
         x="147.37828"
         y="218.16541">Couche d'huile sur </tspan><tspan
         style="font-size:4.23333px;stroke-width:0.239"
         x="147.37828"
         y="223.45706"
         id="tspan1">l'eau bouillie</tspan></text><text
       xml:space="preserve"
       style="font-size:4.23333px;fill:#1a1a1a;stroke:#000000;stroke-width:0.239"
       x="3.7504458"
       y="217.07719"
       id="text18"><tspan
         id="tspan18"
         style="font-size:4.23333px;stroke-width:0.239"
         x="3.7504458"
         y="217.07719">Air et chlorure de </tspan><tspan
         style="font-size:4.23333px;stroke-width:0.239"
         x="3.7504458"
         y="222.36885"
         id="tspan3">calcium anhydre</tspan></text><rect
       style="fill:#cccccc;stroke:#000000;stroke-width:0.239"
       id="rect19"
       width="13.294423"
       height="2.4642656"
       x="156.99741"
       y="174.43875" /><circle
       style="fill:none;stroke:#000000;stroke-width:0.239"
       id="path36"
       cx="23.149635"
       cy="206.80812"
       r="1.0811667" /><circle
       style="fill:none;stroke:#000000;stroke-width:0.239"
       id="circle36"
       cx="15.741296"
       cy="206.80812"
       r="1.0811667" /><circle
       style="fill:none;stroke:#000000;stroke-width:0.239"
       id="circle37"
       cx="22.620468"
       cy="205.22064"
       r="1.0811667" /><circle
       style="fill:none;stroke:#000000;stroke-width:0.239"
       id="circle38"
       cx="22.091301"
       cy="209.98308"
       r="1.0811667" /><path
       style="fill:none;stroke:#000000;stroke-width:0.239"
       d="m 93.607269,140.71646 v 66.41435 c 0,0 1.511711,5.4153 6.406571,5.38197 4.89489,-0.0333 6.983,-5.66255 6.983,-5.66255 v -66.49212"
       id="path31" /><text
       xml:space="preserve"
       style="font-size:4.23333px;fill:#1a1a1a;stroke:#000000;stroke-width:0.239"
       x="82.978867"
       y="218.713"
       id="text33"><tspan
         id="tspan33"
         style="font-size:4.23333px;stroke-width:0.239"
         x="82.978867"
         y="218.713">Eau salee et air</tspan></text><circle
       style="fill:none;stroke:#000000;stroke-width:0.239"
       id="circle1"
       cx="17.328796"
       cy="209.45392"
       r="1.0811667" /><circle
       style="fill:none;stroke:#000000;stroke-width:0.239"
       id="circle2"
       cx="18.916298"
       cy="209.45392"
       r="1.0811667" /><circle
       style="fill:none;stroke:#000000;stroke-width:0.239"
       id="circle3"
       cx="18.916298"
       cy="208.3956"
       r="1.0811667" /><circle
       style="fill:none;stroke:#000000;stroke-width:0.239"
       id="circle4"
       cx="15.21213"
       cy="208.3956"
       r="1.0811667" /><circle
       style="fill:none;stroke:#000000;stroke-width:0.239"
       id="circle5"
       cx="19.974632"
       cy="205.7498"
       r="1.0811667" /><circle
       style="fill:none;stroke:#000000;stroke-width:0.239"
       id="circle6"
       cx="23.678802"
       cy="205.7498"
       r="1.0811667" /><circle
       style="fill:none;stroke:#000000;stroke-width:0.239"
       id="circle7"
       cx="14.153797"
       cy="205.7498"
       r="1.0811667" /><circle
       style="fill:none;stroke:#000000;stroke-width:0.239"
       id="circle8"
       cx="19.445465"
       cy="210.51224"
       r="1.0811667" /><circle
       style="fill:none;stroke:#000000;stroke-width:0.239"
       id="circle9"
       cx="21.032967"
       cy="205.22064"
       r="1.0811667" /><circle
       style="fill:none;stroke:#000000;stroke-width:0.239"
       id="circle10"
       cx="21.032967"
       cy="206.27896"
       r="1.0811667" /><circle
       style="fill:none;stroke:#000000;stroke-width:0.239"
       id="circle11"
       cx="21.562134"
       cy="207.33728"
       r="1.0811667" /><circle
       style="fill:none;stroke:#000000;stroke-width:0.239"
       id="circle12"
       cx="15.741296"
       cy="206.27896"
       r="1.0811667" /><circle
       style="fill:none;stroke:#000000;stroke-width:0.239"
       id="circle13"
       cx="15.741296"
       cy="208.3956"
       r="1.0811667" /><circle
       style="fill:none;stroke:#000000;stroke-width:0.239"
       id="circle14"
       cx="17.328796"
       cy="208.3956"
       r="1.0811667" /><path
       style="fill:#e6e6e6;stroke:#000000;stroke-width:0.243008;stroke-linecap:round;stroke-linejoin:round"
       d="m 98.062951,211.88804 c -1.379363,-0.52465 -2.708749,-1.81016 -3.526436,-3.41003 -0.647239,-1.26638 -0.648528,-1.28685 -0.648528,-10.29002 v -9.02111 h 6.456483 6.45648 v 8.75651 c 0,9.66229 0.0503,9.33715 -1.79891,11.62025 -1.82639,2.25489 -4.65866,3.21179 -6.939089,2.3444 z"
       id="path25" /><g
       id="g37"
       transform="translate(59.795868,46.56669)"
       style="display:inline;fill:#e6e6e6"><path
         id="path37"
         style="fill:#e6e6e6;stroke:#000000;stroke-width:0.239"
         d="m 36.568311,132.32164 a 2.7640233,0.97572303 0 0 0 -2.763656,0.97565 2.7640233,0.97572303 0 0 0 2.763656,0.97565 2.7640233,0.97572303 0 0 0 2.764172,-0.97565 2.7640233,0.97572303 0 0 0 -2.764172,-0.97565 z m 1.363741,1.97921 -2.209168,0.0636 2.984314,27.50943 1.261422,3.97443 0.510046,-4.11912 z" /></g><path
       style="fill:#e6e6e6;stroke:#000000;stroke-width:0.243008;stroke-linecap:round;stroke-linejoin:round"
       d="m 160.84716,210.97767 c -1.20055,-0.63453 -2.57552,-2.17365 -3.23091,-3.61661 -0.46318,-1.01978 -0.49714,-2.07967 -0.50265,-15.68801 l -0.006,-14.59433 h 6.45648 6.45648 v 14.70529 14.7053 l -0.83033,1.29396 c -0.97746,1.52323 -2.41032,2.84318 -3.64755,3.36014 -1.26291,0.52767 -3.53544,0.44746 -4.69561,-0.16574 z"
       id="path30" /><g
       id="g13"
       transform="translate(123.29604,45.508356)"
       style="display:inline;fill:#e6e6e6"><path
         id="path12"
         style="fill:#e6e6e6;stroke:#000000;stroke-width:0.239"
         d="m 36.568311,132.32164 a 2.7640233,0.97572303 0 0 0 -2.763656,0.97565 2.7640233,0.97572303 0 0 0 2.763656,0.97565 2.7640233,0.97572303 0 0 0 2.764172,-0.97565 2.7640233,0.97572303 0 0 0 -2.764172,-0.97565 z m 1.363741,1.97921 -2.209168,0.0636 2.984314,27.50943 1.261422,3.97443 0.510046,-4.11912 z" /></g></g></svg>
