<?xml version="1.0" encoding="UTF-8" standalone="no"?>
<!-- Created with Inkscape (http://www.inkscape.org/) -->

<svg
   width="49.894367mm"
   height="32.90694mm"
   viewBox="0 0 49.894367 32.90694"
   version="1.1"
   id="svg333"
   xml:space="preserve"
   xmlns="http://www.w3.org/2000/svg"
   xmlns:svg="http://www.w3.org/2000/svg"><defs
     id="defs330" /><g
     id="layer2"
     style="display:inline;stroke:#000000;stroke-opacity:1"
     transform="translate(-36.385255,-230.32807)"><g
       id="g6486"><path
         style="fill:none;stroke:#000000;stroke-width:0.2;stroke-dasharray:none;stroke-opacity:1"
         d="m 54.137895,232.34222 c 0.980905,5.10306 11.252062,10.00962 14.787404,7.41111 -0.666104,-5.07071 -11.508164,-10.25062 -14.787404,-7.41111 z"
         id="path6477" /><path
         style="fill:none;stroke:#000000;stroke-width:0.2;stroke-dasharray:none;stroke-opacity:1"
         d="m 57.750908,231.75194 c 0.289396,2.78659 7.69906,5.91958 9.668224,5.08976"
         id="path6479" /><path
         style="fill:none;stroke:#000000;stroke-width:0.2;stroke-dasharray:none;stroke-opacity:1"
         d="m 54.045418,232.24067 c 1.499764,-2.87368 7.473024,-1.77531 9.977297,-0.48765 2.765285,1.54218 5.86818,4.98917 5.067269,7.85028"
         id="path6481" /></g><path
       style="fill:#808080;stroke:#000000;stroke-width:0.057999;stroke-dasharray:none;stroke-opacity:1"
       d="m 65.94749,236.7946 c -1.663644,-0.22598 -4.072257,-1.1985 -5.750419,-2.32182 -0.921708,-0.61697 -1.824866,-1.51942 -2.081411,-2.07979 -0.297551,-0.64993 -0.27726,-0.66718 0.581059,-0.49391 2.323539,0.46905 5.250209,1.91032 7.198291,3.54486 0.655693,0.55015 1.365838,1.2543 1.313863,1.30276 -0.08172,0.0762 -0.840907,0.10502 -1.261383,0.0479 z"
       id="path6488" /><ellipse
       style="fill:none;stroke:#000000;stroke-width:0.207344;stroke-dasharray:none;stroke-opacity:1"
       id="path5390"
       cx="62.482246"
       cy="260.51086"
       rx="5.8323374"
       ry="2.6204731" /><path
       style="fill:none;stroke:#000000;stroke-width:0.2;stroke-dasharray:none;stroke-opacity:1"
       d="m 62.316645,235.00442 c -0.706402,0.69633 -0.989022,3.16863 -1.108588,4.66289 -0.09954,1.62623 0.276958,4.15936 0.276958,4.15936 l -0.394309,-0.0474 v 10.58832 l -0.283691,-0.0504 v 2.38568 c 0,0 -0.309874,-0.0239 -0.584095,0.56988 0.136168,0.53347 1.041623,0.82609 1.041623,0.82609 v 1.46422 c 0,0 0.683456,0.53099 1.061608,0.49095 0.592465,-0.0549 1.050693,-0.77429 1.050693,-0.77429 h 3.399983 l 0.240077,0.58534 3.485777,0.20905 0.130278,0.46165 1.540643,-1.43232 c -0.378333,-0.9861 -2.025968,-1.33328 -2.025968,-1.33328 l -3.371945,-0.265 0.03263,0.35147 H 63.448037 V 243.7799 l -0.450895,0.0902 c 0,0 0.473943,-3.73705 0.362003,-4.51921 0.09339,-1.23916 -0.539152,-3.6348 -1.0425,-4.34647 z"
       id="path5420" /><path
       style="fill:#cccccc;stroke:#000000;stroke-width:0.2;stroke-dasharray:none;stroke-opacity:1"
       d="m 61.077376,243.84472 c 0,0 0.461624,0.1711 1.164699,0.15886 0.603824,-0.008 1.181856,-0.23365 1.181856,-0.23365"
       id="path5422" /><path
       style="fill:none;stroke:#000000;stroke-width:0.2;stroke-dasharray:none;stroke-opacity:1"
       d="m 60.898518,254.27454 c 0,0 0.630517,0.4174 1.296043,0.447 0.620191,8.2e-4 1.237205,-0.55803 1.237205,-0.55803"
       id="path5424" /><path
       style="fill:#e6e6e6;stroke:#000000;stroke-width:0.109604;stroke-dasharray:none;stroke-opacity:1"
       d="m 267.0845,983.4428 c -0.0795,-0.20899 -0.14447,-0.47566 -0.14447,-0.59259 0,-0.11694 -0.0816,-0.24136 -0.18125,-0.2765 -0.17135,-0.0604 -11.95709,-0.79699 -12.75219,-0.79699 -0.33151,0 -0.42652,-0.131 -0.8413,-1.15998 l -0.46759,-1.15998 h -6.70636 -6.70636 l -0.41088,0.5929 c -0.89366,1.28955 -2.4034,2.31949 -3.42062,2.33353 -0.59793,0.008 -2.30411,-0.73501 -3.06979,-1.33729 l -0.38801,-0.30521 v -2.80716 c 0,-2.78545 -0.003,-2.8079 -0.32624,-2.90502 -0.58523,-0.17556 -2.05234,-0.95866 -2.57262,-1.37318 -0.27972,-0.22285 -0.62164,-0.59915 -0.75983,-0.83621 -0.24665,-0.42313 -0.24376,-0.44216 0.15751,-1.03964 0.48046,-0.71539 1.14986,-1.19644 1.50747,-1.0833 0.23794,0.0753 0.25374,-0.20031 0.25374,-4.4244 0,-2.47758 0.053,-4.50469 0.11786,-4.50469 0.0648,0 0.44032,0.15556 0.83444,0.34569 0.88333,0.42613 2.37028,0.88775 3.29278,1.02224 1.20574,0.17578 2.97186,-0.34767 4.36669,-1.29422 l 0.52306,-0.35497 v 6.73801 6.738 h 6.81659 6.81659 l -0.0927,-0.57999 c -0.11468,-0.71716 -0.76646,-0.70272 6.43094,-0.14246 4.84179,0.3769 5.79099,0.48948 6.84988,0.81246 1.48247,0.45217 3.12002,1.25867 4.22927,2.08293 0.8111,0.60271 1.78494,1.76834 1.69373,2.0273 -0.026,0.074 -1.14051,1.15287 -2.47659,2.39759 -2.40175,2.23752 -2.43086,2.25882 -2.5737,1.88313 z"
       id="path5564"
       transform="scale(0.26458333)" /><path
       style="fill:#e6e6e6;stroke:#000000;stroke-width:0.109604;stroke-dasharray:none;stroke-opacity:1"
       d="m 234.42633,962.18393 c -0.76371,-0.1137 -2.0014,-0.49408 -2.6119,-0.8027 l -0.39874,-0.20158 v -19.43091 -19.43091 l 0.76124,0.11375 c 0.41868,0.0626 1.77259,0.10663 3.00869,0.0979 1.79448,-0.0126 2.44472,-0.0745 3.22619,-0.30678 l 0.97873,-0.29097 v 19.19176 19.19177 l -0.61624,0.44953 c -1.53044,1.11643 -3.04993,1.61236 -4.34797,1.4191 z"
       id="path5566"
       transform="scale(0.26458333)" /><path
       style="fill:#e6e6e6;stroke:#000000;stroke-width:0.109604;stroke-dasharray:none;stroke-opacity:1"
       d="m 233.06718,993.95611 c -8.83644,-0.61091 -15.96444,-3.54674 -17.9824,-7.40647 -0.35122,-0.67178 -0.41067,-0.95343 -0.41067,-1.94548 0,-0.99341 0.0593,-1.27337 0.41279,-1.94964 1.37039,-2.62157 5.22134,-4.9124 10.47108,-6.22898 2.53473,-0.63569 4.67568,-0.94903 5.16897,-0.75651 l 0.39875,0.15562 v 2.74654 2.74654 l 0.87257,0.58268 c 2.29598,1.5332 3.57617,1.75431 5.18679,0.89586 0.5474,-0.29177 1.2522,-0.85107 1.77006,-1.40467 l 0.86049,-0.91986 h 6.14013 6.14013 l 0.43518,1.05123 0.43518,1.05123 2.19524,0.13009 2.19524,0.13008 0.15175,0.43529 c 0.0835,0.23941 0.15174,0.87188 0.15174,1.40548 0,2.91909 -3.14397,5.60463 -8.74734,7.47184 -4.38256,1.46041 -10.60828,2.17121 -15.84568,1.80913 z"
       id="path5570"
       transform="scale(0.26458333)" /><ellipse
       style="fill:#e6e6e6;stroke:#000000;stroke-width:0.2;stroke-dasharray:none;stroke-opacity:1"
       id="path5624"
       cx="62.340446"
       cy="256.40945"
       rx="0.51307577"
       ry="0.717125" /><path
       style="fill:#ff6600;stroke:#000000;stroke-width:0.109604;stroke-dasharray:none;stroke-opacity:1"
       d="m 232.81083,921.20409 c -0.2751,-0.93849 -0.92199,-7.96782 -1.04663,-11.37302 -0.1818,-4.96644 0.86999,-13.2976 2.22071,-17.59019 0.39647,-1.25996 1.2742,-3.11744 1.47311,-3.11744 0.34318,0 1.75424,3.91667 2.47355,6.86578 1.46496,6.00621 1.4927,10.03817 0.15174,22.04942 -0.16098,1.44194 -0.32299,2.75876 -0.36003,2.92626 -0.0596,0.26954 -0.20516,0.31527 -1.26625,0.39787 -0.6594,0.0513 -1.73282,0.0937 -2.38537,0.0942 -1.00541,7.3e-4 -1.1978,-0.0378 -1.26083,-0.25288 z"
       id="path5695"
       transform="scale(0.26458333)" /><text
       xml:space="preserve"
       style="font-weight:300;font-size:3.175px;font-family:Ubuntu;-inkscape-font-specification:'Ubuntu Light';text-align:center;text-anchor:middle;fill:#808080;stroke:#000000;stroke-width:0.2;stroke-dasharray:none;stroke-opacity:1"
       x="76.446686"
       y="254.12692"
       id="text6613"><tspan
         id="tspan6611"
         style="stroke-width:0.2"
         x="76.446686"
         y="254.12692">Virole Fermée</tspan></text><path
       style="fill:#808080;stroke:#000000;stroke-width:0.2;stroke-dasharray:none;stroke-opacity:1"
       d="m 66.207888,253.83856 -3.264178,2.38699"
       id="path6719" /><text
       xml:space="preserve"
       style="font-weight:300;font-size:3.175px;font-family:Ubuntu;-inkscape-font-specification:'Ubuntu Light';text-align:center;text-anchor:middle;fill:#808080;stroke:#000000;stroke-width:0.2;stroke-dasharray:none;stroke-opacity:1"
       x="46.070557"
       y="242.07622"
       id="text6769"><tspan
         id="tspan6767"
         style="stroke-width:0.2"
         x="46.070557"
         y="242.07622">Flamme jaune</tspan></text><text
       xml:space="preserve"
       style="font-weight:300;font-size:3.175px;font-family:Ubuntu;-inkscape-font-specification:'Ubuntu Light';text-align:center;text-anchor:middle;fill:#808080;stroke:#000000;stroke-width:0.2;stroke-dasharray:none;stroke-opacity:1"
       x="44.97554"
       y="234.42999"
       id="text6773"><tspan
         id="tspan6771"
         style="stroke-width:0.2"
         x="44.97554"
         y="234.42999">dépôt noir</tspan></text><path
       style="fill:#808080;stroke:#000000;stroke-width:0.2;stroke-dasharray:none;stroke-opacity:1"
       d="m 52.553938,233.85113 7.367119,-0.57297"
       id="path6775" /><path
       style="fill:#808080;stroke:#000000;stroke-width:0.2;stroke-dasharray:none;stroke-opacity:1"
       d="m 56.122569,241.31905 4.218747,-0.16809"
       id="path6777" /></g></svg>
