<?xml version="1.0" encoding="UTF-8" standalone="no"?>
<!-- Created with Inkscape (http://www.inkscape.org/) -->

<svg
   width="65.828506mm"
   height="49.168835mm"
   viewBox="0 0 65.828506 49.168835"
   version="1.1"
   id="svg333"
   xml:space="preserve"
   xmlns="http://www.w3.org/2000/svg"
   xmlns:svg="http://www.w3.org/2000/svg"><defs
     id="defs330" /><g
     id="layer2"
     style="display:inline;stroke:#000000;stroke-opacity:1"
     transform="translate(-35.441277,-71.47656)"><path
       style="fill:#cccccc;stroke:#000000;stroke-width:0.2;stroke-dasharray:none;stroke-opacity:1"
       d="m 43.122331,114.7444 v 5.801 h 12.244628 v -5.98011"
       id="path7017" /><ellipse
       style="fill:#cccccc;stroke:#000000;stroke-width:0.221745;stroke-dasharray:none;stroke-opacity:1"
       id="path7015"
       cx="49.169571"
       cy="114.63295"
       rx="6.1695948"
       ry="1.0477449" /><path
       style="fill:#808080;stroke:#000000;stroke-width:0.2;stroke-dasharray:none;stroke-opacity:1"
       d="m 45.7421,114.79034 c -3.17623,-9.78727 -3.025091,-16.964575 3.197471,-22.371575 7.834648,6.474405 6.745755,13.068755 4.200499,22.436535"
       id="path7082" /><path
       style="fill:#0000ff;stroke:#000000;stroke-width:0.057999;stroke-dasharray:none;stroke-opacity:1"
       d="m 45.846695,114.61842 c -0.0842,-0.13625 -0.690869,-2.24288 -0.994947,-3.45493 -0.702199,-2.79896 -0.9788,-4.78307 -0.984194,-7.0598 -0.01069,-4.517869 1.401736,-7.944403 4.536561,-11.005558 0.455359,-0.444661 0.471387,-0.452868 0.674172,-0.345276 0.312343,0.165727 2.163109,2.019367 2.714739,2.718957 1.780921,2.25861 2.674479,4.383767 2.997816,7.129727 0.112922,0.95899 0.04807,3.51535 -0.119864,4.72471 -0.06739,0.48531 -0.243441,1.4866 -0.391226,2.22511 -0.296725,1.48277 -1.165622,4.98776 -1.262192,5.09149 -0.03401,0.0365 -0.479256,0.0255 -1.000385,-0.0247 -1.049028,-0.10118 -4.6189,-0.11254 -5.544148,-0.0176 -0.329692,0.0338 -0.611542,0.0419 -0.626332,0.018 z"
       id="path7153" /><text
       xml:space="preserve"
       style="font-weight:300;font-size:3.175px;font-family:Ubuntu;-inkscape-font-specification:'Ubuntu Light';text-align:center;text-anchor:middle;fill:#cccccc;stroke:#000000;stroke-width:0.2;stroke-dasharray:none;stroke-opacity:1"
       x="70.659767"
       y="104.18676"
       id="text7177"><tspan
         id="tspan7175"
         style="stroke-width:0.2"
         x="70.659767"
         y="104.18676">Flamme bleue</tspan></text><path
       style="fill:#cccccc;stroke:#000000;stroke-width:0.2;stroke-dasharray:none;stroke-opacity:1"
       d="m 59.944713,103.15136 -4.514572,-0.0981"
       id="path7179" /><path
       id="rect7181"
       style="fill:none;stroke-width:0.354477"
       d="m 43.217434,71.694728 -4.263086,15.365271 -3.193681,3.684142 2.021148,0.541974 -0.0045,0.02018 15.239109,4.22805 5.441241,-19.611657 z" /><ellipse
       style="fill:none;stroke:#000000;stroke-width:0.2;stroke-dasharray:none;stroke-opacity:1"
       id="path7294"
       cx="73.252213"
       cy="70.647438"
       rx="0.10183378"
       ry="0.76716262"
       transform="rotate(12.978404)" /><ellipse
       style="display:inline;fill:none;stroke:#000000;stroke-width:0.2;stroke-dasharray:none;stroke-opacity:1"
       id="path7294-9"
       cx="73.178543"
       cy="72.864532"
       rx="0.10183378"
       ry="0.76716262"
       transform="rotate(12.978404)" /><ellipse
       style="display:inline;fill:#cccccc;stroke:#000000;stroke-width:0.2;stroke-dasharray:none;stroke-opacity:1"
       id="path7294-3"
       cx="73.076576"
       cy="75.629349"
       rx="0.10183378"
       ry="0.76716262"
       transform="rotate(12.978404)" /><text
       xml:space="preserve"
       style="font-weight:300;font-size:3.175px;font-family:Ubuntu;-inkscape-font-specification:'Ubuntu Light';text-align:center;text-anchor:middle;fill:#cccccc;stroke:#000000;stroke-width:0.2;stroke-dasharray:none;stroke-opacity:1"
       x="64.014923"
       y="88.641548"
       id="text7338"><tspan
         id="tspan7336"
         style="stroke-width:0.2"
         x="64.014923"
         y="88.641548">Buée</tspan><tspan
         style="stroke-width:0.2"
         x="64.014923"
         y="92.610298"
         id="tspan7455">(Eau)</tspan></text><path
       style="fill:#cccccc;stroke:#000000;stroke-width:0.2;stroke-dasharray:none;stroke-opacity:1"
       d="M 59.848453,87.618998 55.620935,87.50084"
       id="path7340" /><text
       xml:space="preserve"
       style="font-weight:300;font-size:3.175px;font-family:Ubuntu;-inkscape-font-specification:'Ubuntu Light';text-align:center;text-anchor:middle;fill:#cccccc;stroke:#000000;stroke-width:0.2;stroke-dasharray:none;stroke-opacity:1"
       x="92.28299"
       y="92.137054"
       id="text7373"><tspan
         id="tspan7371"
         style="stroke-width:0.2"
         x="92.28299"
         y="92.137054">Eau de chaux </tspan><tspan
         style="stroke-width:0.2"
         x="92.28299"
         y="96.105804"
         id="tspan7375">se trouble</tspan></text><g
       id="g7571"
       transform="translate(5.8208339,28.575012)"><rect
         style="fill:#cccccc;stroke:#000000;stroke-width:0.307126;stroke-dasharray:none;stroke-opacity:1"
         id="rect7369"
         width="15.831628"
         height="3.8699126"
         x="79.228836"
         y="87.916588" /><path
         id="rect7181-0"
         style="display:inline;fill:none;stroke:#000000;stroke-width:0.354477;stroke-opacity:1"
         d="m 79.22002,91.76127 -0.141,-15.945079 -2.131333,-4.385194 2.092552,-3.95e-4 8.77e-4,-0.02066 15.814149,-0.139811 0.179964,20.351703 z" /></g><path
       style="fill:#cccccc;stroke:#000000;stroke-width:0.258334;stroke-dasharray:none;stroke-opacity:1"
       d="m 92.525085,97.469924 0.194468,20.933906 -0.456172,-0.484 0.847975,-0.11979 -0.467888,0.86287"
       id="path7377" /></g></svg>
