<?xml version="1.0" encoding="UTF-8" standalone="no"?>
<!-- Created with Inkscape (http://www.inkscape.org/) -->

<svg
   width="81.177383mm"
   height="81.230186mm"
   viewBox="0 0 81.177383 81.230186"
   version="1.1"
   id="svg5"
   xml:space="preserve"
   xmlns="http://www.w3.org/2000/svg"
   xmlns:svg="http://www.w3.org/2000/svg"><defs
     id="defs2" /><g
     id="layer2"
     transform="translate(-72.909464,-74.780546)"><path
       style="fill:none;stroke:#000000;stroke-width:1;stroke-dasharray:none"
       d="m 89.557713,155.4146 c 0,0 3.089705,-23.73973 24.799027,-23.44503 22.35765,0.3035 24.2703,23.426 24.2703,23.426"
       id="path1765" /><path
       style="fill:none;stroke:#000000;stroke-width:1;stroke-dasharray:none"
       d="m 81.121455,155.27647 c 0,0 4.049604,-31.47304 32.034355,-31.52523 31.40151,-0.0586 33.57147,31.58607 33.57147,31.58607"
       id="path1767" /><path
       style="fill:none;stroke:#000000;stroke-width:1;stroke-dasharray:none"
       d="m 73.448623,131.89049 c 0,0 15.185619,-22.63306 39.983887,-22.61099 26.18978,0.0233 40.22775,21.08044 40.22775,21.08044"
       id="path1769" /><path
       style="fill:none;stroke:#000000;stroke-width:1;stroke-dasharray:none"
       d="m 73.621902,116.42902 c 0,0 16.027135,-16.712301 40.322108,-16.625608 25.38954,0.0906 39.55285,15.936118 39.55285,15.936118"
       id="path1771" /><path
       style="fill:none;stroke:#000000;stroke-width:1;stroke-dasharray:none"
       d="m 73.640925,94.937364 c 0,0 19.218836,-12.02615 39.566845,-12.184848 21.90464,-0.170839 40.2448,11.469328 40.2448,11.469328"
       id="path1773" /><path
       style="fill:none;stroke:#000000;stroke-width:1;stroke-dasharray:none"
       d="m 73.40946,155.50984 v -80.2064 h 80.17738 v 80.06444 z"
       id="path1775" /><text
       xml:space="preserve"
       style="font-size:3.175px;fill:none;stroke:#000000;stroke-width:0.2;stroke-dasharray:none"
       x="113.02068"
       y="128.28038"
       id="text1889"><tspan
         id="tspan1887"
         style="stroke-width:0.2"
         x="113.02068"
         y="128.28038">A</tspan></text><text
       xml:space="preserve"
       style="font-size:3.175px;fill:none;stroke:#000000;stroke-width:0.2;stroke-dasharray:none"
       x="113.16126"
       y="115.74541"
       id="text1893"><tspan
         id="tspan1891"
         style="stroke-width:0.2"
         x="113.16126"
         y="115.74541">B</tspan></text><text
       xml:space="preserve"
       style="font-size:3.175px;fill:none;stroke:#000000;stroke-width:0.2;stroke-dasharray:none"
       x="113.29731"
       y="104.09437"
       id="text1897"><tspan
         id="tspan1895"
         style="stroke-width:0.2"
         x="113.29731"
         y="104.09437">C</tspan></text><text
       xml:space="preserve"
       style="font-size:3.175px;fill:none;stroke:#000000;stroke-width:0.2;stroke-dasharray:none"
       x="113.08961"
       y="92.341568"
       id="text1901"><tspan
         id="tspan1899"
         style="stroke-width:0.2"
         x="113.08961"
         y="92.341568">D</tspan></text><text
       xml:space="preserve"
       style="font-size:3.175px;fill:none;stroke:#000000;stroke-width:0.2;stroke-dasharray:none"
       x="112.9001"
       y="78.449776"
       id="text1905"><tspan
         id="tspan1903"
         style="stroke-width:0.2"
         x="112.9001"
         y="78.449776">E</tspan></text><path
       style="fill:none;stroke:#000000;stroke-width:0.3;stroke-dasharray:none"
       d="m 73.716461,144.04343 c 0,0 15.196617,-26.33466 39.773679,-26.21095 26.62543,0.13402 40.06226,25.53212 40.06226,25.53212"
       id="path1907" /><circle
       style="fill:none;stroke:#000000;stroke-width:0.3;stroke-dasharray:none"
       id="path1961"
       cx="150.96175"
       cy="77.610794"
       r="2.6802497" /><path
       style="fill:none;stroke:#000000;stroke-width:0.3;stroke-dasharray:none"
       d="m 149.56596,80.027514 c -19.19679,41.526506 -19.19679,41.526506 -19.19679,41.526506 l 0.41081,-6.44077 -1.13047,1.83635"
       id="path2689" /><path
       style="fill:none;stroke:#000000;stroke-width:0.3;stroke-dasharray:none"
       d="m 130.67929,115.24511 0.81602,1.4583"
       id="path2691" /><text
       xml:space="preserve"
       style="font-size:3.175px;fill:none;stroke:#000000;stroke-width:0.2;stroke-dasharray:none"
       x="135.67522"
       y="124.10088"
       id="text2695"><tspan
         id="tspan2693"
         style="stroke-width:0.2;stroke-dasharray:none"
         x="135.67522"
         y="124.10088">F</tspan></text></g></svg>
