<?xml version="1.0" encoding="UTF-8" standalone="no"?>
<!-- Created with Inkscape (http://www.inkscape.org/) -->

<svg
   width="138.92651mm"
   height="86.251228mm"
   viewBox="0 0 138.92651 86.251228"
   version="1.1"
   id="svg5"
   xml:space="preserve"
   xmlns="http://www.w3.org/2000/svg"
   xmlns:svg="http://www.w3.org/2000/svg"><defs
     id="defs2" /><g
     id="layer2"
     transform="translate(-33.959428,-188.50804)"><path
       style="fill:none;stroke:#000000;stroke-width:0.2"
       d="M 34.059426,274.60387 V 188.60803 H 172.78595 v 86.05119 z"
       id="path2746" /><path
       style="fill:none;stroke:#000000;stroke-width:0.2"
       d="m 34.147474,219.09185 c 0,0 1.651421,-1.83064 3.626056,-2.98925 5.371109,6.16441 8.802531,12.81249 8.802531,12.81249 4.869639,-5.33923 1.48353,-1.69687 8.681456,-6.25413 7.220497,2.50701 13.660259,19.33402 22.433343,19.91745 3.873631,-0.41519 6.174468,-4.97035 9.267351,-4.70824 2.459903,-0.097 4.821381,4.32871 8.06804,6.17793 8.536849,4.68414 18.811689,1.68791 23.375209,3.33276 16.26915,2.43525 17.69832,7.20617 24.48797,6.00872 8.21517,1.09489 12.18046,0.17191 17.5351,0.53602 4.10324,0.63686 12.20554,-0.43329 12.20554,-0.43329"
       id="path2748" /><ellipse
       style="fill:none;stroke:#000000;stroke-width:0.2"
       id="path2802"
       cx="124.1889"
       cy="203.87962"
       rx="3.4148033"
       ry="3.5296891" /><path
       style="fill:none;stroke:#000000;stroke-width:0.2"
       d="m 46.618554,228.94063 3.078929,2.7027 3.355094,1.59793 c 0,0 5.184121,0.28651 6.47636,1.91228 1.827457,1.54889 -0.349749,4.25178 2.093955,6.33431 0,0 2.634958,1.77686 7.177493,0.0656 5.366724,-0.63574 4.219695,-0.92388 4.219695,-0.92388 l 8.841809,-0.17949"
       id="path2804" /><path
       style="fill:none;stroke:#000000;stroke-width:0.2"
       d="m 53.27941,233.18069 c 0,0 4.671017,1.8413 5.345549,2.58905 0.541237,0.7054 0.248001,6.08725 2.459513,6.78161 3.773102,1.33971 9.141923,1.65756 12.748472,-1.10389"
       id="path2806" /><path
       style="fill:none;stroke:#000000;stroke-width:0.2"
       d="m 34.11706,252.77816 104.11595,0.37414"
       id="path2808" /><path
       style="fill:none;stroke:#000000;stroke-width:0.2"
       d="m 41.919562,221.29316 c 0,0 -0.285283,0.69505 -1.385536,0.6774 -0.585326,0.11461 -1.085585,-1.44087 -1.9157,-1.25874 -0.462903,0.0124 -1.353281,2.25025 -2.429523,2.34731 -1.328592,0.38862 -2.030579,-0.70668 -2.030579,-0.70668"
       id="path2810" /><path
       style="fill:none;stroke:#000000;stroke-width:0.2"
       d="m 38.460878,200.48975 c -0.101848,-1.88331 3.056737,-2.43268 3.935987,-2.467 0.676719,0.0685 0.890887,0.62046 1.546071,0.50583 1.326272,0.082 0.449269,-1.24357 2.80847,-1.40565 1.009903,-0.0658 2.464934,0.97369 3.365111,0.86875 0.659844,-0.0999 1.552607,-1.57742 2.798011,-1.5292 0.700886,-0.1115 1.386835,0.83338 2.177259,0.86646 0.473248,0.087 1.768172,-0.77986 2.588953,-0.77252 0.525762,-0.0594 1.331008,0.79863 2.027529,0.79863 0.719855,0.0383 1.363912,-0.72856 2.456005,-0.50262 0.71725,-0.0705 0.702117,1.1301 1.574477,1.38227 0.239878,0.67531 1.343544,1.17616 1.343544,1.17616 0,0 2.717796,1.21018 3.211653,1.11774 0.53787,-0.19987 1.065752,-1.96567 2.251622,-1.64548 0.838689,-0.16417 3.015498,1.60275 3.638212,1.57132 0.530564,-0.10475 1.92125,-0.94753 2.728368,-0.83386 0.461342,0.0477 1.436504,1.52278 1.436504,1.52278 1.494313,-0.13871 5.093949,-0.15305 5.103083,1.83641 0.227139,1.69113 -3.382082,2.37985 -3.940541,2.34839 -0.318611,0 -0.760769,-0.76137 -1.441649,-0.63052 -0.819657,0.17705 -1.425932,1.32583 -2.381014,1.57005 -1.361503,0.27881 -3.383673,-0.9767 -3.883901,-0.89614 l -2.395397,1.57529 c 0,0 -1.860693,-1.17552 -2.432328,-1.10289 -0.330113,0.08 -1.401199,0.88131 -2.145294,0.99501 -0.38765,0.0772 -2.46661,-0.92472 -2.46661,-0.92472 0,0 -2.110187,0.6371 -2.555925,0.62302 -0.519458,-0.0263 -2.587559,-2.27697 -2.587559,-2.27697 l -1.653985,-0.65331 c 0,0 -1.0627,-0.99173 -2.022631,-0.7427 -0.429894,0.35725 -0.912403,1.46433 -2.112817,1.62418 -1.060916,0.10649 -3.016447,-1.66629 -3.5434,-1.68864 -0.474127,-0.0219 -1.717171,0.80975 -2.328087,0.86803 -0.879868,0.0834 -2.022658,-1.30304 -2.022658,-1.30304 0,0 -4.319375,0.58508 -5.077063,-1.87506 z"
       id="path2812" /><path
       style="fill:none;stroke:#000000;stroke-width:0.2"
       d="m 64.988164,199.33798 c -1.081271,0.18459 -2.059707,1.52955 -2.059707,1.52955 -1.994463,-1.43942 -4.278395,0.30669 -4.278395,0.30669 0,0 -2.713695,1.64481 -2.043832,2.82177"
       id="path2814" /><path
       style="fill:none;stroke:#000000;stroke-width:0.2"
       d="m 99.747138,243.40717 c 0,0 0.934592,0.42943 1.245202,0.27221 l 0.42089,-0.60579 -0.29567,-0.60552 c 0,0 0.49293,-0.84547 0.29507,-1.13404 -0.003,-0.38064 -0.82127,-0.32421 -0.82127,-0.32421 0,0 0.14953,-1.15297 -0.601835,-1.13622 0,0 -0.965736,0.0852 -1.178131,0.42275 l 0.06821,0.67655 -0.704704,0.61472 -0.175046,0.96718 0.473919,0.52929 c 0,0 -0.05209,0.74619 0.386295,0.75486 0.389221,0.11 0.88707,-0.43178 0.88707,-0.43178 z"
       id="path2816" /><path
       style="fill:none;stroke:#000000;stroke-width:0.2"
       d="m 99.540456,243.57917 -0.137663,2.19604 0.850477,0.23111 -0.1984,-2.49792"
       id="path2818" /><path
       style="fill:none;stroke:#000000;stroke-width:0.2"
       d="m 101.45302,243.03986 0.27181,-0.88505 0.5788,-0.40234 c 0,0 0.11988,-1.1513 1.12492,-1.08154 0.78951,0.0405 0.57282,1.19045 0.57282,1.19045 0,0 0.80534,-0.22136 0.90151,0.4173 0.25453,0.49622 -0.34551,1.13366 -0.34551,1.13366 0,0 0.49929,0.34331 0.0886,0.81828 -0.88924,0.61757 -1.53534,-0.0321 -1.53534,-0.0321 l -0.76549,0.48662 c -0.55537,-0.11469 -0.89212,-1.64528 -0.89212,-1.64528 z"
       id="path2820" /><path
       style="fill:none;stroke:#000000;stroke-width:0.2"
       d="m 103.48043,244.4145 0.1895,2.19878 -0.95797,-0.13102 0.15813,-2.19994"
       id="path2822" /><path
       style="fill:none;stroke:#000000;stroke-width:0.2"
       d="m 107.34296,244.57358 -0.97615,0.17522 c 0,0 -0.74084,-1.17372 -0.77025,-1.61051 -0.0263,-0.45615 0.87667,-1.22107 0.87667,-1.22107 0,0 -0.0312,-1.1623 0.95013,-1.02851 0.83297,-0.0632 0.78734,1.07858 0.78734,1.07858 0,0 0.87346,0.23149 0.82564,0.6415 0.2112,0.20682 -0.31555,0.89747 -0.31555,0.89747 l 0.24683,0.56534 -0.59547,0.60175 z"
       id="path2824" /><path
       style="fill:none;stroke:#000000;stroke-width:0.2"
       d="m 107.1983,244.58461 -0.20392,2.31079 1.04092,-0.0293 -0.5008,-2.2857"
       id="path2826" /><path
       style="fill:#e6e6e6;stroke:#000000;stroke-width:0.406833"
       d="m 276.3687,955.2856 c -46.62208,-0.1937 -98.75404,-0.38734 -115.84881,-0.43031 l -31.08138,-0.0781 v -56.24252 c 0,-30.93338 0.18164,-56.2348 0.40365,-56.22539 0.22201,0.009 0.87378,0.3727 1.44838,0.80731 1.47781,1.11776 5.61002,0.99468 7.61306,-0.22677 0.91361,-0.55711 2.83731,-2.61485 4.2749,-4.57274 1.43758,-1.95789 2.9394,-3.5598 3.33737,-3.5598 0.39797,0 1.78281,1.08987 3.07743,2.42193 2.58197,2.65666 3.88629,2.96057 7.04385,1.64126 l 1.86839,-0.78067 4.59571,6.98118 c 2.52763,3.83965 6.33333,10.02545 8.4571,13.74623 3.63224,6.36357 4.21438,7.0769 9.80919,12.0199 5.09298,4.49965 6.86654,5.69157 12.34056,8.29357 3.51604,1.6713 6.73301,3.03872 7.14883,3.03872 0.92166,0 9.89681,3.78294 14.69451,6.1936 5.84058,2.93466 5.74859,2.7895 6.98903,11.02898 2.02067,13.42197 3.88176,16.75309 10.50247,18.79802 6.98767,2.15827 12.79824,2.85676 21.52842,2.58795 5.15038,-0.15859 9.24218,-0.57257 11.30233,-1.14349 3.03132,-0.84006 10.75869,-4.35919 12.72838,-5.79665 0.72046,-0.52578 1.50592,-0.37058 4.16599,0.8232 1.80298,0.80912 4.97069,1.82404 7.03936,2.25537 6.6972,1.39641 10.83514,-0.27278 22.60614,-9.11902 8.88491,-6.67727 11.22891,-7.86717 15.4976,-7.86717 4.77703,0 6.93075,1.41405 16.80171,11.03139 4.88861,4.763 10.05654,9.46043 11.4843,10.43873 7.72956,5.29629 21.49304,9.70035 35.61668,11.39667 3.00887,0.36138 14.40019,0.71802 25.83388,0.8088 17.7362,0.14083 26.7564,0.6502 28.28916,1.5975 0.21332,0.13184 3.98653,0.85669 8.3849,1.61077 10.54419,1.80775 23.57461,4.99068 33.11152,8.08812 6.49938,2.11089 27.13742,10.10372 27.85394,10.78744 0.29738,0.28377 -132.92229,0.0864 -238.91855,-0.35399 z"
       id="path3035"
       transform="scale(0.26458333)" /><path
       style="fill:#999999;stroke:#000000;stroke-width:0.406833"
       d="m 242.19263,918.95583 c -6.44828,-1.2159 -11.68655,-2.89174 -13.10387,-4.19222 -2.6601,-2.44081 -3.79044,-5.94087 -5.42997,-16.81377 -0.55757,-3.69765 -1.32626,-7.09954 -1.7082,-7.55975 -0.38194,-0.46021 -3.61279,-2.26339 -7.17968,-4.00707 -6.96029,-3.40255 -7.0832,-3.7779 -0.70268,-2.14604 10.35198,2.64759 13.32374,5.991 13.32374,14.99001 0,5.85347 1.00957,9.44028 3.46437,12.30815 4.07414,4.75972 15.07576,6.1698 25.59874,3.28102 2.81213,-0.77199 7.8646,-1.80054 11.22772,-2.28565 3.36313,-0.48512 6.64126,-1.08221 7.28476,-1.32687 0.77286,-0.29384 1.51816,-0.19024 2.19574,0.30522 1.00768,0.73683 1.00735,0.76385 -0.019,1.53372 -2.07058,1.55319 -7.58307,4.0109 -11.53974,5.14493 -5.39654,1.54671 -17.22526,1.9349 -23.41195,0.76832 z"
       id="path3106"
       transform="scale(0.26458333)" /><path
       style="fill:#999999;stroke:#000000;stroke-width:0.406833"
       d="m 287.67102,915.00958 c -1.62807,-0.52738 -4.53438,-1.78587 -6.45847,-2.79664 l -3.49834,-1.83776 6.18937,-0.33285 c 3.40415,-0.18306 10.18555,-0.35952 15.06977,-0.39213 l 8.88039,-0.0593 -3.55465,2.30338 c -6.29163,4.07692 -10.95962,4.95147 -16.62807,3.11529 z"
       id="path3108"
       transform="scale(0.26458333)" /><path
       style="fill:#e6e6e6;stroke:#000000;stroke-width:0.406833"
       d="m 316.06138,1037.2572 -186.62287,-0.1361 v -40.64438 -40.6444 l 49.11128,0.30087 c 27.0112,0.16548 115.24658,0.53788 196.07861,0.82756 105.52482,0.37818 147.48803,0.69633 148.81391,1.12824 1.03435,0.33695 6.46293,0.65996 12.34161,0.73435 5.77225,0.073 12.91694,0.39724 15.87707,0.72046 3.03435,0.33131 15.67502,0.59371 28.97847,0.60154 13.43502,0.008 26.38553,0.27868 30.07319,0.62878 6.84924,0.65026 23.17282,0.0385 35.80712,-1.342 l 6.05481,-0.66158 v 39.44516 39.4452 l -74.94516,-0.1338 c -41.21984,-0.074 -158.92546,-0.195 -261.56804,-0.2699 z"
       id="path3110"
       transform="scale(0.26458333)" /></g></svg>
