<?xml version="1.0" encoding="UTF-8" standalone="no"?>
<!-- Created with Inkscape (http://www.inkscape.org/) -->

<svg
   width="22.614452mm"
   height="21.124002mm"
   viewBox="0 0 22.614452 21.124002"
   version="1.1"
   id="svg5"
   xml:space="preserve"
   xmlns="http://www.w3.org/2000/svg"
   xmlns:svg="http://www.w3.org/2000/svg"><defs
     id="defs2" /><g
     id="layer2"
     style="display:inline"
     transform="translate(-15.852643,-205.40449)"><path
       style="fill:#ffffff;fill-opacity:1;stroke:#000000;stroke-width:0.128621;stroke-dasharray:none"
       d="m 34.548202,218.18334 c 0,0 -2.440249,-11.48812 -4.304847,-12.67547 -3.397315,-0.43117 -7.405975,2.86277 -7.405975,2.86277 l 1.137834,-1.58512 0.723656,1.4408 -1.616971,-0.004"
       id="path15234" /><path
       style="fill:none;fill-opacity:1;stroke:#000000;stroke-width:0.152721;stroke-dasharray:none"
       d="m 15.929003,222.78812 v 3.66401 h 22.461731 v -3.82165 z"
       id="path15117" /><path
       style="fill:none;fill-opacity:1;stroke:#000000;stroke-width:0.128621;stroke-dasharray:none"
       d="m 16.646868,222.73979 v -12.42065 h 11.095631 l -1.168643,1.16862 v 11.16302"
       id="path15119" /><path
       style="fill:#ececec;fill-opacity:1;stroke:#000000;stroke-width:0.128621;stroke-dasharray:none"
       d="m 32.132973,219.71789 c 0,0 -0.03482,2.73956 2.286886,2.96579 2.533003,0.10612 3.058541,-3.11575 3.058541,-3.11575"
       id="path15123" /><path
       style="fill:#ffffff;fill-opacity:1;stroke:#000000;stroke-width:0.128621;stroke-dasharray:none"
       d="m 37.172974,220.43225 h -5.082637 l 1.543609,-0.96759 1.654187,-0.0424 z"
       id="path15125" /><path
       style="fill:#ececec;fill-opacity:1;stroke:#000000;stroke-width:0.0326499;stroke-dasharray:none"
       d="m 33.683608,222.36596 c -0.583563,-0.27915 -1.064738,-0.87494 -1.286911,-1.59353 l -0.05999,-0.19437 h 2.338095 c 1.285952,0 2.338093,0.021 2.338093,0.0457 0,0.15331 -0.41034,0.80498 -0.714894,1.13539 -0.478476,0.51907 -0.929574,0.73639 -1.617378,0.77915 -0.462267,0.0271 -0.638412,-0.002 -0.996909,-0.17337 z"
       id="path15127" /><path
       style="fill:#ffffff;fill-opacity:1;stroke:#000000;stroke-width:0.128621;stroke-dasharray:none"
       d="m 16.534894,214.61065 h 9.943412"
       id="path15236" /><path
       style="fill:#e6e6e6;fill-opacity:1;stroke:#000000;stroke-width:0.0326499;stroke-dasharray:none"
       d="m 16.713387,218.67782 v -3.97353 h 4.880487 4.880495 v 3.917 3.9168 l -1.179793,0.0581 c -0.648887,0.0303 -2.845111,0.0581 -4.880498,0.0581 h -3.700691 z"
       id="path15238" /><rect
       style="fill:#e6e6e6;fill-opacity:1;stroke:#000000;stroke-width:0.128621;stroke-dasharray:none"
       id="rect15292"
       width="10.618612"
       height="2.5606148"
       x="25.917694"
       y="223.30705" /><text
       xml:space="preserve"
       style="font-weight:300;font-size:2.72247px;font-family:Ubuntu;-inkscape-font-specification:'Ubuntu Light';text-align:center;text-anchor:middle;fill:#e6e6e6;fill-opacity:1;stroke:#000000;stroke-width:0.128621;stroke-dasharray:none"
       x="30.83667"
       y="224.93875"
       id="text15348"><tspan
         id="tspan15346"
         style="stroke-width:0.128621"
         x="30.83667"
         y="224.93875">.............</tspan></text></g></svg>
