<?xml version="1.0" encoding="UTF-8" standalone="no"?>
<!-- Created with Inkscape (http://www.inkscape.org/) -->

<svg
   width="137.95152mm"
   height="46.162971mm"
   viewBox="0 0 137.95152 46.162971"
   version="1.1"
   id="svg5"
   xml:space="preserve"
   xmlns="http://www.w3.org/2000/svg"
   xmlns:svg="http://www.w3.org/2000/svg"><defs
     id="defs2" /><g
     id="layer4"
     style="display:inline"
     transform="translate(-32.88881,-15.812265)"><path
       id="rect2095-3"
       style="display:inline;fill:none;stroke:#000000;stroke-width:0.1"
       d="M 32.938811,22.33973 50.454636,15.88387 50.60803,52.29263 32.938811,61.89117 Z" /><ellipse
       style="display:inline;fill:none;stroke:#000000;stroke-width:0.0904249"
       id="path2150-6"
       cx="99.8564"
       cy="38.306202"
       rx="6.7643423"
       ry="6.7516193" /><ellipse
       style="display:inline;fill:none;stroke:#000000;stroke-width:0.0942664"
       id="path2152-7"
       cx="41.934502"
       cy="38.195698"
       rx="4.3285804"
       ry="12.608759" /><ellipse
       style="display:inline;fill:#b3b3b3;fill-opacity:1;stroke:#000000;stroke-width:0.1"
       id="path2154-5"
       cx="169.81375"
       cy="38.285801"
       rx="0.97660083"
       ry="1.1196556" /><path
       style="display:inline;fill:none;fill-opacity:1;stroke:#000000;stroke-width:0.1"
       d="M 41.516261,25.64101 169.80251,38.33619 41.691412,50.89285"
       id="path2366-3" /><path
       style="display:inline;fill:none;fill-opacity:1;stroke:#000000;stroke-width:0.1"
       d="m 100.56709,31.52918 c 0,0 -2.262982,0.0249 -2.410672,6.42535 -0.0331,6.8462 2.332612,7.14334 2.332612,7.14334"
       id="path2370-5" /><path
       style="display:inline;fill:#cccccc;fill-opacity:1;stroke:#000000;stroke-width:0.0600038"
       d="m 97.732448,44.56196 c -1.70713,-0.60696 -3.0866,-1.88727 -3.91324,-3.63196 -0.45528,-0.96089 -0.49819,-1.18838 -0.49783,-2.63913 2.7e-4,-1.45436 0.0428,-1.67719 0.50565,-2.655 0.27789,-0.58707 0.84278,-1.42825 1.25531,-1.86928 0.89919,-0.96131 2.6121,-1.84921 3.8702,-2.00616 l 0.86876,-0.10838 -0.42803,0.50868 c -0.58487,0.69508 -1.05294,2.30161 -1.26935,4.35667 -0.32806,3.11532 0.29712,6.88766 1.32233,7.97895 l 0.35988,0.38307 -0.62303,-0.0116 c -0.34266,-0.006 -0.99546,-0.14401 -1.45065,-0.30586 z"
       id="path2510-6" /><path
       style="display:inline;fill:#cccccc;fill-opacity:1;stroke:#000000;stroke-width:0.0600038"
       d="m 41.287661,50.45425 c -1.46535,-0.73671 -2.763306,-3.88604 -3.311779,-8.03561 -0.278575,-2.10763 -0.232432,-6.95541 0.08585,-9.01933 0.499919,-3.24177 1.368798,-5.64211 2.477865,-6.84531 0.596892,-0.64755 0.743304,-0.72582 1.357717,-0.72582 0.536993,0 0.806754,0.10367 1.224764,0.47069 1.052314,0.92394 2.020837,3.33 2.590475,6.43538 0.36631,1.99695 0.42114,8.50995 0.08754,10.39881 -0.589623,3.33849 -1.497435,5.75612 -2.560645,6.81933 -0.708866,0.70886 -1.258797,0.85027 -1.951791,0.50186 z"
       id="path2512-2" /><path
       style="display:inline;fill:#f2f2f2;fill-opacity:1;stroke:#000000;stroke-width:0.0600038"
       d="m 50.69382,38.20079 c 0,-10.9711 0.01508,-11.59606 0.277831,-11.52374 0.152808,0.0421 11.051831,1.13637 24.220051,2.4318 17.162006,1.68832 23.748566,2.38852 23.258396,2.47255 -1.07013,0.18345 -2.60088,1.02114 -3.48916,1.90943 -1.4879,1.48789 -2.25405,3.83901 -1.9021,5.83704 0.49842,2.82959 2.48132,4.99269 5.17713,5.64762 0.44021,0.10695 0.6772,0.20053 0.52663,0.20795 -0.15056,0.007 -10.83614,1.04942 -23.745725,2.31553 C 62.107286,48.76508 51.353403,49.801 51.119357,49.801 H 50.69382 Z"
       id="path2583-9" /><path
       style="display:inline;fill:#f2f2f2;fill-opacity:1;stroke:#000000;stroke-width:0.0600038"
       d="m 43.603635,49.96691 c 0.720736,-0.79777 1.073865,-1.49786 1.603571,-3.17914 0.801719,-2.54465 1.082095,-4.66912 1.100426,-8.33814 0.0098,-1.96737 -0.06709,-3.91966 -0.187656,-4.76281 -0.437777,-3.06156 -1.347758,-5.8394 -2.338366,-7.13815 -0.237964,-0.31199 -0.342614,-0.56173 -0.235387,-0.56173 0.307592,0 6.738998,0.64945 6.769486,0.68359 0.01514,0.017 0.0535,5.2538 0.08524,11.63744 l 0.05771,11.6066 -3.573595,0.34279 c -1.965476,0.18854 -3.635486,0.34158 -3.711136,0.34011 -0.07565,-0.001 0.117724,-0.28522 0.429715,-0.63056 z"
       id="path2585-1" /><path
       style="display:inline;fill:#f2f2f2;fill-opacity:1;stroke:#000000;stroke-width:0.260194"
       d="m 115.39896,31.81369 -2.89446,0.84303 2.59048,0.99809 z"
       id="path2641-2" /><path
       style="display:inline;fill:#f2f2f2;fill-opacity:1;stroke:#000000;stroke-width:0.253676"
       d="m 112.29523,44.02487 3.74906,0.73253 -0.26025,-2.06897 z"
       id="path2643-7" /><path
       style="display:inline;fill:none;fill-opacity:1;stroke:#000000;stroke-width:0.115152"
       d="m 44.063555,41.22182 8.138442,19.31156 4.713511,0.0886"
       id="path2647-0" /><path
       style="display:inline;fill:none;fill-opacity:1;stroke:#000000;stroke-width:0.1"
       d="m 74.702199,60.73421 -4.236,0.0188 -8.675278,-19.40255"
       id="path2651-9" /><path
       style="display:inline;fill:none;fill-opacity:1;stroke:#000000;stroke-width:0.1"
       d="m 135.57891,60.22897 -4.11056,-0.0231 -8.48491,-17.39462"
       id="path2655-3" /><path
       style="display:inline;fill:none;fill-opacity:1;stroke:#000000;stroke-width:0.1"
       d="m 165.49139,60.55403 4.4573,-0.095 -0.32897,-21.78789"
       id="path2657-6" /><path
       style="display:inline;fill:none;fill-opacity:1;stroke:#000000;stroke-width:0.1"
       d="m 91.146628,60.41899 4.31282,-0.0415 -0.1826,-20.74536"
       id="path2659-0" /><text
       xml:space="preserve"
       style="font-weight:300;font-size:4.9389px;font-family:Ubuntu;-inkscape-font-specification:'Ubuntu Light';text-align:center;text-anchor:middle;display:inline;fill:none;fill-opacity:1;stroke:#000000;stroke-width:0.1"
       x="59.578995"
       y="61.483692"
       id="text2769-6"><tspan
         id="tspan2767-2"
         style="stroke-width:0.1"
         x="59.578995"
         y="61.483692">1</tspan></text><text
       xml:space="preserve"
       style="font-weight:300;font-size:4.9389px;font-family:Ubuntu;-inkscape-font-specification:'Ubuntu Light';text-align:center;text-anchor:middle;display:inline;fill:none;fill-opacity:1;stroke:#000000;stroke-width:0.1"
       x="76.791435"
       y="61.455326"
       id="text2773-6"><tspan
         id="tspan2771-1"
         style="stroke-width:0.1"
         x="76.791435"
         y="61.455326">2</tspan></text><text
       xml:space="preserve"
       style="font-weight:300;font-size:4.9389px;font-family:Ubuntu;-inkscape-font-specification:'Ubuntu Light';text-align:center;text-anchor:middle;display:inline;fill:none;fill-opacity:1;stroke:#000000;stroke-width:0.1"
       x="88.159996"
       y="61.340183"
       id="text2777-8"><tspan
         id="tspan2775-7"
         style="stroke-width:0.1"
         x="88.159996"
         y="61.340183">3</tspan></text><text
       xml:space="preserve"
       style="font-weight:300;font-size:4.9389px;font-family:Ubuntu;-inkscape-font-specification:'Ubuntu Light';text-align:center;text-anchor:middle;display:inline;fill:none;fill-opacity:1;stroke:#000000;stroke-width:0.1"
       x="138.11754"
       y="61.199512"
       id="text2785-9"><tspan
         id="tspan2783-2"
         style="stroke-width:0.1"
         x="138.11754"
         y="61.199512">4</tspan></text><text
       xml:space="preserve"
       style="font-weight:300;font-size:4.9389px;font-family:Ubuntu;-inkscape-font-specification:'Ubuntu Light';text-align:center;text-anchor:middle;display:inline;fill:none;fill-opacity:1;stroke:#000000;stroke-width:0.1"
       x="163.2155"
       y="61.47414"
       id="text2789-0"><tspan
         id="tspan2787-2"
         style="stroke-width:0.1"
         x="163.2155"
         y="61.47414">5</tspan></text></g></svg>
