<?xml version="1.0" encoding="UTF-8" standalone="no"?>
<!-- Created with Inkscape (http://www.inkscape.org/) -->

<svg
   width="85.204964mm"
   height="17.803877mm"
   viewBox="0 0 85.204964 17.803877"
   version="1.1"
   id="svg5"
   xml:space="preserve"
   xmlns="http://www.w3.org/2000/svg"
   xmlns:svg="http://www.w3.org/2000/svg"><defs
     id="defs2" /><g
     id="layer1"
     style="display:inline"
     transform="translate(-76.265398,-43.402537)"><g
       id="g2179"
       transform="translate(-4.3568572,0.33018487)"><path
         style="fill:#b3b3b3;stroke:#000000;stroke-width:0.1"
         d="m 134.71361,60.861068 5.65622,-17.77355"
         id="path1697-9" /><path
         style="fill:#b3b3b3;stroke:#000000;stroke-width:0.1"
         d="m 138.34929,49.444998 -1.93979,2.01616 2.25506,0.89046 z"
         id="path1699-1" /><path
         style="fill:#b3b3b3;stroke:#000000;stroke-width:0.1"
         d="m 148.32496,60.610228 -5.54458,-17.51123"
         id="path1701-2" /><path
         style="fill:#b3b3b3;stroke:#000000;stroke-width:0.1"
         d="m 144.64915,49.359668 -0.27354,2.89931 2.26766,-1.02092 z"
         id="path1703-7" /><path
         style="fill:#ececec;stroke:#000000;stroke-width:0.127031"
         d="m 509.9467,228.80191 c 0.0829,-0.23107 2.39476,-7.49089 5.13736,-16.13293 3.04295,-9.58842 5.14886,-15.7128 5.40298,-15.7128 0.22903,0 1.13097,0.3063 2.00431,0.68065 0.87335,0.37436 1.67173,0.59683 1.77418,0.49437 0.10246,-0.10245 -0.0788,-2.66657 -0.40269,-5.69804 l -0.58897,-5.51175 3.79344,-11.9558 3.79345,-11.9558 h 4.21469 4.21469 l 3.57617,11.34347 3.57618,11.34346 -0.58671,6.04985 c -0.32269,3.32742 -0.54749,6.10132 -0.49955,6.16424 0.0479,0.0629 1.00931,-0.29946 2.1364,-0.80527 1.12709,-0.50581 2.13134,-0.83756 2.23167,-0.73723 0.10033,0.10033 2.44506,7.3444 5.21052,16.09793 2.76545,8.75354 5.09542,16.10458 5.17769,16.33565 0.11882,0.3337 -5.04131,0.42013 -25.08352,0.42013 -20.04286,0 -25.20209,-0.0864 -25.08229,-0.42013 z"
         id="path2123"
         transform="scale(0.26458333)" /></g><g
       id="g2186"
       transform="translate(13.940827,-26.73499)"><path
         style="fill:#b3b3b3;stroke:#000000;stroke-width:0.1"
         d="m 139.03931,87.118208 0.0378,-16.32965"
         id="path1705-0" /><path
         style="fill:#b3b3b3;stroke:#000000;stroke-width:0.1"
         d="m 140.02392,79.047498 -2.11586,0.0358 1.15838,-1.74372 z"
         id="path1707-9" /><path
         style="fill:#b3b3b3;stroke:#000000;stroke-width:0.100908"
         d="m 146.62009,87.29042 -0.0241,-16.376139"
         id="path1709-3" /><path
         style="fill:#b3b3b3;stroke:#000000;stroke-width:0.1"
         d="m 147.45115,79.116648 -1.93882,-0.009 1.10667,-1.79059 z"
         id="path1711-6" /><path
         style="fill:#ececec;stroke:#000000;stroke-width:0.127031"
         d="M 526.00073,314.25603 V 299.1314 h 1.84856 c 1.01671,0 1.84857,-0.074 1.84857,-0.1645 0,-0.0905 -0.83186,-1.65378 -1.84857,-3.47401 l -1.84856,-3.30951 v -12.15477 -12.15476 h 13.72638 13.72639 l 0.23166,11.95962 0.23165,11.95962 -2.19445,3.60048 c -1.20694,1.98027 -2.19444,3.70701 -2.19444,3.83721 0,0.1302 0.9831,0.23673 2.18466,0.23673 h 2.18467 v 14.95657 14.95657 h -13.94826 -13.94826 z"
         id="path2127"
         transform="scale(0.26458333)" /></g><g
       id="g2172"
       transform="translate(-0.17266671,0.19434895)"><path
         style="fill:#b3b3b3;stroke:#000000;stroke-width:0.1"
         d="m 122.66641,44.496918 -20.62752,6.56796"
         id="path1689-3" /><path
         style="fill:#b3b3b3;stroke:#000000;stroke-width:0.1"
         d="m 110.46846,47.080148 -1.86559,1.84415 2.78613,0.22813 z"
         id="path1691-5" /><path
         style="fill:#b3b3b3;stroke:#000000;stroke-width:0.1"
         d="m 122.72752,59.723428 -20.5361,-6.66935"
         id="path1693-6" /><path
         style="fill:#b3b3b3;stroke:#000000;stroke-width:0.1"
         d="m 110.54354,57.160958 0.9488,-2.2209 -2.90178,0.14877 z"
         id="path1695-2" /><path
         style="fill:#ececec;stroke:#000000;stroke-width:0.179649"
         d="m 441.57321,218.03348 c -11.37206,-3.68877 -20.76329,-6.76848 -20.86941,-6.8438 -0.10611,-0.0753 0.15145,-1.01366 0.57237,-2.08521 l 0.7653,-1.94827 -6.03855,0.31613 -6.03856,0.31613 -11.76419,-3.85553 -11.7642,-3.85554 7e-4,-3.4297 6.9e-4,-3.4297 12.47648,-3.95035 12.47648,-3.95034 4.97795,0.47758 c 2.73787,0.26267 5.05301,0.40252 5.14475,0.31078 0.0917,-0.0917 -0.18801,-0.85294 -0.62168,-1.69156 -0.43366,-0.83861 -0.60985,-1.67748 -0.39154,-1.86416 0.57996,-0.49592 41.5569,-13.44942 41.7944,-13.21192 0.11047,0.11047 0.14564,12.62119 0.0782,27.80159 l -0.12269,27.60073 z"
         id="path2156"
         transform="scale(0.26458333)" /></g><g
       id="g2193"
       transform="translate(-25.786317,-26.071585)"><path
         style="fill:#b3b3b3;stroke:#000000;stroke-width:0.1"
         d="M 122.52925,86.054338 102.1,79.561948"
         id="path1713-0" /><path
         style="fill:#b3b3b3;stroke:#000000;stroke-width:0.1"
         d="m 108.60199,82.955358 1.00552,-2.6379 2.36246,2.35188 z"
         id="path1715-6" /><path
         style="fill:#b3b3b3;stroke:#000000;stroke-width:0.1"
         d="m 122.43748,70.697908 -20.37101,6.29395"
         id="path1717-2" /><path
         style="fill:#b3b3b3;stroke:#000000;stroke-width:0.1"
         d="m 110.04188,75.703928 -0.90522,-2.10639 3.00813,0.29073 z"
         id="path1719-6" /><path
         style="fill:#ececec;stroke:#000000;stroke-width:0.179649"
         d="m 442.99917,318.41578 -19.2505,-6.14901 -4.58367,-4.56538 c -2.52102,-2.51096 -4.80403,-4.42919 -5.07336,-4.26273 -0.26933,0.16645 -0.84887,1.38404 -1.28787,2.70576 -0.4543,1.36776 -1.03312,2.31672 -1.34348,2.20258 -0.29991,-0.11029 -1.61476,-0.53831 -2.92189,-0.95117 -1.30713,-0.41285 -6.82254,-2.16562 -12.25645,-3.89503 l -9.87984,-3.1444 0.13576,-4.58139 0.13576,-4.58138 13.54665,-4.18641 c 7.45066,-2.30252 13.60185,-4.18749 13.66933,-4.18881 0.0675,-10e-4 0.46501,0.85316 0.88342,1.89887 0.41841,1.0457 0.87596,1.90128 1.01678,1.90128 0.14081,0 2.10581,-1.58203 4.36666,-3.51563 l 4.11064,-3.51563 19.11011,-5.91599 19.11011,-5.916 v 28.44447 c 0,15.64445 -0.0535,28.42658 -0.11883,28.40473 -0.0654,-0.0219 -8.78155,-2.80678 -19.36933,-6.18873 z"
         id="path2158"
         transform="scale(0.26458333)" /></g></g></svg>
