<?xml version="1.0" encoding="UTF-8" standalone="no"?>
<!-- Created with Inkscape (http://www.inkscape.org/) -->

<svg
   width="29.0189mm"
   height="28.775005mm"
   viewBox="0 0 29.0189 28.775005"
   version="1.1"
   id="svg5"
   xml:space="preserve"
   xmlns="http://www.w3.org/2000/svg"
   xmlns:svg="http://www.w3.org/2000/svg"><defs
     id="defs2" /><g
     id="layer2"
     style="display:inline"
     transform="translate(-102.78508,-171.62821)"><path
       style="fill:none;fill-opacity:1;stroke:#000000;stroke-width:0.1;stroke-dasharray:none"
       d="m 102.81961,177.8431 6.34989,6.06059 1.0441,0.0944 6.53511,-6.20093"
       id="path11736" /><path
       style="fill:none;fill-opacity:1;stroke:#000000;stroke-width:0.1;stroke-dasharray:none"
       d="m 107.43285,182.73527 0.16743,4.81091 -4.55874,9.60642 c 0,0 0.18206,1.33906 0.59376,1.95876 0.48133,0.89416 1.64544,1.18439 1.64544,1.18439 l 9.024,0.0574 c 0,0 1.66875,-0.765 1.93466,-1.72049 0.24533,-0.50282 0.17331,-1.62081 0.17331,-1.62081 l -4.46824,-9.6079 0.0931,-4.6415"
       id="path11738" /><path
       style="fill:none;fill-opacity:1;stroke:#000000;stroke-width:0.1;stroke-dasharray:none"
       d="m 103.73449,178.11771 11.9912,0.12412 -5.40967,5.71725 -1.12372,0.0293 z"
       id="path11740" /><path
       style="fill:none;fill-opacity:1;stroke:#000000;stroke-width:0.1;stroke-dasharray:none"
       d="m 110.34073,189.92993 0.0389,-5.69012 6.36591,-6.43854"
       id="path11742" /><path
       style="fill:none;fill-opacity:1;stroke:#000000;stroke-width:0.1;stroke-dasharray:none"
       d="m 109.21433,189.93619 0.004,-5.79436 -6.2884,-6.25707"
       id="path11744" /><path
       style="fill:none;fill-opacity:1;stroke:#000000;stroke-width:0.1;stroke-dasharray:none"
       d="m 111.51392,182.87127 -3.49133,-0.13947"
       id="path11746" /><path
       style="fill:none;fill-opacity:1;stroke:#000000;stroke-width:0.1;stroke-dasharray:none"
       d="m 110.81639,175.67844 18.53091,5.51639 c 0,0 1.86201,-0.10577 2.35061,-1.1978 0.3298,-2.00115 -0.89942,-2.81641 -0.89942,-2.81641 l -18.9636,-5.50438"
       id="path11748" /><path
       style="fill:none;fill-opacity:1;stroke:#000000;stroke-width:0.1;stroke-dasharray:none"
       d="m 124.084,175.32473 -13.887,-0.0377 0.0469,7.53004"
       id="path11750" /><path
       style="fill:none;fill-opacity:1;stroke:#000000;stroke-width:0.1;stroke-dasharray:none"
       d="m 110.81139,182.82108 -0.0556,-7.25702"
       id="path11752" /><path
       style="fill:none;fill-opacity:1;stroke:#000000;stroke-width:0.1;stroke-dasharray:none"
       d="m 103.08338,197.09128 13.34459,-0.006"
       id="path11754" /><path
       style="fill:none;fill-opacity:1;stroke:#000000;stroke-width:0.1;stroke-dasharray:none"
       d="m 109.58453,195.97443 0.0114,0.82708 0.44908,-0.13597 -0.048,-0.57037 z"
       id="path11756" /><path
       style="fill:none;fill-opacity:1;stroke:#000000;stroke-width:0.1;stroke-dasharray:none"
       d="m 109.68536,194.0315 -0.3392,0.64304 0.3859,0.28162 z"
       id="path11758" /><path
       style="fill:none;fill-opacity:1;stroke:#000000;stroke-width:0.1;stroke-dasharray:none"
       d="m 109.70997,192.37144 -0.14248,0.84173 0.40612,0.12276 0.0328,-0.62072 z"
       id="path11760" /><path
       style="fill:none;fill-opacity:1;stroke:#000000;stroke-width:0.1;stroke-dasharray:none"
       d="m 109.73002,190.67307 -0.28282,0.73668 0.3828,0.30348 0.23041,-0.5743 z"
       id="path11762" /><path
       style="fill:none;fill-opacity:1;stroke:#000000;stroke-width:0.1;stroke-dasharray:none"
       d="m 109.68545,189.32661 -0.14308,0.70852 0.59317,-0.0567 z"
       id="path11764" /><path
       style="fill:#e6e6e6;fill-opacity:1;stroke:#000000;stroke-width:0.0171324;stroke-dasharray:none"
       d="m 120.10701,178.36198 c -5.08596,-1.51825 -9.28289,-2.77205 -9.32652,-2.78621 -0.0743,-0.0241 -0.0793,0.0554 -0.0793,1.24876 v 1.27452 h -0.20269 -0.20266 l -0.0126,-1.34855 c -0.007,-0.7417 -0.0112,-1.3534 -0.009,-1.35933 0.002,-0.006 3.1617,-0.0115 7.02205,-0.0125 l 7.01882,-0.002 3.22239,0.93224 3.22239,0.93225 0.23492,0.24627 c 0.4727,0.49553 0.72612,1.25921 0.67536,2.03519 -0.0409,0.62556 -0.25073,0.90826 -0.91211,1.22893 -0.29332,0.14222 -0.85645,0.30068 -1.24473,0.35026 -0.11841,0.0151 -2.50419,-0.67992 -9.40584,-2.74019 z"
       id="path11768" /><path
       style="fill:#e6e6e6;fill-opacity:1;stroke:#000000;stroke-width:0.0171324;stroke-dasharray:none"
       d="m 110.2932,180.50581 v -2.26215 l 0.19265,0.0246 c 0.10596,0.0135 0.1951,0.0269 0.1981,0.0297 0.003,0.003 0.0199,1.00971 0.0375,2.23757 l 0.0321,2.23247 h -0.23016 -0.23019 z"
       id="path11839" /><path
       style="fill:#e6e6e6;fill-opacity:1;stroke:#000000;stroke-width:0.0171324;stroke-dasharray:none"
       d="m 109.47452,183.86796 -0.25205,-0.0161 -0.51855,-0.52425 -0.51855,-0.52425 0.54395,0.0269 c 0.29918,0.0148 0.94173,0.039 1.42789,0.0538 0.48616,0.0148 0.91331,0.0364 0.94922,0.0479 0.0435,0.014 -0.0922,0.17909 -0.40715,0.49511 l -0.47246,0.47406 -0.25012,-0.009 c -0.13757,-0.005 -0.36355,-0.0158 -0.50218,-0.0247 z"
       id="path11841" /><path
       style="fill:#e6e6e6;fill-opacity:1;stroke:#000000;stroke-width:0.0171324;stroke-dasharray:none"
       d="m 106.64416,200.22125 -1.49588,-0.0242 -0.40418,-0.20116 c -0.69283,-0.34483 -1.10224,-0.84656 -1.35701,-1.66302 -0.1211,-0.38809 -0.27739,-1.09858 -0.24809,-1.12788 0.01,-0.01 2.99241,-0.0319 6.62871,-0.0497 l 6.61144,-0.0325 -0.0336,0.49301 c -0.0817,1.19921 -0.41518,1.69803 -1.61489,2.41583 l -0.39012,0.23342 -3.10024,-0.01 c -1.70514,-0.005 -3.7734,-0.0207 -4.59614,-0.034 z"
       id="path11843" /><path
       style="fill:#e6e6e6;fill-opacity:1;stroke:#000000;stroke-width:0.0171324;stroke-dasharray:none"
       d="m 109.65432,191.47687 -0.10497,-0.085 0.0867,-0.25497 c 0.0477,-0.14024 0.10145,-0.25498 0.11952,-0.25498 0.0181,0 0.0749,0.059 0.12623,0.13114 0.0906,0.12727 0.0911,0.13728 0.016,0.33996 -0.0426,0.11487 -0.0911,0.20884 -0.10793,0.20884 -0.0168,0 -0.0778,-0.0383 -0.1355,-0.085 z"
       id="path11847" /><path
       style="fill:#e6e6e6;fill-opacity:1;stroke:#000000;stroke-width:0.0171324;stroke-dasharray:none"
       d="m 109.7556,193.18802 c -0.11263,-0.0425 -0.1132,-0.0561 -0.0218,-0.51356 l 0.0268,-0.13396 0.085,0.10498 c 0.0569,0.0703 0.085,0.17738 0.085,0.32394 0,0.24706 -0.0231,0.27593 -0.17496,0.2186 z"
       id="path11853" /><path
       style="fill:#e6e6e6;fill-opacity:1;stroke:#000000;stroke-width:0.0171324;stroke-dasharray:none"
       d="m 109.54576,194.71823 c -0.0845,-0.0618 -0.0853,-0.073 -0.016,-0.21689 l 0.0731,-0.15172 0.0325,0.16755 c 0.0443,0.22845 0.0206,0.28159 -0.0895,0.20106 z"
       id="path11855" /><path
       style="fill:#e6e6e6;fill-opacity:1;stroke:#000000;stroke-width:0.0171324;stroke-dasharray:none"
       d="m 109.65858,196.38453 v -0.29956 l 0.12457,0.0313 c 0.0685,0.0172 0.12683,0.0347 0.1296,0.0389 0.003,0.004 0.0178,0.10515 0.0334,0.22434 0.0265,0.20229 0.0207,0.21961 -0.0872,0.26064 -0.18886,0.0718 -0.20036,0.0571 -0.20036,-0.2556 z"
       id="path11859" /><path
       style="fill:#e6e6e6;fill-opacity:1;stroke:#000000;stroke-width:0.0171324;stroke-dasharray:none"
       d="m 109.6631,189.82802 c 0.002,-0.0561 0.0182,-0.15087 0.0349,-0.2106 0.0294,-0.10491 0.0346,-0.10224 0.15413,0.0784 0.068,0.10283 0.12373,0.1976 0.12373,0.2106 0,0.013 -0.0714,0.0236 -0.15865,0.0236 -0.13565,0 -0.158,-0.0148 -0.15414,-0.10199 z"
       id="path11861" /></g></svg>
