<?xml version="1.0" encoding="UTF-8" standalone="no"?>
<!-- Created with Inkscape (http://www.inkscape.org/) -->

<svg
   version="1.1"
   id="svg1"
   width="116.82714"
   height="96.09156"
   viewBox="0 0 116.82714 96.09156"
   xmlns="http://www.w3.org/2000/svg"
   xmlns:svg="http://www.w3.org/2000/svg">
  <defs
     id="defs1" />
  <g
     id="g1"
     transform="translate(-79.129341,-61.867638)">
    <path
       style="fill:none;stroke:#000000;stroke-width:1.37953"
       d="M 79.819104,157.23171 V 62.557403 H 195.26671 v 94.711807 z"
       id="path1" />
    <path
       style="fill:none;stroke:#000000;stroke-width:1.37953"
       d="m 189.7625,107.77996 c 0,0 -33.35627,-4.8005 -38.77899,-4.23383 1.2176,-4.787072 -3.29864,-6.273658 -15.51354,-4.702813 1.15047,-5.528744 -14.48437,-2.79215 -15.20613,-4.32318 1.19631,-2.446314 31.03819,-5.681523 31.03819,-5.681523 0,0 21.75523,-7.854875 25.47427,-8.926454 3.71904,-1.071579 -3.09169,-2.528259 12.93111,-1.679179 V 155.28632 H 86.500634 V 80.447349 h 0.06574 c 23.034896,16.931143 20.229786,9.35979 26.433996,14.250104 -0.0773,2.899558 -17.057537,1.902792 -17.856617,4.968092 0.100927,1.651405 15.849657,0.192593 16.107527,3.162985 0,2.0727 -17.156146,1.19121 -17.156146,3.76762 1.462048,1.72177 14.196856,2.45696 14.705196,5.38893 1.01482,1.81946 -3.18335,0.17361 -3.20048,2.47687 0.70602,1.95927 23.75943,2.5315 30.29096,12.89361 -0.80371,3.80049 -31.93264,-0.66157 -35.908133,1.94076 3.004193,3.69864 7.089873,7.31719 5.631063,12.94593 -11.720919,4.46392 -19.213107,6.22088 -19.213107,6.22088"
       id="path2" />
    <path
       style="fill:none;stroke:#000000;stroke-width:0.245669;stroke-dasharray:none"
       d="M 110.39525,92.853458 126.58982,92.18262"
       id="path3" />
    <path
       style="fill:#ececec;stroke:#000000;stroke-width:0.0291166;stroke-dasharray:none"
       d="m 87.289529,151.76036 c 0,-2.08083 0.03521,-2.74032 0.148149,-2.77446 0.08148,-0.0246 1.24149,-0.34939 2.577797,-0.72166 2.87305,-0.80038 10.163895,-3.19573 13.714145,-4.50567 l 2.51406,-0.92761 0.18225,-0.80132 c 0.10375,-0.45613 0.1819,-1.35286 0.18143,-2.08164 -0.002,-2.95079 -1.01894,-5.14863 -4.07503,-8.8063 -1.03296,-1.23629 -1.20296,-1.49456 -1.02715,-1.56045 1.09993,-0.41224 7.09517,-0.47793 14.88086,-0.16304 7.01663,0.28378 12.15948,0.35344 14.45958,0.19584 3.86306,-0.26469 5.3971,-0.80451 5.7463,-2.02209 0.0999,-0.34827 0.0613,-0.46118 -0.37993,-1.11087 -1.84115,-2.71121 -5.33354,-5.18911 -9.92958,-7.0452 -3.69162,-1.49083 -6.98872,-2.39153 -14.17143,-3.87134 -3.88137,-0.79965 -5.33703,-1.15795 -5.54357,-1.36449 -0.12166,-0.12166 0.35669,-0.36219 0.72027,-0.36219 0.10449,0 0.53929,-0.0608 0.96621,-0.13517 1.33836,-0.23307 1.73361,-0.92822 1.21529,-2.13741 -0.46354,-1.08138 -1.99149,-2.00609 -4.46214,-2.70046 -0.71642,-0.20135 -2.84925,-0.71047 -4.73964,-1.13138 -1.890383,-0.42091 -3.801889,-0.88835 -4.247791,-1.03877 l -0.810731,-0.27348 0.632952,-0.19668 c 1.270984,-0.39494 2.858941,-0.5966 9.10709,-1.15657 5.69611,-0.51049 6.99264,-0.9391 6.99264,-2.31164 0,-1.70776 -2.47025,-2.42759 -9.54081,-2.780206 -3.267565,-0.162955 -5.645809,-0.358188 -5.866709,-0.481605 -0.206117,-0.115157 -0.02553,-0.197981 1.267832,-0.581473 1.09939,-0.325978 2.351317,-0.525066 6.376667,-1.014052 1.89039,-0.229638 3.9704,-0.500113 4.62226,-0.601057 3.46163,-0.536054 5.00101,-1.361463 4.8963,-2.625377 -0.0335,-0.404115 -0.11864,-0.50505 -0.89363,-1.059157 l -0.85661,-0.612474 1.21217,-0.07111 c 0.6667,-0.03911 2.65219,-0.124256 4.4122,-0.189212 1.76001,-0.06495 3.6267,-0.143223 4.14818,-0.173928 l 0.94816,-0.05583 -0.79812,0.284651 c -1.17977,0.420765 -1.96233,0.885322 -2.23526,1.326916 -0.23295,0.376926 -0.23433,0.40524 -0.0362,0.740632 0.44817,0.758691 0.91371,0.839527 5.5578,0.965031 2.21592,0.05988 4.64934,0.18959 5.40758,0.288235 2.3247,0.302436 3.66686,0.841666 4.05211,1.627985 0.18964,0.387084 0.19807,0.521187 0.0728,1.158141 -0.0779,0.396202 -0.12113,0.740594 -0.096,0.765316 0.0252,0.02472 0.84577,-0.05412 1.82355,-0.175195 2.97591,-0.36851 5.39386,-0.504252 7.74194,-0.434628 2.39069,0.07089 3.41259,0.23829 4.50524,0.738024 1.75767,0.803883 2.11492,1.942013 1.36878,4.360723 -0.0625,0.20255 0.0159,0.21041 1.33667,0.13419 3.35944,-0.19386 14.88406,1.01905 32.17845,3.38665 2.84636,0.38966 5.23304,0.70848 5.30374,0.70848 0.0919,0 0.12853,6.56556 0.12853,23.05202 v 23.05202 H 138.13435 87.289529 Z"
       id="path4" />
    <path
       style="fill:#cccccc;stroke:#000000;stroke-width:0.0291166;stroke-dasharray:none"
       d="m 87.289529,114.70584 c 0,-22.388294 0.03855,-32.739849 0.121729,-32.68844 0.06695,0.04138 0.906958,0.638065 1.866681,1.325971 4.700744,3.369379 9.091504,6.109589 12.411691,7.745959 2.52324,1.243586 3.71709,1.659793 6.1402,2.140622 0.99033,0.196516 2.0406,0.462604 2.33394,0.591307 0.68932,0.302446 1.77779,0.959641 1.77779,1.073396 0,0.145306 -1.75593,0.649472 -2.97767,0.854953 -0.62734,0.105511 -2.70736,0.379863 -4.62226,0.609672 -5.289281,0.63477 -7.257056,1.016123 -8.499581,1.647207 -1.400361,0.711249 -1.832903,1.714799 -1.03939,2.411513 0.655558,0.57559 1.863798,0.76296 6.294381,0.97614 5.60366,0.26963 8.76399,0.71719 9.11887,1.29139 0.0794,0.12839 -1.11729,0.41556 -2.48179,0.5956 -0.52148,0.0688 -2.73483,0.28648 -4.91855,0.48371 -6.127204,0.55341 -7.950499,0.91498 -8.903192,1.76557 -0.367241,0.32788 -0.491649,0.53697 -0.54046,0.90836 -0.05745,0.43716 -0.02614,0.5138 0.333644,0.81654 0.783111,0.65894 1.899376,0.99608 7.074948,2.13677 4.21415,0.92878 6.38384,1.67041 7.05426,2.41121 0.30465,0.33664 0.18576,0.44843 -0.57166,0.53745 -0.3605,0.0424 -0.86799,0.16207 -1.12776,0.26601 -0.98389,0.39368 -1.53599,1.50723 -1.13333,2.28588 0.3718,0.71899 1.48244,1.06124 7.35436,2.2663 7.69706,1.57962 12.04407,2.90122 15.89137,4.83139 2.6443,1.32662 5.21911,3.29058 6.31039,4.8133 l 0.39419,0.55003 -0.41594,0.17379 c -1.61486,0.67473 -7.21032,0.81021 -17.52406,0.42429 -12.16561,-0.45522 -15.77472,-0.29513 -17.552264,0.77854 -0.305601,0.18459 -0.554638,0.36267 -0.553416,0.39574 0.0012,0.0331 0.803809,1.02013 1.78353,2.19347 3.21766,3.85358 4.18836,5.58267 4.43689,7.90343 0.0865,0.80762 -0.005,2.06886 -0.17001,2.33532 -0.25957,0.41999 -10.69175,3.96195 -16.215669,5.50558 l -1.451862,0.40571 z"
       id="path5" />
    <path
       style="fill:#cccccc;stroke:#000000;stroke-width:0.0291166;stroke-dasharray:none"
       d="m 185.36432,106.4221 c -12.47472,-1.80467 -27.72176,-3.52463 -32.13694,-3.62525 l -1.32191,-0.0301 -0.0429,-0.8941 c -0.15166,-3.159032 -3.32908,-4.573272 -9.7578,-4.343111 -1.17335,0.04201 -2.88003,0.153637 -3.79263,0.248063 -0.91259,0.09443 -1.74154,0.173264 -1.84209,0.175193 -0.11579,0.0022 -0.23312,-0.1812 -0.31997,-0.500199 -0.38228,-1.404077 -2.01631,-2.33252 -4.85482,-2.758469 -1.0453,-0.156859 -5.01922,-0.354851 -8.33138,-0.415094 -0.84327,-0.01534 -0.6341,-0.100649 1.57356,-0.641769 4.35238,-1.066817 13.23696,-2.450588 23.56382,-3.67006 l 3.38908,-0.400207 7.04063,-2.516223 c 7.90826,-2.826299 16.1572,-5.702189 17.95103,-6.258396 1.3909,-0.431274 1.91816,-0.750233 2.24526,-1.358222 0.17916,-0.333025 0.33832,-0.462348 0.65185,-0.529667 0.49713,-0.10674 8.86573,-0.09108 9.29794,0.0174 l 0.30213,0.07583 v 13.923769 13.923772 l -0.44444,-0.0144 c -0.24445,-0.008 -1.67113,-0.19184 -3.1704,-0.40874 z"
       id="path6" />
  </g>
</svg>
