<?xml version="1.0" encoding="UTF-8" standalone="no"?>
<!-- Created with Inkscape (http://www.inkscape.org/) -->

<svg
   width="72.520287mm"
   height="30.974476mm"
   viewBox="0 0 72.520287 30.974476"
   version="1.1"
   id="svg5"
   xmlns="http://www.w3.org/2000/svg"
   xmlns:svg="http://www.w3.org/2000/svg">
  <defs
     id="defs2" />
  <g
     id="layer1"
     transform="translate(-43.390111,-96.777089)">
    <g
       id="g2885">
      <g
         id="g1">
        <path
           id="rect1957"
           style="fill:none;stroke:#000000;stroke-width:0.3"
           d="m 82.432622,104.39349 h 21.249598 v 8.69027 H 82.432622 Z" />
        <path
           id="rect1957-2"
           style="stroke:#000000;stroke-width:0.0755291"
           d="m 94.82636,104.28126 h 1.312984 v 8.91473 H 94.82636 Z" />
        <path
           id="rect1959"
           style="fill:none;stroke:#000000;stroke-width:0.3"
           d="m 78.271666,107.3312 h 4.049796 v 2.81485 h -4.049796 z" />
        <path
           id="rect1988"
           style="stroke:#000000;stroke-width:0.3"
           d="m 95.288547,108.28852 h 19.194243 v 0.90022 H 95.288547 Z" />
        <path
           id="path1990"
           style="stroke:#000000;stroke-width:0.3"
           d="m 115.7604,108.73862 a 0.60090089,2.5162637 0 0 1 -0.6009,2.51626 0.60090089,2.5162637 0 0 1 -0.6009,-2.51626 0.60090089,2.5162637 0 0 1 0.6009,-2.51627 0.60090089,2.5162637 0 0 1 0.6009,2.51627 z" />
        <g
           id="g2010"
           transform="translate(-13.229169)">
          <g
             id="g1953"
             transform="translate(-29.633346)">
            <path
               id="path1786"
               style="fill:none;stroke:#000000;stroke-width:0.3"
               d="m 109.43651,108.66673 -1.27599,-0.0248 c 7.4e-4,-0.057 9e-4,-0.11412 4.9e-4,-0.17125 m 0.84292,2.94272 -1.21228,-0.35445 c 0.016,-0.0546 0.0314,-0.10925 0.0464,-0.16406 m 0.0779,3.05732 -1.09895,-0.63453 c 0.0288,-0.0497 0.0572,-0.0996 0.0852,-0.14975 m -0.62706,3.01256 -0.936,-0.86499 c 0.0393,-0.0425 0.0782,-0.0852 0.11686,-0.1283 m -1.27184,2.80843 -0.72345,-1.04584 c 0.0474,-0.0329 0.0945,-0.0661 0.14138,-0.0997 m -1.85648,2.44494 -0.46128,-1.17709 c 0.0531,-0.0209 0.10601,-0.0422 0.15877,-0.064 m -2.380989,1.92208 -0.149495,-1.25871 c 0.05642,-0.007 0.112768,-0.0136 0.169034,-0.0211 m -2.81353,1.22599 0.195809,-1.25033 c 0.0561,0.009 0.112285,0.0168 0.168551,0.0243 m -3.019944,0.45287 0.500694,-1.16181 c 0.05243,0.0227 0.105033,0.0449 0.157797,0.0667 m -3.054861,-0.28212 0.755966,-1.02367 c 0.04639,0.0343 0.09302,0.0683 0.139909,0.10192 m -2.930414,-0.95697 0.961625,-0.83592 c 0.03796,0.0436 0.07626,0.087 0.114889,0.13001 m -2.646604,-1.57168 1.117671,-0.59857 c 0.02716,0.0505 0.05474,0.10085 0.08274,0.15098 m -2.203431,-2.12626 1.224103,-0.31159 c 0.01399,0.0551 0.02847,0.10998 0.04345,0.1648 m -1.59844,-2.62023 1.275993,0.0248 c -7.36e-4,0.057 -9.02e-4,0.11413 -4.91e-4,0.17126 m -0.842914,-2.94273 1.212276,0.35446 c -0.01596,0.0546 -0.03143,0.10925 -0.04641,0.16406 m -0.07786,-3.05732 1.098945,0.63453 c -0.02881,0.0497 -0.05721,0.0996 -0.0852,0.14975 m 0.627063,-3.01256 0.936001,0.865 c -0.03928,0.0425 -0.07823,0.0852 -0.11686,0.12829 m 1.271845,-2.808429 0.723444,1.04585 c -0.04737,0.03286 -0.0945,0.0661 -0.141383,0.09971 m 1.856489,-2.444912 0.461275,1.177089 c -0.05308,0.02087 -0.106011,0.0422 -0.158775,0.06399 m 2.380998,-1.922081 0.149492,1.258716 c -0.05642,0.0065 -0.112768,0.01355 -0.169034,0.02113 m 2.813532,-1.225984 -0.195811,1.250335 c -0.0561,-0.0086 -0.112285,-0.01676 -0.168552,-0.02434 m 3.019947,-0.452866 -0.50069,1.161812 c -0.0524,-0.02268 -0.10504,-0.04492 -0.1578,-0.0667 m 3.05486,0.282122 -0.75597,1.023649 c -0.0464,-0.0343 -0.093,-0.0683 -0.13991,-0.10192 m 2.93042,0.95697 -0.96163,0.83592 c -0.038,-0.0436 -0.0763,-0.087 -0.11489,-0.13001 m 2.6466,1.57169 -1.11767,0.59856 c -0.0272,-0.0505 -0.0547,-0.10085 -0.0827,-0.15097 m 2.20343,2.12626 -1.2241,0.31158 c -0.014,-0.0551 -0.0285,-0.10998 -0.0434,-0.16479" />
            <path
               id="path1786-2"
               style="fill:none;stroke:#000000;stroke-width:0.313514"
               d="M 109.28178,108.37009 A 11.436239,11.436239 0 0 1 97.845561,119.80633 11.436239,11.436239 0 0 1 86.409385,108.37009 11.436239,11.436239 0 0 1 97.845561,96.933844 11.436239,11.436239 0 0 1 109.28178,108.37009 Z" />
            <g
               aria-label="0"
               transform="translate(-6.879167,-1.0583333)"
               id="text1851"
               style="font-weight:300;font-size:3.175px;font-family:Ubuntu;-inkscape-font-specification:'Ubuntu Light';text-align:center;text-anchor:middle;white-space:pre;inline-size:3.11846;fill:none;stroke:#000000;stroke-width:0.3">
              <path
                 d="m 94.570297,109.66976 q 0,-0.5588 0.18415,-0.85407 0.18415,-0.29528 0.523875,-0.29528 0.33655,0 0.5207,0.29528 0.187325,0.29527 0.187325,0.85407 0,0.55563 -0.187325,0.8509 -0.18415,0.29528 -0.5207,0.29528 -0.33655,0 -0.523875,-0.29528 -0.18415,-0.29527 -0.18415,-0.8509 z m 1.190625,0 q 0,-0.1905 -0.0254,-0.36195 -0.02223,-0.17462 -0.07937,-0.30797 -0.05715,-0.13335 -0.149225,-0.21273 -0.09208,-0.0794 -0.2286,-0.0794 -0.1397,0 -0.231775,0.0794 -0.09208,0.0794 -0.149225,0.21273 -0.05398,0.13335 -0.07937,0.30797 -0.02223,0.17145 -0.02223,0.36195 0,0.1905 0.02223,0.36513 0.0254,0.17145 0.07937,0.3048 0.05715,0.13017 0.149225,0.20955 0.09207,0.0794 0.231775,0.0794 0.136525,0 0.2286,-0.0794 0.09207,-0.0794 0.149225,-0.20955 0.05715,-0.13335 0.07937,-0.3048 0.0254,-0.17463 0.0254,-0.36513 z"
                 id="path3713" />
            </g>
            <g
               aria-label="1"
               transform="translate(-0.26907466,-9.4721693)"
               id="text1851-9"
               style="font-weight:300;font-size:3.175px;font-family:Ubuntu;-inkscape-font-specification:'Ubuntu Light';text-align:center;text-anchor:middle;white-space:pre;inline-size:3.11846;display:inline;fill:none;stroke:#000000;stroke-width:0.3">
              <path
                 d="m 94.722697,109.01889 q 0.1905,-0.0667 0.339725,-0.16828 0.149225,-0.10477 0.295275,-0.28257 h 0.14605 v 2.20027 h -0.206375 v -1.88595 q -0.03493,0.0381 -0.09207,0.0794 -0.05398,0.0413 -0.123825,0.0825 -0.06985,0.0381 -0.14605,0.0762 -0.0762,0.0349 -0.1524,0.0571 z"
                 id="path3716" />
            </g>
            <g
               aria-label="2"
               id="text1892"
               style="font-weight:300;font-size:3.175px;font-family:Ubuntu;-inkscape-font-specification:'Ubuntu Light';text-align:center;text-anchor:middle;fill:none;stroke:#000000;stroke-width:0.3">
              <path
                 d="m 105.03923,101.97968 q 0,0.12382 -0.0444,0.23495 -0.0445,0.10795 -0.12065,0.20955 -0.073,0.1016 -0.16828,0.19685 -0.0952,0.0952 -0.19367,0.1905 -0.0825,0.0794 -0.16193,0.16192 -0.0762,0.0794 -0.1397,0.16193 -0.0603,0.0794 -0.0984,0.15875 -0.0349,0.0762 -0.0349,0.1524 v 0.006 h 1.03823 v 0.18097 h -1.26683 q 0,-0.006 -0.003,-0.0222 0,-0.0191 0,-0.054 0,-0.14922 0.054,-0.27622 0.054,-0.13018 0.13653,-0.24448 0.0857,-0.1143 0.18732,-0.21272 0.10478,-0.0984 0.20003,-0.1905 0.0794,-0.0762 0.14922,-0.14605 0.073,-0.073 0.127,-0.14923 0.054,-0.0762 0.0857,-0.16192 0.0318,-0.0857 0.0318,-0.18733 0,-0.22225 -0.12065,-0.3175 -0.11748,-0.0984 -0.29845,-0.0984 -0.1016,0 -0.18098,0.0254 -0.0794,0.0254 -0.1397,0.0603 -0.0572,0.0317 -0.0984,0.0667 -0.0413,0.0349 -0.0603,0.054 l -0.10795,-0.14287 q 0.019,-0.0222 0.0667,-0.0635 0.0508,-0.0444 0.12382,-0.0857 0.0762,-0.0413 0.17463,-0.0699 0.0984,-0.0318 0.21907,-0.0318 0.32068,0 0.4826,0.15875 0.16193,0.15558 0.16193,0.43498 z"
                 id="path3719" />
            </g>
            <g
               aria-label="3"
               id="text1896"
               style="font-weight:300;font-size:3.175px;font-family:Ubuntu;-inkscape-font-specification:'Ubuntu Light';text-align:center;text-anchor:middle;fill:none;stroke:#000000;stroke-width:0.3">
              <path
                 d="m 105.67036,113.37271 q 0.30162,0 0.4318,-0.12382 0.13017,-0.127 0.13017,-0.33973 0,-0.1397 -0.054,-0.23177 -0.0508,-0.0921 -0.14288,-0.14605 -0.0889,-0.0572 -0.20955,-0.0794 -0.11747,-0.0254 -0.25082,-0.0254 h -0.0317 v -0.17145 h 0.073 q 0.0857,0 0.17463,-0.0159 0.0921,-0.019 0.1651,-0.0667 0.0762,-0.0476 0.12382,-0.127 0.0508,-0.0794 0.0508,-0.2032 0,-0.10477 -0.0349,-0.1778 -0.0349,-0.0762 -0.0953,-0.12065 -0.0571,-0.0444 -0.13653,-0.0635 -0.0762,-0.0222 -0.16192,-0.0222 -0.17145,0 -0.2667,0.0476 -0.0953,0.0476 -0.15558,0.0889 l -0.0889,-0.16192 q 0.0318,-0.0222 0.0794,-0.0508 0.0508,-0.0286 0.11747,-0.054 0.0667,-0.0254 0.14605,-0.0413 0.0826,-0.019 0.1778,-0.019 0.1651,0 0.28258,0.0413 0.12065,0.0413 0.20002,0.11748 0.0794,0.073 0.11748,0.1778 0.0381,0.1016 0.0381,0.22225 0,0.19367 -0.10478,0.3175 -0.1016,0.12065 -0.26352,0.17462 0.0889,0.0222 0.17145,0.0698 0.0857,0.0445 0.1524,0.11748 0.0667,0.0699 0.10795,0.17145 0.0413,0.1016 0.0413,0.23812 0,0.1397 -0.0508,0.25718 -0.0476,0.11747 -0.14605,0.20637 -0.0952,0.0857 -0.24447,0.13653 -0.14923,0.0476 -0.34925,0.0476 -0.10478,0 -0.19368,-0.0159 -0.0857,-0.0127 -0.1524,-0.0318 -0.0667,-0.0191 -0.1143,-0.0381 -0.0444,-0.0191 -0.0667,-0.0318 l 0.054,-0.18415 q 0.0191,0.0127 0.0635,0.0318 0.0444,0.019 0.10478,0.0381 0.0635,0.0159 0.1397,0.0286 0.0794,0.0127 0.17145,0.0127 z"
                 id="path3722" />
            </g>
            <g
               aria-label="Bar"
               id="text1937"
               style="font-weight:300;font-size:3.175px;font-family:Ubuntu;-inkscape-font-specification:'Ubuntu Light';text-align:center;text-anchor:middle;fill:none;stroke:#000000;stroke-width:0.3">
              <path
                 d="m 95.703711,117.44012 q -0.05397,0 -0.127,-0.006 -0.06985,-0.003 -0.14605,-0.0127 -0.07303,-0.006 -0.1397,-0.0159 -0.06667,-0.0127 -0.1143,-0.0254 v -2.11772 q 0.05715,-0.0159 0.127,-0.0254 0.06985,-0.0127 0.142875,-0.0191 0.0762,-0.01 0.14605,-0.0127 0.07303,-0.003 0.13335,-0.003 0.1778,0 0.33655,0.0286 0.161925,0.0286 0.282575,0.0952 0.12065,0.0667 0.1905,0.1778 0.07303,0.10795 0.07303,0.26987 0,0.1778 -0.09208,0.3048 -0.0889,0.12383 -0.2413,0.17145 0.09525,0.0222 0.174625,0.0635 0.07937,0.0413 0.1397,0.10795 0.06033,0.0635 0.09208,0.15875 0.03493,0.0921 0.03493,0.22225 0,0.31115 -0.24765,0.47625 -0.24765,0.16193 -0.765175,0.16193 z m -0.31115,-1.07315 v 0.86677 q 0.04762,0.006 0.142875,0.0159 0.09525,0.006 0.193675,0.006 0.14605,0 0.282575,-0.0191 0.1397,-0.019 0.244475,-0.0699 0.104775,-0.0508 0.168275,-0.1397 0.0635,-0.0889 0.0635,-0.2286 0,-0.127 -0.04445,-0.20955 -0.04445,-0.0857 -0.127,-0.13335 -0.08255,-0.0508 -0.2032,-0.0699 -0.117475,-0.0191 -0.263525,-0.0191 z m 0,-0.18415 h 0.4191 q 0.117475,0 0.22225,-0.0159 0.104775,-0.019 0.180975,-0.0635 0.07937,-0.0476 0.123825,-0.12382 0.04445,-0.0794 0.04445,-0.20003 0,-0.10795 -0.04762,-0.18097 -0.04763,-0.0762 -0.136525,-0.12383 -0.08572,-0.0476 -0.206375,-0.0667 -0.12065,-0.0222 -0.2667,-0.0222 -0.117475,0 -0.200025,0.006 -0.07937,0.006 -0.13335,0.0159 z"
                 id="path3725" />
              <path
                 d="m 97.681733,117.27184 q 0.12065,0 0.20955,-0.006 0.09207,-0.01 0.155575,-0.0222 v -0.57785 q -0.03493,-0.0159 -0.111125,-0.0318 -0.0762,-0.019 -0.20955,-0.019 -0.0762,0 -0.15875,0.0127 -0.08255,0.01 -0.1524,0.0476 -0.06985,0.0349 -0.1143,0.0984 -0.04445,0.0635 -0.04445,0.16827 0,0.0921 0.02858,0.15558 0.03175,0.0635 0.08572,0.1016 0.05715,0.0381 0.13335,0.0572 0.07937,0.0159 0.1778,0.0159 z m -0.01905,-1.53035 q 0.161925,0 0.27305,0.0476 0.1143,0.0444 0.18415,0.127 0.06985,0.0794 0.1016,0.1905 0.03175,0.11112 0.03175,0.2413 v 1.03505 q -0.03175,0.01 -0.09207,0.0222 -0.06033,0.01 -0.1397,0.0222 -0.07937,0.0127 -0.1778,0.0191 -0.09525,0.01 -0.19685,0.01 -0.130175,0 -0.2413,-0.0286 -0.10795,-0.0286 -0.1905,-0.0889 -0.07937,-0.0635 -0.127,-0.15875 -0.04445,-0.0984 -0.04445,-0.23813 0,-0.13335 0.0508,-0.2286 0.0508,-0.0953 0.142875,-0.15557 0.09207,-0.0635 0.219075,-0.0921 0.127,-0.0286 0.276225,-0.0286 0.04445,0 0.09207,0.006 0.0508,0.003 0.09525,0.0127 0.04762,0.006 0.07937,0.0159 0.03493,0.006 0.04762,0.0127 v -0.1016 q 0,-0.0857 -0.0127,-0.1651 -0.0127,-0.0826 -0.05715,-0.14605 -0.04127,-0.0667 -0.12065,-0.10477 -0.0762,-0.0413 -0.2032,-0.0413 -0.180975,0 -0.269875,0.0254 -0.0889,0.0254 -0.130175,0.0413 l -0.02858,-0.18098 q 0.05398,-0.0254 0.1651,-0.0476 0.1143,-0.0222 0.27305,-0.0222 z"
                 id="path3727" />
              <path
                 d="m 99.33908,115.74784 q 0.1016,0 0.1905,0.0159 0.09208,0.0159 0.127,0.0317 l -0.04127,0.1778 q -0.0254,-0.0127 -0.104775,-0.0254 -0.0762,-0.0159 -0.2032,-0.0159 -0.13335,0 -0.2159,0.0191 -0.07937,0.019 -0.104775,0.0317 v 1.43828 h -0.20638 v -1.56528 q 0.07937,-0.0349 0.219075,-0.0699 0.1397,-0.0381 0.339725,-0.0381 z"
                 id="path3729" />
            </g>
          </g>
          <path
             id="path1939"
             style="stroke:#000000;stroke-width:0.3"
             d="m 68.960809,108.3854 a 0.74813205,0.74813205 0 0 1 -0.748132,0.74813 0.74813205,0.74813205 0 0 1 -0.748132,-0.74813 0.74813205,0.74813205 0 0 1 0.748132,-0.74813 0.74813205,0.74813205 0 0 1 0.748132,0.74813 z" />
          <path
             style="fill:none;stroke:#000000;stroke-width:0.3"
             d="m 68.096242,108.41372 -8.233796,0.0307"
             id="path1955" />
          <path
             id="rect1992"
             style="stroke:#000000;stroke-width:0.238344"
             d="m 66.06472,119.72932 h 4.295914 v 2.79339 H 66.06472 Z" />
        </g>
        <path
           style="fill:none;fill-opacity:1;stroke:#000000;stroke-width:0.3"
           d="m 56.300699,122.67375 c 0,0 4.996657,5.26698 9.868474,3.2 8.292172,-4.3658 3.134553,-6.83817 3.421984,-12.55115 3.908932,-6.25951 8.866134,-5.6826 8.866134,-5.6826"
           id="path4613" />
        <path
           style="fill:none;fill-opacity:1;stroke:#000000;stroke-width:0.3"
           d="m 53.376302,122.19104 c 0,0 7.161883,6.51902 12.649676,5.24411 8.292171,-4.3658 5.382453,-7.9915 4.832355,-13.70448 3.908931,-6.25951 7.455763,-4.52927 7.455763,-4.52927"
           id="path4613-7" />
      </g>
    </g>
  </g>
</svg>
