<?xml version="1.0" encoding="UTF-8" standalone="no"?>
<!-- Created with Inkscape (http://www.inkscape.org/) -->

<svg
   width="146.82217mm"
   height="65.766594mm"
   viewBox="0 0 146.82217 65.766594"
   version="1.1"
   id="svg1"
   xml:space="preserve"
   xmlns="http://www.w3.org/2000/svg"
   xmlns:svg="http://www.w3.org/2000/svg"><defs
     id="defs1" /><g
     id="layer2"
     transform="translate(-33.719979,-66.332975)"><path
       style="fill:none;stroke:#000000;stroke-width:0.239;stroke-opacity:1"
       d="m 33.758277,111.84594 c 13.443557,-4.54814 29.258225,-23.908401 37.088394,-24.067817 6.28881,-0.128035 11.93116,10.516687 25.667502,18.034277 3.366715,1.84253 7.219647,3.49721 11.687497,4.75938 -2.24637,2.36443 -15.969404,5.57724 -21.741159,2.47931 -6.854938,2.19546 -6.964039,1.90508 -14.675005,0.76203 -10.051336,2.40247 -18.562381,2.80195 -23.60903,-0.48732 -9.398405,-0.76259 -5.086374,-0.11077 -14.418199,-1.47986 z"
       id="path1" /><path
       style="fill:none;stroke:#000000;stroke-width:0.239;stroke-opacity:1"
       d="m 52.961037,99.280375 c 0,0 -1.929256,2.889185 -1.059762,3.819065 0.665807,0.2791 6.163746,-4.419393 7.463961,-4.923377 0.09956,1.204678 -5.764154,9.033077 -5.689013,10.083717 1.391995,0.39879 4.807172,-3.77479 6.009704,-3.756 0.732361,0.30137 -0.01181,5.51243 1.421517,5.38335 2.508383,-0.31908 5.874987,-13.155124 6.940385,-14.195565 0.535114,-0.605962 2.592113,-0.550679 3.075165,-0.143037 -0.484394,5.180732 6.498393,17.730962 10.06144,17.966852 l 5.292106,-0.39207"
       id="path2" /><path
       style="fill:none;stroke:#000000;stroke-width:0.239;stroke-opacity:1"
       d="m 82.276669,98.301121 c 0.107882,0.741217 4.785436,5.016499 4.785436,5.016499 0,0 6.479609,4.91103 7.49536,4.89922 -0.100368,-0.79355 -7.020893,-5.36188 -7.020893,-5.36188 0,0 -4.420197,-4.363033 -5.259903,-4.553839 z"
       id="path3" /><path
       style="fill:#e6e6e6;stroke:#000000;stroke-width:0.234549;stroke-opacity:1"
       d="m 344.56405,431.2631 c -6.68773,-0.77313 -11.57771,-1.88435 -14.86561,-3.37813 -1.2955,-0.58859 -2.50101,-0.9612 -3.05069,-0.94296 -0.49983,0.0166 -5.17365,0.36934 -10.38625,0.78389 -9.36255,0.74459 -9.49658,0.74798 -11.05414,0.27988 -8.12802,-2.44279 -22.29186,-22.30009 -30.43976,-42.67568 -3.65418,-9.13808 -5.83794,-18.42878 -5.4451,-23.16592 l 0.11916,-1.43694 -1.19252,-0.55156 c -1.0424,-0.48212 -1.66653,-0.55156 -4.95755,-0.55156 -3.42836,0 -3.87593,0.0546 -5.00544,0.61081 -0.68224,0.33594 -1.53966,1.00311 -1.90539,1.4826 -0.97562,1.27911 -2.73501,5.59421 -6.72645,16.4974 -8.2143,22.43848 -11.90639,30.4203 -16.05152,34.70123 -1.61993,1.67301 -2.81516,2.15797 -3.59008,1.45667 -1.30337,-1.17953 -1.86225,-3.88877 -2.29524,-11.12644 -0.44655,-7.46437 -0.94726,-9.11002 -2.67215,-8.78237 -1.82029,0.34578 -3.81064,1.70876 -9.83225,6.73305 -4.87799,4.07009 -7.3364,5.87895 -9.17571,6.75139 -1.19089,0.56487 -2.46674,0.81551 -2.46674,0.48458 0,-0.33928 2.04825,-4.15014 3.62507,-6.74459 0.95475,-1.57092 4.01603,-6.42 6.80284,-10.77574 8.45956,-13.22214 10.86391,-17.54136 10.86391,-19.51612 0,-0.5482 -0.1215,-0.99673 -0.27,-0.99673 -0.95946,0 -4.53337,2.38718 -13.35851,8.92277 -8.71794,6.4562 -13.69065,9.77249 -14.65368,9.77249 -0.143,0 -0.37758,-0.43817 -0.5213,-0.97371 -0.50509,-1.88209 0.83278,-6.15446 3.16569,-10.10935 1.03013,-1.74634 1.58029,-2.25822 8.63031,-8.02971 24.87829,-20.3666 35.72823,-28.27342 45.5697,-33.20858 9.28639,-4.65681 14.99183,-5.45635 22.06702,-3.09241 7.3697,2.46234 13.65741,7.06807 30.13442,22.07337 13.83799,12.602 17.99824,16.2429 24.91651,21.80605 22.76357,18.30473 46.84672,31.32427 72.44414,39.16389 2.21357,0.67794 4.19281,1.28678 4.39831,1.35297 0.56081,0.18065 -1.73745,1.7174 -4.77424,3.19233 -8.35235,4.05665 -22.44381,7.69425 -36.3747,9.38984 -3.35946,0.40889 -6.34615,0.55658 -12.58409,0.62225 -4.49855,0.0473 -8.58814,0.0388 -9.08797,-0.019 z m 13.40008,-22.06585 c -0.0867,-0.22589 -0.15761,-0.51767 -0.15761,-0.64839 0,-0.42421 -1.89594,-2.36147 -4.1545,-4.24503 -3.00506,-2.50612 -9.58315,-7.30071 -16.6733,-12.15271 -5.20287,-3.56047 -6.42629,-4.5411 -10.38625,-8.32504 -8.52598,-8.14698 -13.75277,-12.46176 -15.52521,-12.81625 -0.8317,-0.16634 -0.84945,-0.15158 -0.67129,0.55824 0.10064,0.40101 0.52022,1.21925 0.93238,1.81831 2.40649,3.49771 14.64233,15.48527 19.73356,19.33314 8.62496,6.5186 19.04877,13.59564 23.05273,15.65119 2.4643,1.26512 4.15728,1.62863 3.84949,0.82654 z"
       id="path4"
       transform="scale(0.26458333)" /><path
       style="fill:#cccccc;stroke:#000000;stroke-width:0.234549;stroke-opacity:1"
       d="m 211.49014,436.43722 c -10.8103,-0.91298 -19.73803,-3.33289 -26.70568,-7.23871 l -2.55764,-1.43372 -6.27068,-0.49458 c -3.44888,-0.27203 -9.25024,-0.68048 -12.89192,-0.90768 -8.93515,-0.55745 -12.83773,-0.97191 -23.39488,-2.48452 -4.94118,-0.70797 -9.14761,-1.29221 -9.34763,-1.29831 -0.20003,-0.006 0.74635,-0.45764 2.10306,-1.00343 16.20144,-6.51767 34.50497,-18.42904 60.2885,-39.23389 2.46128,-1.98602 4.50989,-3.57612 4.55245,-3.53356 0.0426,0.0426 -0.32214,0.94304 -0.81044,2.00105 -1.61111,3.4908 -2.08668,6.36892 -1.34548,8.14286 1.09385,2.61794 2.62615,1.82943 16.95034,-8.72256 8.33974,-6.1435 10.91523,-7.90909 11.16818,-7.65614 0.45119,0.45119 -2.76068,5.96148 -10.84072,18.59834 -7.9359,12.41142 -10.11526,16.27255 -10.11526,17.92096 0,1.06769 2.22566,0.9735 4.52964,-0.1917 2.17905,-1.102 4.14067,-2.5453 9.17017,-6.74709 4.97102,-4.15294 7.75179,-6.16173 8.9188,-6.44281 0.62322,-0.15011 0.70145,-0.0731 0.974,0.95933 0.163,0.6174 0.47774,3.75157 0.69942,6.96482 0.41892,6.07203 0.81725,8.6887 1.56135,10.25677 0.97526,2.05523 2.76579,2.50515 4.8101,1.20869 2.38615,-1.51325 4.30986,-4.30614 7.629,-11.07598 2.79992,-5.71081 5.01907,-11.20995 10.00142,-24.78398 6.17685,-16.82834 6.41819,-17.3151 9.04147,-18.23609 1.27004,-0.44588 6.36725,-0.44231 7.64364,0.005 l 0.97371,0.34151 v 2.41406 c 0,11.11158 7.95967,31.20305 18.82984,47.52952 3.80994,5.72235 6.62478,9.19903 10.30296,12.72546 3.14221,3.01258 5.41257,4.55402 7.69254,5.22279 1.25944,0.36943 1.90555,0.36638 7.27256,-0.0343 3.23968,-0.24184 6.18146,-0.39657 6.53728,-0.34384 0.80775,0.11971 -6.05426,2.07289 -10.31949,2.93731 -8.04381,1.6302 -12.24763,1.47781 -29.36752,-1.06464 l -7.87691,-1.16978 -5.88487,1.30526 c -13.10703,2.90715 -24.06498,4.61252 -35.19884,5.47795 -3.04577,0.23675 -16.21845,0.29673 -18.72247,0.0853 z"
       id="path5"
       transform="scale(0.26458333)" /><path
       style="fill:#cccccc;stroke:#000000;stroke-width:0.234549;stroke-opacity:1"
       d="m 352.22391,405.90247 c -6.04849,-3.64722 -19.77693,-13.36418 -23.73286,-16.79806 -2.99236,-2.59748 -15.34543,-14.92526 -15.34543,-15.31401 0,-0.60802 5.74447,4.38676 13.24248,11.51426 3.13327,2.97844 5.00234,4.49286 8.43883,6.83757 10.76863,7.34741 21.78582,15.64234 20.77251,15.63977 -0.14281,-3.7e-4 -1.6618,-0.84615 -3.37553,-1.87953 z"
       id="path6"
       transform="scale(0.26458333)" /><path
       style="fill:none;stroke:#000000;stroke-width:0.239;stroke-opacity:1"
       d="m 130.2043,88.653502 0.0267,1.837595 17.95172,0.08866 0.0764,-1.762535 c -4.02725,0.53752 -14.48505,0.492057 -18.05482,-0.16372 z"
       id="path7" /><path
       style="fill:none;stroke:#000000;stroke-width:0.239;stroke-opacity:1"
       d="m 130.16699,88.595506 c 1.68037,-0.905734 16.51874,-0.586757 18.07043,0.09681"
       id="path8" /><path
       style="fill:none;stroke:#000000;stroke-width:0.239;stroke-opacity:1"
       d="m 131.73153,90.448809 c -6.76559,10.274201 -2.59656,20.209321 0.48435,22.699381 1.74769,1.41252 4.27404,2.00212 6.78991,1.96265 2.51588,-0.0395 5.50665,-0.58992 6.89533,-2.19131 6.4088,-7.39045 4.12135,-17.691491 0.59371,-22.340684"
       id="path9" /><path
       style="fill:#e6e6e6;stroke:#000000;stroke-width:0.132002;stroke-opacity:1"
       d="m 520.08239,434.37712 c -10.26701,-1.03006 -17.97906,-4.33708 -22.64225,-9.70928 -6.17648,-7.11558 -10.66414,-18.13704 -12.20156,-29.96637 -0.44015,-3.38667 -0.55599,-5.90554 -0.47905,-10.41697 0.0935,-5.48118 0.44693,-8.73571 1.49698,-13.78362 1.84868,-8.88723 5.90155,-18.68751 11.07399,-26.77815 l 0.73384,-1.14786 26.31631,0.10806 c 14.47397,0.0594 26.94008,0.14854 27.70246,0.19801 l 1.38616,0.0899 0.83772,1.16905 c 3.9553,5.51972 7.57543,13.82527 9.61783,22.06588 4.58311,18.49185 2.22803,36.78744 -6.63632,51.55462 -2.24547,3.74074 -5.37754,7.90669 -7.28824,9.69406 -3.69406,3.45562 -9.9002,5.7053 -18.51961,6.71324 -2.27757,0.26633 -9.50692,0.39914 -11.39826,0.20939 z"
       id="path10"
       transform="scale(0.26458333)" /><path
       style="fill:#e6e6e6;stroke:#000000;stroke-width:0.132002;stroke-opacity:1"
       d="m 526.87751,341.70155 c -15.83336,-0.066 -29.97925,-0.15947 -31.4353,-0.20763 l -2.64737,-0.0876 -0.10555,-2.77282 c -0.0581,-1.52506 -0.0775,-2.80086 -0.0433,-2.83512 0.0343,-0.0343 1.33883,0.0982 2.89905,0.29433 7.83561,0.98508 18.45979,1.44451 33.45133,1.44656 12.79765,0.002 21.51558,-0.30559 28.49567,-1.00457 1.1654,-0.1167 2.16646,-0.21233 2.22459,-0.21251 0.0993,-3.1e-4 0.0699,0.99234 -0.12424,4.20096 l -0.0818,1.35171 -1.9226,-0.0266 c -1.05744,-0.0147 -14.87717,-0.0807 -30.71053,-0.1467 z"
       id="path11"
       transform="scale(0.26458333)" /><path
       style="fill:none;stroke:#000000;stroke-width:0.239;stroke-opacity:1"
       d="m 158.82483,69.102985 c 2.14636,0.489972 17.28251,0.409504 18.2525,0.03613 l -0.24379,-2.16994 c -1.68905,0.950525 -16.04946,1.157547 -18.0431,0.139962 z"
       id="path12" /><path
       style="fill:none;stroke:#000000;stroke-width:0.239;stroke-opacity:1"
       d="m 176.79698,66.934127 c -1.66245,-0.681635 -16.01139,-0.646591 -18.10064,0.148614"
       id="path13" /><path
       style="fill:none;stroke:#000000;stroke-width:0.239;stroke-opacity:1"
       d="m 160.01202,69.325799 0.94641,1.914678 c -7.87828,10.542519 -5.68974,21.974131 -2.13554,31.928243 1.21983,3.41634 3.51655,10.29894 3.51655,10.29894 3.85683,3.34847 9.09614,1.3791 10.02961,0.1166 0.83918,-1.13497 3.29551,-7.18686 4.38488,-10.9717 2.91599,-10.131138 7.42508,-18.00914 -2.03041,-31.440009 l 1.18177,-1.900616"
       id="path14" /><path
       style="fill:none;stroke:#000000;stroke-width:0.239;stroke-opacity:1"
       d="m 156.73883,80.67953 c 5.84116,2.204551 19.16668,1.659849 20.90679,0.160512 l -0.0173,0.620847 c -2.56884,1.757411 -17.64377,1.198867 -20.92842,-0.15164 z m -0.16263,3.063927 c 5.84116,2.204551 19.16668,1.659849 20.90679,0.160512 l -0.0173,0.620847 c -2.56884,1.757411 -17.64377,1.198867 -20.92842,-0.15164 z m -0.19045,3.261287 c 5.84116,2.204551 19.16668,1.659849 20.90679,0.160512 l -0.0173,0.620847 c -2.56884,1.757411 -17.64377,1.198867 -20.92842,-0.15164 z"
       id="path15" /><path
       style="fill:#cccccc;stroke:#000000;stroke-width:0.189067;stroke-opacity:1"
       d="m 630.84719,311.42703 c -14.68453,-0.5187 -26.99371,-1.73413 -33.90752,-3.34809 -3.25675,-0.76026 -4.23723,-1.11572 -4.09559,-1.48482 0.0653,-0.17026 0.11879,-0.43753 0.11879,-0.59393 0,-0.21824 0.35287,-0.16417 1.51746,0.23253 3.75052,1.27756 10.22237,2.60219 16.6971,3.41749 20.26868,2.55224 48.97338,1.36861 58.25301,-2.40204 0.69134,-0.28092 1.28784,-0.51076 1.32556,-0.51076 0.0377,0 0.0686,0.19359 0.0686,0.43019 0,0.31728 -0.29791,0.56658 -1.13507,0.94985 -3.02103,1.38307 -9.48639,2.46621 -18.01639,3.0183 -3.44287,0.22283 -17.28346,0.41641 -20.82591,0.29128 z"
       id="path16"
       transform="scale(0.26458333)" /><path
       style="fill:#cccccc;stroke:#000000;stroke-width:0.189067;stroke-opacity:1"
       d="m 625.7192,322.83589 c -12.79109,-0.55437 -24.12035,-1.83497 -30.49421,-3.44689 -2.97229,-0.75168 -3.06656,-0.79834 -2.94088,-1.45579 0.0745,-0.38953 0.2074,-0.52568 0.44481,-0.45557 6.40681,1.89188 10.40509,2.75582 16.55979,3.57817 20.72773,2.7695 50.00158,1.66466 59.61312,-2.24989 l 1.32151,-0.53822 -0.0657,0.4617 c -0.18226,1.28127 -6.32747,2.83515 -14.19381,3.58905 -7.46934,0.71585 -20.51647,0.93907 -30.24466,0.51744 z"
       id="path17"
       transform="scale(0.26458333)" /><path
       style="fill:#cccccc;stroke:#000000;stroke-width:0.189067;stroke-opacity:1"
       d="m 625.50989,335.19586 c -14.25531,-0.62147 -26.74502,-2.12534 -32.7293,-3.94088 -1.08045,-0.32779 -1.1836,-0.41254 -1.24313,-1.02134 l -0.0649,-0.66388 1.73936,0.58757 c 10.00744,3.38063 29.73989,5.3167 47.54252,4.66469 14.05204,-0.51465 23.17637,-1.83298 28.44801,-4.11032 0.28238,-0.12199 0.36629,-0.0582 0.36629,0.27852 0,1.49877 -7.97536,3.24536 -18.31424,4.01079 -3.9759,0.29435 -20.57976,0.42002 -25.7446,0.19485 z"
       id="path18"
       transform="scale(0.26458333)" /><path
       style="fill:#e6e6e6;stroke:#000000;stroke-width:0.189067;stroke-opacity:1"
       d="m 628.44458,435.01778 c -4.74146,-0.69048 -9.81006,-2.84425 -13.24302,-5.62727 l -1.16184,-0.94187 -2.35826,-7.01174 c -2.81354,-8.36539 -8.78446,-25.78155 -11.19423,-32.65168 -7.53799,-21.49043 -11.00173,-37.50436 -11.70056,-54.09535 -0.38629,-9.17073 0.5458,-19.84802 2.38533,-27.32454 l 0.48923,-1.98841 0.0229,1.1944 0.0229,1.19441 1.72677,0.54641 c 11.07799,3.50551 42.54528,5.34976 62.2161,3.64639 6.48373,-0.56145 12.28339,-1.72829 14.75605,-2.96879 l 1.36049,-0.68254 0.1431,-1.88018 c 0.0787,-1.0341 0.1066,-1.91669 0.062,-1.96131 -0.0446,-0.0446 -0.44965,0.21075 -0.90007,0.56749 -2.19873,1.74142 -7.83928,3.0836 -16.78203,3.99331 -7.01691,0.7138 -12.64267,0.91345 -22.1864,0.78738 -12.86737,-0.16998 -21.9969,-1.04846 -30.89951,-2.97326 -3.15901,-0.683 -8.74615,-2.32482 -9.23583,-2.71402 -0.12428,-0.0988 1.74881,-6.09149 2.71618,-8.69006 2.00122,-5.37578 4.02468,-9.73007 6.80933,-14.65304 1.486,-2.6271 4.73325,-7.66788 6.35368,-9.86297 0.56277,-0.76234 1.02322,-1.47785 1.02322,-1.59001 0,-0.11215 -0.71182,-1.68856 -1.58182,-3.50312 -0.87,-1.81455 -1.544,-3.33702 -1.49777,-3.38325 0.0462,-0.0462 2.19441,0.0332 4.77374,0.17649 5.48616,0.30479 44.29079,0.33139 49.74282,0.0341 1.87072,-0.10201 3.40127,-0.1701 3.40121,-0.1513 -5e-5,0.0188 -0.79785,1.31475 -1.77287,2.8799 -0.97503,1.56514 -1.86962,3.02666 -1.98797,3.24782 -0.18029,0.33686 0.18876,1.0073 2.27436,4.13184 9.35487,14.01505 15.05517,26.85186 17.59612,39.62566 1.14293,5.74566 1.3651,8.27023 1.36307,15.48862 -0.002,6.85605 -0.18086,9.15475 -1.16496,14.96535 -1.36771,8.0756 -2.92428,13.93004 -8.04139,30.24467 -1.42622,4.54716 -3.29953,10.62226 -4.16291,13.50021 -3.37148,11.2384 -7.63822,22.86808 -12.20976,33.2796 -2.43601,5.54793 -3.98282,8.42425 -5.1847,9.64104 -2.44956,2.47995 -7.55874,4.58253 -13.18625,5.42654 -2.24825,0.33719 -6.74929,0.37976 -8.78643,0.0831 z m 20.08893,-98.77306 c 10.46298,-0.55761 18.0577,-1.85514 21.13987,-3.61166 l 0.83722,-0.47713 0.0605,-1.95408 0.0605,-1.95408 -0.83781,0.66356 c -3.24454,2.56972 -14.13062,4.33375 -29.70443,4.81345 -18.39096,0.56647 -37.18911,-1.38387 -47.31728,-4.90926 -1.1518,-0.40091 -2.14886,-0.72894 -2.21568,-0.72894 -0.0668,0 -0.0943,0.81567 -0.061,1.81259 l 0.0605,1.81258 1.46514,0.49814 c 2.18802,0.74392 8.02971,1.85929 12.8723,2.45774 6.36233,0.78626 11.59199,1.1892 21.45383,1.65297 3.44911,0.1622 18.69762,0.11005 22.18639,-0.0759 z m 1.15118,-12.34753 c 9.97296,-0.54692 16.75899,-1.67109 20.21881,-3.34943 l 1.27665,-0.6193 0.13635,-1.92085 c 0.075,-1.05647 0.10099,-1.9562 0.0578,-1.99941 -0.0432,-0.0432 -0.34939,0.14816 -0.68042,0.42523 -1.65082,1.38178 -5.1107,2.4663 -10.7532,3.37067 -13.36452,2.14203 -33.83222,2.2769 -49.14289,0.32382 -6.92495,-0.88337 -12.46446,-2.0374 -16.90134,-3.52101 -1.37578,-0.46003 -2.52157,-0.81627 -2.5462,-0.79164 -0.0246,0.0246 -0.1083,0.80634 -0.18592,1.73713 l -0.14114,1.69234 1.23148,0.46081 c 5.13727,1.92234 18.46464,3.5844 34.19711,4.26474 3.77423,0.16321 19.84589,0.11264 23.23292,-0.0731 z"
       id="path19"
       transform="scale(0.26458333)" /><path
       style="fill:#e6e6e6;stroke:#000000;stroke-width:0.189067;stroke-opacity:1"
       d="m 617.52052,261.71907 c -8.67011,-0.21239 -15.80871,-0.66672 -16.42091,-1.04508 -0.20386,-0.12599 -0.30027,-0.96788 -0.36003,-3.14396 l -0.0816,-2.97189 0.6002,0.12805 c 0.33011,0.0704 1.25951,0.26787 2.06534,0.43876 4.23889,0.89893 11.47598,1.36395 23.65153,1.51971 16.64937,0.21299 32.89664,-0.70642 39.13925,-2.21482 0.92044,-0.22241 1.69645,-0.38147 1.72446,-0.35346 0.028,0.028 0.22171,1.56768 0.43045,3.42148 l 0.37954,3.37056 -0.63886,0.11626 c -4.16681,0.75833 -32.61886,1.17218 -50.48935,0.73439 z"
       id="path20"
       transform="scale(0.26458333)" /><path
       style="fill:#e6e6e6;stroke:#000000;stroke-width:0.239;stroke-opacity:1"
       d="m 120.55,95.561551 -1.11307,5.928409 5.62309,-1.920276 z"
       id="path21" /><path
       style="fill:#e6e6e6;stroke:#000000;stroke-width:0.239;stroke-opacity:1"
       d="m 120.08725,97.708211 c -4.86492,-1.302939 -16.72159,1.699121 -19.27312,4.146879 -0.54331,0.51187 -0.17711,1.49042 0.86278,1.25082 3.64708,-2.42008 14.27975,-4.915727 18.19733,-3.938945 z"
       id="path22" /><text
       xml:space="preserve"
       style="font-size:4.23333px;fill:#e6e6e6;stroke:#000000;stroke-width:0.239;stroke-opacity:1"
       x="54.868267"
       y="130.96237"
       id="text22"><tspan
         id="tspan22"
         style="stroke-width:0.239"
         x="54.868267"
         y="130.96237">Matériau</tspan></text><text
       xml:space="preserve"
       style="font-size:4.23333px;fill:#e6e6e6;stroke:#000000;stroke-width:0.239;stroke-opacity:1"
       x="143.08932"
       y="131.0995"
       id="text23"><tspan
         id="tspan23"
         style="stroke-width:0.239"
         x="143.08932"
         y="131.0995">Objets</tspan></text></g></svg>
