<?xml version="1.0" encoding="UTF-8" standalone="no"?>
<!-- Created with Inkscape (http://www.inkscape.org/) -->

<svg
   width="76.313805mm"
   height="25.643639mm"
   viewBox="0 0 76.313805 25.643639"
   version="1.1"
   id="svg1"
   xml:space="preserve"
   xmlns="http://www.w3.org/2000/svg"
   xmlns:svg="http://www.w3.org/2000/svg"><defs
     id="defs1" /><g
     id="layer2"
     transform="translate(-68.246248,-267.58871)"><g
       id="g81"
       transform="translate(43.882353,29.541737)"><ellipse
         style="fill:none;fill-opacity:1;stroke:#000000;stroke-width:0.109289;stroke-linecap:round;stroke-linejoin:round;stroke-dasharray:0.109289, 0.109289;stroke-opacity:1"
         id="ellipse49"
         cx="46.659107"
         cy="258.2388"
         rx="2.9916368"
         ry="3.160599" /><ellipse
         style="fill:none;fill-opacity:1;stroke:#000000;stroke-width:0.181596;stroke-linecap:round;stroke-linejoin:round;stroke-dasharray:0.181596, 0.181596;stroke-opacity:1"
         id="ellipse50"
         cx="46.659107"
         cy="258.2388"
         rx="4.9709468"
         ry="5.2516966" /><ellipse
         style="fill:none;fill-opacity:1;stroke:#000000;stroke-width:0.109289;stroke-linecap:round;stroke-linejoin:round;stroke-dasharray:0.109289, 0.109289;stroke-opacity:1"
         id="ellipse51"
         cx="70.471626"
         cy="258.2388"
         rx="2.9916368"
         ry="3.160599" /><ellipse
         style="fill:none;fill-opacity:1;stroke:#000000;stroke-width:0.181596;stroke-linecap:round;stroke-linejoin:round;stroke-dasharray:0.181596, 0.181596;stroke-opacity:1"
         id="ellipse52"
         cx="70.471626"
         cy="258.2388"
         rx="4.9709468"
         ry="5.2516966" /><path
         style="fill:none;fill-opacity:1;stroke:#000000;stroke-width:0.1;stroke-linecap:round;stroke-linejoin:round;stroke-dasharray:0.1, 0.1;stroke-opacity:1"
         d="m 46.952958,252.97546 -4.522063,1.95636 c 0,0 -0.843064,0.0199 -0.949862,-0.2939 -0.458764,-1.34777 2.462699,-3.48964 2.462699,-3.48964 0,0 -2.686772,-1.44252 -2.801252,-2.42332 -0.11448,-0.9808 1.299774,-1.80069 1.299774,-1.80069 l 5.85198,0.30152 1.441786,0.87048 -1.563783,0.79458 0.559372,1.33494 c 0,0 5.584451,1.63932 5.642078,1.62767 l 0.05763,-0.0116 1.358104,-0.70108 -4.871043,-1.35097 -1.267539,-1.67239 c 0,0 0.301419,-1.86927 1.3965,-3.09437 1.095081,-1.2251 5.55803,-3.30075 5.55803,-3.30075 0,0 0.609907,-2.92448 1.75482,-3.43409 1.144913,-0.50961 2.760574,0.0608 3.538871,0.94458 0.778297,0.88376 0.454967,3.37237 0.454967,3.37237 l -2.123927,2.72864 -3.692366,-3.67512"
         id="path52" /><path
         style="fill:none;fill-opacity:1;stroke:#000000;stroke-width:0.1;stroke-linecap:round;stroke-linejoin:round;stroke-dasharray:0.1, 0.1;stroke-opacity:1"
         d="m 65.641857,260.41685 -1.047261,1.20847 -9.644266,-0.0229 -1.372388,-1.54533 0.240707,-1.99444 2.324132,-2.34285 0.251716,-2.9171 9.012397,-4.03921 2.044242,0.73657 c 0,0 1.280162,-0.61242 2.937944,-1.19391 1.044632,-0.23719 0.546695,0.0445 0.546695,0.0445 l 0.884105,1.173 -0.243663,1.38178 c 0,0 -0.583554,0.93945 -1.159753,0.84219 -0.576199,-0.0973 -0.898817,-0.63104 -1.184508,-1.70103 -0.285691,-1.06999 1.604849,-2.01164 1.604849,-2.01164 0,0 -1.006943,-2.40057 -2.193303,-3.06208 -1.18636,-0.66151 -3.720624,-0.92111 -4.373245,-0.29823 0.006,0.69385 2.009931,2.26339 1.963243,3.09445 -0.04669,0.83106 -0.833507,1.0358 -0.833507,1.0358"
         id="path53" /><path
         style="fill:#e6e6e6;fill-opacity:1;stroke:#000000;stroke-width:0.1;stroke-linecap:round;stroke-linejoin:round;stroke-dasharray:0.1, 0.1;stroke-opacity:1"
         d="m 74.68867,253.62774 c 0,0 -0.941281,-1.11933 -3.375599,-1.16671 -2.434318,-0.0474 -3.362661,0.86591 -3.362661,0.86591 0,0 0.63315,1.23011 3.058599,1.1395 2.425449,-0.0906 3.679661,-0.8387 3.679661,-0.8387 z"
         id="path54" /><path
         style="fill:none;fill-opacity:1;stroke:#000000;stroke-width:0.1;stroke-linecap:round;stroke-linejoin:round;stroke-dasharray:0.1, 0.1;stroke-opacity:1"
         d="m 53.808899,258.11029 -2.504617,-1.46457 -5.137518,0.15885 c 0,0 -1.328256,0.9928 -1.223938,1.73073 0.104318,0.73793 1.836959,1.46853 1.836959,1.46853 l 6.843686,-0.0929"
         id="path55" /><path
         style="fill:none;fill-opacity:1;stroke:#000000;stroke-width:0.1;stroke-linecap:round;stroke-linejoin:round;stroke-dasharray:0.1, 0.1;stroke-opacity:1"
         d="m 51.401225,256.80274 3.017179,-4.56841 2.031598,0.59804 2.956115,-1.8415 5.894872,-2.19133"
         id="path56" /><path
         style="fill:none;fill-opacity:1;stroke:#000000;stroke-width:0.1;stroke-linecap:round;stroke-linejoin:round;stroke-dasharray:0.1, 0.1;stroke-opacity:1"
         d="m 52.62233,255.02416 -8.777396,-3.83451"
         id="path57" /><path
         style="fill:none;fill-opacity:1;stroke:#000000;stroke-width:0.1;stroke-linecap:round;stroke-linejoin:round;stroke-dasharray:0.1, 0.1;stroke-opacity:1"
         d="m 50.996098,244.90124 2.927054,3.31779 3.16644,0.001 0.840095,-1.30435 c 0,0 -2.403682,-0.46182 -1.496455,-3.18311 0.839924,-1.22137 4.908029,2.2342 4.908029,2.2342 l 3.672837,1.53207 1.002867,0.63838"
         id="path58" /><path
         style="fill:none;fill-opacity:1;stroke:#000000;stroke-width:0.1;stroke-linecap:round;stroke-linejoin:round;stroke-dasharray:0.1, 0.1;stroke-opacity:1"
         d="m 57.843205,246.81622 4.370715,1.17558 -0.07963,-1.72938"
         id="path59" /><path
         style="fill:none;fill-opacity:1;stroke:#000000;stroke-width:0.1;stroke-linecap:round;stroke-linejoin:round;stroke-dasharray:0.1, 0.1;stroke-opacity:1"
         d="m 62.052421,248.02072 1.177817,0.25845 c 0,0 0.588688,-0.52132 0.894265,-0.40308 0.305577,0.11824 0.485881,0.59705 0.391666,0.90381 -0.09422,0.30676 -0.45857,0.59159 -0.793785,0.50422 -0.335215,-0.0874 -0.540567,-1.00153 -0.540567,-1.00153"
         id="path60" /><path
         style="fill:none;fill-opacity:1;stroke:#000000;stroke-width:0.1;stroke-linecap:round;stroke-linejoin:round;stroke-dasharray:0.1, 0.1;stroke-opacity:1"
         d="m 60.874549,244.70299 2.181823,0.95706 -0.481872,0.77696"
         id="path61" /><path
         style="fill:none;fill-opacity:1;stroke:#000000;stroke-width:0.1;stroke-linecap:round;stroke-linejoin:round;stroke-dasharray:0.1, 0.1;stroke-opacity:1"
         d="m 63.024154,245.63902 2.557322,0.84365"
         id="path62" /><path
         style="fill:none;fill-opacity:1;stroke:#000000;stroke-width:0.1;stroke-linecap:round;stroke-linejoin:round;stroke-dasharray:0.1, 0.1;stroke-opacity:1"
         d="m 55.827405,248.40215 3.583438,2.56847 0.933309,-0.38717 -3.158159,-2.38755"
         id="path63" /><path
         style="fill:none;fill-opacity:1;stroke:#000000;stroke-width:0.1;stroke-linecap:round;stroke-linejoin:round;stroke-dasharray:0.1, 0.1;stroke-opacity:1"
         d="m 67.99726,253.20447 c 0,0 -2.494483,0.14661 -5.075362,-0.12798 -2.580879,-0.27459 -3.789259,-1.90508 -3.789259,-1.90508"
         id="path64" /><path
         style="fill:none;fill-opacity:1;stroke:#000000;stroke-width:0.1;stroke-linecap:round;stroke-linejoin:round;stroke-dasharray:0.1, 0.1;stroke-opacity:1"
         d="m 70.393781,251.71681 -0.04892,0.75764"
         id="path65" /><path
         style="fill:none;fill-opacity:1;stroke:#000000;stroke-width:0.1;stroke-linecap:round;stroke-linejoin:round;stroke-dasharray:0.1, 0.1;stroke-opacity:1"
         d="m 67.517991,254.08371 2.399061,3.19287 c 0,0 1.519729,0.2604 1.753127,0.79716 0.233398,0.53676 0.01746,1.18684 -0.50446,1.50361 -0.521922,0.31677 -1.459489,0.30066 -1.842045,-0.16371 -0.382557,-0.46437 -0.15396,-1.69091 -0.15396,-1.69091 l -2.42398,-2.85002"
         id="path66" /><path
         style="fill:none;fill-opacity:1;stroke:#000000;stroke-width:0.1;stroke-linecap:round;stroke-linejoin:round;stroke-dasharray:0.1, 0.1;stroke-opacity:1"
         d="m 62.795557,253.01551 c 0.03487,-1.11925 -0.899883,-2.65903 -1.496984,-2.78341"
         id="path67" /><path
         style="fill:none;fill-opacity:1;stroke:#000000;stroke-width:0.1;stroke-linecap:round;stroke-linejoin:round;stroke-dasharray:0.1, 0.1;stroke-opacity:1"
         d="m 56.183365,254.71211 c 0,0 -1.205489,0.58745 -1.361535,1.014 -0.156046,0.42655 0.233511,1.00068 0.233511,1.00068"
         id="path68" /><path
         style="fill:none;fill-opacity:1;stroke:#000000;stroke-width:0.1;stroke-linecap:round;stroke-linejoin:round;stroke-dasharray:0.1, 0.1;stroke-opacity:1"
         d="m 46.001992,256.84693 -0.170624,-1.67396"
         id="path69" /><path
         style="fill:none;fill-opacity:1;stroke:#000000;stroke-width:0.1;stroke-linecap:round;stroke-linejoin:round;stroke-dasharray:0.1, 0.1;stroke-opacity:1"
         d="m 45.002404,258.02034 -1.310917,-0.41458"
         id="path70" /><path
         style="fill:none;fill-opacity:1;stroke:#000000;stroke-width:0.1;stroke-linecap:round;stroke-linejoin:round;stroke-dasharray:0.1, 0.1;stroke-opacity:1"
         d="m 45.182104,259.09159 -1.050097,0.84995"
         id="path71" /><path
         style="fill:none;fill-opacity:1;stroke:#000000;stroke-width:0.1;stroke-linecap:round;stroke-linejoin:round;stroke-dasharray:0.1, 0.1;stroke-opacity:1"
         d="m 46.590214,259.97347 0.0446,1.38303"
         id="path72" /><path
         style="fill:none;fill-opacity:1;stroke:#000000;stroke-width:0.1;stroke-linecap:round;stroke-linejoin:round;stroke-dasharray:0.1, 0.1;stroke-opacity:1"
         d="m 47.604748,256.69642 0.595297,-1.20093"
         id="path73" /><path
         style="fill:none;fill-opacity:1;stroke:#000000;stroke-width:0.1;stroke-linecap:round;stroke-linejoin:round;stroke-dasharray:0.1, 0.1;stroke-opacity:1"
         d="m 70.280103,259.79292 0.07398,1.56631"
         id="path74" /><path
         style="fill:none;fill-opacity:1;stroke:#000000;stroke-width:0.1;stroke-linecap:round;stroke-linejoin:round;stroke-dasharray:0.1, 0.1;stroke-opacity:1"
         d="m 69.02061,259.01793 -1.125599,0.83877"
         id="path75" /><path
         style="fill:none;fill-opacity:1;stroke:#000000;stroke-width:0.1;stroke-linecap:round;stroke-linejoin:round;stroke-dasharray:0.1, 0.1;stroke-opacity:1"
         d="m 71.403111,259.30999 1.12087,1.11505"
         id="path76" /><path
         style="fill:none;fill-opacity:1;stroke:#000000;stroke-width:0.1;stroke-linecap:round;stroke-linejoin:round;stroke-dasharray:0.1, 0.1;stroke-opacity:1"
         d="m 71.798481,258.17771 1.61441,-0.0579"
         id="path77" /><path
         style="fill:none;fill-opacity:1;stroke:#000000;stroke-width:0.1;stroke-linecap:round;stroke-linejoin:round;stroke-dasharray:0.1, 0.1;stroke-opacity:1"
         d="m 70.97178,257.47266 0.948711,-1.98131"
         id="path78" /><path
         style="fill:#e6e6e6;fill-opacity:1;stroke:#000000;stroke-width:0.0703293;stroke-linecap:round;stroke-linejoin:round;stroke-dasharray:0.0703293, 0.0703293;stroke-opacity:1"
         d="m 158.07752,962.98879 c -0.96251,-0.29008 -1.25464,-0.84101 -1.15028,-2.1693 0.14677,-1.86793 1.80892,-4.4175 4.91162,-7.53392 1.67416,-1.68156 3.77237,-3.44247 4.10188,-3.44247 0.17442,0 1.17686,0.42288 3.35022,1.41329 0.54011,0.24613 1.01547,0.4475 1.05637,0.4475 0.0409,0 0.68757,0.28205 1.43703,0.62676 0.74947,0.34472 1.99069,0.89392 2.75826,1.22046 0.76758,0.32653 1.56307,0.66719 1.76776,0.75703 0.20469,0.0898 0.95831,0.42073 1.67472,0.73533 0.7164,0.3146 1.55376,0.69872 1.86079,0.8536 l 0.55824,0.28159 -0.55824,-0.097 c -2.28405,-0.39676 -6.78855,-0.25387 -8.1501,0.25855 -0.22525,0.0848 -0.7445,0.25276 -1.15388,0.3733 -1.04502,0.30771 -2.88423,1.16939 -2.88423,1.35128 0,0.0835 -0.16747,0.15187 -0.37216,0.15187 -0.20469,0 -0.51984,0.14654 -0.70035,0.32564 -0.1805,0.1791 -0.55731,0.42851 -0.83736,0.55425 -0.28004,0.12573 -0.50916,0.31414 -0.50916,0.41868 0,0.10453 -0.10467,0.19019 -0.2326,0.19034 -0.12793,1.5e-4 -0.83057,0.61393 -1.56143,1.36397 -1.94176,1.99272 -3.39681,2.51303 -5.3671,1.91923 z"
         id="path79"
         transform="scale(0.26458333)" /><path
         style="fill:#e6e6e6;fill-opacity:1;stroke:#000000;stroke-width:0.0703293;stroke-linecap:round;stroke-linejoin:round;stroke-dasharray:0.0703293, 0.0703293;stroke-opacity:1"
         d="m 164.49433,961.27498 c 0,-0.29683 3.19413,-2.55441 3.94633,-2.78923 0.2346,-0.0732 0.46841,-0.18523 0.51958,-0.24889 0.34769,-0.43252 4.48257,-1.52245 5.67542,-1.496 l 0.55824,0.0124 -0.4652,0.21203 c -2.07979,0.94793 -3.3774,1.51657 -5.30986,2.32689 -1.23175,0.51651 -2.80389,1.19758 -3.49365,1.51349 -1.31412,0.60188 -1.43086,0.64017 -1.43086,0.46934 z"
         id="path80"
         transform="scale(0.26458333)" /><path
         style="fill:#e6e6e6;fill-opacity:1;stroke:#000000;stroke-width:0.0703293;stroke-linecap:round;stroke-linejoin:round;stroke-dasharray:0.0703293, 0.0703293;stroke-opacity:1"
         d="m 265.86886,951.13406 c -0.7685,-0.21069 -1.5753,-0.85672 -2.19528,-1.75784 -0.62218,-0.90431 -1.85964,-4.39256 -1.85964,-5.2421 0,-1.79 3.22798,-5.27253 5.14261,-5.54813 l 0.71889,-0.10349 1.74783,2.35708 1.74783,2.35708 -0.29838,1.60198 c -0.16411,0.8811 -0.35474,1.93693 -0.42362,2.34631 -0.1692,1.00558 -0.45437,1.51922 -1.40781,2.53575 -1.15076,1.2269 -2.21689,1.71532 -3.17243,1.45336 z"
         id="path81"
         transform="scale(0.26458333)" /></g><path
       style="fill:#e6e6e6;fill-opacity:1;stroke:#000000;stroke-width:0.275;stroke-linecap:round;stroke-linejoin:round;stroke-dasharray:0.275, 0.275;stroke-dashoffset:0;stroke-opacity:1"
       d="M 68.383743,293.09483 H 144.42256"
       id="path114" /></g></svg>
