<?xml version="1.0" encoding="UTF-8" standalone="no"?>
<!-- Created with Inkscape (http://www.inkscape.org/) -->

<svg
   width="45.65929mm"
   height="61.285641mm"
   viewBox="0 0 45.65929 61.285641"
   version="1.1"
   id="svg1"
   xml:space="preserve"
   xmlns="http://www.w3.org/2000/svg"
   xmlns:svg="http://www.w3.org/2000/svg"><defs
     id="defs1" /><g
     id="layer2"
     transform="translate(-77.71583,-91.926984)"><path
       style="display:inline;fill:none;stroke:#000000;stroke-width:0.639"
       d="m 81.691863,116.00031 -0.614246,30.66658 c 12.629833,5.79086 33.681893,4.581 40.842933,0.17509 l 0.19585,-31.37645 c -5.34187,3.14964 -35.266561,3.14401 -40.424537,0.53478 z"
       id="path1" /><path
       style="display:inline;fill:none;stroke:#000000;stroke-width:0.639"
       d="m 122.45921,115.30168 c -1.07449,-4.63479 -21.06367,-4.68155 -21.06367,-4.68155 0,0 -22.648682,-0.36602 -19.962456,5.66533"
       id="path2" /><path
       style="fill:none;stroke:#000000;stroke-width:0.639"
       d="M 91.052866,110.60254 C 94.104753,83.9646 118.41475,90.519136 117.50833,109.90216 l -5.19173,-0.80024 c -0.81741,-5.69367 -0.92351,-12.788915 -5.24302,-15.247961 -7.03644,-4.005754 -18.786545,-1.221183 -20.521549,16.331241 z"
       id="path4" /><path
       style="fill:none;stroke:#000000;stroke-width:0.639"
       d="m 82.990673,133.61303 -4.891463,-15.19406 3.579995,-2.05616 9.084294,1.6367 z"
       id="path5" /><path
       style="fill:none;stroke:#000000;stroke-width:0.639"
       d="M 90.723769,118.13523 77.975446,118.6011"
       id="path6" /><path
       style="fill:none;stroke:#000000;stroke-width:0.639"
       d="m 97.022337,122.97993 -0.01548,22.58539 h 7.483113"
       id="path7" /><path
       style="fill:none;stroke:#000000;stroke-width:0.639"
       d="M 104.48294,138.28158 H 97.038863"
       id="path8" /><path
       style="fill:none;stroke:#000000;stroke-width:0.639"
       d="m 104.54975,132.15776 -7.588241,-0.2296"
       id="path9" /><path
       style="fill:none;stroke:#000000;stroke-width:0.639"
       d="M 104.52971,125.80435 H 96.950259"
       id="path10" /><path
       style="fill:none;stroke:#000000;stroke-width:0.639"
       d="m 80.817079,146.74529 -0.554472,1.99393 c 8.802664,5.94978 35.454313,5.20368 42.687783,-0.30273 l -0.99959,-1.60892"
       id="path11" /><path
       style="fill:none;stroke:#000000;stroke-width:0.639"
       d="m 88.04141,108.53092 v 5.81089"
       id="path12" /><path
       style="fill:none;stroke:#000000;stroke-width:0.639"
       d="m 114.77112,111.76775 v -2.34377"
       id="path13" /><ellipse
       style="fill:none;stroke:#000000;stroke-width:0.639"
       id="path14"
       cx="114.33848"
       cy="107.77268"
       rx="0.45479494"
       ry="0.47764897" /><path
       style="fill:#e6e6e6;stroke:#000000;stroke-width:0.821609"
       d="m 337.89772,416.12175 -3.65709,-0.33509 v -2.84138 -2.84138 h -1.36077 -1.36078 v 2.73697 2.73697 l -1.27573,-0.23065 c -0.70165,-0.12685 -1.34035,-0.28771 -1.41933,-0.35747 -0.23407,-0.20671 0.63431,-6.43436 1.53513,-11.00931 6.28901,-31.93952 23.55634,-51.48528 47.4634,-53.7262 3.07511,-0.28825 9.73156,-0.15426 9.38832,0.18897 -0.0614,0.0614 -1.48,0.50716 -3.15255,0.99068 -20.76131,6.00193 -35.45667,27.88136 -40.37685,60.11573 -0.6991,4.58018 -0.82522,5.01291 -1.44628,4.96249 -0.37421,-0.0304 -2.32607,-0.20603 -4.33747,-0.39033 z"
       id="path15"
       transform="scale(0.26458333)" /><path
       style="fill:#e6e6e6;stroke:#000000;stroke-width:0.821609"
       d="m 434.14861,412.47872 c -4.457,-0.70888 -8.18594,-1.37119 -8.28654,-1.47179 -0.10059,-0.10059 -0.7637,-4.82373 -1.47357,-10.49585 -1.95727,-15.63936 -3.25548,-22.43041 -5.51257,-28.83678 -2.23048,-6.33084 -4.80308,-10.66083 -8.52127,-14.34233 -1.29955,-1.28673 -2.1555,-2.3373 -1.90213,-2.33461 0.78735,0.008 7.25861,3.25296 9.52829,4.77736 12.62785,8.48131 21.05189,22.48146 23.93797,39.78317 0.62371,3.73907 1.09762,14.30781 0.63892,14.24893 -0.16801,-0.0216 -3.95211,-0.61921 -8.4091,-1.3281 z m 0.13524,-3.02904 c 1.11143,-1.11143 1.26386,-2.26044 0.4967,-3.74397 -0.57265,-1.10738 -1.12955,-1.38511 -2.77742,-1.38511 -1.68958,0 -2.84836,1.2456 -2.84836,3.06175 0,2.89766 3.06383,4.13258 5.12908,2.06733 z"
       id="path16"
       transform="scale(0.26458333)" /><path
       style="fill:#e6e6e6;stroke:#000000;stroke-width:0.821609"
       d="m 369.62081,576.25662 c -10.41316,-0.68446 -13.54339,-0.94071 -18.54057,-1.51784 -11.80181,-1.36298 -24.12336,-3.9599 -32.45789,-6.8409 -4.04566,-1.39847 -12.57926,-5.37126 -13.23519,-6.1616 -0.26739,-0.32219 -0.17077,-1.13119 0.35595,-2.98063 0.39763,-1.39613 0.76081,-2.59081 0.80708,-2.65486 0.0463,-0.064 1.97083,0.64704 4.2768,1.58019 16.37758,6.62749 36.60065,10.80556 59.62434,12.31836 7.29502,0.47933 25.92946,0.47703 33.03629,-0.004 22.06815,-1.49395 41.1368,-5.54005 53.34089,-11.31819 3.04606,-1.44218 3.74162,-1.66086 3.98542,-1.25298 0.16245,0.27177 0.67697,1.11938 1.14338,1.88358 l 0.84802,1.38947 -2.62218,1.55433 c -11.21944,6.65048 -31.63441,11.42199 -57.90371,13.53361 -4.4956,0.36137 -28.96064,0.71461 -32.65863,0.47154 z"
       id="path17"
       transform="scale(0.26458333)" /><path
       style="fill:#e6e6e6;stroke:#000000;stroke-width:0.821609"
       d="m 299.54084,446.77199 c 0.26671,-0.27176 7.42603,-4.34966 7.63645,-4.34966 0.10341,0 0.18802,0.91853 0.18802,2.04117 v 2.04116 l -3.1468,0.005 c -1.73074,0.003 -3.52951,0.1017 -3.99728,0.22033 -0.46777,0.11862 -0.77394,0.13768 -0.68039,0.0423 z"
       id="path20"
       transform="scale(0.26458333)" /><path
       style="fill:#e6e6e6;stroke:#000000;stroke-width:0.821609"
       d="m 310.08686,443.83894 v -2.42018 l 0.93553,0.18093 c 0.51454,0.0995 5.37507,0.98834 10.80116,1.97518 9.84267,1.79008 9.86009,1.79477 7.48427,2.0115 -1.30975,0.11949 -6.17027,0.31973 -10.80116,0.445 l -8.4198,0.22775 z"
       id="path21"
       transform="scale(0.26458333)" /><path
       style="fill:none;stroke:#000000;stroke-width:0.639"
       d="m 100.22436,112.45442 -1.696822,-5.14356 c 0.54498,-0.62339 5.083092,-1.11947 6.198012,-0.0608 l -1.45317,5.17063 c -0.80938,0.71832 -2.20629,0.57133 -3.04802,0.0337 z"
       id="path3" /><path
       style="fill:#808080;stroke:#000000;stroke-width:0.821609"
       d="m 381.72089,424.8024 -1.67778,-0.58045 -2.99401,-8.99267 c -1.64671,-4.94596 -2.93595,-9.05073 -2.86498,-9.12169 0.071,-0.071 0.94857,-0.34596 1.95024,-0.61109 2.89663,-0.7667 8.71756,-1.27506 11.76915,-1.02782 2.91079,0.23583 6.21127,1.03858 6.21127,1.51072 0,1.00237 -5.12378,18.21753 -5.49263,18.45445 -1.65038,1.06007 -4.46758,1.21052 -6.90126,0.36855 z"
       id="path27"
       transform="scale(0.26458333)" /><path
       style="fill:#e6e6e6;stroke:#000000;stroke-width:0.821609"
       d="m 305.6759,475.59924 c -4.55324,-14.137 -8.19802,-25.78424 -8.0995,-25.88275 0.0985,-0.0985 6.28331,-0.40397 13.744,-0.67879 7.4607,-0.27482 17.00936,-0.63093 21.21926,-0.79135 4.2099,-0.16043 7.69325,-0.26012 7.74076,-0.22156 0.0475,0.0386 -5.85637,12.04192 -13.11975,26.67411 l -13.20615,26.60398 z"
       id="path28"
       transform="scale(0.26458333)" /><text
       xml:space="preserve"
       style="font-size:4.23333px;fill:#e6e6e6;stroke:#000000;stroke-width:0.439;stroke-dasharray:none"
       x="105.75933"
       y="126.41331"
       id="text28"><tspan
         id="tspan28"
         style="font-size:4.23333px;stroke-width:0.439;stroke-dasharray:none"
         x="105.75933"
         y="126.41331">2.0 L</tspan></text><text
       xml:space="preserve"
       style="font-size:4.23333px;fill:#e6e6e6;stroke:#000000;stroke-width:0.439;stroke-dasharray:none"
       x="105.75933"
       y="133.10161"
       id="text28-2"><tspan
         id="tspan28-7"
         style="font-size:4.23333px;stroke-width:0.439;stroke-dasharray:none"
         x="105.75933"
         y="133.10161">1.5 L</tspan></text><text
       xml:space="preserve"
       style="font-size:4.23333px;fill:#e6e6e6;stroke:#000000;stroke-width:0.439;stroke-dasharray:none"
       x="105.75933"
       y="139.90565"
       id="text28-6"><tspan
         id="tspan28-0"
         style="font-size:4.23333px;stroke-width:0.439;stroke-dasharray:none"
         x="105.75933"
         y="139.90565">1.0 L</tspan></text><text
       xml:space="preserve"
       style="font-size:4.23333px;fill:#e6e6e6;stroke:#000000;stroke-width:0.439;stroke-dasharray:none"
       x="105.85234"
       y="146.70972"
       id="text28-1"><tspan
         id="tspan28-8"
         style="font-size:4.23333px;stroke-width:0.439;stroke-dasharray:none"
         x="105.85234"
         y="146.70972">0.5 L</tspan></text></g></svg>
