<?xml version="1.0" encoding="UTF-8" standalone="no"?>
<!-- Created with Inkscape (http://www.inkscape.org/) -->

<svg
   width="89.422981mm"
   height="58.25956mm"
   viewBox="0 0 89.422981 58.25956"
   version="1.1"
   id="svg5"
   xmlns="http://www.w3.org/2000/svg"
   xmlns:svg="http://www.w3.org/2000/svg">
  <defs
     id="defs2" />
  <g
     id="layer2"
     transform="translate(-57.9386,-99.245183)">
    <rect
       style="fill:none;fill-rule:evenodd;stroke:#000000;stroke-width:0.264583;stroke-opacity:1"
       id="rect251"
       width="9.9158278"
       height="14.727942"
       x="73.509201"
       y="119.02141"
       ry="1.6726747" />
    <path
       style="fill:none;stroke:#000000;stroke-width:0.264583px;stroke-linecap:butt;stroke-linejoin:miter;stroke-opacity:1"
       d="m 72.25817,123.87449 -1.576911,-3.0226 -1.045858,3.55092 z"
       id="path513" />
    <path
       style="fill:none;stroke:#000000;stroke-width:0.264583px;stroke-linecap:butt;stroke-linejoin:miter;stroke-opacity:1"
       d="m 69.816942,123.24641 c -4.525018,-1.23208 -6.737339,-12.11219 -4.801849,-17.27192 -0.787569,4.17895 0.764799,14.34305 5.279512,16.03915"
       id="path628" />
    <path
       style="fill:none;stroke:#000000;stroke-width:0.264583px;stroke-linecap:butt;stroke-linejoin:miter;stroke-opacity:1"
       d="m 76.103162,115.28525 2.432587,-0.31715 -0.601176,3.2009 z"
       id="path743" />
    <path
       style="fill:none;stroke:#000000;stroke-width:0.264583px;stroke-linecap:butt;stroke-linejoin:miter;stroke-opacity:1"
       d="m 76.935916,115.02315 c -1.342548,-3.84747 -0.05347,-11.84511 7.139316,-15.653591 -3.152616,1.143031 -7.413308,9.618231 -6.280473,15.575241"
       id="path778" />
    <path
       style="fill:none;stroke:#000000;stroke-width:0.264583px;stroke-linecap:butt;stroke-linejoin:miter;stroke-opacity:1"
       d="m 84.323586,116.93084 -0.06793,2.91689 2.086327,-0.60879 z"
       id="path780" />
    <path
       style="fill:none;stroke:#000000;stroke-width:0.264583px;stroke-linecap:butt;stroke-linejoin:miter;stroke-opacity:1"
       d="m 85.176661,117.79093 c 1.104336,-3.64996 7.060062,-7.69046 12.563771,-1.72279 -1.599026,-1.47117 -8.448376,-4.60674 -12.013007,2.40426"
       id="path782" />
    <path
       style="fill:none;stroke:#000000;stroke-width:0.264583px;stroke-linecap:butt;stroke-linejoin:miter;stroke-opacity:1"
       d="m 69.615332,132.94751 1.362671,3.62959 1.370544,-3.56538 z"
       id="path784" />
    <path
       style="fill:none;stroke:#000000;stroke-width:0.264583px;stroke-linecap:butt;stroke-linejoin:miter;stroke-opacity:1"
       d="m 70.328567,135.23532 c -2.238317,2.66124 -9.596721,2.80723 -12.2584,-5.81825 0.166754,1.59065 7.195505,9.61433 11.833543,4.61061"
       id="path786" />
    <path
       style="fill:none;stroke:#000000;stroke-width:0.264583px;stroke-linecap:butt;stroke-linejoin:miter;stroke-opacity:1"
       d="m 75.065439,141.95633 2.671765,0.49382 -0.731927,-3.00437 z"
       id="path788" />
    <path
       style="fill:none;stroke:#000000;stroke-width:0.264583px;stroke-linecap:butt;stroke-linejoin:miter;stroke-opacity:1"
       d="m 77.00401,142.45519 c 0.613854,3.65352 -4.244981,12.50508 -10.808711,10.4384 2.094794,0.24937 8.805561,-1.51504 10.04512,-10.66341"
       id="path790" />
    <path
       style="fill:none;stroke:#000000;stroke-width:0.264583px;stroke-linecap:butt;stroke-linejoin:miter;stroke-opacity:1"
       d="m 83.129421,138.2044 0.319831,3.15756 2.364605,-3.10011 z"
       id="path792" />
    <path
       style="fill:none;stroke:#000000;stroke-width:0.264583px;stroke-linecap:butt;stroke-linejoin:miter;stroke-opacity:1"
       d="m 84.953725,139.58788 c 2.745108,3.14757 2.869055,13.82069 -0.490886,17.70175 1.242459,-1.69387 3.390325,-12.55063 -0.267354,-16.71838"
       id="path794" />
    <path
       style="fill:none;stroke:#000000;stroke-width:0.264583px;stroke-linecap:butt;stroke-linejoin:miter;stroke-opacity:1"
       d="m 86.143358,129.44581 2.140844,1.99607 5.3e-4,-4.1376 z"
       id="path796" />
    <path
       style="fill:none;stroke:#000000;stroke-width:0.264583px;stroke-linecap:butt;stroke-linejoin:miter;stroke-opacity:1"
       d="m 88.339177,128.82555 c 5.604577,-0.23584 9.245378,6.06827 8.91962,13.33781 0.363721,-2.16651 -2.268484,-11.97891 -8.91296,-12.26161"
       id="path798" />
    <rect
       style="fill:none;fill-rule:evenodd;stroke:#000000;stroke-width:0.264583;stroke-opacity:1"
       id="rect251-3"
       width="9.9158278"
       height="14.727942"
       x="123.46235"
       y="118.47705"
       ry="1.6726747" />
    <path
       style="fill:none;stroke:#000000;stroke-width:0.264583px;stroke-linecap:butt;stroke-linejoin:miter;stroke-opacity:1"
       d="m 116.07524,104.92663 -2.06806,2.75229 2.96493,0.82273 z"
       id="path1076" />
    <path
       style="fill:none;stroke:#000000;stroke-width:0.264583px;stroke-linecap:butt;stroke-linejoin:miter;stroke-opacity:1"
       d="m 114.78426,107.91278 c -0.67996,3.95083 0.4808,11.99963 5.65823,14.64778 -1.67559,-1.11322 -5.72887,-7.19064 -4.37516,-14.25922"
       id="path1078" />
    <path
       style="fill:none;stroke:#000000;stroke-width:0.264583px;stroke-linecap:butt;stroke-linejoin:miter;stroke-opacity:1"
       d="m 130.63242,99.989678 1.34439,3.272842 1.47057,-3.13942 z"
       id="path1080" />
    <path
       style="fill:none;stroke:#000000;stroke-width:0.264583px;stroke-linecap:butt;stroke-linejoin:miter;stroke-opacity:1"
       d="m 131.02705,101.03908 c -3.5855,2.15985 -5.94104,9.80772 -4.08979,16.15642 -0.52967,-2.28462 -0.71095,-10.69165 4.5175,-14.92666"
       id="path1082" />
    <path
       style="fill:none;stroke:#000000;stroke-width:0.264583px;stroke-linecap:butt;stroke-linejoin:miter;stroke-opacity:1"
       d="m 145.35516,113.55436 -0.8877,3.29423 2.50699,-0.1626 z"
       id="path1084" />
    <path
       style="fill:none;stroke:#000000;stroke-width:0.264583px;stroke-linecap:butt;stroke-linejoin:miter;stroke-opacity:1"
       d="m 145.11967,114.43519 c -2.49584,-2.33591 -8.58108,-1.70609 -10.78708,4.44722 0.6562,-1.50196 6.46072,-6.12823 10.36235,-3.07717"
       id="path1086" />
    <path
       style="fill:none;stroke:#000000;stroke-width:0.264583px;stroke-linecap:butt;stroke-linejoin:miter;stroke-opacity:1"
       d="m 107.47491,127.64012 c 0.5022,3.80679 0.5022,3.7653 0.5022,3.7653 l 2.09104,-2.86098 z"
       id="path1088" />
    <path
       style="fill:none;stroke:#000000;stroke-width:0.264583px;stroke-linecap:butt;stroke-linejoin:miter;stroke-opacity:1"
       d="m 108.66035,130.73441 c 1.10452,3.19304 6.77464,8.21713 12.66692,1.94661 -2.20774,1.63446 -7.94434,4.51664 -11.99016,-3.01732"
       id="path1090" />
    <path
       style="fill:none;stroke:#000000;stroke-width:0.264583px;stroke-linecap:butt;stroke-linejoin:miter;stroke-opacity:1"
       d="m 144.54563,140.08542 2.67068,-0.8415 -0.23707,3.45262 z"
       id="path1092" />
    <path
       style="fill:none;stroke:#000000;stroke-width:0.264583px;stroke-linecap:butt;stroke-linejoin:miter;stroke-opacity:1"
       d="m 146.4639,139.37236 c 0.36715,-3.46245 -2.1224,-9.9891 -10.02888,-9.58668 2.46387,0.11374 7.85503,1.13764 8.96819,9.88351"
       id="path1094" />
    <path
       style="fill:none;stroke:#000000;stroke-width:0.264583px;stroke-linecap:butt;stroke-linejoin:miter;stroke-opacity:1"
       d="m 114.17077,151.75588 2.35656,-1.98438 0.0302,3.89412 z"
       id="path1096" />
    <path
       style="fill:none;stroke:#000000;stroke-width:0.264583px;stroke-linecap:butt;stroke-linejoin:miter;stroke-opacity:1"
       d="m 116.61971,152.52428 c 4.80862,-0.31521 9.52208,-5.86585 8.94725,-13.60759 0.63121,1.75711 -1.34865,10.67064 -8.89822,12.33414"
       id="path1098" />
    <path
       style="fill:none;stroke:#000000;stroke-width:0.264583px;stroke-linecap:butt;stroke-linejoin:miter;stroke-opacity:1"
       d="m 132.91037,157.36927 0.46404,-2.34335 1.93591,2.29644 z"
       id="path1100" />
    <path
       style="fill:none;stroke:#000000;stroke-width:0.264583px;stroke-linecap:butt;stroke-linejoin:miter;stroke-opacity:1"
       d="m 134.66798,156.50244 c 2.96572,-4.51423 2.46784,-13.95891 -2.46198,-19.01681 1.55337,0.82985 5.40021,9.00901 1.79071,18.27904"
       id="path1102" />
    <text
       xml:space="preserve"
       style="font-style:normal;font-weight:normal;font-size:2.82222px;line-height:1.25;font-family:sans-serif;fill:#000000;fill-opacity:1;stroke:none;stroke-width:0.264583"
       x="72.971016"
       y="136.76465"
       id="text4356"><tspan
         id="tspan4354"
         style="font-size:2.82222px;stroke-width:0.264583"
         x="72.971016"
         y="136.76465">Pression</tspan></text>
    <text
       xml:space="preserve"
       style="font-style:normal;font-weight:normal;font-size:2.82222px;line-height:1.25;font-family:sans-serif;fill:#000000;fill-opacity:1;stroke:none;stroke-width:0.264583"
       x="123.58141"
       y="136.68449"
       id="text4356-6"><tspan
         id="tspan4354-7"
         style="font-size:2.82222px;stroke-width:0.264583"
         x="123.58141"
         y="136.68449">Pression</tspan></text>
  </g>
</svg>
