<?xml version="1.0" encoding="UTF-8" standalone="no"?>
<!-- Created with Inkscape (http://www.inkscape.org/) -->

<svg
   width="108.14229mm"
   height="35.87986mm"
   viewBox="0 0 108.14229 35.87986"
   version="1.1"
   id="svg5"
   xml:space="preserve"
   xmlns="http://www.w3.org/2000/svg"
   xmlns:svg="http://www.w3.org/2000/svg"><defs
     id="defs2" /><g
     id="layer2"
     transform="translate(-58.989622,-108.74011)"><path
       style="fill:none;stroke:#000000;stroke-width:0.2"
       d="m 61.060708,111.48741 11.312188,31.5258 11.072606,-31.43978"
       id="path303" /><path
       style="fill:none;stroke:#000000;stroke-width:0.2"
       d="m 65.205591,144.49832 h 14.406707 l 0.06772,-1.29695 -14.434399,0.0174 z"
       id="path913" /><path
       style="fill:none;stroke:#000000;stroke-width:0.2"
       d="m 89.373173,118.01968 c 0,0 7.296569,18.08814 10.829837,26.04223 0.137,0.30841 0.67024,0.45051 0.96895,0.29347 5.88273,-3.09267 10.32476,-4.95984 15.98337,-7.72293 0.36245,-0.17699 0.53934,-0.78012 0.37763,-1.14964 -3.21678,-7.35072 -9.13063,-22.05121 -9.13063,-22.05121 l -0.25406,-1.74901 0.30403,-1.88079 0.41482,-1.02415"
       id="path2492" /><path
       style="fill:none;stroke:#000000;stroke-width:0.2"
       d="m 137.74542,113.30166 -15.03153,27.23746 -0.0961,1.12653 0.66058,1.28971 1.31413,1.0497 1.44748,0.41339 1.27723,-0.19683 0.35969,-0.5272 15.13302,-27.15288"
       id="path2494" /><path
       style="fill:none;stroke:#000000;stroke-width:0.2"
       d="m 151.93643,113.6272 0.94364,0.91811 0.0335,4.40903 -6.85089,21.21757 0.15338,1.3707 0.74959,1.5144 1.5346,1.06636 14.80393,0.11532 1.27016,-0.8858 0.83326,-0.9687 0.42533,-1.24627 0.13918,-0.99013 -6.73241,-21.00227 -0.12884,-4.39344 0.9907,-1.02342"
       id="path2496" /><path
       style="fill:none;stroke:#000000;stroke-width:0.2"
       d="M 58.992476,144.51997 H 167.13191"
       id="path2498" /><path
       style="fill:none;stroke:#000000;stroke-width:0.2"
       d="m 58.99114,125.68292 6.667716,0.10124 -2.207585,0.81491"
       id="path2556" /><path
       style="fill:none;stroke:#000000;stroke-width:0.2"
       d="m 65.635758,125.80595 -1.98483,-0.98698"
       id="path2558" /><path
       style="fill:none;stroke:#000000;stroke-width:0.2"
       d="m 88.369871,134.62678 5.896225,-3.115 -1.544491,1.77541"
       id="path2556-3" /><path
       style="fill:none;stroke:#000000;stroke-width:0.2"
       d="m 94.256309,131.54199 -2.21493,0.0881"
       id="path2558-6" /><path
       style="fill:none;stroke:#000000;stroke-width:0.2"
       d="m 123.74216,124.11819 5.87818,3.14892 -2.33541,-0.28869"
       id="path2556-7" /><path
       style="fill:none;stroke:#000000;stroke-width:0.2"
       d="m 129.58982,127.27587 -1.31083,-1.78757"
       id="path2558-5" /><path
       style="fill:none;stroke:#000000;stroke-width:0.2"
       d="m 141.98343,130.73654 6.66772,0.10124 -2.20759,0.81491"
       id="path2556-35" /><path
       style="fill:none;stroke:#000000;stroke-width:0.2"
       d="m 148.62805,130.85957 -1.98483,-0.98698"
       id="path2558-62" /></g></svg>
