<?xml version="1.0" encoding="UTF-8" standalone="no"?>
<!-- Created with Inkscape (http://www.inkscape.org/) -->

<svg
   width="112.82653mm"
   height="32.460876mm"
   viewBox="0 0 112.82653 32.460876"
   version="1.1"
   id="svg5"
   xml:space="preserve"
   xmlns="http://www.w3.org/2000/svg"
   xmlns:svg="http://www.w3.org/2000/svg"><defs
     id="defs2" /><g
     id="layer2"
     style="display:inline"
     transform="translate(-45.2259,-135.46534)"><path
       style="opacity:1;fill:none;stroke:#000000;stroke-width:0.2"
       d="m 48.067063,162.88064 -2.711255,1.89422 c 1.008811,1.89519 4.584121,3.56464 8.495552,0.26405 l -2.815088,-2.04605 -0.229954,-11.14074 c -1.358132,0.26882 -3.835345,4.16665 -3.835345,4.16665 l 1.176015,0.0276 z"
       id="path603" /><path
       style="opacity:1;fill:none;stroke:#000000;stroke-width:0.2"
       d="m 49.26893,152.80368 0.340839,-1.74758 c 0,0 1.612861,-1.05718 1.068504,-2.88657 0,0 -0.202874,-1.45866 -1.286764,-3.59775 -1.156331,2.14214 -1.387661,4.52955 -1.387661,4.52955 -0.221754,1.16518 1.394593,2.50422 1.394593,2.50422"
       id="path1255" /><path
       style="opacity:1;fill:none;stroke:#000000;stroke-width:0.2"
       d="m 77.285206,167.26424 0.136784,-24.13346 -9.995889,-4.45433 -0.01982,22.99792 z"
       id="path1309" /><path
       style="opacity:1;fill:none;stroke:#000000;stroke-width:0.2"
       d="m 81.215512,161.53677 10.051941,6.09308 -0.05729,-24.48148 -9.805596,-4.4621 z"
       id="path1311" /><path
       style="opacity:1;fill:none;stroke:#000000;stroke-width:0.2"
       d="m 94.339253,161.52474 10.161277,6.22243 -0.1255,-24.92776 -9.805688,-4.1762 z"
       id="path1313" /><path
       style="opacity:1;fill:none;stroke:#000000;stroke-width:0.2"
       d="m 130.13914,167.21252 c 0,0 18.07243,3.27758 13.60896,-9.78193 l -3.22345,-2.82755 -1.93879,-1.80693 c 0,0 3.52101,-9.34455 -1.62678,-14.83309 l 1.31284,-0.76572 -2.37851,0.41026 0.88599,-2.0639 -2.07727,1.64935 c -12.15076,-4.97876 -15.35032,6.81221 -15.35032,6.81221 l 2.49413,-1.73901 -1.21367,5.65322 c 0,0 -3.3611,5.01802 1.68409,4.91937 l 0.49361,2.14047 1.01343,0.0592 0.0382,1.34262 1.78847,-0.0936 c 0.81578,4.97834 7.31669,0.59788 7.31669,0.59788 l 0.6361,1.00776 c 0,0 -3.98136,5.01126 -3.46372,9.31939 z"
       id="path1315" /><path
       style="opacity:1;fill:none;stroke:#000000;stroke-width:0.2"
       d="m 138.78459,152.66391 -1.4639,1.34172 -2.25551,-0.67533 -2.0409,-3.08637 c 2.53225,-5.81855 -1.91593,-5.124 -1.91593,-5.124 l -1.81345,3.05603 c -0.11095,-1.30395 -3.63089,-3.5039 -3.63089,-3.5039 l 0.25705,-1.50874 -2.97191,0.84351 0.51989,-1.79714 -1.72167,0.36934"
       id="path1317" /><path
       style="opacity:1;fill:none;stroke:#000000;stroke-width:0.2"
       d="m 140.55936,154.57164 c 0.19537,1.13541 -3.69942,9.11824 -3.69942,9.11824 l -2.03804,-3.75974 -3.38982,1.50121"
       id="path1319" /><path
       style="opacity:1;fill:none;stroke:#000000;stroke-width:0.2"
       d="m 138.25835,153.38477 c 0.56105,2.03249 -2.47078,5.62757 -2.47078,5.62757 l -2.17183,-1.32414"
       id="path1321" /><path
       style="opacity:1;fill:none;stroke:#000000;stroke-width:0.2"
       d="m 124.90023,148.48052 -3.02325,-1.80807 0.33743,3.04784 z"
       id="path1323" /><ellipse
       style="opacity:1;fill:#000000;stroke:#000000;stroke-width:0.135982"
       id="path1325"
       cx="122.86958"
       cy="148.34085"
       rx="0.66509366"
       ry="0.37493473" /><ellipse
       style="opacity:1;fill:none;stroke:#000000;stroke-width:0.2"
       id="path1327"
       cx="71.563492"
       cy="148.02333"
       rx="0.72509056"
       ry="0.75251573" /><ellipse
       style="opacity:1;fill:none;stroke:#000000;stroke-width:0.2"
       id="path1327-3"
       cx="85.444305"
       cy="148.1362"
       rx="0.72509056"
       ry="0.75251573" /><ellipse
       style="opacity:1;fill:none;stroke:#000000;stroke-width:0.2"
       id="path1327-6"
       cx="98.849876"
       cy="148.13838"
       rx="0.72509056"
       ry="0.75251573" /><path
       style="opacity:1;fill:none;stroke:#000000;stroke-width:0.2"
       d="M 121.40596,148.12968 H 104.52959"
       id="path1371" /><path
       style="opacity:1;fill:none;stroke:#000000;stroke-width:0.2"
       d="M 98.859614,148.29144 H 91.31923"
       id="path1373" /><path
       style="opacity:1;fill:none;stroke:#000000;stroke-width:0.2"
       d="M 85.396593,148.16673 H 77.509171"
       id="path1375" /><path
       style="opacity:1;fill:none;stroke:#000000;stroke-width:0.2"
       d="M 71.514525,148.1655 H 50.649996"
       id="path1377" /><path
       style="opacity:1;fill:#cccccc;stroke:#000000;stroke-width:0.314102"
       d="m 514.49995,580.12184 -3.66647,-1.12774 -3.71465,-5.6426 -3.71465,-5.64261 0.76477,-1.81318 c 1.4008,-3.32113 1.94709,-5.93689 1.94709,-9.32307 0,-2.98487 -0.12927,-3.54994 -1.17291,-5.12697 -0.7548,-1.14059 -1.79167,-2.0433 -2.90871,-2.53238 -2.33654,-1.02302 -5.378,-1.43687 -6.42842,-0.8747 -0.46207,0.24729 -2.10061,2.60267 -3.64121,5.23418 -1.5406,2.63151 -2.91358,4.78329 -3.05106,4.78173 -0.13748,-0.002 -0.71482,-0.68525 -1.28298,-1.51931 -1.18666,-1.74202 -5.22512,-5.3111 -9.29886,-8.21805 -1.67642,-1.19628 -2.72152,-2.2197 -2.59729,-2.54343 0.11433,-0.29793 0.33446,-1.66065 0.48919,-3.02825 l 0.28132,-2.48655 -5.46532,1.5823 c -4.55228,1.31796 -5.43226,1.46836 -5.2674,0.90025 1.20643,-4.15752 1.53389,-5.55682 1.34466,-5.74604 -0.19447,-0.19448 -2.98986,0.31747 -5.42174,0.99293 -0.59872,0.16629 -0.72766,0.0569 -0.53246,-0.45181 0.46885,-1.2218 -0.6934,-0.67467 -4.7027,2.21377 -2.17114,1.56418 -4.01969,2.77612 -4.10788,2.69321 -0.0882,-0.0829 0.88506,-2.28416 2.16277,-4.89166 10.11646,-20.64527 28.29892,-27.7678 50.6328,-19.83414 1.98144,0.70387 3.78075,1.27976 3.99845,1.27976 0.21771,0 1.5695,-0.9382 3.00399,-2.08489 1.43449,-1.14669 2.68167,-2.01138 2.77152,-1.92154 0.0898,0.0899 -0.31205,1.2383 -0.89308,2.55213 -0.58104,1.31382 -1.05643,2.57372 -1.05643,2.79978 0,0.37814 1.97551,0.23351 4.98636,-0.36505 l 1.03883,-0.20652 -1.10774,0.7269 -1.10774,0.72689 2.28059,2.9147 c 2.94179,3.75973 5.6822,9.42401 7.07564,14.62496 1.02423,3.82294 1.10745,4.76587 1.13417,12.85178 0.0316,9.5491 -0.42905,13.16051 -2.71839,21.31359 -1.14228,4.06802 -1.33249,4.42431 -3.38343,6.33774 -1.1952,1.11508 -2.36009,2.01711 -2.58863,2.00452 -0.22854,-0.0126 -2.06544,-0.53037 -4.082,-1.15063 z"
       id="path1498"
       transform="scale(0.26458333)" /><path
       style="opacity:1;fill:#cccccc;stroke:#000000;stroke-width:0.314102"
       d="m 502.37626,632.60396 c -1.1427,-0.088 -3.9269,-0.37278 -6.18709,-0.63276 l -4.10944,-0.47268 0.23264,-3.59074 c 0.2556,-3.94527 1.38822,-8.85942 2.93058,-12.71501 1.92227,-4.80529 1.51465,-4.43732 8.07928,-7.29338 3.33448,-1.45072 6.12936,-2.46006 6.21084,-2.24298 0.65566,1.74677 7.47811,13.60244 7.80229,13.55837 0.83446,-0.11344 10.89096,-22.53181 13.17459,-29.36936 0.68697,-2.05688 1.29529,-3.79021 1.35182,-3.85185 0.0565,-0.0616 2.55709,2.04607 5.55679,4.6838 5.04273,4.43426 5.5018,4.96035 6.08805,6.97698 3.42677,11.78766 2.10313,20.17288 -4.15367,26.31337 -5.7048,5.59874 -14.66514,8.34128 -28.25054,8.6468 -3.65666,0.0822 -7.58343,0.0775 -8.72614,-0.0105 z"
       id="path1500"
       transform="scale(0.26458333)" /><path
       style="opacity:1;fill:#cccccc;stroke:#000000;stroke-width:0.314102"
       d="m 182.41785,629.76788 c -4.00962,-1.00561 -7.56153,-3.13033 -9.28932,-5.55678 l -0.88015,-1.23606 4.98085,-3.45737 4.98085,-3.45736 v -4.00251 c 0,-2.20138 0.12333,-8.23997 0.27405,-13.41909 l 0.27405,-9.41659 h -1.93617 c -1.06489,0 -1.93617,-0.14383 -1.93617,-0.31963 0,-0.17579 1.48131,-2.2925 3.29181,-4.70381 3.0148,-4.01525 7.89857,-9.10459 8.73684,-9.10459 0.50423,0 0.80686,6.83304 1.1134,25.13959 l 0.27137,16.20568 4.91989,3.53201 c 2.70594,1.9426 4.9236,3.65607 4.92814,3.80771 0.0151,0.50485 -3.48957,2.87031 -6.1226,4.1324 -4.62569,2.21724 -9.51071,2.8837 -13.60684,1.8564 z"
       id="path1502"
       transform="scale(0.26458333)" /><path
       style="opacity:1;fill:#cccccc;stroke:#000000;stroke-width:0.314102"
       d="m 185.01998,570.47557 c -0.85108,-1.03862 -1.92438,-2.74059 -2.38511,-3.78216 -0.80545,-1.82085 -0.81299,-2.03545 -0.19579,-5.57474 0.64098,-3.67561 2.57136,-10.02015 3.68989,-12.12744 l 0.5915,-1.11439 1.01888,2.28769 c 1.54925,3.47857 3.1938,8.98807 3.46911,11.62209 0.29945,2.86499 -0.6522,5.35937 -2.86866,7.51907 -0.80454,0.78393 -1.53245,1.79274 -1.6176,2.24181 -0.12995,0.68534 -0.40337,0.51316 -1.70222,-1.07193 z"
       id="path1504"
       transform="scale(0.26458333)" /><path
       style="opacity:1;fill:#cccccc;stroke:#000000;stroke-width:0.314102"
       d="m 375.81451,621.57065 c -10.1521,-6.20312 -18.52051,-11.3287 -18.59648,-11.39018 -0.076,-0.0615 -10e-4,-11.15988 0.16573,-24.6631 l 0.30385,-24.55132 h 6.25938 6.25939 l 0.89459,1.12193 c 1.13818,1.42742 3.49992,1.55571 4.79515,0.26048 1.33131,-1.33131 1.23648,-3.7355 -0.19594,-4.96762 -0.63022,-0.54209 -1.6114,-0.98562 -2.1804,-0.98562 -1.14729,0 -3.07442,1.68119 -3.07442,2.68206 0,0.55164 -0.90943,0.64218 -6.4506,0.64218 h -6.4506 l 0.27501,-17.34839 c 0.15126,-9.54162 0.29595,-17.36543 0.32153,-17.38624 0.10601,-0.0863 34.4141,14.64009 35.06871,15.05283 0.66512,0.41937 0.72771,3.56958 0.92457,46.52861 0.11614,25.34332 0.1949,46.12468 0.17502,46.18078 -0.0199,0.0561 -8.3424,-4.97328 -18.49449,-11.1764 z"
       id="path1506"
       transform="scale(0.26458333)" /><path
       style="opacity:1;fill:#cccccc;stroke:#000000;stroke-width:0.314102"
       d="M 325.87972,621.28282 307.70027,610.2711 v -21.05668 c 0,-11.58117 0.12149,-22.7683 0.26999,-24.86029 l 0.26998,-3.80361 h 5.7272 c 5.37268,0 5.74362,0.0517 5.99242,0.83562 0.35579,1.12098 2.43945,2.1542 3.70416,1.83677 2.61493,-0.6563 3.39881,-4.0724 1.34069,-5.84272 -0.6298,-0.54173 -1.61064,-0.98497 -2.17964,-0.98497 -1.02938,0 -3.07442,1.64585 -3.07442,2.47429 0,0.28152 -2.04754,0.43442 -5.81743,0.43442 h -5.81742 v -17.03675 c 0,-9.37021 0.10782,-17.03674 0.23959,-17.03674 0.32997,0 35.21188,15.86793 35.60175,16.19539 0.17243,0.14482 0.26592,20.64952 0.20777,45.56601 l -0.10573,45.30271 z"
       id="path1508"
       transform="scale(0.26458333)" /><path
       style="opacity:1;fill:#cccccc;stroke:#000000;stroke-width:0.314102"
       d="m 273.31513,620.83993 -17.97169,-10.16957 v -25.05992 -25.05992 h 5.83735 c 5.82652,0 5.83915,0.002 6.80241,1.12193 1.28318,1.49179 3.72336,1.5729 4.86605,0.16173 1.19195,-1.47199 1.0358,-3.92889 -0.31734,-4.99327 -0.60217,-0.47367 -1.5119,-0.86122 -2.02161,-0.86122 -1.23568,0 -3.11648,1.52284 -3.11648,2.52334 0,0.75402 -0.35265,0.8009 -6.02519,0.8009 h -6.02519 v -17.0812 c 0,-16.09351 0.042,-17.06562 0.72717,-16.81158 0.39995,0.14829 8.62174,3.76783 18.27063,8.04342 l 17.54345,7.77379 -0.0462,27.425 c -0.0254,15.08376 -0.15992,35.28452 -0.29894,44.89058 l -0.25275,17.46557 z"
       id="path1510"
       transform="scale(0.26458333)" /><g
       id="layer2-7"
       transform="translate(0.01820524,48.619308)"><text
         xml:space="preserve"
         style="font-weight:300;font-size:4.9389px;font-family:Ubuntu;-inkscape-font-specification:'Ubuntu Light';text-align:center;text-anchor:middle;opacity:1;fill:#cccccc;stroke:#000000;stroke-width:0.2"
         x="156.4007"
         y="108.2086"
         id="text1998"><tspan
           id="tspan1996"
           style="stroke-width:0.2"
           x="156.4007"
           y="108.2086">A</tspan></text></g></g></svg>
