<?xml version="1.0" encoding="UTF-8" standalone="no"?>
<!-- Created with Inkscape (http://www.inkscape.org/) -->

<svg
   id="svg5"
   version="1.1"
   viewBox="0 0 175.79131 29.298504"
   height="29.298504mm"
   width="175.79131mm"
   xml:space="preserve"
   xmlns="http://www.w3.org/2000/svg"
   xmlns:svg="http://www.w3.org/2000/svg"><defs
     id="defs2" /><g
     id="layer2"
     transform="translate(-27.14565,-181.63722)"><path
       style="fill:none;stroke:#000000;stroke-width:0.3;stroke-dasharray:none"
       d="M 27.14565,196.75401 H 79.319797"
       id="path24788" /><path
       style="fill:none;stroke:#000000;stroke-width:0.3;stroke-dasharray:none"
       d="m 57.324487,181.88369 v 28.41793"
       id="path24790" /><path
       style="fill:none;stroke:#000000;stroke-width:0.3;stroke-dasharray:none"
       d="m 72.688607,196.06086 v 1.39592"
       id="path24792" /><path
       style="fill:#000000;fill-opacity:1;stroke:#000000;stroke-width:0.3;stroke-dasharray:none"
       id="path24794"
       d="m 96.985965,177.81306 -1.017581,0 -1.017581,0 0.50879,-0.88125 0.508791,-0.88126 0.50879,0.88126 z"
       transform="translate(-38.634782,5.8866673)" /><path
       style="fill:#000000;fill-opacity:1;stroke:#000000;stroke-width:0.3;stroke-dasharray:none"
       id="path24794-7"
       d="m 96.985965,177.81306 -1.017581,0 -1.017581,0 0.50879,-0.88125 0.508791,-0.88126 0.50879,0.88126 z"
       transform="matrix(1,0,0,-1,-38.60438,386.68628)" /><path
       style="fill:#000000;fill-opacity:1;stroke:#000000;stroke-width:0.3;stroke-dasharray:none"
       d="M 27.213823,190.30114 H 57.288557"
       id="path24823" /><path
       style="fill:#000000;fill-opacity:1;stroke:#000000;stroke-width:0.3;stroke-dasharray:none"
       id="path24884"
       d="m 148.79503,179.27969 -0.55596,0 -0.55595,0 0.27798,-0.48147 0.27797,-0.48147 0.27798,0.48147 z"
       transform="rotate(90,89.30041,131.29927)" /><text
       xml:space="preserve"
       style="font-weight:300;font-size:3.175px;font-family:Ubuntu;-inkscape-font-specification:'Ubuntu Light';text-align:center;text-anchor:middle;fill:#000000;fill-opacity:1;stroke:#000000;stroke-width:0.3;stroke-dasharray:none"
       x="73.719078"
       y="195.02519"
       id="text24915"><tspan
         id="tspan24913"
         style="stroke-width:0.3"
         x="73.719078"
         y="195.02519">F</tspan></text><g
       id="g25096"
       transform="translate(-49.478393,1.5073644)"><path
         style="fill:none;stroke:#000000;stroke-width:0.3;stroke-dasharray:none"
         d="m 138.43262,195.24664 h 52.17414"
         id="path24788-5" /><path
         style="fill:none;stroke:#000000;stroke-width:0.3;stroke-dasharray:none"
         d="m 168.61145,180.37632 v 28.41793"
         id="path24790-3" /><path
         style="fill:none;stroke:#000000;stroke-width:0.3;stroke-dasharray:none"
         d="m 183.97557,194.55349 v 1.39592"
         id="path24792-5" /><path
         style="fill:#000000;fill-opacity:1;stroke:#000000;stroke-width:0.3;stroke-dasharray:none"
         id="path24794-6"
         d="m 96.985965,177.81306 -1.017581,0 -1.017581,0 0.50879,-0.88125 0.508791,-0.88126 0.50879,0.88126 z"
         transform="translate(72.652186,4.3793051)" /><path
         style="fill:#000000;fill-opacity:1;stroke:#000000;stroke-width:0.3;stroke-dasharray:none"
         id="path24794-7-2"
         d="m 96.985965,177.81306 -1.017581,0 -1.017581,0 0.50879,-0.88125 0.508791,-0.88126 0.50879,0.88126 z"
         transform="matrix(1,0,0,-1,72.682588,385.17891)" /><path
         style="fill:#000000;fill-opacity:1;stroke:#000000;stroke-width:0.3;stroke-dasharray:none"
         d="m 138.95158,187.99536 29.71643,7.18211"
         id="path24882" /><path
         style="fill:#000000;fill-opacity:1;stroke:#000000;stroke-width:0.3;stroke-dasharray:none"
         id="path24884-1"
         d="m 148.79503,179.27969 -0.55596,0 -0.55595,0 0.27798,-0.48147 0.27797,-0.48147 0.27798,0.48147 z"
         transform="rotate(104.52348,144.9157,185.72564)" /><text
         xml:space="preserve"
         style="font-weight:300;font-size:3.175px;font-family:Ubuntu;-inkscape-font-specification:'Ubuntu Light';text-align:center;text-anchor:middle;fill:#000000;fill-opacity:1;stroke:#000000;stroke-width:0.3;stroke-dasharray:none"
         x="185.11551"
         y="193.53835"
         id="text24919"><tspan
           id="tspan24917"
           style="stroke-width:0.3"
           x="185.11551"
           y="193.53835">F</tspan></text></g><g
       id="g25074"
       transform="translate(70.645247,40.836128)"><path
         style="fill:none;stroke:#000000;stroke-width:0.3;stroke-dasharray:none"
         d="M 80.11755,155.91788 H 132.2917"
         id="path24788-2" /><path
         style="fill:none;stroke:#000000;stroke-width:0.3;stroke-dasharray:none"
         d="m 110.29639,141.04756 v 28.41793"
         id="path24790-7" /><path
         style="fill:none;stroke:#000000;stroke-width:0.3;stroke-dasharray:none"
         d="m 125.66051,155.22473 v 1.39592"
         id="path24792-0" /><path
         style="fill:#000000;fill-opacity:1;stroke:#000000;stroke-width:0.3;stroke-dasharray:none"
         id="path24794-9"
         d="m 96.985965,177.81306 -1.017581,0 -1.017581,0 0.50879,-0.88125 0.508791,-0.88126 0.50879,0.88126 z"
         transform="translate(14.337118,-34.949462)" /><path
         style="fill:#000000;fill-opacity:1;stroke:#000000;stroke-width:0.3;stroke-dasharray:none"
         id="path24794-7-3"
         d="m 96.985965,177.81306 -1.017581,0 -1.017581,0 0.50879,-0.88125 0.508791,-0.88126 0.50879,0.88126 z"
         transform="matrix(1,0,0,-1,14.36752,345.85015)" /><path
         style="fill:#000000;fill-opacity:1;stroke:#000000;stroke-width:0.3;stroke-dasharray:none"
         d="M 80.185723,163.22343 H 110.26046"
         id="path24823-6" /><text
         xml:space="preserve"
         style="font-weight:300;font-size:3.175px;font-family:Ubuntu;-inkscape-font-specification:'Ubuntu Light';text-align:center;text-anchor:middle;fill:#000000;fill-opacity:1;stroke:#000000;stroke-width:0.3;stroke-dasharray:none"
         x="126.69097"
         y="154.18906"
         id="text24915-6"><tspan
           id="tspan24913-2"
           style="stroke-width:0.3"
           x="126.69097"
           y="154.18906">F</tspan></text><path
         style="fill:#000000;fill-opacity:1;stroke:#000000;stroke-width:0.3;stroke-dasharray:none"
         id="path24884-6"
         d="m 148.79503,179.27969 -0.55596,0 -0.55595,0 0.27798,-0.48147 0.27797,-0.48147 0.27798,0.48147 z"
         transform="rotate(90,127.77908,142.7639)" /></g></g></svg>
