<?xml version="1.0" encoding="UTF-8" standalone="no"?>
<!-- Created with Inkscape (http://www.inkscape.org/) -->

<svg
   id="svg5"
   version="1.1"
   viewBox="0 0 164.80869 29.431505"
   height="29.431505mm"
   width="164.80869mm"
   xml:space="preserve"
   xmlns="http://www.w3.org/2000/svg"
   xmlns:svg="http://www.w3.org/2000/svg"><defs
     id="defs2" /><g
     id="layer2"
     transform="translate(-7.3427545,-226.94964)"><g
       id="g28012"><path
         style="fill:#000000;fill-opacity:1;stroke:#000000;stroke-width:0.3;stroke-dasharray:none"
         d="M 7.3427548,242.04004 H 57.259109"
         id="path25204" /><path
         style="fill:none;stroke:#000000;stroke-width:0.3;stroke-dasharray:none"
         d="m 27.440736,227.19614 v 28.41793"
         id="path24790-1" /><path
         style="fill:#000000;fill-opacity:1;stroke:#000000;stroke-width:0.3;stroke-dasharray:none"
         id="path24794-8"
         d="m 96.985965,177.81306 -1.017581,0 -1.017581,0 0.50879,-0.88125 0.508791,-0.88126 0.50879,0.88126 z"
         transform="translate(-68.518533,51.1991)" /><path
         style="fill:#000000;fill-opacity:1;stroke:#000000;stroke-width:0.3;stroke-dasharray:none"
         id="path24794-7-7"
         d="m 96.985965,177.81306 -1.017581,0 -1.017581,0 0.50879,-0.88125 0.508791,-0.88126 0.50879,0.88126 z"
         transform="matrix(1,0,0,-1,-68.488131,431.99873)" /><path
         style="fill:#000000;fill-opacity:1;stroke:#000000;stroke-width:0.3;stroke-dasharray:none"
         d="m 10.875045,242.00494 v -6.3531"
         id="path25254" /><path
         style="fill:#000000;fill-opacity:1;stroke:#000000;stroke-width:0.3;stroke-dasharray:none"
         id="path24794-8-9"
         d="m 96.985965,177.81306 -1.017581,0 -1.017581,0 0.50879,-0.88125 0.508791,-0.88126 0.50879,0.88126 z"
         transform="translate(-85.187517,57.915391)" /><path
         style="fill:none;stroke:#000000;stroke-width:0.3;stroke-dasharray:none"
         d="m 36.085834,241.22149 v 1.39592"
         id="path24792-2" /><path
         style="fill:none;fill-opacity:1;stroke:#000000;stroke-width:0.3;stroke-dasharray:none"
         d="M 51.51424,256.09242 27.309022,234.05735 H 10.633991 l 41.960954,19.8776"
         id="path25312" /><path
         style="fill:none;fill-opacity:1;stroke:#000000;stroke-width:0.3;stroke-dasharray:none"
         d="m 45.707033,250.07673 v -8.07951"
         id="path25314" /><path
         style="fill:#000000;fill-opacity:1;stroke:#000000;stroke-width:0.3;stroke-dasharray:none"
         id="path24794-7-0"
         d="m 96.985965,177.81306 -1.017581,0 -1.017581,0 0.50879,-0.88125 0.508791,-0.88126 0.50879,0.88126 z"
         transform="matrix(1,0,0,-1,-50.341023,426.19822)" /><text
         xml:space="preserve"
         style="font-weight:300;font-size:3.175px;font-family:Ubuntu;-inkscape-font-specification:'Ubuntu Light';text-align:center;text-anchor:middle;fill:none;fill-opacity:1;stroke:#000000;stroke-width:0.3;stroke-dasharray:none"
         x="10.746069"
         y="245.3499"
         id="text26071"><tspan
           id="tspan26069"
           style="stroke-width:0.3"
           x="10.746069"
           y="245.3499">A</tspan></text><text
         xml:space="preserve"
         style="font-weight:300;font-size:3.175px;font-family:Ubuntu;-inkscape-font-specification:'Ubuntu Light';text-align:center;text-anchor:middle;fill:none;fill-opacity:1;stroke:#000000;stroke-width:0.3;stroke-dasharray:none"
         x="10.402479"
         y="232.63062"
         id="text26075"><tspan
           id="tspan26073"
           style="stroke-width:0.3"
           x="10.402479"
           y="232.63062">B</tspan></text><text
         xml:space="preserve"
         style="font-weight:300;font-size:3.175px;font-family:Ubuntu;-inkscape-font-specification:'Ubuntu Light';text-align:center;text-anchor:middle;fill:none;fill-opacity:1;stroke:#000000;stroke-width:0.3;stroke-dasharray:none"
         x="45.961727"
         y="240.9066"
         id="text26079"><tspan
           id="tspan26077"
           style="stroke-width:0.3"
           x="45.961727"
           y="240.9066">A'</tspan></text><text
         xml:space="preserve"
         style="font-weight:300;font-size:3.175px;font-family:Ubuntu;-inkscape-font-specification:'Ubuntu Light';text-align:center;text-anchor:middle;fill:none;fill-opacity:1;stroke:#000000;stroke-width:0.3;stroke-dasharray:none"
         x="48.573681"
         y="250.4503"
         id="text26083"><tspan
           id="tspan26081"
           style="stroke-width:0.3"
           x="48.573681"
           y="250.4503">B'</tspan></text><text
         xml:space="preserve"
         style="font-weight:300;font-size:3.175px;font-family:Ubuntu;-inkscape-font-specification:'Ubuntu Light';text-align:center;text-anchor:middle;fill:#000000;fill-opacity:1;stroke:#000000;stroke-width:0.3;stroke-dasharray:none"
         x="37.47184"
         y="240.55916"
         id="text24915-2"><tspan
           id="tspan24913-3"
           style="stroke-width:0.3"
           x="37.47184"
           y="240.55916">F</tspan></text><path
         style="fill:#000000;fill-opacity:1;stroke:#000000;stroke-width:0.3;stroke-dasharray:none"
         id="path24884-0"
         d="m 148.79503,179.27969 -0.55596,0 -0.55595,0 0.27798,-0.48147 0.27797,-0.48147 0.27798,0.48147 z"
         transform="rotate(90,56.231162,141.85852)" /><path
         style="fill:#000000;fill-opacity:1;stroke:#000000;stroke-width:0.3;stroke-dasharray:none"
         id="path24884-06"
         d="m 148.79503,179.27969 -0.55596,0 -0.55595,0 0.27798,-0.48147 0.27797,-0.48147 0.27798,0.48147 z"
         transform="rotate(117.58858,66.735775,170.81868)" /></g><g
       id="g28036"><path
         style="fill:#000000;fill-opacity:1;stroke:#000000;stroke-width:0.3;stroke-dasharray:none"
         d="M 64.757783,242.11926 H 114.67408"
         id="path25204-7" /><path
         style="fill:none;stroke:#000000;stroke-width:0.3;stroke-dasharray:none"
         d="m 84.855709,227.27536 v 28.41793"
         id="path24790-1-5" /><path
         style="fill:#000000;fill-opacity:1;stroke:#000000;stroke-width:0.3;stroke-dasharray:none"
         id="path24794-8-92"
         d="m 96.985965,177.81306 -1.017581,0 -1.017581,0 0.50879,-0.88125 0.508791,-0.88126 0.50879,0.88126 z"
         transform="translate(-11.103494,51.278304)" /><path
         style="fill:#000000;fill-opacity:1;stroke:#000000;stroke-width:0.3;stroke-dasharray:none"
         id="path24794-7-7-2"
         d="m 96.985965,177.81306 -1.017581,0 -1.017581,0 0.50879,-0.88125 0.508791,-0.88126 0.50879,0.88126 z"
         transform="matrix(1,0,0,-1,-11.073092,432.07795)" /><path
         style="fill:#000000;fill-opacity:1;stroke:#000000;stroke-width:0.3;stroke-dasharray:none"
         d="m 68.290055,242.08416 v -6.3531"
         id="path25254-8" /><path
         style="fill:#000000;fill-opacity:1;stroke:#000000;stroke-width:0.3;stroke-dasharray:none"
         id="path24794-8-9-9"
         d="m 96.985965,177.81306 -1.017581,0 -1.017581,0 0.50879,-0.88125 0.508791,-0.88126 0.50879,0.88126 z"
         transform="translate(-27.772471,57.994595)" /><path
         style="fill:none;stroke:#000000;stroke-width:0.3;stroke-dasharray:none"
         d="m 93.500799,241.30071 v 1.39592"
         id="path24792-2-7" /><path
         style="fill:none;fill-opacity:1;stroke:#000000;stroke-width:0.3;stroke-dasharray:none"
         d="M 108.92921,256.17164 84.723989,234.13657 H 68.048995 l 41.960925,19.8776"
         id="path25312-3" /><path
         style="fill:none;fill-opacity:1;stroke:#000000;stroke-width:0.3;stroke-dasharray:none"
         d="m 103.122,250.15595 v -8.07951"
         id="path25314-6" /><path
         style="fill:#000000;fill-opacity:1;stroke:#000000;stroke-width:0.3;stroke-dasharray:none"
         id="path24794-7-0-1"
         d="m 96.985965,177.81306 -1.017581,0 -1.017581,0 0.50879,-0.88125 0.508791,-0.88126 0.50879,0.88126 z"
         transform="matrix(1,0,0,-1,7.0740155,426.27744)" /><text
         xml:space="preserve"
         style="font-weight:300;font-size:3.175px;font-family:Ubuntu;-inkscape-font-specification:'Ubuntu Light';text-align:center;text-anchor:middle;fill:none;fill-opacity:1;stroke:#000000;stroke-width:0.3;stroke-dasharray:none"
         x="68.16111"
         y="245.42906"
         id="text26071-2"><tspan
           id="tspan26069-9"
           style="stroke-width:0.3"
           x="68.16111"
           y="245.42906">A</tspan></text><text
         xml:space="preserve"
         style="font-weight:300;font-size:3.175px;font-family:Ubuntu;-inkscape-font-specification:'Ubuntu Light';text-align:center;text-anchor:middle;fill:none;fill-opacity:1;stroke:#000000;stroke-width:0.3;stroke-dasharray:none"
         x="67.817513"
         y="232.70978"
         id="text26075-3"><tspan
           id="tspan26073-1"
           style="stroke-width:0.3"
           x="67.817513"
           y="232.70978">B</tspan></text><text
         xml:space="preserve"
         style="font-weight:300;font-size:3.175px;font-family:Ubuntu;-inkscape-font-specification:'Ubuntu Light';text-align:center;text-anchor:middle;fill:none;fill-opacity:1;stroke:#000000;stroke-width:0.3;stroke-dasharray:none"
         x="106.1557"
         y="250.06012"
         id="text26079-9"><tspan
           id="tspan26077-4"
           style="stroke-width:0.3"
           x="106.1557"
           y="250.06012">A'</tspan></text><text
         xml:space="preserve"
         style="font-weight:300;font-size:3.175px;font-family:Ubuntu;-inkscape-font-specification:'Ubuntu Light';text-align:center;text-anchor:middle;fill:none;fill-opacity:1;stroke:#000000;stroke-width:0.3;stroke-dasharray:none"
         x="104.95346"
         y="240.96364"
         id="text26083-7"><tspan
           id="tspan26081-8"
           style="stroke-width:0.3"
           x="104.95346"
           y="240.96364">B'</tspan></text><text
         xml:space="preserve"
         style="font-weight:300;font-size:3.175px;font-family:Ubuntu;-inkscape-font-specification:'Ubuntu Light';text-align:center;text-anchor:middle;fill:#000000;fill-opacity:1;stroke:#000000;stroke-width:0.3;stroke-dasharray:none"
         x="94.886955"
         y="240.63832"
         id="text24915-2-4"><tspan
           id="tspan24913-3-5"
           style="stroke-width:0.3"
           x="94.886955"
           y="240.63832">F</tspan></text><path
         style="fill:#000000;fill-opacity:1;stroke:#000000;stroke-width:0.3;stroke-dasharray:none"
         id="path24884-3"
         d="m 148.79503,179.27969 -0.55596,0 -0.55595,0 0.27798,-0.48147 0.27797,-0.48147 0.27798,0.48147 z"
         transform="rotate(90,84.766862,170.5504)" /><path
         style="fill:#000000;fill-opacity:1;stroke:#000000;stroke-width:0.3;stroke-dasharray:none"
         id="path24884-06-3"
         d="m 148.79503,179.27969 -0.55596,0 -0.55595,0 0.27798,-0.48147 0.27797,-0.48147 0.27798,0.48147 z"
         transform="rotate(117.58858,94.332708,186.65465)" /></g><g
       id="g28061"><path
         style="fill:#000000;fill-opacity:1;stroke:#000000;stroke-width:0.3;stroke-dasharray:none"
         d="m 122.23515,242.17301 h 49.9163"
         id="path25204-7-2" /><path
         style="fill:none;stroke:#000000;stroke-width:0.3;stroke-dasharray:none"
         d="m 142.33308,227.32911 v 28.41793"
         id="path24790-1-5-0" /><path
         style="fill:#000000;fill-opacity:1;stroke:#000000;stroke-width:0.3;stroke-dasharray:none"
         id="path24794-8-92-6"
         d="m 96.985965,177.81306 -1.017581,0 -1.017581,0 0.50879,-0.88125 0.508791,-0.88126 0.50879,0.88126 z"
         transform="translate(46.373771,51.33205)" /><path
         style="fill:#000000;fill-opacity:1;stroke:#000000;stroke-width:0.3;stroke-dasharray:none"
         id="path24794-7-7-2-1"
         d="m 96.985965,177.81306 -1.017581,0 -1.017581,0 0.50879,-0.88125 0.508791,-0.88126 0.50879,0.88126 z"
         transform="matrix(1,0,0,-1,46.404173,432.1317)" /><path
         style="fill:#000000;fill-opacity:1;stroke:#000000;stroke-width:0.3;stroke-dasharray:none"
         d="m 125.76742,242.13791 v -6.3531"
         id="path25254-8-5" /><path
         style="fill:#000000;fill-opacity:1;stroke:#000000;stroke-width:0.3;stroke-dasharray:none"
         id="path24794-8-9-9-5"
         d="m 96.985965,177.81306 -1.017581,0 -1.017581,0 0.50879,-0.88125 0.508791,-0.88126 0.50879,0.88126 z"
         transform="translate(29.704794,58.048341)" /><path
         style="fill:none;stroke:#000000;stroke-width:0.3;stroke-dasharray:none"
         d="m 150.97817,241.35446 v 1.39592"
         id="path24792-2-7-4" /><path
         style="fill:none;fill-opacity:1;stroke:#000000;stroke-width:0.3;stroke-dasharray:none"
         d="m 160.59937,250.2097 v -8.07951"
         id="path25314-6-6" /><path
         style="fill:#000000;fill-opacity:1;stroke:#000000;stroke-width:0.3;stroke-dasharray:none"
         id="path24794-7-0-1-5"
         d="m 96.985965,177.81306 -1.017581,0 -1.017581,0 0.50879,-0.88125 0.508791,-0.88126 0.50879,0.88126 z"
         transform="matrix(1,0,0,-1,64.551281,426.33119)" /><text
         xml:space="preserve"
         style="font-weight:300;font-size:3.175px;font-family:Ubuntu;-inkscape-font-specification:'Ubuntu Light';text-align:center;text-anchor:middle;fill:none;fill-opacity:1;stroke:#000000;stroke-width:0.3;stroke-dasharray:none"
         x="125.63834"
         y="245.4828"
         id="text26071-2-6"><tspan
           id="tspan26069-9-9"
           style="stroke-width:0.3"
           x="125.63834"
           y="245.4828">A</tspan></text><text
         xml:space="preserve"
         style="font-weight:300;font-size:3.175px;font-family:Ubuntu;-inkscape-font-specification:'Ubuntu Light';text-align:center;text-anchor:middle;fill:none;fill-opacity:1;stroke:#000000;stroke-width:0.3;stroke-dasharray:none"
         x="125.29475"
         y="232.76352"
         id="text26075-3-3"><tspan
           id="tspan26073-1-7"
           style="stroke-width:0.3"
           x="125.29475"
           y="232.76352">B</tspan></text><text
         xml:space="preserve"
         style="font-weight:300;font-size:3.175px;font-family:Ubuntu;-inkscape-font-specification:'Ubuntu Light';text-align:center;text-anchor:middle;fill:none;fill-opacity:1;stroke:#000000;stroke-width:0.3;stroke-dasharray:none"
         x="162.70918"
         y="241.22105"
         id="text26079-9-4"><tspan
           id="tspan26077-4-5"
           style="stroke-width:0.3"
           x="162.70918"
           y="241.22105">A'</tspan></text><text
         xml:space="preserve"
         style="font-weight:300;font-size:3.175px;font-family:Ubuntu;-inkscape-font-specification:'Ubuntu Light';text-align:center;text-anchor:middle;fill:none;fill-opacity:1;stroke:#000000;stroke-width:0.3;stroke-dasharray:none"
         x="163.87889"
         y="249.35562"
         id="text26083-7-2"><tspan
           id="tspan26081-8-5"
           style="stroke-width:0.3"
           x="163.87889"
           y="249.35562">B'</tspan></text><text
         xml:space="preserve"
         style="font-weight:300;font-size:3.175px;font-family:Ubuntu;-inkscape-font-specification:'Ubuntu Light';text-align:center;text-anchor:middle;fill:#000000;fill-opacity:1;stroke:#000000;stroke-width:0.3;stroke-dasharray:none"
         x="152.36397"
         y="240.69206"
         id="text24915-2-4-4"><tspan
           id="tspan24913-3-5-7"
           style="stroke-width:0.3"
           x="152.36397"
           y="240.69206">F</tspan></text><path
         style="fill:#000000;fill-opacity:1;stroke:#000000;stroke-width:0.3;stroke-dasharray:none"
         id="path24884-3-4"
         d="m 148.79503,179.27969 -0.55596,0 -0.55595,0 0.27798,-0.48147 0.27797,-0.48147 0.27798,0.48147 z"
         transform="rotate(108.4889,118.10624,208.02323)" /><path
         style="fill:#000000;fill-opacity:1;stroke:#000000;stroke-width:0.3;stroke-dasharray:none"
         id="path24884-06-3-4"
         d="m 148.79503,179.27969 -0.55596,0 -0.55595,0 0.27798,-0.48147 0.27797,-0.48147 0.27798,0.48147 z"
         transform="rotate(117.58858,123.05494,204.09005)" /><path
         style="fill:none;fill-opacity:1;stroke:#000000;stroke-width:0.3;stroke-dasharray:none"
         d="m 125.51624,234.09847 42.94035,20.2311"
         id="path27986" /><path
         style="fill:none;fill-opacity:1;stroke:#000000;stroke-width:0.3;stroke-dasharray:none"
         d="m 125.66328,242.05173 16.45744,5.88336 27.40359,3.77127"
         id="path27988" /></g></g></svg>
