<?xml version="1.0" encoding="UTF-8" standalone="no"?>
<!-- Created with Inkscape (http://www.inkscape.org/) -->

<svg
   version="1.1"
   id="svg1"
   width="44.49572mm"
   height="37.559235mm"
   viewBox="0 0 168.1728 141.95616"
   xmlns="http://www.w3.org/2000/svg"
   xmlns:svg="http://www.w3.org/2000/svg">
  <defs
     id="defs1" />
  <g
     id="layer2"
     transform="translate(-9.4224889,-10.12421)">
    <path
       style="display:inline;fill:none;stroke:#000000;stroke-width:0.903307;stroke-linecap:round;stroke-linejoin:round"
       d="M 18.829275,10.575863 C 20.143546,56.620598 23.093545,149.7504 98.822131,151.62872 180.04689,145.91194 177.13049,59.009331 177.13049,59.009331"
       id="path1" />
    <g
       id="g6">
      <ellipse
         style="fill:none;stroke:#000000;stroke-width:0.903307;stroke-linecap:round;stroke-linejoin:round"
         id="path2"
         cx="22.737791"
         cy="29.526176"
         rx="2.6496027"
         ry="3.4156528" />
      <path
         style="fill:none;stroke:#000000;stroke-width:0.903307;stroke-linecap:round;stroke-linejoin:round"
         d="m 10.904799,60.396293 20.445476,-1.357439 2.564436,-4.989408"
         id="path3" />
      <path
         style="fill:none;stroke:#000000;stroke-width:0.903307;stroke-linecap:round;stroke-linejoin:round"
         d="m 18.282048,59.693037 7.284677,-10.437678 -11.657338,-0.89967 c 0,0 0.06036,-5.83339 1.385345,-8.309024 1.710252,-3.195487 4.923335,-7.316795 7.932196,-7.436745 1.692532,1.942632 0.489697,5.916294 -0.779908,8.440454 -1.663841,3.307958 -8.271267,7.415167 -8.271267,7.415167"
         id="path4" />
      <path
         style="fill:none;stroke:#000000;stroke-width:0.903307;stroke-linecap:round;stroke-linejoin:round"
         d="m 21.100755,36.263359 6.04087,6.018441 -8.181316,1.812743"
         id="path5" />
      <path
         style="fill:none;stroke:#000000;stroke-width:0.903307;stroke-linecap:round;stroke-linejoin:round"
         d="M 9.8741428,48.668795 13.970651,47.600283"
         id="path6" />
    </g>
    <g
       id="g10"
       transform="translate(27.643876,73.359031)">
      <ellipse
         style="fill:none;stroke:#000000;stroke-width:0.903307;stroke-linecap:round;stroke-linejoin:round"
         id="ellipse6"
         cx="22.737791"
         cy="29.526176"
         rx="2.6496027"
         ry="3.4156528" />
      <path
         style="fill:none;stroke:#000000;stroke-width:0.903307;stroke-linecap:round;stroke-linejoin:round"
         d="m 10.904799,60.396293 20.445476,-1.357439 2.564436,-4.989408"
         id="path7" />
      <path
         style="fill:none;stroke:#000000;stroke-width:0.903307;stroke-linecap:round;stroke-linejoin:round"
         d="m 18.282048,59.693037 7.284677,-10.437678 -11.657338,-0.89967 c 0,0 0.06036,-5.83339 1.385345,-8.309024 1.710252,-3.195487 4.923335,-7.316795 7.932196,-7.436745 1.692532,1.942632 0.489697,5.916294 -0.779908,8.440454 -1.663841,3.307958 -8.271267,7.415167 -8.271267,7.415167"
         id="path8" />
      <path
         style="fill:none;stroke:#000000;stroke-width:0.903307;stroke-linecap:round;stroke-linejoin:round"
         d="m 21.100755,36.263359 6.04087,6.018441 -8.181316,1.812743"
         id="path9" />
      <path
         style="fill:none;stroke:#000000;stroke-width:0.903307;stroke-linecap:round;stroke-linejoin:round"
         d="M 9.8741428,48.668795 13.970651,47.600283"
         id="path10" />
    </g>
    <g
       id="g14"
       transform="translate(74.463849,90.789109)">
      <ellipse
         style="fill:none;stroke:#000000;stroke-width:0.903307;stroke-linecap:round;stroke-linejoin:round"
         id="ellipse10"
         cx="22.737791"
         cy="29.526176"
         rx="2.6496027"
         ry="3.4156528" />
      <path
         style="fill:none;stroke:#000000;stroke-width:0.903307;stroke-linecap:round;stroke-linejoin:round"
         d="m 10.904799,60.396293 20.445476,-1.357439 2.564436,-4.989408"
         id="path11" />
      <path
         style="fill:none;stroke:#000000;stroke-width:0.903307;stroke-linecap:round;stroke-linejoin:round"
         d="m 18.282048,59.693037 7.284677,-10.437678 -11.657338,-0.89967 c 0,0 0.06036,-5.83339 1.385345,-8.309024 1.710252,-3.195487 4.923335,-7.316795 7.932196,-7.436745 1.692532,1.942632 0.489697,5.916294 -0.779908,8.440454 -1.663841,3.307958 -8.271267,7.415167 -8.271267,7.415167"
         id="path12" />
      <path
         style="fill:none;stroke:#000000;stroke-width:0.903307;stroke-linecap:round;stroke-linejoin:round"
         d="m 21.100755,36.263359 6.04087,6.018441 -8.181316,1.812743"
         id="path13" />
      <path
         style="fill:none;stroke:#000000;stroke-width:0.903307;stroke-linecap:round;stroke-linejoin:round"
         d="M 9.8741428,48.668795 13.970651,47.600283"
         id="path14" />
    </g>
    <g
       id="g18"
       transform="translate(107.12226,86.77867)">
      <ellipse
         style="fill:none;stroke:#000000;stroke-width:0.903307;stroke-linecap:round;stroke-linejoin:round"
         id="ellipse14"
         cx="22.737791"
         cy="29.526176"
         rx="2.6496027"
         ry="3.4156528" />
      <path
         style="fill:none;stroke:#000000;stroke-width:0.903307;stroke-linecap:round;stroke-linejoin:round"
         d="m 10.904799,60.396293 20.445476,-1.357439 2.564436,-4.989408"
         id="path15" />
      <path
         style="fill:none;stroke:#000000;stroke-width:0.903307;stroke-linecap:round;stroke-linejoin:round"
         d="m 18.282048,59.693037 7.284677,-10.437678 -11.657338,-0.89967 c 0,0 0.06036,-5.83339 1.385345,-8.309024 1.710252,-3.195487 4.923335,-7.316795 7.932196,-7.436745 1.692532,1.942632 0.489697,5.916294 -0.779908,8.440454 -1.663841,3.307958 -8.271267,7.415167 -8.271267,7.415167"
         id="path16" />
      <path
         style="fill:none;stroke:#000000;stroke-width:0.903307;stroke-linecap:round;stroke-linejoin:round"
         d="m 21.100755,36.263359 6.04087,6.018441 -8.181316,1.812743"
         id="path17" />
      <path
         style="fill:none;stroke:#000000;stroke-width:0.903307;stroke-linecap:round;stroke-linejoin:round"
         d="M 9.8741428,48.668795 13.970651,47.600283"
         id="path18" />
    </g>
    <g
       id="g22"
       transform="translate(123.88941,77.076689)">
      <ellipse
         style="fill:none;stroke:#000000;stroke-width:0.903307;stroke-linecap:round;stroke-linejoin:round"
         id="ellipse18"
         cx="22.737791"
         cy="29.526176"
         rx="2.6496027"
         ry="3.4156528" />
      <path
         style="fill:none;stroke:#000000;stroke-width:0.903307;stroke-linecap:round;stroke-linejoin:round"
         d="m 10.904799,60.396293 20.445476,-1.357439 2.564436,-4.989408"
         id="path19" />
      <path
         style="fill:none;stroke:#000000;stroke-width:0.903307;stroke-linecap:round;stroke-linejoin:round"
         d="m 18.282048,59.693037 7.284677,-10.437678 -11.657338,-0.89967 c 0,0 0.06036,-5.83339 1.385345,-8.309024 1.710252,-3.195487 4.923335,-7.316795 7.932196,-7.436745 1.692532,1.942632 0.489697,5.916294 -0.779908,8.440454 -1.663841,3.307958 -8.271267,7.415167 -8.271267,7.415167"
         id="path20" />
      <path
         style="fill:none;stroke:#000000;stroke-width:0.903307;stroke-linecap:round;stroke-linejoin:round"
         d="m 21.100755,36.263359 6.04087,6.018441 -8.181316,1.812743"
         id="path21" />
      <path
         style="fill:none;stroke:#000000;stroke-width:0.903307;stroke-linecap:round;stroke-linejoin:round"
         d="M 9.8741428,48.668795 13.970651,47.600283"
         id="path22" />
    </g>
    <g
       id="g26"
       transform="translate(132.23039,70.005382)">
      <ellipse
         style="fill:none;stroke:#000000;stroke-width:0.903307;stroke-linecap:round;stroke-linejoin:round"
         id="ellipse22"
         cx="22.737791"
         cy="29.526176"
         rx="2.6496027"
         ry="3.4156528" />
      <path
         style="fill:none;stroke:#000000;stroke-width:0.903307;stroke-linecap:round;stroke-linejoin:round"
         d="m 10.904799,60.396293 20.445476,-1.357439 2.564436,-4.989408"
         id="path23" />
      <path
         style="fill:none;stroke:#000000;stroke-width:0.903307;stroke-linecap:round;stroke-linejoin:round"
         d="m 18.282048,59.693037 7.284677,-10.437678 -11.657338,-0.89967 c 0,0 0.06036,-5.83339 1.385345,-8.309024 1.710252,-3.195487 4.923335,-7.316795 7.932196,-7.436745 1.692532,1.942632 0.489697,5.916294 -0.779908,8.440454 -1.663841,3.307958 -8.271267,7.415167 -8.271267,7.415167"
         id="path24" />
      <path
         style="fill:none;stroke:#000000;stroke-width:0.903307;stroke-linecap:round;stroke-linejoin:round"
         d="m 21.100755,36.263359 6.04087,6.018441 -8.181316,1.812743"
         id="path25" />
      <path
         style="fill:none;stroke:#000000;stroke-width:0.903307;stroke-linecap:round;stroke-linejoin:round"
         d="M 9.8741428,48.668795 13.970651,47.600283"
         id="path26" />
    </g>
  </g>
</svg>
