<?xml version="1.0" encoding="UTF-8" standalone="no"?>
<!-- Created with Inkscape (http://www.inkscape.org/) -->

<svg
   version="1.1"
   id="svg1"
   width="17.381695mm"
   height="31.94623mm"
   viewBox="0 0 65.694595 120.74166"
   xmlns="http://www.w3.org/2000/svg"
   xmlns:svg="http://www.w3.org/2000/svg">
  <defs
     id="defs1" />
  <g
     id="g1"
     transform="translate(-183.45478,-219.1087)">
    <path
       style="fill:none;stroke:#000000;stroke-width:0.903307;stroke-linecap:round;stroke-linejoin:round"
       d="m 194.77391,219.56035 c 0,0 53.28736,1.74684 53.9191,21.51267 0.64794,20.27274 -63.9563,6.27978 -64.77768,28.91656 -0.88531,24.39876 63.79665,13.739 64.64872,34.42804 0.77829,18.89769 -54.27595,34.98108 -54.27595,34.98108"
       id="path1" />
    <path
       style="fill:none;stroke:#000000;stroke-width:0.903307;stroke-linecap:round;stroke-linejoin:round"
       d="m 211.71353,333.18659 -9.55798,-6.59669 8.02118,-5.35702 4.11651,1.16614 -4.78103,5.05721 7.45743,3.54132"
       id="path2" />
    <path
       style="fill:none;stroke:#000000;stroke-width:0.903307;stroke-linecap:round;stroke-linejoin:round"
       d="m 209.54413,321.06542 c 0,0 -2.98546,-5.10179 -2.84514,-7.89588 0.12066,-2.40258 0.79531,-5.87089 3.11441,-6.51022 3.14478,-0.86695 7.0782,2.33606 8.15033,5.41693 1.19363,3.43 -3.36963,10.36111 -3.36963,10.36111"
       id="path3" />
    <path
       style="fill:none;stroke:#000000;stroke-width:0.903307;stroke-linecap:round;stroke-linejoin:round"
       d="m 201.83113,302.32519 c -0.13449,2.31453 3.03463,4.44756 5.35306,4.44084 2.42701,-0.007 5.80471,-2.26494 5.57672,-4.68122 -0.20363,-2.15814 -3.50854,-3.24747 -5.67508,-3.17565 -2.08801,0.0692 -5.13351,1.33039 -5.2547,3.41603 z"
       id="path4" />
    <path
       style="fill:none;stroke:#000000;stroke-width:0.903307;stroke-linecap:round;stroke-linejoin:round"
       d="m 207.60733,308.84294 -8.33746,8.54183 33.31509,1.3202"
       id="path5" />
    <path
       style="fill:none;stroke:#000000;stroke-width:0.903307;stroke-linecap:round;stroke-linejoin:round"
       d="m 212.11357,309.34881 -9.55452,7.91708"
       id="path6" />
  </g>
</svg>
