<?xml version="1.0" encoding="UTF-8" standalone="no"?>
<!-- Created with Inkscape (http://www.inkscape.org/) -->

<svg
   version="1.1"
   id="svg1"
   width="70.231102mm"
   height="23.215557mm"
   viewBox="0 0 265.44039 87.743838"
   xmlns="http://www.w3.org/2000/svg"
   xmlns:svg="http://www.w3.org/2000/svg">
  <defs
     id="defs1" />
  <g
     id="layer1"
     transform="translate(-87.624685,0.40576251)">
    <path
       style="fill:#1a1a1a;stroke:#000000;stroke-width:0.903307;stroke-linecap:round;stroke-linejoin:round"
       d="M 88.07634,4.886169 352.61342,86.88642"
       id="path1" />
    <g
       id="g3"
       transform="translate(-24,-92)"
       style="fill:none">
      <path
         style="fill:none;stroke:#000000;stroke-width:0.903307;stroke-linecap:round;stroke-linejoin:round"
         d="m 138.82013,104.36286 8.21357,-2.73283 -3.82502,-2.667156 12.28739,-0.168756 0.51065,-1.99463 4.65112,-0.17257 -0.0393,-2.30113 -3.30729,-1.415319 -2.20968,1.844733 -3.7406,-1.286512 -13.58265,0.744599 -1.59492,2.319069 6.8707,4.510732 -5.08674,1.29076 -4.92726,-0.30996 -0.24574,0.82671 z"
         id="path2" />
      <path
         style="fill:none;stroke:#000000;stroke-width:0.903307;stroke-linecap:round;stroke-linejoin:round"
         d="m 134.35095,92.045891 25.81528,8.135529"
         id="path3" />
    </g>
    <g
       id="g5"
       transform="translate(-1.774014,-84.564753)"
       style="fill:none">
      <path
         style="fill:none;stroke:#000000;stroke-width:0.903307;stroke-linecap:round;stroke-linejoin:round"
         d="m 138.82013,104.36286 8.21357,-2.73283 -3.82502,-2.667156 12.28739,-0.168756 0.51065,-1.99463 4.65112,-0.17257 -0.0393,-2.30113 -3.30729,-1.415319 -2.20968,1.844733 -3.7406,-1.286512 -13.58265,0.744599 -1.59492,2.319069 6.8707,4.510732 -5.08674,1.29076 -4.92726,-0.30996 -0.24574,0.82671 z"
         id="path4" />
      <path
         style="fill:none;stroke:#000000;stroke-width:0.903307;stroke-linecap:round;stroke-linejoin:round"
         d="m 134.35095,92.045891 25.81528,8.135529"
         id="path5" />
    </g>
    <g
       id="g7"
       transform="translate(32.287343,-74.247548)"
       style="fill:none">
      <path
         style="fill:none;stroke:#000000;stroke-width:0.903307;stroke-linecap:round;stroke-linejoin:round"
         d="m 138.82013,104.36286 8.21357,-2.73283 -3.82502,-2.667156 12.28739,-0.168756 0.51065,-1.99463 4.65112,-0.17257 -0.0393,-2.30113 -3.30729,-1.415319 -2.20968,1.844733 -3.7406,-1.286512 -13.58265,0.744599 -1.59492,2.319069 6.8707,4.510732 -5.08674,1.29076 -4.92726,-0.30996 -0.24574,0.82671 z"
         id="path6" />
      <path
         style="fill:none;stroke:#000000;stroke-width:0.903307;stroke-linecap:round;stroke-linejoin:round"
         d="m 134.35095,92.045891 25.81528,8.135529"
         id="path7" />
    </g>
    <g
       id="g9"
       transform="translate(89.92366,-56.349981)"
       style="fill:none">
      <path
         style="fill:none;stroke:#000000;stroke-width:0.903307;stroke-linecap:round;stroke-linejoin:round"
         d="m 138.82013,104.36286 8.21357,-2.73283 -3.82502,-2.667156 12.28739,-0.168756 0.51065,-1.99463 4.65112,-0.17257 -0.0393,-2.30113 -3.30729,-1.415319 -2.20968,1.844733 -3.7406,-1.286512 -13.58265,0.744599 -1.59492,2.319069 6.8707,4.510732 -5.08674,1.29076 -4.92726,-0.30996 -0.24574,0.82671 z"
         id="path8" />
      <path
         style="fill:none;stroke:#000000;stroke-width:0.903307;stroke-linecap:round;stroke-linejoin:round"
         d="m 134.35095,92.045891 25.81528,8.135529"
         id="path9" />
    </g>
    <g
       id="g11"
       transform="translate(180.61462,-28.33172)"
       style="fill:none">
      <path
         style="fill:none;stroke:#000000;stroke-width:0.903307;stroke-linecap:round;stroke-linejoin:round"
         d="m 138.82013,104.36286 8.21357,-2.73283 -3.82502,-2.667156 12.28739,-0.168756 0.51065,-1.99463 4.65112,-0.17257 -0.0393,-2.30113 -3.30729,-1.415319 -2.20968,1.844733 -3.7406,-1.286512 -13.58265,0.744599 -1.59492,2.319069 6.8707,4.510732 -5.08674,1.29076 -4.92726,-0.30996 -0.24574,0.82671 z"
         id="path10" />
      <path
         style="fill:none;stroke:#000000;stroke-width:0.903307;stroke-linecap:round;stroke-linejoin:round"
         d="m 134.35095,92.045891 25.81528,8.135529"
         id="path11" />
    </g>
  </g>
</svg>
