<?xml version="1.0" encoding="UTF-8" standalone="no"?>
<!-- Created with Inkscape (http://www.inkscape.org/) -->

<svg
   width="71.107933mm"
   height="89.733894mm"
   viewBox="0 0 71.107933 89.733894"
   version="1.1"
   id="svg1"
   xml:space="preserve"
   xmlns="http://www.w3.org/2000/svg"
   xmlns:svg="http://www.w3.org/2000/svg"><defs
     id="defs1" /><g
     id="layer1"
     style="display:inline"
     transform="translate(-61.826261,-115.02114)"><path
       style="fill:#e6e6e6;fill-opacity:1;stroke:none;stroke-width:0.1;stroke-linecap:round;stroke-linejoin:round;stroke-dasharray:0.1, 0.1"
       d="m 61.82626,200.58052 0.264083,-71.15075 c 0,0 17.036746,-14.88387 36.089469,-14.39694 19.052708,0.48693 34.381478,15.449 34.381478,15.449 l 0.37291,71.21615 c 0,0 -12.24841,-14.4924 -34.676508,-15.44251 -22.428111,-0.95011 -36.431432,14.32505 -36.431432,14.32505 z"
       id="path10" /><path
       style="fill:#666666;fill-opacity:1;stroke:none;stroke-width:0.1;stroke-linecap:round;stroke-linejoin:round;stroke-dasharray:0.1, 0.1"
       d="m 84.401311,204.49394 c 0,0 7.119395,-7.26428 12.145221,-7.38103 5.025818,-0.11675 14.001048,7.64212 14.001048,7.64212"
       id="path11" /><path
       style="fill:#666666;fill-opacity:1;stroke:none;stroke-width:0.1;stroke-linecap:round;stroke-linejoin:round;stroke-dasharray:0.1, 0.1"
       d="m 89.018272,200.57906 -12.466834,-47.90257 1.747737,-0.5918 15.547668,45.83858 z"
       id="path12" /><path
       style="fill:#666666;fill-opacity:1;stroke:none;stroke-width:0.1;stroke-linecap:round;stroke-linejoin:round;stroke-dasharray:0.1, 0.1"
       d="m 97.760179,196.76604 -11.585239,-43.7226 2.032606,-1.42897 16.129534,48.50281 z"
       id="path13" /><ellipse
       style="fill:#666666;fill-opacity:1;stroke:none;stroke-width:0.1;stroke-linecap:round;stroke-linejoin:round;stroke-dasharray:0.1, 0.1"
       id="path14"
       cx="82.082359"
       cy="152.56357"
       rx="8.1622753"
       ry="2.2295332" /><ellipse
       style="fill:#999999;fill-opacity:1;stroke:none;stroke-width:0.1;stroke-linecap:round;stroke-linejoin:round;stroke-dasharray:0.1, 0.1"
       id="path15"
       cx="82.4384"
       cy="153.4062"
       rx="1.9536576"
       ry="37.066349" /><path
       style="fill:none;fill-opacity:1;stroke:#000000;stroke-width:0.1;stroke-linecap:round;stroke-linejoin:round;stroke-dasharray:0.1, 0.1;stroke-opacity:1"
       d="m 62.525725,183.99582 c 0,0 15.089891,-15.08699 35.444437,-14.61712 20.354538,0.46987 34.886838,14.97578 34.886838,14.97578"
       id="path16" /><path
       style="fill:none;fill-opacity:1;stroke:#000000;stroke-width:0.1;stroke-linecap:round;stroke-linejoin:round;stroke-dasharray:0.1, 0.1;stroke-opacity:1"
       d="m 61.966311,146.3465 c 0,0 13.559453,-14.99433 33.788273,-15.01465 20.228806,-0.0203 36.807656,14.8463 36.807656,14.8463"
       id="path17" /></g></svg>
