<?xml version="1.0" encoding="UTF-8" standalone="no"?>
<!-- Created with Inkscape (http://www.inkscape.org/) -->

<svg
   width="70.655869mm"
   height="38.271973mm"
   viewBox="0 0 70.655869 38.271973"
   version="1.1"
   id="svg5"
   xml:space="preserve"
   xmlns:xlink="http://www.w3.org/1999/xlink"
   xmlns="http://www.w3.org/2000/svg"
   xmlns:svg="http://www.w3.org/2000/svg"><defs
     id="defs2" /><g
     id="layer2"
     style="display:inline"
     transform="translate(-33.770409,-201.82011)"><g
       id="g8803"><path
         style="display:inline;fill:#cccccc;stroke:#000000;stroke-width:0.174565"
         d="m 45.379572,226.00316 v 5.15154"
         id="path844"
         transform="translate(14.81667)" /><path
         style="display:inline;fill:#000000;stroke:#000000;stroke-width:0.174565"
         d="m 45.973047,225.99843 v 5.20762"
         id="path846"
         transform="translate(14.81667)" /><rect
         style="fill:#ffffff;stroke:#000000;stroke-width:0.174565"
         id="rect504"
         width="7.5318694"
         height="14.049963"
         x="55.725235"
         y="225.91373" /><path
         style="fill:#ffffff;stroke:#000000;stroke-width:0.174565"
         d="m 80.235833,231.72229 v 8.28251 h 14.067633 v -8.26986"
         id="path506" /><path
         style="fill:none;stroke:#000000;stroke-width:0.116375;stroke-dasharray:none"
         d="M 80.152255,234.10954 H 94.315481"
         id="path1481" /><rect
         style="fill:#ffffff;stroke:#000000;stroke-width:0.174565"
         id="rect508"
         width="3.9797795"
         height="1.9786704"
         x="57.732635"
         y="223.99146" /><path
         style="fill:#ffffff;stroke:#000000;stroke-width:0.174565"
         d="m 86.547986,235.52305 v -11.47081 c 0,0 0.269206,-1.15979 1.145763,-1.1458 0.876574,0.0141 1.18663,1.18659 1.18663,1.18659 v 11.47371"
         id="path764" /><path
         style="fill:#ffffff;stroke:#000000;stroke-width:0.174565"
         d="m 60.809202,226.02068 v -2.83252 h 16.059956 l 8.097626,15.42812 h 2.988238 v -4.71484 h -0.586125 l -0.0021,4.07829 h -1.97856 L 77.385803,222.5615 H 60.229928 v 3.45274"
         id="path672" /><g
         transform="matrix(0.0626253,0,0,0.0626253,53.141425,200.81105)"
         id="g24079"
         style="display:inline;fill:#cccccc;fill-opacity:1"><path
           d="m 95,163.61252 c 0,-20 32,-40 32,-60 0,0 -79,0 -79,0 0,20 32,40 32,60 z"
           id="path24075"
           style="fill:#cccccc;fill-opacity:1;fill-rule:evenodd;stroke:none;stroke-width:1px;stroke-linecap:round;stroke-linejoin:round;stroke-opacity:1" /></g><path
         d="m 58.777699,220.76423 c 0,0 0,-1.12722 0,-1.25247 0,-0.12526 0.313127,-0.50103 0.313127,-0.62636 0,-0.0623 0,-7.82804 0,-7.82804 -0.313127,0 -0.626255,0 -0.939372,0 0,0 0,7.76551 0,7.82804 0,0.12533 0.313117,0.5011 0.313117,0.62636 0,0.12525 0,1.25247 0,1.25247 h 0.313128 c -0.187873,0.0625 -0.313128,0.37581 -0.313128,0.37581 0,0 0,-0.37581 0,-0.37581"
         id="path20569"
         style="display:inline;fill:#cccccc;fill-opacity:1;fill-rule:evenodd;stroke:none;stroke-width:0.0626222px;stroke-linecap:round;stroke-linejoin:round;stroke-opacity:1" /><path
         d="m 57.587816,202.28978 0.187884,2.50504 h 1.690874 l 0.187876,-2.50504 z"
         id="path2196"
         style="display:inline;fill:none;fill-opacity:0.75;fill-rule:evenodd;stroke:#000000;stroke-width:0.0626222px;stroke-linecap:round;stroke-linejoin:round;stroke-opacity:1" /><path
         d="m 57.7757,203.85538 -0.125254,-1.81605 h 1.941386 l -0.125258,1.81605 z"
         id="path3073"
         style="display:inline;fill:#e6e6e6;fill-opacity:1;fill-rule:evenodd;stroke:#c8c8dc;stroke-width:0.0626222;stroke-linecap:round;stroke-linejoin:round;stroke-miterlimit:4;stroke-dasharray:none;stroke-opacity:1" /><path
         d="m 57.212068,202.03933 h 2.818141 v -0.18791 h -2.818141 z"
         id="path3075"
         style="display:inline;fill:#e6e6e6;fill-opacity:1;fill-rule:evenodd;stroke:#c8c8dc;stroke-width:0.0626222;stroke-linecap:round;stroke-linejoin:round;stroke-miterlimit:4;stroke-dasharray:none;stroke-opacity:1" /><path
         d="m 57.525193,202.28978 h 0.06263 v 0.0626 h -0.06263 z"
         id="path6569"
         style="display:inline;fill:none;fill-opacity:0.75;fill-rule:evenodd;stroke:#000000;stroke-width:0.0626222px;stroke-linecap:round;stroke-linejoin:round;stroke-opacity:1" /><path
         d="m 59.65445,202.35239 v -0.0625 h 0.06266 v 0.0625 z"
         id="path6571"
         style="display:inline;fill:none;fill-opacity:0.75;fill-rule:evenodd;stroke:#000000;stroke-width:0.0626222px;stroke-linecap:round;stroke-linejoin:round;stroke-opacity:1" /><path
         d="m 57.7757,204.79482 c -1.189891,0.25045 -1.628266,1.25247 -1.628266,2.50494 0,1.2526 2.00402,2.50509 2.00402,3.7576 0,0 0,7.76551 0,7.82804 0,0.12533 0.313117,0.5011 0.313117,0.62636 0,0.12525 0,1.25247 0,1.25247"
         id="path8319"
         style="display:inline;fill:none;fill-opacity:0.75;fill-rule:evenodd;stroke:#000000;stroke-width:0.0626222px;stroke-linecap:round;stroke-linejoin:round;stroke-opacity:1" /><use
         transform="matrix(-1,0,0,1,117.24227,-4.5683023e-7)"
         id="use8321"
         x="0"
         y="0"
         width="305.35001"
         height="433.61252"
         xlink:href="#path8319"
         style="display:inline" /><path
         d="m 59.403949,219.57427 0.06264,-0.68887 h 0.125258 l 0.06264,0.68887"
         id="path11825"
         style="display:inline;fill:#cc0000;fill-opacity:1;fill-rule:evenodd;stroke:#cc0000;stroke-width:0.0626222px;stroke-linecap:round;stroke-linejoin:round;stroke-opacity:1" /><path
         d="m 59.403949,219.76225 0.06264,0.6889 h 0.125258 l 0.06264,-0.6889"
         id="path11827"
         style="display:inline;fill:#cc0000;fill-opacity:1;fill-rule:evenodd;stroke:#cc0000;stroke-width:0.0626222px;stroke-linecap:round;stroke-linejoin:round;stroke-opacity:1" /><path
         d="m 58.151454,219.51176 h 1.001993 v 0.31316 h -1.001993 z m 1.001993,0 0.06264,0.0623 0.125251,-0.0623 c 0.125246,0.0623 0.250499,0.0623 0.37575,0 h 0.06264 v 0.31316 c 0,0 -0.06264,0 -0.06264,0 -0.125251,-0.0626 -0.250504,-0.0626 -0.37575,0 0,0 -0.125251,-0.0626 -0.125251,-0.0626 l -0.06264,0.0626"
         id="rect10071"
         style="display:inline;fill:#ffffff;fill-opacity:1;fill-rule:evenodd;stroke:#999999;stroke-width:0.0500997;stroke-linecap:round;stroke-linejoin:round;stroke-miterlimit:4;stroke-dashoffset:0;stroke-opacity:1" /><path
         d="m 58.151454,219.44914 c -0.125259,0.0627 -0.313131,0.0627 -0.313131,0.0627 v 0.31317 c 0,0 0.187872,0 0.313131,0.0625 0,0 0,-0.43831 0,-0.43831 z"
         id="path10946"
         style="display:inline;fill:#cc0000;fill-opacity:1;fill-rule:evenodd;stroke:#cc0000;stroke-width:0.0626222px;stroke-linecap:round;stroke-linejoin:round;stroke-opacity:1" /><path
         d="m 58.464571,220.76423 c 0,0 0,0.37581 0,0.37581 0,0 0.125255,-0.31311 0.313128,-0.37581"
         id="path8323"
         style="display:inline;fill:none;fill-opacity:0.75;fill-rule:evenodd;stroke:#000000;stroke-width:0.0626222px;stroke-linecap:round;stroke-linejoin:round;stroke-opacity:1" /><path
         style="fill:#000000;stroke:#000000;stroke-width:0.174565"
         d="m 60.224142,225.974 v 5.24756"
         id="path919" /><path
         style="fill:#000000;stroke:#000000;stroke-width:0.168333"
         d="m 60.774497,225.94219 v 4.91775"
         id="path921" /><path
         style="fill:none;stroke:#000000;stroke-width:0.116375;stroke-dasharray:none"
         d="m 58.491397,221.03354 v 10.17923 h 0.238387 v -10.38183"
         id="path923" /><path
         style="fill:none;stroke:#000000;stroke-width:0.116375;stroke-dasharray:none"
         d="m 86.512047,229.29572 h 2.385457"
         id="path1483" /><path
         style="fill:#cccccc;stroke:#000000;stroke-width:0.0398714;stroke-dasharray:none"
         d="m 80.334957,237.03178 v -2.84945 l 1.093358,0.0145 1.09337,0.0144 1.181913,2.25483 1.181922,2.25497 h 1.60157 1.601619 v -2.45272 -2.4527 h -0.421956 -0.421942 v 2.03073 2.03076 H 86.356249 85.46775 l -0.701495,-1.35821 c -0.385773,-0.74707 -0.818799,-1.57775 -0.962138,-1.84619 l -0.260699,-0.48776 h 1.455034 1.455123 v 0.68561 c 0,0.65058 0.0063,0.68574 0.105483,0.68574 0.104268,0 0.105504,-0.0352 0.105504,-3.0857 v -3.08561 h 1.054888 1.054999 v 3.11207 c 0,3.07686 0.002,3.11201 0.105467,3.11201 0.100271,0 0.10551,-0.0352 0.10551,-0.71213 v -0.71199 h 2.610987 2.610893 v 2.8483 2.84827 h -6.93612 -6.936229 z"
         id="path1554" /><path
         style="fill:#cccccc;stroke:#000000;stroke-width:0.116375;stroke-dasharray:none"
         d="m 55.687037,234.47494 h 7.50678"
         id="path1625" /><path
         style="fill:#cccccc;stroke:#000000;stroke-width:0.0398714;stroke-dasharray:none"
         d="m 55.860482,237.19105 v -2.63732 h 3.639517 3.639524 v 2.63732 2.63733 h -3.639524 -3.639517 z"
         id="path1627" /><text
         xml:space="preserve"
         style="font-weight:300;font-size:2.11667px;font-family:Ubuntu;-inkscape-font-specification:'Ubuntu Light';text-align:center;text-anchor:middle;fill:#000000;fill-opacity:1;stroke:#000000;stroke-width:0.05;stroke-dasharray:none"
         x="70.786674"
         y="209.41718"
         id="text3135"><tspan
           id="tspan3133"
           style="font-size:2.11667px;fill:#000000;fill-opacity:1;stroke-width:0.05;stroke-dasharray:none"
           x="70.786674"
           y="209.41718">Eau oxygénée</tspan></text><path
         style="fill:#000000;fill-opacity:1;stroke:#000000;stroke-width:0.116375;stroke-dasharray:none"
         d="m 62.350523,208.88645 h -2.87141"
         id="path3289" /><text
         xml:space="preserve"
         style="font-weight:300;font-size:2.11667px;font-family:Ubuntu;-inkscape-font-specification:'Ubuntu Light';text-align:center;text-anchor:middle;fill:#000000;fill-opacity:1;stroke:#000000;stroke-width:0.05;stroke-dasharray:none"
         x="41.953033"
         y="235.52516"
         id="text4019"><tspan
           id="tspan4017"
           style="font-size:2.11667px;stroke-width:0.05;stroke-dasharray:none"
           x="41.953033"
           y="235.52516">Permanganate de</tspan><tspan
           style="font-size:2.11667px;stroke-width:0.05;stroke-dasharray:none"
           x="41.953033"
           y="238.17101"
           id="tspan4021">potassium</tspan></text><path
         style="fill:#000000;fill-opacity:1;stroke:#000000;stroke-width:0.116375;stroke-dasharray:none"
         d="M 57.838153,236.97145 H 52.298044"
         id="path4749" /><text
         xml:space="preserve"
         style="font-weight:300;font-size:2.11667px;font-family:Ubuntu;-inkscape-font-specification:'Ubuntu Light';text-align:center;text-anchor:middle;fill:#000000;fill-opacity:1;stroke:#000000;stroke-width:0.05;stroke-dasharray:none"
         x="98.920471"
         y="238.10629"
         id="text5479"><tspan
           id="tspan5477"
           style="font-size:2.11667px;stroke-width:0.05;stroke-dasharray:none"
           x="98.920471"
           y="238.10629">Eau</tspan></text><path
         style="fill:#000000;fill-opacity:1;stroke:#000000;stroke-width:0.116375;stroke-dasharray:none"
         d="m 95.962035,237.36796 h -3.20433"
         id="path5481" /><text
         xml:space="preserve"
         style="font-weight:300;font-size:2.11667px;font-family:Ubuntu;-inkscape-font-specification:'Ubuntu Light';text-align:center;text-anchor:middle;fill:#000000;fill-opacity:1;stroke:#000000;stroke-width:0.05;stroke-dasharray:none"
         x="98.960396"
         y="226.20874"
         id="text5485"><tspan
           id="tspan5483"
           style="font-size:2.11667px;stroke-width:0.05;stroke-dasharray:none"
           x="98.960396"
           y="226.20874">Gaz produit</tspan></text><path
         style="fill:#000000;fill-opacity:1;stroke:#000000;stroke-width:0.116375;stroke-dasharray:none"
         d="m 90.675332,225.69273 h -2.5767"
         id="path5487" /><circle
         style="fill:#000000;fill-opacity:1;stroke:#000000;stroke-width:0.116375;stroke-dasharray:none"
         id="path5541"
         cx="87.771492"
         cy="228.41571"
         r="0.17635258" /><circle
         style="display:inline;fill:#000000;fill-opacity:1;stroke:#000000;stroke-width:0.116375;stroke-dasharray:none"
         id="path5541-6"
         cx="87.771492"
         cy="230.53761"
         r="0.17635258" /><circle
         style="display:inline;fill:#000000;fill-opacity:1;stroke:#000000;stroke-width:0.116375;stroke-dasharray:none"
         id="path5541-3"
         cx="87.771492"
         cy="227.21208"
         r="0.17635258" /><circle
         style="display:inline;fill:#000000;fill-opacity:1;stroke:#000000;stroke-width:0.116375;stroke-dasharray:none"
         id="path5541-7"
         cx="87.771492"
         cy="232.3938"
         r="0.17635258" /></g></g></svg>
