<?xml version="1.0" encoding="UTF-8" standalone="no"?>
<!-- Created with Inkscape (http://www.inkscape.org/) -->

<svg
   width="131.06268mm"
   height="60.677082mm"
   viewBox="0 0 131.06268 60.677082"
   version="1.1"
   id="svg1"
   xml:space="preserve"
   xmlns="http://www.w3.org/2000/svg"
   xmlns:svg="http://www.w3.org/2000/svg"><defs
     id="defs1"><marker
       style="overflow:visible"
       id="marker24"
       refX="0"
       refY="0"
       orient="auto-start-reverse"
       markerWidth="1"
       markerHeight="1"
       viewBox="0 0 1 1"
       preserveAspectRatio="xMidYMid"><path
         transform="scale(0.5)"
         style="fill:context-stroke;fill-rule:evenodd;stroke:context-stroke;stroke-width:1pt"
         d="M 5.77,0 -2.88,5 V -5 Z"
         id="path24" /></marker><marker
       style="overflow:visible"
       id="marker22"
       refX="0"
       refY="0"
       orient="auto-start-reverse"
       markerWidth="1"
       markerHeight="1"
       viewBox="0 0 1 1"
       preserveAspectRatio="xMidYMid"><path
         transform="scale(0.5)"
         style="fill:context-stroke;fill-rule:evenodd;stroke:context-stroke;stroke-width:1pt"
         d="M 5.77,0 -2.88,5 V -5 Z"
         id="path22" /></marker><marker
       style="overflow:visible"
       id="Triangle"
       refX="0"
       refY="0"
       orient="auto-start-reverse"
       markerWidth="1"
       markerHeight="1"
       viewBox="0 0 1 1"
       preserveAspectRatio="xMidYMid"><path
         transform="scale(0.5)"
         style="fill:context-stroke;fill-rule:evenodd;stroke:context-stroke;stroke-width:1pt"
         d="M 5.77,0 -2.88,5 V -5 Z"
         id="path135" /></marker></defs><g
     id="layer2"
     style="display:inline"
     transform="translate(-41.650083,-27.50188)"><g
       id="g5"
       transform="translate(0,-83.60838)"><path
         style="fill:none;stroke:#000000;stroke-width:0.239"
         d="m 41.650081,111.77651 h 3.791161 v 53.03698 c 0,0 1.081127,7.13466 7.369308,6.84587 6.288181,-0.28879 7.221442,-6.83661 7.221442,-6.83661 v -53.59299 h 3.143173"
         id="path3" /><path
         style="fill:none;stroke:#000000;stroke-width:0.239"
         d="M 48.605492,170.20977 58.162758,162.851"
         id="path4" /><path
         style="fill:none;stroke:#000000;stroke-width:0.239"
         d="m 56.830055,161.02232 2.563529,3.52098"
         id="path5" /></g><g
       id="g8"
       transform="translate(32.808348,-83.60838)"><path
         style="fill:none;stroke:#000000;stroke-width:0.239"
         d="m 41.650081,111.77651 h 3.791161 v 53.03698 c 0,0 1.081127,7.13466 7.369308,6.84587 6.288181,-0.28879 7.221442,-6.83661 7.221442,-6.83661 v -53.59299 h 3.143173"
         id="path6" /><path
         style="fill:none;stroke:#000000;stroke-width:0.239"
         d="M 48.605492,170.20977 58.162758,162.851"
         id="path7" /><path
         style="fill:none;stroke:#000000;stroke-width:0.239"
         d="m 56.830055,161.02232 2.563529,3.52098"
         id="path8" /></g><g
       id="g11"
       transform="translate(74.612541,-83.60838)"><path
         style="fill:none;stroke:#000000;stroke-width:0.239"
         d="m 41.650081,111.77651 h 3.791161 v 53.03698 c 0,0 1.081127,7.13466 7.369308,6.84587 6.288181,-0.28879 7.221442,-6.83661 7.221442,-6.83661 v -53.59299 h 3.143173"
         id="path9" /><path
         style="fill:none;stroke:#000000;stroke-width:0.239"
         d="M 48.605492,170.20977 58.162758,162.851"
         id="path10" /><path
         style="fill:none;stroke:#000000;stroke-width:0.239"
         d="m 56.830055,161.02232 2.563529,3.52098"
         id="path11" /></g><g
       id="g14"
       transform="translate(109.53762,-83.60838)"><path
         style="fill:none;stroke:#000000;stroke-width:0.239"
         d="m 41.650081,111.77651 h 3.791161 v 53.03698 c 0,0 1.081127,7.13466 7.369308,6.84587 6.288181,-0.28879 7.221442,-6.83661 7.221442,-6.83661 v -53.59299 h 3.143173"
         id="path12" /><path
         style="fill:none;stroke:#000000;stroke-width:0.239"
         d="M 48.605492,170.20977 58.162758,162.851"
         id="path13" /><path
         style="fill:none;stroke:#000000;stroke-width:0.239"
         d="m 56.830055,161.02232 2.563529,3.52098"
         id="path14" /></g><path
       style="fill:none;stroke:#000000;stroke-width:0.239"
       d="M 78.331,54.245201 H 92.824983"
       id="path15" /><rect
       style="fill:#cccccc;stroke:#000000;stroke-width:0.238214"
       id="rect15"
       width="14.515786"
       height="3.8206897"
       x="120.1201"
       y="50.582222" /><path
       style="fill:#cccccc;stroke:#000000;stroke-width:0.239;marker-end:url(#Triangle)"
       d="m 112.86877,43.306604 9.30241,9.062039"
       id="path16" /><text
       xml:space="preserve"
       style="font-size:3.175px;fill:#cccccc;stroke:#000000;stroke-width:0.239"
       x="104.85226"
       y="38.040443"
       id="text16"><tspan
         id="tspan16"
         style="stroke-width:0.239"
         x="104.85226"
         y="38.040443">Couche </tspan><tspan
         style="stroke-width:0.239"
         x="104.85226"
         y="42.009193"
         id="tspan17">d'huile</tspan></text><text
       xml:space="preserve"
       style="font-size:3.175px;fill:#cccccc;stroke:#000000;stroke-width:0.239"
       x="61.638222"
       y="50.138145"
       id="text18"><tspan
         id="tspan18"
         style="stroke-width:0.239"
         x="61.638222"
         y="50.138145">Eau </tspan><tspan
         style="stroke-width:0.239"
         x="61.638222"
         y="54.106895"
         id="tspan19">bouillante</tspan></text><path
       style="fill:#cccccc;stroke:#000000;stroke-width:0.239;marker-end:url(#Triangle)"
       d="m 71.348698,55.566062 9.302356,9.062039"
       id="path19" /><text
       xml:space="preserve"
       style="font-size:3.175px;fill:#cccccc;stroke:#000000;stroke-width:0.239"
       x="63.44537"
       y="65.537849"
       id="text20"><tspan
         id="tspan20"
         style="stroke-width:0.239"
         x="63.44537"
         y="65.537849">Clou </tspan><tspan
         style="stroke-width:0.239"
         x="63.44537"
         y="69.506599"
         id="tspan21">en fer</tspan></text><path
       style="fill:#cccccc;stroke:#000000;stroke-width:0.239;marker-end:url(#marker22)"
       d="m 63.629161,70.441768 -4.349329,7.717458"
       id="path21" /><text
       xml:space="preserve"
       style="font-size:3.175px;fill:#cccccc;stroke:#000000;stroke-width:0.239"
       x="141.94081"
       y="52.260887"
       id="text22"><tspan
         id="tspan22"
         style="stroke-width:0.239"
         x="141.94081"
         y="52.260887">Eau du </tspan><tspan
         style="stroke-width:0.239"
         x="141.94081"
         y="56.229637"
         id="tspan23">robinet</tspan></text><path
       style="fill:#cccccc;stroke:#000000;stroke-width:0.239;marker-end:url(#marker24)"
       d="m 147.72613,57.132246 6.75893,6.744381"
       id="path23" /><path
       style="fill:#cccccc;stroke:#000000;stroke-width:0.239;marker-end:url(#Triangle)"
       d="m 112.52701,68.27792 9.15134,8.938922"
       id="path25" /><text
       xml:space="preserve"
       style="font-size:3.175px;fill:#cccccc;stroke:#000000;stroke-width:0.239"
       x="103.97159"
       y="62.838158"
       id="text27"><tspan
         id="tspan26"
         style="stroke-width:0.239"
         x="103.97159"
         y="62.838158">Eau </tspan><tspan
         style="stroke-width:0.239"
         x="103.97159"
         y="66.806908"
         id="tspan27">bouillante</tspan></text><path
       style="fill:none;stroke:#000000;stroke-width:0.239"
       d="m 155.09,54.245201 h 14.49406"
       id="path27" /></g></svg>
