<?xml version="1.0" encoding="UTF-8" standalone="no"?>
<!-- Created with Inkscape (http://www.inkscape.org/) -->

<svg
   version="1.1"
   id="svg1"
   width="53.135708mm"
   height="49.810658mm"
   viewBox="0 0 200.82787 188.26076"
   xmlns="http://www.w3.org/2000/svg"
   xmlns:svg="http://www.w3.org/2000/svg">
  <defs
     id="defs1" />
  <g
     id="layer1"
     transform="translate(-209.90658,-7.1103924)">
    <path
       style="fill:#cccccc;stroke:#000000;stroke-width:0.179453;stroke-dasharray:none"
       d="M 378.26858,137.31613 V 79.735801 h 15.766 15.766 v 57.580329 57.58034 h -15.766 -15.766 z"
       id="path14-4-3" />
    <path
       style="fill:#cccccc;stroke:#000000;stroke-width:0.646"
       d="m 385.64148,189.13585 -1.30044,-0.17179 0.37168,-1.8077 -1.02785,-1.11852 0.61387,-1.79351 -0.6327,-1.75585 1.0487,-1.20789 -0.26492,-1.63707 1.31015,-0.51248 -0.0229,-1.87216 h 1.54191 l 0.291,-1.66069 1.67546,0.14398 1.18746,-1.56363 1.11533,0.72887 1.21962,-1.1188 1.45602,0.90863 1.51207,-0.81608 0.98221,1.32363 1.94416,-0.34228 0.76494,1.60738 1.75281,0.2251 0.093,1.72861 1.45862,0.61141 -0.0198,1.82798 1.22136,1.14184 -0.73235,1.7531 0.8026,0.97005 -0.98714,1.19948 0.66587,1.24005 -1.25598,0.62096 0.38834,1.56552 -1.49744,0.23422 0.29969,1.27858 -1.54756,0.1111 -0.10124,1.45529 -1.27699,-0.31288 -0.44874,1.57798 -2.17692,-0.55187 -1.1091,1.30378 -2.05887,-1.15097 -1.88911,0.69759 -0.67022,-1.3917 -1.79756,0.59591 -0.2448,-1.67735 -2.34364,-0.30476 z"
       id="path2-49" />
    <path
       id="path1-10"
       style="fill:#cccccc;stroke:#000000;stroke-width:0.692769"
       d="m 403.2128,184.03089 a 9.3291006,9.3291006 0 0 1 -9.3291,9.3291 9.3291006,9.3291006 0 0 1 -9.3291,-9.3291 9.3291006,9.3291006 0 0 1 9.3291,-9.3291 9.3291006,9.3291006 0 0 1 9.3291,9.3291 z" />
    <path
       style="fill:#cccccc;stroke:#000000;stroke-width:0.149917;stroke-dasharray:none"
       d="m 218.17976,153.2419 v -40.14814 h 15.78077 15.78077 v 40.14814 40.14814 h -15.78077 -15.78077 z"
       id="path14" />
    <path
       style="fill:#cccccc;stroke:#000000;stroke-width:0.18463;stroke-dasharray:none"
       d="M 270.13785,133.2759 V 72.31546 h 15.76341 15.76341 v 60.96044 60.96044 h -15.76341 -15.76341 z"
       id="path14-4" />
    <path
       style="fill:none;stroke:#000000;stroke-width:0.645996;stroke-dasharray:none"
       d="M 250.12397,193.96893 H 217.60718 V 14.3542 l -6.92082,-6.92081 h 39.0877 z"
       id="path1" />
    <path
       style="fill:none;stroke:#000000;stroke-width:0.646;stroke-dasharray:none"
       d="m 250.25116,190.33324 h -7.87588"
       id="path2" />
    <path
       style="fill:none;stroke:#000000;stroke-width:0.646;stroke-dasharray:none"
       d="m 250.25116,186.62391 h -7.87588"
       id="path2-2" />
    <path
       style="fill:none;stroke:#000000;stroke-width:0.646;stroke-dasharray:none"
       d="M 250.25116,175.49593 H 236.76389"
       id="path3" />
    <path
       style="fill:none;stroke:#000000;stroke-width:0.646;stroke-dasharray:none"
       d="M 250.25116,156.94929 H 239.76449"
       id="path4" />
    <path
       style="fill:none;stroke:#000000;stroke-width:0.646;stroke-dasharray:none"
       d="m 250.25116,182.91458 h -7.87588"
       id="path2-0" />
    <path
       style="fill:none;stroke:#000000;stroke-width:0.646;stroke-dasharray:none"
       d="m 250.25116,179.20526 h -7.87588"
       id="path2-6" />
    <path
       style="fill:none;stroke:#000000;stroke-width:0.646;stroke-dasharray:none"
       d="m 250.25116,171.7866 h -7.87588"
       id="path2-7" />
    <path
       style="fill:none;stroke:#000000;stroke-width:0.646;stroke-dasharray:none"
       d="m 250.25116,168.07727 h -7.87588"
       id="path2-2-9" />
    <path
       style="fill:none;stroke:#000000;stroke-width:0.646;stroke-dasharray:none"
       d="m 250.25116,164.36795 h -7.87588"
       id="path2-0-2" />
    <path
       style="fill:none;stroke:#000000;stroke-width:0.646;stroke-dasharray:none"
       d="m 250.25116,160.65862 h -7.87588"
       id="path2-6-0" />
    <path
       style="fill:none;stroke:#000000;stroke-width:0.646;stroke-dasharray:none"
       d="m 250.25116,153.23996 h -7.87588"
       id="path2-9" />
    <path
       style="fill:none;stroke:#000000;stroke-width:0.646;stroke-dasharray:none"
       d="m 250.25116,149.53064 h -7.87588"
       id="path2-2-2" />
    <path
       style="fill:none;stroke:#000000;stroke-width:0.646;stroke-dasharray:none"
       d="M 250.25116,138.40265 H 236.76389"
       id="path3-2" />
    <path
       style="fill:none;stroke:#000000;stroke-width:0.646;stroke-dasharray:none"
       d="M 250.25116,119.85602 H 239.76449"
       id="path4-8" />
    <path
       style="fill:none;stroke:#000000;stroke-width:0.646;stroke-dasharray:none"
       d="m 250.25116,145.82131 h -7.87588"
       id="path2-0-9" />
    <path
       style="fill:none;stroke:#000000;stroke-width:0.646;stroke-dasharray:none"
       d="m 250.25116,142.11198 h -7.87588"
       id="path2-6-7" />
    <path
       style="fill:none;stroke:#000000;stroke-width:0.646;stroke-dasharray:none"
       d="m 250.25116,134.69333 h -7.87588"
       id="path2-7-3" />
    <path
       style="fill:none;stroke:#000000;stroke-width:0.646;stroke-dasharray:none"
       d="m 250.25116,130.984 h -7.87588"
       id="path2-2-9-6" />
    <path
       style="fill:none;stroke:#000000;stroke-width:0.646;stroke-dasharray:none"
       d="m 250.25116,127.27467 h -7.87588"
       id="path2-0-2-1" />
    <path
       style="fill:none;stroke:#000000;stroke-width:0.646;stroke-dasharray:none"
       d="m 250.25116,123.56534 h -7.87588"
       id="path2-6-0-2" />
    <path
       style="fill:none;stroke:#000000;stroke-width:0.646;stroke-dasharray:none"
       d="m 250.25116,116.14669 h -7.87588"
       id="path2-4" />
    <path
       style="fill:none;stroke:#000000;stroke-width:0.646;stroke-dasharray:none"
       d="m 250.25116,112.43736 h -7.87588"
       id="path2-2-7" />
    <path
       style="fill:none;stroke:#000000;stroke-width:0.646;stroke-dasharray:none"
       d="M 250.25116,101.30938 H 236.76389"
       id="path3-8" />
    <path
       style="fill:none;stroke:#000000;stroke-width:0.646;stroke-dasharray:none"
       d="M 250.25116,82.76274 H 239.76449"
       id="path4-4" />
    <path
       style="fill:none;stroke:#000000;stroke-width:0.646;stroke-dasharray:none"
       d="m 250.25116,108.72803 h -7.87588"
       id="path2-0-5" />
    <path
       style="fill:none;stroke:#000000;stroke-width:0.646;stroke-dasharray:none"
       d="m 250.25116,105.01871 h -7.87588"
       id="path2-6-03" />
    <path
       style="fill:none;stroke:#000000;stroke-width:0.646;stroke-dasharray:none"
       d="m 250.25116,97.60005 h -7.87588"
       id="path2-7-6" />
    <path
       style="fill:none;stroke:#000000;stroke-width:0.646;stroke-dasharray:none"
       d="m 250.25116,93.89072 h -7.87588"
       id="path2-2-9-1" />
    <path
       style="fill:none;stroke:#000000;stroke-width:0.646;stroke-dasharray:none"
       d="m 250.25116,90.1814 h -7.87588"
       id="path2-0-2-0" />
    <path
       style="fill:none;stroke:#000000;stroke-width:0.646;stroke-dasharray:none"
       d="m 250.25116,86.47207 h -7.87588"
       id="path2-6-0-6" />
    <path
       style="fill:none;stroke:#000000;stroke-width:0.646;stroke-dasharray:none"
       d="m 250.25116,79.05341 h -7.87588"
       id="path2-9-3" />
    <path
       style="fill:none;stroke:#000000;stroke-width:0.646;stroke-dasharray:none"
       d="m 250.25116,75.34409 h -7.87588"
       id="path2-2-2-2" />
    <path
       style="fill:none;stroke:#000000;stroke-width:0.646;stroke-dasharray:none"
       d="M 250.25116,64.2161 H 236.76389"
       id="path3-2-0" />
    <path
       style="fill:none;stroke:#000000;stroke-width:0.646;stroke-dasharray:none"
       d="M 250.25116,45.66947 H 239.76449"
       id="path4-8-6" />
    <path
       style="fill:none;stroke:#000000;stroke-width:0.646;stroke-dasharray:none"
       d="m 250.25116,71.63476 h -7.87588"
       id="path2-0-9-1" />
    <path
       style="fill:none;stroke:#000000;stroke-width:0.646;stroke-dasharray:none"
       d="m 250.25116,67.92543 h -7.87588"
       id="path2-6-7-5" />
    <path
       style="fill:none;stroke:#000000;stroke-width:0.646;stroke-dasharray:none"
       d="m 250.25116,41.96014 h -7.87588"
       id="path2-9-3-7" />
    <path
       style="fill:none;stroke:#000000;stroke-width:0.646;stroke-dasharray:none"
       d="m 250.25116,38.25081 h -7.87588"
       id="path2-2-2-2-4" />
    <path
       style="fill:none;stroke:#000000;stroke-width:0.646;stroke-dasharray:none"
       d="M 250.25116,27.12283 H 236.76389"
       id="path3-2-0-5" />
    <path
       style="fill:none;stroke:#000000;stroke-width:0.646;stroke-dasharray:none"
       d="m 250.25116,34.54148 h -7.87588"
       id="path2-0-9-1-2" />
    <path
       style="fill:none;stroke:#000000;stroke-width:0.646;stroke-dasharray:none"
       d="m 250.25116,30.83216 h -7.87588"
       id="path2-6-7-5-5" />
    <path
       style="fill:none;stroke:#000000;stroke-width:0.646;stroke-dasharray:none"
       d="m 250.25116,60.50678 h -7.87588"
       id="path2-7-3-5" />
    <path
       style="fill:none;stroke:#000000;stroke-width:0.646;stroke-dasharray:none"
       d="m 250.25116,56.79745 h -7.87588"
       id="path2-2-9-6-4" />
    <path
       style="fill:none;stroke:#000000;stroke-width:0.646;stroke-dasharray:none"
       d="m 250.25116,53.08812 h -7.87588"
       id="path2-0-2-1-7" />
    <path
       style="fill:none;stroke:#000000;stroke-width:0.646;stroke-dasharray:none"
       d="m 250.25116,49.37879 h -7.87588"
       id="path2-6-0-2-6" />
    <text
       xml:space="preserve"
       style="font-size:8px;fill:none;stroke:#000000;stroke-width:0.646;stroke-dasharray:none"
       x="218.75308"
       y="177.92926"
       id="text4"><tspan
         id="tspan4"
         x="218.75308"
         y="177.92926"
         style="font-size:8px;stroke-width:0.646;stroke-dasharray:none">100</tspan></text>
    <text
       xml:space="preserve"
       style="font-size:8px;fill:none;stroke:#000000;stroke-width:0.646;stroke-dasharray:none"
       x="219.04605"
       y="140.89142"
       id="text5"><tspan
         id="tspan5"
         x="219.04605"
         y="140.89142">200</tspan></text>
    <text
       xml:space="preserve"
       style="font-size:8px;fill:none;stroke:#000000;stroke-width:0.646;stroke-dasharray:none"
       x="219.02261"
       y="103.85355"
       id="text6"><tspan
         id="tspan6"
         x="219.02261"
         y="103.85355">300</tspan></text>
    <text
       xml:space="preserve"
       style="font-size:8px;fill:none;stroke:#000000;stroke-width:0.646;stroke-dasharray:none"
       x="219.24136"
       y="66.815697"
       id="text7"><tspan
         id="tspan7"
         x="219.24136"
         y="66.815697">400</tspan></text>
    <text
       xml:space="preserve"
       style="font-size:8px;fill:none;stroke:#000000;stroke-width:0.646;stroke-dasharray:none"
       x="219.0148"
       y="29.777847"
       id="text8"><tspan
         id="tspan8"
         x="219.0148"
         y="29.777847">500</tspan></text>
    <text
       xml:space="preserve"
       style="font-size:8px;fill:none;stroke:#000000;stroke-width:0.646;stroke-dasharray:none"
       x="228.09662"
       y="16.41568"
       id="text9"><tspan
         id="tspan9"
         x="228.09662"
         y="16.41568">mL</tspan></text>
    <path
       style="fill:none;stroke:#000000;stroke-width:0.646"
       d="m 273.13377,153.14752 7.25305,-3.00678 6.40934,1.27943 0.72296,3.7956 -6.2145,-1.09892 -6.90117,2.96531 -0.1982,3.46202 1.97342,0.66441 -1.63771,-0.10032 -1.76241,-1.6996 z"
       id="path1-8" />
    <path
       style="fill:none;stroke:#000000;stroke-width:0.646"
       d="m 287.73286,155.45299 -0.89858,2.78358 c -3.19614,-3.22967 -11.72465,-2.34633 -11.095,2.88268"
       id="path2-92" />
    <path
       style="fill:none;stroke:#000000;stroke-width:0.646"
       d="m 276.16769,161.21652 3.98617,16.69051 6.50997,-1.83529 6.11448,0.73729 1.26266,5.57204 -5.9913,-0.70771 -7.4116,2.74821 -0.25155,3.9944 1.96792,0.87542 -3.84926,-1.95818 -0.82754,-6.11997 1.3831,-2.23047 1.33584,-1.2776"
       id="path3-6" />
    <path
       style="fill:none;stroke:#000000;stroke-width:0.646"
       d="m 291.8096,185.85315 c -1.5133,-2.62807 -9.96772,-1.89628 -9.80886,3.30712"
       id="path4-6" />
    <path
       style="fill:none;stroke:#000000;stroke-width:0.646"
       d="m 286.74524,158.12985 -1.17698,1.17057 3.64436,17.07014"
       id="path5" />
    <path
       style="fill:none;stroke:#000000;stroke-width:0.646"
       d="m 294.06811,182.79453 -1.00622,2.86164 -1.10411,0.78791 -0.35309,-0.7873 v 0 l 0.25339,4.48471 c 0,0 -4.31396,-1.39347 -5.19273,-0.28906 0,0 -2.15149,0.43938 -2.67472,2.17527 l 0.85955,1.49867 4.31396,-0.27748 c 0,0 2.81347,-1.36846 2.55185,-3.05373"
       id="path6" />
    <path
       style="fill:none;stroke:#000000;stroke-width:0.646"
       d="m 282.03916,189.32737 1.77858,2.88877"
       id="path7" />
    <path
       style="fill:none;stroke:#000000;stroke-width:0.646"
       d="m 286.57022,168.51682 c -0.65679,-1.06904 -5.86354,-1.01994 -7.51253,1.51452 m 4.27279,-2.21003"
       id="path8" />
    <path
       style="fill:none;stroke:#000000;stroke-width:0.646"
       d="m 286.90332,169.88168 c -0.65679,-1.06904 -5.86354,-1.01994 -7.51253,1.51452 m 4.27279,-2.21003"
       id="path8-3" />
    <path
       style="fill:none;stroke:#000000;stroke-width:0.646"
       d="m 287.12194,171.37765 c -0.65679,-1.06904 -5.86354,-1.01994 -7.51253,1.51452 m 4.2728,-2.21003"
       id="path8-8" />
    <path
       style="fill:none;stroke:#000000;stroke-width:0.646"
       d="m 287.51686,172.79252 c -0.65679,-1.06904 -5.86354,-1.01994 -7.51253,1.51452 m 4.2728,-2.21003"
       id="path8-4" />
    <path
       style="fill:#cccccc;stroke:#000000;stroke-width:0.0504258"
       d="m 273.47625,159.58375 -0.32843,-0.33464 0.16578,-2.92441 c 0.0912,-1.60842 0.17014,-2.92723 0.17547,-2.93068 0.005,-0.003 1.56996,-0.65146 3.47697,-1.44002 l 3.46728,-1.43375 2.69935,0.53696 c 1.48464,0.29533 2.84503,0.56781 3.02308,0.60551 l 0.32373,0.0685 0.2857,1.48703 c 0.15713,0.81787 0.2749,1.49772 0.2617,1.51078 -0.0132,0.0131 -1.31692,-0.20462 -2.89718,-0.48372 l -2.87319,-0.50746 -3.57914,1.53475 c -2.95785,1.26833 -3.58609,1.56423 -3.61917,1.7046 -0.022,0.0934 -0.0644,0.74945 -0.0943,1.45783 -0.0298,0.70838 -0.0779,1.33192 -0.10675,1.38564 -0.036,0.067 -0.15573,-0.008 -0.38092,-0.23696 z"
       id="path9" />
    <path
       style="fill:#cccccc;stroke:#000000;stroke-width:0.0504258"
       d="m 274.9225,160.39658 c -0.27099,-0.0846 -0.36224,-0.14923 -0.33699,-0.23867 0.019,-0.0674 0.0586,-0.70674 0.0879,-1.42065 0.0293,-0.71391 0.0756,-1.3308 0.10281,-1.37088 0.0784,-0.11545 6.48294,-2.83446 6.67124,-2.83224 0.24187,0.003 5.74907,0.98528 5.79811,1.03432 0.0357,0.0357 -0.47764,1.79508 -0.56887,1.94974 -0.0191,0.0324 -0.14671,-0.0251 -0.2836,-0.12768 -1.81466,-1.36001 -5.24361,-1.78541 -7.6836,-0.95324 -0.93153,0.31771 -1.49746,0.66036 -2.13492,1.29264 -0.6951,0.68944 -1.02505,1.30392 -1.17916,2.19599 l -0.10136,0.58669 z"
       id="path10" />
    <path
       style="fill:#cccccc;stroke:#000000;stroke-width:0.0504258"
       d="m 279.45747,187.38909 c -0.48815,-0.24613 -0.60623,-0.34157 -0.64178,-0.51873 -0.024,-0.11941 -0.20423,-1.42018 -0.40061,-2.8906 l -0.35704,-2.6735 0.66531,-1.07535 c 0.51454,-0.83164 0.7861,-1.18349 1.19824,-1.55249 l 0.53292,-0.47713 3.11808,-0.87724 3.11807,-0.87724 2.84914,0.3337 c 1.56702,0.18354 2.87316,0.35484 2.90252,0.38068 0.0828,0.0729 1.1121,4.68384 1.05772,4.73822 -0.0265,0.0265 -1.27406,-0.098 -2.77237,-0.2767 l -2.72421,-0.32487 -3.8568,1.42984 -3.8568,1.42983 -0.0919,1.48204 c -0.0505,0.81513 -0.10322,1.6101 -0.11709,1.76661 l -0.0252,0.28455 z"
       id="path11" />
    <path
       style="fill:#cccccc;stroke:#000000;stroke-width:0.0504258"
       d="m 281.16802,188.28735 c -0.43395,-0.22589 -0.40877,-0.0359 -0.27961,-2.10948 l 0.0928,-1.49014 3.51822,-1.30272 c 2.18286,-0.80827 3.62191,-1.30104 3.79141,-1.29829 0.38742,0.006 5.31163,0.6022 5.35781,0.64837 0.021,0.021 -0.17036,0.63018 -0.42527,1.35371 -0.42643,1.21036 -0.48703,1.33267 -0.75815,1.53017 -0.32801,0.23896 -0.44404,0.27035 -0.37973,0.10274 0.0805,-0.20989 -0.58008,-0.81053 -1.25012,-1.13662 -0.79593,-0.38735 -1.59091,-0.5468 -2.72617,-0.5468 -1.91449,0 -3.63815,0.54969 -4.83548,1.54208 -0.7858,0.65131 -1.26793,1.41964 -1.51818,2.41939 -0.0672,0.26833 -0.14341,0.48623 -0.16945,0.48423 -0.026,-0.002 -0.21417,-0.0905 -0.4181,-0.19664 z"
       id="path12" />
    <path
       style="fill:none;stroke:#000000;stroke-width:0.645996;stroke-dasharray:none"
       d="M 302.3174,194.15854 H 269.80061 V 14.54381 L 262.87979,7.623 h 39.0877 z"
       id="path1-4" />
    <path
       style="fill:none;stroke:#000000;stroke-width:0.646;stroke-dasharray:none"
       d="m 302.44459,190.52285 h -7.87588"
       id="path2-8" />
    <path
       style="fill:none;stroke:#000000;stroke-width:0.646;stroke-dasharray:none"
       d="m 302.44459,186.81352 h -7.87588"
       id="path2-2-71" />
    <path
       style="fill:none;stroke:#000000;stroke-width:0.646;stroke-dasharray:none"
       d="M 302.44459,175.68554 H 288.95732"
       id="path3-7" />
    <path
       style="fill:none;stroke:#000000;stroke-width:0.646;stroke-dasharray:none"
       d="M 302.44459,157.1389 H 291.95792"
       id="path4-2" />
    <path
       style="fill:none;stroke:#000000;stroke-width:0.646;stroke-dasharray:none"
       d="m 302.44459,183.10419 h -7.87588"
       id="path2-0-7" />
    <path
       style="fill:none;stroke:#000000;stroke-width:0.646;stroke-dasharray:none"
       d="m 302.44459,179.39487 h -7.87588"
       id="path2-6-2" />
    <path
       style="fill:none;stroke:#000000;stroke-width:0.646;stroke-dasharray:none"
       d="m 302.44459,171.97621 h -7.87588"
       id="path2-7-2" />
    <path
       style="fill:none;stroke:#000000;stroke-width:0.646;stroke-dasharray:none"
       d="m 302.44459,168.26688 h -7.87588"
       id="path2-2-9-61" />
    <path
       style="fill:none;stroke:#000000;stroke-width:0.646;stroke-dasharray:none"
       d="m 302.44459,164.55756 h -7.87588"
       id="path2-0-2-06" />
    <path
       style="fill:none;stroke:#000000;stroke-width:0.646;stroke-dasharray:none"
       d="m 302.44459,160.84823 h -7.87588"
       id="path2-6-0-1" />
    <path
       style="fill:none;stroke:#000000;stroke-width:0.646;stroke-dasharray:none"
       d="m 302.44459,153.42957 h -7.87588"
       id="path2-9-5" />
    <path
       style="fill:none;stroke:#000000;stroke-width:0.646;stroke-dasharray:none"
       d="m 302.44459,149.72025 h -7.87588"
       id="path2-2-2-9" />
    <path
       style="fill:none;stroke:#000000;stroke-width:0.646;stroke-dasharray:none"
       d="M 302.44459,138.59226 H 288.95732"
       id="path3-2-4" />
    <path
       style="fill:none;stroke:#000000;stroke-width:0.646;stroke-dasharray:none"
       d="M 302.44459,120.04563 H 291.95792"
       id="path4-8-9" />
    <path
       style="fill:none;stroke:#000000;stroke-width:0.646;stroke-dasharray:none"
       d="m 302.44459,146.01092 h -7.87588"
       id="path2-0-9-0" />
    <path
       style="fill:none;stroke:#000000;stroke-width:0.646;stroke-dasharray:none"
       d="m 302.44459,142.30159 h -7.87588"
       id="path2-6-7-9" />
    <path
       style="fill:none;stroke:#000000;stroke-width:0.646;stroke-dasharray:none"
       d="m 302.44459,134.88294 h -7.87588"
       id="path2-7-3-1" />
    <path
       style="fill:none;stroke:#000000;stroke-width:0.646;stroke-dasharray:none"
       d="m 302.44459,131.17361 h -7.87588"
       id="path2-2-9-6-7" />
    <path
       style="fill:none;stroke:#000000;stroke-width:0.646;stroke-dasharray:none"
       d="m 302.44459,127.46428 h -7.87588"
       id="path2-0-2-1-71" />
    <path
       style="fill:none;stroke:#000000;stroke-width:0.646;stroke-dasharray:none"
       d="m 302.44459,123.75495 h -7.87588"
       id="path2-6-0-2-1" />
    <path
       style="fill:none;stroke:#000000;stroke-width:0.646;stroke-dasharray:none"
       d="m 302.44459,116.3363 h -7.87588"
       id="path2-4-5" />
    <path
       style="fill:none;stroke:#000000;stroke-width:0.646;stroke-dasharray:none"
       d="m 302.44459,112.62697 h -7.87588"
       id="path2-2-7-9" />
    <path
       style="fill:none;stroke:#000000;stroke-width:0.646;stroke-dasharray:none"
       d="M 302.44459,101.49899 H 288.95732"
       id="path3-8-7" />
    <path
       style="fill:none;stroke:#000000;stroke-width:0.646;stroke-dasharray:none"
       d="M 302.44459,82.95235 H 291.95792"
       id="path4-4-7" />
    <path
       style="fill:none;stroke:#000000;stroke-width:0.646;stroke-dasharray:none"
       d="m 302.44459,108.91764 h -7.87588"
       id="path2-0-5-6" />
    <path
       style="fill:none;stroke:#000000;stroke-width:0.646;stroke-dasharray:none"
       d="m 302.44459,105.20832 h -7.87588"
       id="path2-6-03-7" />
    <path
       style="fill:none;stroke:#000000;stroke-width:0.646;stroke-dasharray:none"
       d="m 302.44459,97.78966 h -7.87588"
       id="path2-7-6-3" />
    <path
       style="fill:none;stroke:#000000;stroke-width:0.646;stroke-dasharray:none"
       d="m 302.44459,94.08033 h -7.87588"
       id="path2-2-9-1-6" />
    <path
       style="fill:none;stroke:#000000;stroke-width:0.646;stroke-dasharray:none"
       d="m 302.44459,90.37101 h -7.87588"
       id="path2-0-2-0-5" />
    <path
       style="fill:none;stroke:#000000;stroke-width:0.646;stroke-dasharray:none"
       d="m 302.44459,86.66168 h -7.87588"
       id="path2-6-0-6-6" />
    <path
       style="fill:none;stroke:#000000;stroke-width:0.646;stroke-dasharray:none"
       d="m 302.44459,79.24302 h -7.87588"
       id="path2-9-3-3" />
    <path
       style="fill:none;stroke:#000000;stroke-width:0.646;stroke-dasharray:none"
       d="m 302.44459,75.5337 h -7.87588"
       id="path2-2-2-2-9" />
    <path
       style="fill:none;stroke:#000000;stroke-width:0.646;stroke-dasharray:none"
       d="M 302.44459,64.40571 H 288.95732"
       id="path3-2-0-4" />
    <path
       style="fill:none;stroke:#000000;stroke-width:0.646;stroke-dasharray:none"
       d="M 302.44459,45.85908 H 291.95792"
       id="path4-8-6-8" />
    <path
       style="fill:none;stroke:#000000;stroke-width:0.646;stroke-dasharray:none"
       d="m 302.44459,71.82437 h -7.87588"
       id="path2-0-9-1-1" />
    <path
       style="fill:none;stroke:#000000;stroke-width:0.646;stroke-dasharray:none"
       d="m 302.44459,68.11504 h -7.87588"
       id="path2-6-7-5-2" />
    <path
       style="fill:none;stroke:#000000;stroke-width:0.646;stroke-dasharray:none"
       d="m 302.44459,42.14975 h -7.87588"
       id="path2-9-3-7-9" />
    <path
       style="fill:none;stroke:#000000;stroke-width:0.646;stroke-dasharray:none"
       d="m 302.44459,38.44042 h -7.87588"
       id="path2-2-2-2-4-3" />
    <path
       style="fill:none;stroke:#000000;stroke-width:0.646;stroke-dasharray:none"
       d="M 302.44459,27.31244 H 288.95732"
       id="path3-2-0-5-9" />
    <path
       style="fill:none;stroke:#000000;stroke-width:0.646;stroke-dasharray:none"
       d="m 302.44459,34.73109 h -7.87588"
       id="path2-0-9-1-2-0" />
    <path
       style="fill:none;stroke:#000000;stroke-width:0.646;stroke-dasharray:none"
       d="m 302.44459,31.02177 h -7.87588"
       id="path2-6-7-5-5-8" />
    <path
       style="fill:none;stroke:#000000;stroke-width:0.646;stroke-dasharray:none"
       d="m 302.44459,60.69639 h -7.87588"
       id="path2-7-3-5-8" />
    <path
       style="fill:none;stroke:#000000;stroke-width:0.646;stroke-dasharray:none"
       d="m 302.44459,56.98706 h -7.87588"
       id="path2-2-9-6-4-5" />
    <path
       style="fill:none;stroke:#000000;stroke-width:0.646;stroke-dasharray:none"
       d="m 302.44459,53.27773 h -7.87588"
       id="path2-0-2-1-7-0" />
    <path
       style="fill:none;stroke:#000000;stroke-width:0.646;stroke-dasharray:none"
       d="m 302.44459,49.5684 h -7.87588"
       id="path2-6-0-2-6-9" />
    <text
       xml:space="preserve"
       style="font-size:8px;fill:none;stroke:#000000;stroke-width:0.646;stroke-dasharray:none"
       x="270.94672"
       y="178.11884"
       id="text4-6"><tspan
         id="tspan4-3"
         x="270.94672"
         y="178.11884"
         style="font-size:8px;stroke-width:0.646;stroke-dasharray:none">100</tspan></text>
    <text
       xml:space="preserve"
       style="font-size:8px;fill:none;stroke:#000000;stroke-width:0.646;stroke-dasharray:none"
       x="271.23969"
       y="141.08099"
       id="text5-8"><tspan
         id="tspan5-5"
         x="271.23969"
         y="141.08099">200</tspan></text>
    <text
       xml:space="preserve"
       style="font-size:8px;fill:none;stroke:#000000;stroke-width:0.646;stroke-dasharray:none"
       x="271.21625"
       y="104.04312"
       id="text6-6"><tspan
         id="tspan6-1"
         x="271.21625"
         y="104.04312">300</tspan></text>
    <text
       xml:space="preserve"
       style="font-size:8px;fill:none;stroke:#000000;stroke-width:0.646;stroke-dasharray:none"
       x="271.435"
       y="67.00528"
       id="text7-1"><tspan
         id="tspan7-5"
         x="271.435"
         y="67.00528">400</tspan></text>
    <text
       xml:space="preserve"
       style="font-size:8px;fill:none;stroke:#000000;stroke-width:0.646;stroke-dasharray:none"
       x="271.20844"
       y="29.967377"
       id="text8-9"><tspan
         id="tspan8-8"
         x="271.20844"
         y="29.967377">500</tspan></text>
    <text
       xml:space="preserve"
       style="font-size:8px;fill:none;stroke:#000000;stroke-width:0.646;stroke-dasharray:none"
       x="280.29025"
       y="16.605209"
       id="text9-4"><tspan
         id="tspan9-8"
         x="280.29025"
         y="16.605209">mL</tspan></text>
    <path
       style="fill:#cccccc;stroke:#000000;stroke-width:0.1668;stroke-dasharray:none"
       d="M 326.28163,144.54456 V 94.817921 h 15.77233 15.77233 v 49.726639 49.72665 h -15.77233 -15.77233 z"
       id="path14-6" />
    <path
       style="fill:none;stroke:#000000;stroke-width:0.645996;stroke-dasharray:none"
       d="M 358.2174,194.85854 H 325.70061 V 15.24381 L 318.77979,8.323 h 39.0877 z"
       id="path1-1" />
    <path
       style="fill:none;stroke:#000000;stroke-width:0.646;stroke-dasharray:none"
       d="m 358.34459,191.22285 h -7.87588"
       id="path2-75" />
    <path
       style="fill:none;stroke:#000000;stroke-width:0.646;stroke-dasharray:none"
       d="m 358.34459,187.51352 h -7.87588"
       id="path2-2-96" />
    <path
       style="fill:none;stroke:#000000;stroke-width:0.646;stroke-dasharray:none"
       d="M 358.34459,176.38554 H 344.85732"
       id="path3-21" />
    <path
       style="fill:none;stroke:#000000;stroke-width:0.646;stroke-dasharray:none"
       d="M 358.34459,157.8389 H 347.85792"
       id="path4-7" />
    <path
       style="fill:none;stroke:#000000;stroke-width:0.646;stroke-dasharray:none"
       d="m 358.34459,183.80419 h -7.87588"
       id="path2-0-8" />
    <path
       style="fill:none;stroke:#000000;stroke-width:0.646;stroke-dasharray:none"
       d="m 358.34459,180.09487 h -7.87588"
       id="path2-6-5" />
    <path
       style="fill:none;stroke:#000000;stroke-width:0.646;stroke-dasharray:none"
       d="m 358.34459,172.67621 h -7.87588"
       id="path2-7-7" />
    <path
       style="fill:none;stroke:#000000;stroke-width:0.646;stroke-dasharray:none"
       d="m 358.34459,168.96688 h -7.87588"
       id="path2-2-9-4" />
    <path
       style="fill:none;stroke:#000000;stroke-width:0.646;stroke-dasharray:none"
       d="m 358.34459,165.25756 h -7.87588"
       id="path2-0-2-18" />
    <path
       style="fill:none;stroke:#000000;stroke-width:0.646;stroke-dasharray:none"
       d="m 358.34459,161.54823 h -7.87588"
       id="path2-6-0-5" />
    <path
       style="fill:none;stroke:#000000;stroke-width:0.646;stroke-dasharray:none"
       d="m 358.34459,154.12957 h -7.87588"
       id="path2-9-9" />
    <path
       style="fill:none;stroke:#000000;stroke-width:0.646;stroke-dasharray:none"
       d="m 358.34459,150.42025 h -7.87588"
       id="path2-2-2-7" />
    <path
       style="fill:none;stroke:#000000;stroke-width:0.646;stroke-dasharray:none"
       d="M 358.34459,139.29226 H 344.85732"
       id="path3-2-5" />
    <path
       style="fill:none;stroke:#000000;stroke-width:0.646;stroke-dasharray:none"
       d="M 358.34459,120.74563 H 347.85792"
       id="path4-8-3" />
    <path
       style="fill:none;stroke:#000000;stroke-width:0.646;stroke-dasharray:none"
       d="m 358.34459,146.71092 h -7.87588"
       id="path2-0-9-8" />
    <path
       style="fill:none;stroke:#000000;stroke-width:0.646;stroke-dasharray:none"
       d="m 358.34459,143.00159 h -7.87588"
       id="path2-6-7-8" />
    <path
       style="fill:none;stroke:#000000;stroke-width:0.646;stroke-dasharray:none"
       d="m 358.34459,135.58294 h -7.87588"
       id="path2-7-3-3" />
    <path
       style="fill:none;stroke:#000000;stroke-width:0.646;stroke-dasharray:none"
       d="m 358.34459,131.87361 h -7.87588"
       id="path2-2-9-6-1" />
    <path
       style="fill:none;stroke:#000000;stroke-width:0.646;stroke-dasharray:none"
       d="m 358.34459,128.16428 h -7.87588"
       id="path2-0-2-1-8" />
    <path
       style="fill:none;stroke:#000000;stroke-width:0.646;stroke-dasharray:none"
       d="m 358.34459,124.45495 h -7.87588"
       id="path2-6-0-2-9" />
    <path
       style="fill:none;stroke:#000000;stroke-width:0.646;stroke-dasharray:none"
       d="m 358.34459,117.0363 h -7.87588"
       id="path2-4-6" />
    <path
       style="fill:none;stroke:#000000;stroke-width:0.646;stroke-dasharray:none"
       d="m 358.34459,113.32697 h -7.87588"
       id="path2-2-7-4" />
    <path
       style="fill:none;stroke:#000000;stroke-width:0.646;stroke-dasharray:none"
       d="M 358.34459,102.19899 H 344.85732"
       id="path3-8-3" />
    <path
       style="fill:none;stroke:#000000;stroke-width:0.646;stroke-dasharray:none"
       d="M 358.34459,83.65235 H 347.85792"
       id="path4-4-3" />
    <path
       style="fill:none;stroke:#000000;stroke-width:0.646;stroke-dasharray:none"
       d="m 358.34459,109.61764 h -7.87588"
       id="path2-0-5-3" />
    <path
       style="fill:none;stroke:#000000;stroke-width:0.646;stroke-dasharray:none"
       d="m 358.34459,105.90832 h -7.87588"
       id="path2-6-03-8" />
    <path
       style="fill:none;stroke:#000000;stroke-width:0.646;stroke-dasharray:none"
       d="m 358.34459,98.48966 h -7.87588"
       id="path2-7-6-6" />
    <path
       style="fill:none;stroke:#000000;stroke-width:0.646;stroke-dasharray:none"
       d="m 358.34459,94.78033 h -7.87588"
       id="path2-2-9-1-0" />
    <path
       style="fill:none;stroke:#000000;stroke-width:0.646;stroke-dasharray:none"
       d="m 358.34459,91.07101 h -7.87588"
       id="path2-0-2-0-4" />
    <path
       style="fill:none;stroke:#000000;stroke-width:0.646;stroke-dasharray:none"
       d="m 358.34459,87.36168 h -7.87588"
       id="path2-6-0-6-8" />
    <path
       style="fill:none;stroke:#000000;stroke-width:0.646;stroke-dasharray:none"
       d="m 358.34459,79.94302 h -7.87588"
       id="path2-9-3-8" />
    <path
       style="fill:none;stroke:#000000;stroke-width:0.646;stroke-dasharray:none"
       d="m 358.34459,76.2337 h -7.87588"
       id="path2-2-2-2-8" />
    <path
       style="fill:none;stroke:#000000;stroke-width:0.646;stroke-dasharray:none"
       d="M 358.34459,65.10571 H 344.85732"
       id="path3-2-0-9" />
    <path
       style="fill:none;stroke:#000000;stroke-width:0.646;stroke-dasharray:none"
       d="M 358.34459,46.55908 H 347.85792"
       id="path4-8-6-7" />
    <path
       style="fill:none;stroke:#000000;stroke-width:0.646;stroke-dasharray:none"
       d="m 358.34459,72.52437 h -7.87588"
       id="path2-0-9-1-7" />
    <path
       style="fill:none;stroke:#000000;stroke-width:0.646;stroke-dasharray:none"
       d="m 358.34459,68.81504 h -7.87588"
       id="path2-6-7-5-6" />
    <path
       style="fill:none;stroke:#000000;stroke-width:0.646;stroke-dasharray:none"
       d="m 358.34459,42.84975 h -7.87588"
       id="path2-9-3-7-4" />
    <path
       style="fill:none;stroke:#000000;stroke-width:0.646;stroke-dasharray:none"
       d="m 358.34459,39.14042 h -7.87588"
       id="path2-2-2-2-4-30" />
    <path
       style="fill:none;stroke:#000000;stroke-width:0.646;stroke-dasharray:none"
       d="M 358.34459,28.01244 H 344.85732"
       id="path3-2-0-5-3" />
    <path
       style="fill:none;stroke:#000000;stroke-width:0.646;stroke-dasharray:none"
       d="m 358.34459,35.43109 h -7.87588"
       id="path2-0-9-1-2-09" />
    <path
       style="fill:none;stroke:#000000;stroke-width:0.646;stroke-dasharray:none"
       d="m 358.34459,31.72177 h -7.87588"
       id="path2-6-7-5-5-2" />
    <path
       style="fill:none;stroke:#000000;stroke-width:0.646;stroke-dasharray:none"
       d="m 358.34459,61.39639 h -7.87588"
       id="path2-7-3-5-5" />
    <path
       style="fill:none;stroke:#000000;stroke-width:0.646;stroke-dasharray:none"
       d="m 358.34459,57.68706 h -7.87588"
       id="path2-2-9-6-4-4" />
    <path
       style="fill:none;stroke:#000000;stroke-width:0.646;stroke-dasharray:none"
       d="m 358.34459,53.97773 h -7.87588"
       id="path2-0-2-1-7-05" />
    <path
       style="fill:none;stroke:#000000;stroke-width:0.646;stroke-dasharray:none"
       d="m 358.34459,50.2684 h -7.87588"
       id="path2-6-0-2-6-94" />
    <text
       xml:space="preserve"
       style="font-size:8px;fill:none;stroke:#000000;stroke-width:0.646;stroke-dasharray:none"
       x="326.84653"
       y="178.81886"
       id="text4-69"><tspan
         id="tspan4-2"
         x="326.84653"
         y="178.81886"
         style="font-size:8px;stroke-width:0.646;stroke-dasharray:none">100</tspan></text>
    <text
       xml:space="preserve"
       style="font-size:8px;fill:none;stroke:#000000;stroke-width:0.646;stroke-dasharray:none"
       x="327.1395"
       y="141.78104"
       id="text5-2"><tspan
         id="tspan5-4"
         x="327.1395"
         y="141.78104">200</tspan></text>
    <text
       xml:space="preserve"
       style="font-size:8px;fill:none;stroke:#000000;stroke-width:0.646;stroke-dasharray:none"
       x="327.11606"
       y="104.74316"
       id="text6-7"><tspan
         id="tspan6-7"
         x="327.11606"
         y="104.74316">300</tspan></text>
    <text
       xml:space="preserve"
       style="font-size:8px;fill:none;stroke:#000000;stroke-width:0.646;stroke-dasharray:none"
       x="327.33481"
       y="67.705315"
       id="text7-5"><tspan
         id="tspan7-4"
         x="327.33481"
         y="67.705315">400</tspan></text>
    <text
       xml:space="preserve"
       style="font-size:8px;fill:none;stroke:#000000;stroke-width:0.646;stroke-dasharray:none"
       x="327.10825"
       y="30.667458"
       id="text8-8"><tspan
         id="tspan8-1"
         x="327.10825"
         y="30.667458">500</tspan></text>
    <text
       xml:space="preserve"
       style="font-size:8px;fill:none;stroke:#000000;stroke-width:0.646;stroke-dasharray:none"
       x="336.19006"
       y="17.30529"
       id="text9-2"><tspan
         id="tspan9-89"
         x="336.19006"
         y="17.30529">mL</tspan></text>
    <path
       style="fill:none;stroke:#000000;stroke-width:0.645996;stroke-dasharray:none"
       d="M 410.41083,195.04815 H 377.89404 V 15.43342 l -6.92082,-6.92081 h 39.0877 z"
       id="path1-4-4" />
    <path
       style="fill:none;stroke:#000000;stroke-width:0.646;stroke-dasharray:none"
       d="m 410.53802,191.41246 h -7.87588"
       id="path2-8-6" />
    <path
       style="fill:none;stroke:#000000;stroke-width:0.646;stroke-dasharray:none"
       d="m 410.53802,187.70313 h -7.87588"
       id="path2-2-71-2" />
    <path
       style="fill:none;stroke:#000000;stroke-width:0.646;stroke-dasharray:none"
       d="M 410.53802,176.57515 H 397.05075"
       id="path3-7-5" />
    <path
       style="fill:none;stroke:#000000;stroke-width:0.646;stroke-dasharray:none"
       d="M 410.53802,158.02851 H 400.05135"
       id="path4-2-8" />
    <path
       style="fill:none;stroke:#000000;stroke-width:0.646;stroke-dasharray:none"
       d="m 410.53802,183.9938 h -7.87588"
       id="path2-0-7-6" />
    <path
       style="fill:none;stroke:#000000;stroke-width:0.646;stroke-dasharray:none"
       d="m 410.53802,180.28448 h -7.87588"
       id="path2-6-2-2" />
    <path
       style="fill:none;stroke:#000000;stroke-width:0.646;stroke-dasharray:none"
       d="m 410.53802,172.86582 h -7.87588"
       id="path2-7-2-8" />
    <path
       style="fill:none;stroke:#000000;stroke-width:0.646;stroke-dasharray:none"
       d="m 410.53802,169.15649 h -7.87588"
       id="path2-2-9-61-4" />
    <path
       style="fill:none;stroke:#000000;stroke-width:0.646;stroke-dasharray:none"
       d="m 410.53802,165.44717 h -7.87588"
       id="path2-0-2-06-7" />
    <path
       style="fill:none;stroke:#000000;stroke-width:0.646;stroke-dasharray:none"
       d="m 410.53802,161.73784 h -7.87588"
       id="path2-6-0-1-2" />
    <path
       style="fill:none;stroke:#000000;stroke-width:0.646;stroke-dasharray:none"
       d="m 410.53802,154.31918 h -7.87588"
       id="path2-9-5-4" />
    <path
       style="fill:none;stroke:#000000;stroke-width:0.646;stroke-dasharray:none"
       d="m 410.53802,150.60986 h -7.87588"
       id="path2-2-2-9-0" />
    <path
       style="fill:none;stroke:#000000;stroke-width:0.646;stroke-dasharray:none"
       d="M 410.53802,139.48187 H 397.05075"
       id="path3-2-4-6" />
    <path
       style="fill:none;stroke:#000000;stroke-width:0.646;stroke-dasharray:none"
       d="M 410.53802,120.93524 H 400.05135"
       id="path4-8-9-2" />
    <path
       style="fill:none;stroke:#000000;stroke-width:0.646;stroke-dasharray:none"
       d="m 410.53802,146.90053 h -7.87588"
       id="path2-0-9-0-9" />
    <path
       style="fill:none;stroke:#000000;stroke-width:0.646;stroke-dasharray:none"
       d="m 410.53802,143.1912 h -7.87588"
       id="path2-6-7-9-9" />
    <path
       style="fill:none;stroke:#000000;stroke-width:0.646;stroke-dasharray:none"
       d="m 410.53802,135.77255 h -7.87588"
       id="path2-7-3-1-0" />
    <path
       style="fill:none;stroke:#000000;stroke-width:0.646;stroke-dasharray:none"
       d="m 410.53802,132.06322 h -7.87588"
       id="path2-2-9-6-7-8" />
    <path
       style="fill:none;stroke:#000000;stroke-width:0.646;stroke-dasharray:none"
       d="m 410.53802,128.35389 h -7.87588"
       id="path2-0-2-1-71-1" />
    <path
       style="fill:none;stroke:#000000;stroke-width:0.646;stroke-dasharray:none"
       d="m 410.53802,124.64456 h -7.87588"
       id="path2-6-0-2-1-3" />
    <path
       style="fill:none;stroke:#000000;stroke-width:0.646;stroke-dasharray:none"
       d="m 410.53802,117.22591 h -7.87588"
       id="path2-4-5-1" />
    <path
       style="fill:none;stroke:#000000;stroke-width:0.646;stroke-dasharray:none"
       d="m 410.53802,113.51658 h -7.87588"
       id="path2-2-7-9-1" />
    <path
       style="fill:none;stroke:#000000;stroke-width:0.646;stroke-dasharray:none"
       d="M 410.53802,102.3886 H 397.05075"
       id="path3-8-7-0" />
    <path
       style="fill:none;stroke:#000000;stroke-width:0.646;stroke-dasharray:none"
       d="M 410.53802,83.84196 H 400.05135"
       id="path4-4-7-3" />
    <path
       style="fill:none;stroke:#000000;stroke-width:0.646;stroke-dasharray:none"
       d="m 410.53802,109.80725 h -7.87588"
       id="path2-0-5-6-4" />
    <path
       style="fill:none;stroke:#000000;stroke-width:0.646;stroke-dasharray:none"
       d="m 410.53802,106.09793 h -7.87588"
       id="path2-6-03-7-0" />
    <path
       style="fill:none;stroke:#000000;stroke-width:0.646;stroke-dasharray:none"
       d="m 410.53802,98.67927 h -7.87588"
       id="path2-7-6-3-3" />
    <path
       style="fill:none;stroke:#000000;stroke-width:0.646;stroke-dasharray:none"
       d="m 410.53802,94.96994 h -7.87588"
       id="path2-2-9-1-6-9" />
    <path
       style="fill:none;stroke:#000000;stroke-width:0.646;stroke-dasharray:none"
       d="m 410.53802,91.26062 h -7.87588"
       id="path2-0-2-0-5-1" />
    <path
       style="fill:none;stroke:#000000;stroke-width:0.646;stroke-dasharray:none"
       d="m 410.53802,87.55129 h -7.87588"
       id="path2-6-0-6-6-9" />
    <path
       style="fill:none;stroke:#000000;stroke-width:0.646;stroke-dasharray:none"
       d="m 410.53802,80.13263 h -7.87588"
       id="path2-9-3-3-6" />
    <path
       style="fill:none;stroke:#000000;stroke-width:0.646;stroke-dasharray:none"
       d="m 410.53802,76.42331 h -7.87588"
       id="path2-2-2-2-9-9" />
    <path
       style="fill:none;stroke:#000000;stroke-width:0.646;stroke-dasharray:none"
       d="M 410.53802,65.29532 H 397.05075"
       id="path3-2-0-4-3" />
    <path
       style="fill:none;stroke:#000000;stroke-width:0.646;stroke-dasharray:none"
       d="M 410.53802,46.74869 H 400.05135"
       id="path4-8-6-8-3" />
    <path
       style="fill:none;stroke:#000000;stroke-width:0.646;stroke-dasharray:none"
       d="m 410.53802,72.71398 h -7.87588"
       id="path2-0-9-1-1-8" />
    <path
       style="fill:none;stroke:#000000;stroke-width:0.646;stroke-dasharray:none"
       d="m 410.53802,69.00465 h -7.87588"
       id="path2-6-7-5-2-0" />
    <path
       style="fill:none;stroke:#000000;stroke-width:0.646;stroke-dasharray:none"
       d="m 410.53802,43.03936 h -7.87588"
       id="path2-9-3-7-9-5" />
    <path
       style="fill:none;stroke:#000000;stroke-width:0.646;stroke-dasharray:none"
       d="m 410.53802,39.33003 h -7.87588"
       id="path2-2-2-2-4-3-6" />
    <path
       style="fill:none;stroke:#000000;stroke-width:0.646;stroke-dasharray:none"
       d="M 410.53802,28.20205 H 397.05075"
       id="path3-2-0-5-9-6" />
    <path
       style="fill:none;stroke:#000000;stroke-width:0.646;stroke-dasharray:none"
       d="m 410.53802,35.6207 h -7.87588"
       id="path2-0-9-1-2-0-4" />
    <path
       style="fill:none;stroke:#000000;stroke-width:0.646;stroke-dasharray:none"
       d="m 410.53802,31.91138 h -7.87588"
       id="path2-6-7-5-5-8-0" />
    <path
       style="fill:none;stroke:#000000;stroke-width:0.646;stroke-dasharray:none"
       d="m 410.53802,61.586 h -7.87588"
       id="path2-7-3-5-8-0" />
    <path
       style="fill:none;stroke:#000000;stroke-width:0.646;stroke-dasharray:none"
       d="m 410.53802,57.87667 h -7.87588"
       id="path2-2-9-6-4-5-4" />
    <path
       style="fill:none;stroke:#000000;stroke-width:0.646;stroke-dasharray:none"
       d="m 410.53802,54.16734 h -7.87588"
       id="path2-0-2-1-7-0-6" />
    <path
       style="fill:none;stroke:#000000;stroke-width:0.646;stroke-dasharray:none"
       d="m 410.53802,50.45801 h -7.87588"
       id="path2-6-0-2-6-9-2" />
    <text
       xml:space="preserve"
       style="font-size:8px;fill:none;stroke:#000000;stroke-width:0.646;stroke-dasharray:none"
       x="379.04016"
       y="179.00844"
       id="text4-6-6"><tspan
         id="tspan4-3-7"
         x="379.04016"
         y="179.00844"
         style="font-size:8px;stroke-width:0.646;stroke-dasharray:none">100</tspan></text>
    <text
       xml:space="preserve"
       style="font-size:8px;fill:none;stroke:#000000;stroke-width:0.646;stroke-dasharray:none"
       x="379.33313"
       y="141.9706"
       id="text5-8-5"><tspan
         id="tspan5-5-6"
         x="379.33313"
         y="141.9706">200</tspan></text>
    <text
       xml:space="preserve"
       style="font-size:8px;fill:none;stroke:#000000;stroke-width:0.646;stroke-dasharray:none"
       x="379.30969"
       y="104.93273"
       id="text6-6-9"><tspan
         id="tspan6-1-8"
         x="379.30969"
         y="104.93273">300</tspan></text>
    <text
       xml:space="preserve"
       style="font-size:8px;fill:none;stroke:#000000;stroke-width:0.646;stroke-dasharray:none"
       x="379.52844"
       y="67.89489"
       id="text7-1-7"><tspan
         id="tspan7-5-2"
         x="379.52844"
         y="67.89489">400</tspan></text>
    <text
       xml:space="preserve"
       style="font-size:8px;fill:none;stroke:#000000;stroke-width:0.646;stroke-dasharray:none"
       x="379.30188"
       y="30.856987"
       id="text8-9-8"><tspan
         id="tspan8-8-2"
         x="379.30188"
         y="30.856987">500</tspan></text>
    <text
       xml:space="preserve"
       style="font-size:8px;fill:none;stroke:#000000;stroke-width:0.646;stroke-dasharray:none"
       x="388.3837"
       y="17.49482"
       id="text9-4-9"><tspan
         id="tspan9-8-9"
         x="388.3837"
         y="17.49482">mL</tspan></text>
  </g>
</svg>
