<?xml version="1.0" encoding="UTF-8" standalone="no"?>
<!-- Created with Inkscape (http://www.inkscape.org/) -->

<svg
   version="1.1"
   id="svg1"
   width="116.81442"
   height="95.872093"
   viewBox="0 0 116.81442 95.872093"
   xmlns:xlink="http://www.w3.org/1999/xlink"
   xmlns="http://www.w3.org/2000/svg"
   xmlns:svg="http://www.w3.org/2000/svg">
  <defs
     id="defs1" />
  <g
     id="layer1"
     transform="translate(-75.428116,-49.602955)">
    <path
       style="display:inline;fill:none;stroke:#000000;stroke-width:1.37953"
       d="M 76.117883,144.71748 V 50.292719 H 191.55278 v 94.492161 z"
       id="path1" />
    <g
       id="g8"
       transform="translate(-10.565142,-29.641721)">
      <path
         style="fill:none;stroke:#000000;stroke-width:1.37953"
         d="m 134.71372,117.04078 c 0.18511,-1.60501 3.84892,-5.56212 6.78317,-4.9445 0,-3.00296 3.55274,-3.80857 6.09948,-3.47915 -0.50722,-1.70166 2.11844,-3.48535 3.84804,-2.2816 2.55427,-5.07618 4.8208,-4.99726 8.417,-2.39598 4.8239,-8.035701 14.01059,-4.178354 14.43756,1.12483 3.496,-2.24746 8.43429,2.18362 8.19797,5.68272 2.41771,-0.26824 6.65031,2.88139 6.50828,5.49694 -0.14203,2.61555 -4.42131,4.89529 -5.96913,4.0214 -1.56688,3.39934 -12.0602,2.32549 -12.97754,0.10552 -5.41181,3.36432 -12.67073,2.00139 -14.50585,-0.48505 -1.83202,2.56048 -9.6642,2.83138 -11.22532,0.3312 -2.80433,2.39776 -9.79877,-1.57132 -9.61366,-3.17633 z"
         id="path2-3" />
      <path
         style="fill:#cccccc;stroke:#000000;stroke-width:0.156581"
         d="m 175.34557,121.60988 c -1.26899,-0.12965 -3.01808,-0.56192 -3.75161,-0.92718 -0.48625,-0.24212 -0.70554,-0.47171 -1.12138,-1.17402 -0.11503,-0.19427 -0.1758,-0.17658 -0.90803,0.26439 -3.15612,1.90071 -7.36002,2.37727 -10.81646,1.22618 -1.20668,-0.40186 -2.00602,-0.9073 -2.60989,-1.65025 -0.27907,-0.34335 -0.54315,-0.62427 -0.58686,-0.62427 -0.0437,0 -0.2853,0.2604 -0.53689,0.57868 -0.97499,1.23345 -2.8812,1.86128 -5.64376,1.85881 -1.40013,-0.001 -2.51299,-0.19841 -3.39245,-0.60104 -0.5444,-0.24924 -0.70269,-0.39525 -1.3091,-1.20762 l -0.20841,-0.27919 -0.43111,0.37852 c -1.02906,0.90353 -2.27643,0.998 -4.36349,0.33046 -1.57962,-0.50524 -3.80955,-1.88182 -4.10744,-2.53562 -0.10658,-0.23392 -0.0684,-0.3693 0.26035,-0.92387 0.51089,-0.86174 1.93112,-2.26172 2.83586,-2.79542 1.24909,-0.73683 1.91513,-0.85614 3.25293,-0.58267 l 0.36888,0.0754 v -0.76318 c 0,-0.92472 0.20368,-1.40045 0.82861,-1.93537 0.93266,-0.79832 2.55017,-1.14934 4.37559,-0.94957 0.58373,0.0639 1.07824,0.0992 1.09891,0.0786 0.0207,-0.0207 -0.0443,-0.33191 -0.14446,-0.69163 -0.16743,-0.60157 -0.16727,-0.68502 0.002,-1.04007 0.23118,-0.48478 1.04116,-0.97482 1.65151,-0.99916 0.33337,-0.0133 0.60748,0.0787 1.04483,0.35053 0.32608,0.20271 0.60398,0.35383 0.61755,0.33583 0.0136,-0.018 0.26723,-0.49722 0.56372,-1.06491 1.33302,-2.55242 2.6717,-3.65621 4.05759,-3.34563 0.79231,0.17756 1.3295,0.43817 2.49478,1.2103 0.60359,0.39995 1.13989,0.72632 1.19179,0.72527 0.0519,-0.001 0.37528,-0.44148 0.71863,-0.97876 0.77154,-1.20731 2.07617,-2.46233 3.1372,-3.01789 1.19459,-0.6255 1.96649,-0.81565 3.27575,-0.80694 1.46439,0.01 2.63872,0.3717 3.86326,1.19072 1.49268,0.99837 2.2737,2.24471 2.47541,3.95027 0.0631,0.53339 0.12948,0.98942 0.14756,1.01341 0.0181,0.024 0.37929,-0.165 0.8027,-0.41998 0.97457,-0.5869 1.65876,-0.74797 2.51364,-0.59176 1.05468,0.19272 2.00381,0.73544 2.96481,1.69531 1.30868,1.30715 1.93113,2.72066 1.76866,4.0164 l -0.0741,0.59108 0.83554,-0.0366 c 1.45734,-0.0639 2.80754,0.57335 4.30064,2.02967 0.96172,0.93805 1.4538,1.79074 1.45569,2.52249 0.003,1.02585 -1.19144,2.40534 -2.70532,3.12536 -1.07047,0.50914 -1.79062,0.58943 -2.34626,0.26159 -0.22465,-0.13255 -0.43022,-0.241 -0.45681,-0.241 -0.0266,0 -0.17549,0.2509 -0.33089,0.55756 -0.30245,0.59687 -0.66343,0.90873 -1.45943,1.26083 -1.16214,0.51407 -3.62111,0.7582 -5.60027,0.556 z"
         id="path8" />
    </g>
    <g
       id="g9">
      <path
         style="fill:none;stroke:#000000;stroke-width:1.37953"
         d="m 89.861568,81.413533 c 0.185108,-1.605011 3.848924,-5.562118 6.783168,-4.944499 0,-3.002967 3.552744,-3.808576 6.099484,-3.47915 -0.50722,-1.701667 2.11844,-3.485357 3.84804,-2.281599 2.55427,-5.076181 4.8208,-4.99726 8.417,-2.395989 4.8239,-8.035697 14.01059,-4.17835 14.43756,1.124838 3.496,-2.247459 8.43429,2.183614 8.19797,5.682716 2.41771,-0.268241 6.65031,2.881394 6.50828,5.496942 -0.14203,2.615548 -4.42131,4.895284 -5.96913,4.021395 -1.56688,3.399343 -12.0602,2.325493 -12.97754,0.105523 -5.41181,3.364317 -12.67073,2.001387 -14.50585,-0.48505 -1.83202,2.56048 -9.6642,2.831382 -11.225319,0.3312 -2.804336,2.397763 -9.798771,-1.571316 -9.613663,-3.176327 z"
         id="path2" />
      <path
         style="fill:#cccccc;stroke:#000000;stroke-width:0.156581"
         d="m 130.36052,85.961783 c -1.33889,-0.139722 -2.73725,-0.490066 -3.60054,-0.90208 -0.63338,-0.302284 -0.75926,-0.415425 -0.94544,-0.849769 -0.11813,-0.275581 -0.25767,-0.501057 -0.3101,-0.501057 -0.0524,0 -0.34793,0.161409 -0.65668,0.358687 -2.10742,1.346552 -4.78223,2.005784 -7.62803,1.88 -3.0388,-0.134313 -5.10125,-1.014358 -6.31055,-2.692701 l -0.20446,-0.283759 -0.24638,0.34051 c -1.18658,1.639919 -3.07268,2.291866 -6.31882,2.184153 -2.40457,-0.07979 -3.47249,-0.472757 -4.13634,-1.522075 -0.171128,-0.270502 -0.336644,-0.491822 -0.367808,-0.491822 -0.03116,0 -0.266857,0.179919 -0.523762,0.399819 -0.491693,0.420872 -1.337374,0.735216 -1.977947,0.735216 -1.13827,0 -3.160566,-0.651511 -4.560932,-1.469369 -0.88109,-0.514584 -1.940137,-1.425155 -1.940137,-1.668134 0,-0.505751 1.110011,-1.969102 2.156568,-2.843051 1.437765,-1.200637 2.687358,-1.612166 4.114504,-1.355037 l 0.539142,0.09714 v -0.754306 c 0,-0.414869 0.06997,-0.921766 0.155486,-1.126437 0.209654,-0.501774 0.993432,-1.151847 1.765068,-1.463967 0.568812,-0.230078 0.824828,-0.256167 2.514978,-0.256282 l 1.8817,-1.29e-4 -0.17081,-0.637515 c -0.22393,-0.835746 -0.0657,-1.251089 0.64934,-1.704559 0.71335,-0.452393 1.34285,-0.443364 2.08027,0.02984 0.30437,0.195312 0.56983,0.335772 0.58992,0.312135 0.0201,-0.02364 0.27363,-0.502667 0.56343,-1.06451 0.69886,-1.354899 1.51867,-2.443892 2.19136,-2.91089 0.50325,-0.34936 0.61851,-0.380713 1.39969,-0.380713 1.00612,0 1.74789,0.305301 3.24888,1.337199 l 0.92206,0.633897 0.66699,-1.028511 c 1.38009,-2.12813 3.23199,-3.442549 5.35447,-3.800427 0.94437,-0.159233 1.14482,-0.159184 2.09196,5.17e-4 1.53706,0.259167 2.87857,0.950698 3.85762,1.988538 0.95511,1.012472 1.30532,1.733265 1.47244,3.030543 0.072,0.558989 0.14608,1.035972 0.16461,1.059962 0.0185,0.02399 0.38252,-0.167157 0.80889,-0.424772 0.42637,-0.257615 1.02817,-0.515706 1.33734,-0.573535 1.53112,-0.28639 3.56055,0.751728 4.82081,2.465994 0.78392,1.066331 1.08113,1.902917 1.05588,2.972085 l -0.0201,0.851277 h 0.98488 c 0.9248,0 1.04375,0.02878 1.94967,0.471771 1.96485,0.960798 3.4179,2.532202 3.60053,3.893805 0.13859,1.033293 -1.06844,2.511291 -2.67485,3.275325 -1.06911,0.508488 -1.74546,0.582145 -2.37877,0.259057 l -0.47158,-0.240583 -0.29089,0.574046 c -0.75019,1.480428 -3.54395,2.176381 -7.20356,1.794479 z"
         id="path7" />
    </g>
    <path
       style="display:inline;fill:#cccccc;stroke:#000000;stroke-width:1.37953"
       d="m 108.93106,101.83708 c -0.31165,0.30092 -0.56834,1.38095 -0.73512,1.4955"
       id="path64" />
    <use
       id="use64"
       xlink:href="#path64"
       transform="matrix(1.0006152,0.02941642,-0.02941642,1.0006152,5.4500828,-0.59129591)"
       style="display:inline" />
    <use
       id="use65"
       xlink:href="#path64"
       transform="matrix(0.99405171,-0.02111348,0.02111348,0.99405171,-3.5709509,4.9475987)" />
    <path
       style="display:inline;fill:#cccccc;stroke:#000000;stroke-width:1.37953"
       d="m 108.14051,96.564945 c -0.31165,0.30092 -0.56834,1.38095 -0.73512,1.4955"
       id="path64-1" />
    <use
       id="use64-2"
       xlink:href="#path64-1"
       transform="matrix(1.0006152,0.02941642,-0.02941642,1.0006152,5.2954818,-0.56479742)"
       style="display:inline"
       x="0"
       y="0" />
    <use
       id="use65-7"
       xlink:href="#path64-1"
       transform="matrix(0.99405171,-0.02111348,0.02111348,0.99405171,-3.4643402,4.8995473)"
       x="0"
       y="0" />
    <path
       style="display:inline;fill:#cccccc;stroke:#000000;stroke-width:1.37953"
       d="m 107.71892,91.723343 c -0.31165,0.30092 -0.56834,1.38095 -0.73512,1.4955"
       id="path64-0" />
    <use
       id="use64-6"
       xlink:href="#path64-0"
       transform="matrix(1.0006152,0.02941642,-0.02941642,1.0006152,5.1533187,-0.54941718)"
       style="display:inline"
       x="0"
       y="0" />
    <use
       id="use65-2"
       xlink:href="#path64-0"
       transform="matrix(0.99405171,-0.02111348,0.02111348,0.99405171,-3.3646248,4.8618471)"
       x="0"
       y="0" />
    <path
       style="display:inline;fill:#cccccc;stroke:#000000;stroke-width:1.37953"
       d="m 108.30595,106.4962 c -0.31165,0.30092 -0.56834,1.38095 -0.73512,1.4955"
       id="path64-9" />
    <use
       id="use64-20"
       xlink:href="#path64-9"
       transform="matrix(1.0006152,0.02941642,-0.02941642,1.0006152,5.587522,-0.5757737)"
       style="display:inline"
       x="0"
       y="0" />
    <use
       id="use65-23"
       xlink:href="#path64-9"
       transform="matrix(0.99405171,-0.02111348,0.02111348,0.99405171,-3.6730395,4.9621142)"
       x="0"
       y="0" />
    <path
       style="display:inline;fill:#cccccc;stroke:#000000;stroke-width:1.37953"
       d="m 107.30595,112.4962 c -0.31165,0.30092 -0.56834,1.38095 -0.73512,1.4955"
       id="path64-2" />
    <use
       id="use64-8"
       xlink:href="#path64-2"
       transform="matrix(1.0006152,0.02941642,-0.02941642,1.0006152,5.7646357,-0.550048)"
       style="display:inline"
       x="0"
       y="0" />
    <use
       id="use65-9"
       xlink:href="#path64-2"
       transform="matrix(0.99405171,-0.02111348,0.02111348,0.99405171,-3.8056686,4.9766905)"
       x="0"
       y="0" />
    <path
       style="display:inline;fill:#cccccc;stroke:#000000;stroke-width:1.37953"
       d="m 101.93106,101.60994 c -0.31165,0.30092 -0.56834,1.38095 -0.73512,1.4955"
       id="path64-29" />
    <use
       id="use64-3"
       xlink:href="#path64-29"
       transform="matrix(1.0006152,0.02941642,-0.02941642,1.0006152,5.4477073,-0.38524118)"
       style="display:inline"
       x="0"
       y="0" />
    <use
       id="use65-1"
       xlink:href="#path64-29"
       transform="matrix(0.99405171,-0.02111348,0.02111348,0.99405171,-3.6077937,4.7984528)"
       x="0"
       y="0" />
    <path
       style="display:inline;fill:#cccccc;stroke:#000000;stroke-width:1.37953"
       d="m 101.14051,96.337807 c -0.31165,0.30092 -0.56834,1.38095 -0.73512,1.4955"
       id="path64-1-9" />
    <use
       id="use64-2-4"
       xlink:href="#path64-1-9"
       transform="matrix(1.0006152,0.02941642,-0.02941642,1.0006152,5.2931063,-0.35874318)"
       style="display:inline"
       x="0"
       y="0" />
    <use
       id="use65-7-7"
       xlink:href="#path64-1-9"
       transform="matrix(0.99405171,-0.02111348,0.02111348,0.99405171,-3.501183,4.7504018)"
       x="0"
       y="0" />
    <path
       style="display:inline;fill:#cccccc;stroke:#000000;stroke-width:1.37953"
       d="m 100.71892,91.496205 c -0.31165,0.30092 -0.56834,1.38095 -0.73512,1.4955"
       id="path64-0-8" />
    <use
       id="use64-6-4"
       xlink:href="#path64-0-8"
       transform="matrix(1.0006152,0.02941642,-0.02941642,1.0006152,5.1509432,-0.34336218)"
       style="display:inline"
       x="0"
       y="0" />
    <use
       id="use65-2-5"
       xlink:href="#path64-0-8"
       transform="matrix(0.99405171,-0.02111348,0.02111348,0.99405171,-3.4014676,4.7127018)"
       x="0"
       y="0" />
    <path
       style="display:inline;fill:#cccccc;stroke:#000000;stroke-width:1.37953"
       d="m 101.30595,106.26906 c -0.31165,0.30092 -0.56834,1.38095 -0.73512,1.4955"
       id="path64-9-0" />
    <use
       id="use64-20-3"
       xlink:href="#path64-9-0"
       transform="matrix(1.0006152,0.02941642,-0.02941642,1.0006152,5.5851465,-0.36971918)"
       style="display:inline"
       x="0"
       y="0" />
    <use
       id="use65-23-6"
       xlink:href="#path64-9-0"
       transform="matrix(0.99405171,-0.02111348,0.02111348,0.99405171,-3.7098823,4.8129688)"
       x="0"
       y="0" />
    <path
       style="display:inline;fill:#cccccc;stroke:#000000;stroke-width:1.37953"
       d="m 100.30595,112.26906 c -0.31165,0.30092 -0.56834,1.38095 -0.73512,1.4955"
       id="path64-2-1" />
    <use
       id="use64-8-0"
       xlink:href="#path64-2-1"
       transform="matrix(1.0006152,0.02941642,-0.02941642,1.0006152,5.7622602,-0.34399318)"
       style="display:inline"
       x="0"
       y="0" />
    <use
       id="use65-9-6"
       xlink:href="#path64-2-1"
       transform="matrix(0.99405171,-0.02111348,0.02111348,0.99405171,-3.8425114,4.8275448)"
       x="0"
       y="0" />
    <use
       id="use65-1-6"
       xlink:href="#path64-29"
       transform="matrix(0.99405171,-0.02111348,0.02111348,0.99405171,-7.6077887,2.025593)"
       x="0"
       y="0" />
    <use
       id="use65-7-7-2"
       xlink:href="#path64-1-9"
       transform="matrix(0.99405171,-0.02111348,0.02111348,0.99405171,-7.501178,1.977542)"
       x="0"
       y="0" />
    <use
       id="use65-2-5-9"
       xlink:href="#path64-0-8"
       transform="matrix(0.99405171,-0.02111348,0.02111348,0.99405171,-7.4014626,1.939842)"
       x="0"
       y="0" />
    <use
       id="use65-23-6-9"
       xlink:href="#path64-9-0"
       transform="matrix(0.99405171,-0.02111348,0.02111348,0.99405171,-7.7098773,2.040109)"
       x="0"
       y="0" />
    <path
       style="display:inline;fill:#cccccc;stroke:#000000;stroke-width:1.37953"
       d="m 96.30595,109.4962 c -0.31165,0.30092 -0.56834,1.38095 -0.73511,1.4955"
       id="path64-2-1-0" />
    <use
       id="use65-9-6-8"
       xlink:href="#path64-2-1-0"
       transform="matrix(0.99405171,-0.02111348,0.02111348,0.99405171,-3.8077595,4.7265969)"
       x="0"
       y="0" />
    <path
       style="display:inline;fill:#cccccc;stroke:#000000;stroke-width:1.37953"
       d="m 116.89833,102.66332 c -0.31165,0.30092 -0.56834,1.38095 -0.73512,1.4955"
       id="path64-15" />
    <use
       id="use64-5"
       xlink:href="#path64-15"
       transform="matrix(1.0006152,0.02941642,-0.02941642,1.0006152,5.4694863,-0.82617274)"
       style="display:inline"
       x="0"
       y="0" />
    <use
       id="use65-4"
       xlink:href="#path64-15"
       transform="matrix(0.99405171,-0.02111348,0.02111348,0.99405171,-3.541004,5.1207303)"
       x="0"
       y="0" />
    <path
       style="display:inline;fill:#cccccc;stroke:#000000;stroke-width:1.37953"
       d="m 116.10778,97.391183 c -0.31165,0.30092 -0.56834,1.38095 -0.73512,1.4955"
       id="path64-1-7" />
    <use
       id="use64-2-6"
       xlink:href="#path64-1-7"
       transform="matrix(1.0006152,0.02941642,-0.02941642,1.0006152,5.3148853,-0.79967424)"
       style="display:inline"
       x="0"
       y="0" />
    <use
       id="use65-7-5"
       xlink:href="#path64-1-7"
       transform="matrix(0.99405171,-0.02111348,0.02111348,0.99405171,-3.434393,5.0726793)"
       x="0"
       y="0" />
    <path
       style="display:inline;fill:#cccccc;stroke:#000000;stroke-width:1.37953"
       d="m 115.68619,92.549581 c -0.31165,0.30092 -0.56834,1.38095 -0.73512,1.4955"
       id="path64-0-6" />
    <use
       id="use64-6-9"
       xlink:href="#path64-0-6"
       transform="matrix(1.0006152,0.02941642,-0.02941642,1.0006152,5.1727222,-0.78429404)"
       style="display:inline"
       x="0"
       y="0" />
    <use
       id="use65-2-3"
       xlink:href="#path64-0-6"
       transform="matrix(0.99405171,-0.02111348,0.02111348,0.99405171,-3.334678,5.0349793)"
       x="0"
       y="0" />
    <path
       style="display:inline;fill:#cccccc;stroke:#000000;stroke-width:1.37953"
       d="m 116.27322,107.32244 c -0.31165,0.30092 -0.56834,1.38095 -0.73512,1.4955"
       id="path64-9-7" />
    <use
       id="use64-20-4"
       xlink:href="#path64-9-7"
       transform="matrix(1.0006152,0.02941642,-0.02941642,1.0006152,5.6069255,-0.81065054)"
       style="display:inline"
       x="0"
       y="0" />
    <use
       id="use65-23-5"
       xlink:href="#path64-9-7"
       transform="matrix(0.99405171,-0.02111348,0.02111348,0.99405171,-3.643093,5.1352463)"
       x="0"
       y="0" />
    <path
       style="display:inline;fill:#cccccc;stroke:#000000;stroke-width:1.37953"
       d="m 115.27322,113.32244 c -0.31165,0.30092 -0.56834,1.38095 -0.73512,1.4955"
       id="path64-2-2" />
    <use
       id="use64-8-5"
       xlink:href="#path64-2-2"
       transform="matrix(1.0006152,0.02941642,-0.02941642,1.0006152,5.7840392,-0.78492484)"
       style="display:inline"
       x="0"
       y="0" />
    <use
       id="use65-9-4"
       xlink:href="#path64-2-2"
       transform="matrix(0.99405171,-0.02111348,0.02111348,0.99405171,-3.775722,5.1498223)"
       x="0"
       y="0" />
    <path
       style="display:inline;fill:#cccccc;stroke:#000000;stroke-width:1.37953"
       d="m 131.3962,103.7265 c -0.31165,0.30092 -0.56835,1.38095 -0.73512,1.4955"
       id="path64-07" />
    <use
       id="use64-86"
       xlink:href="#path64-07"
       transform="matrix(1.0006152,0.02941642,-0.02941642,1.0006152,5.4918423,-1.2533024)"
       style="display:inline"
       x="0"
       y="0" />
    <use
       id="use65-8"
       xlink:href="#path64-07"
       transform="matrix(0.99405171,-0.02111348,0.02111348,0.99405171,-3.477214,5.4331554)"
       x="0"
       y="0" />
    <path
       style="display:inline;fill:#cccccc;stroke:#000000;stroke-width:1.37953"
       d="m 130.60565,98.454364 c -0.31165,0.30092 -0.56834,1.38095 -0.73512,1.4955"
       id="path64-1-8" />
    <use
       id="use64-2-43"
       xlink:href="#path64-1-8"
       transform="matrix(1.0006152,0.02941642,-0.02941642,1.0006152,5.3372413,-1.2268034)"
       style="display:inline"
       x="0"
       y="0" />
    <use
       id="use65-7-1"
       xlink:href="#path64-1-8"
       transform="matrix(0.99405171,-0.02111348,0.02111348,0.99405171,-3.370603,5.3851034)"
       x="0"
       y="0" />
    <path
       style="display:inline;fill:#cccccc;stroke:#000000;stroke-width:1.37953"
       d="m 130.18406,93.612762 c -0.31165,0.30092 -0.56835,1.38095 -0.73512,1.4955"
       id="path64-0-4" />
    <use
       id="use64-6-92"
       xlink:href="#path64-0-4"
       transform="matrix(1.0006152,0.02941642,-0.02941642,1.0006152,5.1950783,-1.2114234)"
       style="display:inline"
       x="0"
       y="0" />
    <use
       id="use65-2-0"
       xlink:href="#path64-0-4"
       transform="matrix(0.99405171,-0.02111348,0.02111348,0.99405171,-3.270888,5.3474034)"
       x="0"
       y="0" />
    <path
       style="display:inline;fill:#cccccc;stroke:#000000;stroke-width:1.37953"
       d="m 130.77108,108.38562 c -0.31165,0.30092 -0.56834,1.38095 -0.73511,1.4955"
       id="path64-9-6" />
    <use
       id="use64-20-8"
       xlink:href="#path64-9-6"
       transform="matrix(1.0006152,0.02941642,-0.02941642,1.0006152,5.6292813,-1.2377794)"
       style="display:inline"
       x="0"
       y="0" />
    <use
       id="use65-23-9"
       xlink:href="#path64-9-6"
       transform="matrix(0.99405171,-0.02111348,0.02111348,0.99405171,-3.579303,5.4476704)"
       x="0"
       y="0" />
    <path
       style="display:inline;fill:#cccccc;stroke:#000000;stroke-width:1.37953"
       d="m 129.77108,114.38562 c -0.31165,0.30092 -0.56834,1.38095 -0.73511,1.4955"
       id="path64-2-26" />
    <use
       id="use64-8-6"
       xlink:href="#path64-2-26"
       transform="matrix(1.0006152,0.02941642,-0.02941642,1.0006152,5.8063953,-1.2120544)"
       style="display:inline"
       x="0"
       y="0" />
    <use
       id="use65-9-49"
       xlink:href="#path64-2-26"
       transform="matrix(0.99405171,-0.02111348,0.02111348,0.99405171,-3.711932,5.4622464)"
       x="0"
       y="0" />
    <path
       style="display:inline;fill:#cccccc;stroke:#000000;stroke-width:1.37953"
       d="m 124.3962,103.49936 c -0.31165,0.30092 -0.56835,1.38095 -0.73512,1.4955"
       id="path64-29-5" />
    <use
       id="use64-3-0"
       xlink:href="#path64-29-5"
       transform="matrix(1.0006152,0.02941642,-0.02941642,1.0006152,5.4894663,-1.0472474)"
       style="display:inline"
       x="0"
       y="0" />
    <use
       id="use65-1-4"
       xlink:href="#path64-29-5"
       transform="matrix(0.99405171,-0.02111348,0.02111348,0.99405171,-3.514057,5.2840094)"
       x="0"
       y="0" />
    <path
       style="display:inline;fill:#cccccc;stroke:#000000;stroke-width:1.37953"
       d="m 123.60565,98.227226 c -0.31165,0.30092 -0.56834,1.38095 -0.73512,1.4955"
       id="path64-1-9-8" />
    <use
       id="use64-2-4-7"
       xlink:href="#path64-1-9-8"
       transform="matrix(1.0006152,0.02941642,-0.02941642,1.0006152,5.3348653,-1.0207494)"
       style="display:inline"
       x="0"
       y="0" />
    <use
       id="use65-7-7-1"
       xlink:href="#path64-1-9-8"
       transform="matrix(0.99405171,-0.02111348,0.02111348,0.99405171,-3.407446,5.2359584)"
       x="0"
       y="0" />
    <path
       style="display:inline;fill:#cccccc;stroke:#000000;stroke-width:1.37953"
       d="m 123.18406,93.385624 c -0.31165,0.30092 -0.56835,1.38095 -0.73512,1.4955"
       id="path64-0-8-7" />
    <use
       id="use64-6-4-2"
       xlink:href="#path64-0-8-7"
       transform="matrix(1.0006152,0.02941642,-0.02941642,1.0006152,5.1927023,-1.0053684)"
       style="display:inline"
       x="0"
       y="0" />
    <use
       id="use65-2-5-7"
       xlink:href="#path64-0-8-7"
       transform="matrix(0.99405171,-0.02111348,0.02111348,0.99405171,-3.307731,5.1982584)"
       x="0"
       y="0" />
    <path
       style="display:inline;fill:#cccccc;stroke:#000000;stroke-width:1.37953"
       d="m 123.77108,108.15848 c -0.31165,0.30092 -0.56834,1.38095 -0.73511,1.4955"
       id="path64-9-0-2" />
    <use
       id="use64-20-3-2"
       xlink:href="#path64-9-0-2"
       transform="matrix(1.0006152,0.02941642,-0.02941642,1.0006152,5.6269063,-1.0317254)"
       style="display:inline"
       x="0"
       y="0" />
    <use
       id="use65-23-6-6"
       xlink:href="#path64-9-0-2"
       transform="matrix(0.99405171,-0.02111348,0.02111348,0.99405171,-3.616145,5.2985254)"
       x="0"
       y="0" />
    <path
       style="display:inline;fill:#cccccc;stroke:#000000;stroke-width:1.37953"
       d="m 122.77108,114.15848 c -0.31165,0.30092 -0.56834,1.38095 -0.73511,1.4955"
       id="path64-2-1-1" />
    <use
       id="use64-8-0-0"
       xlink:href="#path64-2-1-1"
       transform="matrix(1.0006152,0.02941642,-0.02941642,1.0006152,5.8040193,-1.0059994)"
       style="display:inline"
       x="0"
       y="0" />
    <use
       id="use65-9-6-6"
       xlink:href="#path64-2-1-1"
       transform="matrix(0.99405171,-0.02111348,0.02111348,0.99405171,-3.748774,5.3131014)"
       x="0"
       y="0" />
    <path
       style="display:inline;fill:#cccccc;stroke:#000000;stroke-width:1.37953"
       d="m 139.36346,104.55274 c -0.31165,0.30092 -0.56834,1.38095 -0.73512,1.4955"
       id="path64-15-1" />
    <use
       id="use64-5-5"
       xlink:href="#path64-15-1"
       transform="matrix(1.0006152,0.02941642,-0.02941642,1.0006152,5.5112453,-1.4881784)"
       style="display:inline"
       x="0"
       y="0" />
    <use
       id="use65-4-9"
       xlink:href="#path64-15-1"
       transform="matrix(0.99405171,-0.02111348,0.02111348,0.99405171,-3.447267,5.6062864)"
       x="0"
       y="0" />
    <path
       style="display:inline;fill:#cccccc;stroke:#000000;stroke-width:1.37953"
       d="m 138.57291,99.280602 c -0.31165,0.30092 -0.56834,1.380948 -0.73512,1.495498"
       id="path64-1-7-4" />
    <use
       id="use64-2-6-9"
       xlink:href="#path64-1-7-4"
       transform="matrix(1.0006152,0.02941642,-0.02941642,1.0006152,5.3566443,-1.4616804)"
       style="display:inline"
       x="0"
       y="0" />
    <use
       id="use65-7-5-0"
       xlink:href="#path64-1-7-4"
       transform="matrix(0.99405171,-0.02111348,0.02111348,0.99405171,-3.340656,5.5582354)"
       x="0"
       y="0" />
    <path
       style="display:inline;fill:#cccccc;stroke:#000000;stroke-width:1.37953"
       d="m 138.15132,94.439 c -0.31165,0.30092 -0.56834,1.38095 -0.73511,1.4955"
       id="path64-0-6-9" />
    <use
       id="use64-6-9-1"
       xlink:href="#path64-0-6-9"
       transform="matrix(1.0006152,0.02941642,-0.02941642,1.0006152,5.2144813,-1.4463004)"
       style="display:inline"
       x="0"
       y="0" />
    <use
       id="use65-2-3-7"
       xlink:href="#path64-0-6-9"
       transform="matrix(0.99405171,-0.02111348,0.02111348,0.99405171,-3.240941,5.5205354)"
       x="0"
       y="0" />
    <path
       style="display:inline;fill:#cccccc;stroke:#000000;stroke-width:1.37953"
       d="m 138.73835,109.21186 c -0.31165,0.30092 -0.56834,1.38095 -0.73512,1.4955"
       id="path64-9-7-7" />
    <use
       id="use64-20-4-1"
       xlink:href="#path64-9-7-7"
       transform="matrix(1.0006152,0.02941642,-0.02941642,1.0006152,5.6486853,-1.4726564)"
       style="display:inline"
       x="0"
       y="0" />
    <use
       id="use65-23-5-1"
       xlink:href="#path64-9-7-7"
       transform="matrix(0.99405171,-0.02111348,0.02111348,0.99405171,-3.549356,5.6208024)"
       x="0"
       y="0" />
    <path
       style="display:inline;fill:#cccccc;stroke:#000000;stroke-width:1.37953"
       d="m 137.73835,115.21186 c -0.31165,0.30092 -0.56834,1.38095 -0.73511,1.4955"
       id="path64-2-2-5" />
    <use
       id="use64-8-5-9"
       xlink:href="#path64-2-2-5"
       transform="matrix(1.0006152,0.02941642,-0.02941642,1.0006152,5.8257983,-1.4469304)"
       style="display:inline"
       x="0"
       y="0" />
    <use
       id="use65-9-4-7"
       xlink:href="#path64-2-2-5"
       transform="matrix(0.99405171,-0.02111348,0.02111348,0.99405171,-3.681985,5.6353784)"
       x="0"
       y="0" />
    <path
       style="display:inline;fill:#cccccc;stroke:#000000;stroke-width:1.37953"
       d="m 154.23103,105.90068 c -0.31165,0.30092 -0.56834,1.38095 -0.73512,1.4955"
       id="path64-6" />
    <use
       id="use64-56"
       xlink:href="#path64-6"
       transform="matrix(1.0006152,0.02941642,-0.02941642,1.0006152,5.5417506,-1.9263589)"
       style="display:inline"
       x="0"
       y="0" />
    <use
       id="use65-3"
       xlink:href="#path64-6"
       transform="matrix(0.99405171,-0.02111348,0.02111348,0.99405171,-3.3872906,5.9282103)"
       x="0"
       y="0" />
    <path
       style="display:inline;fill:#cccccc;stroke:#000000;stroke-width:1.37953"
       d="m 153.44048,100.62854 c -0.31165,0.30093 -0.56833,1.38095 -0.73512,1.49551"
       id="path64-1-94" />
    <use
       id="use64-2-8"
       xlink:href="#path64-1-94"
       transform="matrix(1.0006152,0.02941642,-0.02941642,1.0006152,5.3871496,-1.8998604)"
       style="display:inline"
       x="0"
       y="0" />
    <use
       id="use65-7-12"
       xlink:href="#path64-1-94"
       transform="matrix(0.99405171,-0.02111348,0.02111348,0.99405171,-3.2806796,5.8801589)"
       x="0"
       y="0" />
    <path
       style="display:inline;fill:#cccccc;stroke:#000000;stroke-width:1.37953"
       d="m 153.0189,95.786939 c -0.31166,0.30092 -0.56835,1.38095 -0.73512,1.4955"
       id="path64-0-9" />
    <use
       id="use64-6-3"
       xlink:href="#path64-0-9"
       transform="matrix(1.0006152,0.02941642,-0.02941642,1.0006152,5.2449866,-1.8844802)"
       style="display:inline"
       x="0"
       y="0" />
    <use
       id="use65-2-9"
       xlink:href="#path64-0-9"
       transform="matrix(0.99405171,-0.02111348,0.02111348,0.99405171,-3.1809636,5.8424587)"
       x="0"
       y="0" />
    <path
       style="display:inline;fill:#cccccc;stroke:#000000;stroke-width:1.37953"
       d="m 153.60592,110.5598 c -0.31165,0.30092 -0.56834,1.38095 -0.73512,1.4955"
       id="path64-9-08" />
    <use
       id="use64-20-85"
       xlink:href="#path64-9-08"
       transform="matrix(1.0006152,0.02941642,-0.02941642,1.0006152,5.6791896,-1.9108367)"
       style="display:inline"
       x="0"
       y="0" />
    <use
       id="use65-23-0"
       xlink:href="#path64-9-08"
       transform="matrix(0.99405171,-0.02111348,0.02111348,0.99405171,-3.4893786,5.9427258)"
       x="0"
       y="0" />
    <path
       style="display:inline;fill:#cccccc;stroke:#000000;stroke-width:1.37953"
       d="m 152.60592,116.5598 c -0.31165,0.30092 -0.56834,1.38095 -0.73512,1.4955"
       id="path64-2-9" />
    <use
       id="use64-8-63"
       xlink:href="#path64-2-9"
       transform="matrix(1.0006152,0.02941642,-0.02941642,1.0006152,5.8563036,-1.885111)"
       style="display:inline"
       x="0"
       y="0" />
    <use
       id="use65-9-8"
       xlink:href="#path64-2-9"
       transform="matrix(0.99405171,-0.02111348,0.02111348,0.99405171,-3.6220076,5.9573021)"
       x="0"
       y="0" />
    <path
       style="display:inline;fill:#cccccc;stroke:#000000;stroke-width:1.37953"
       d="m 147.23103,105.67354 c -0.31165,0.30092 -0.56834,1.38095 -0.73512,1.4955"
       id="path64-29-56" />
    <use
       id="use64-3-1"
       xlink:href="#path64-29-56"
       transform="matrix(1.0006152,0.02941642,-0.02941642,1.0006152,5.5393756,-1.7203042)"
       style="display:inline"
       x="0"
       y="0" />
    <use
       id="use65-1-1"
       xlink:href="#path64-29-56"
       transform="matrix(0.99405171,-0.02111348,0.02111348,0.99405171,-3.4241326,5.7790644)"
       x="0"
       y="0" />
    <path
       style="display:inline;fill:#cccccc;stroke:#000000;stroke-width:1.37953"
       d="m 146.44048,100.40141 c -0.31165,0.30092 -0.56833,1.38095 -0.73512,1.4955"
       id="path64-1-9-5" />
    <use
       id="use64-2-4-9"
       xlink:href="#path64-1-9-5"
       transform="matrix(1.0006152,0.02941642,-0.02941642,1.0006152,5.3847746,-1.6938062)"
       style="display:inline"
       x="0"
       y="0" />
    <use
       id="use65-7-7-8"
       xlink:href="#path64-1-9-5"
       transform="matrix(0.99405171,-0.02111348,0.02111348,0.99405171,-3.3175226,5.7310134)"
       x="0"
       y="0" />
    <path
       style="display:inline;fill:#cccccc;stroke:#000000;stroke-width:1.37953"
       d="m 146.0189,95.559801 c -0.31166,0.30092 -0.56835,1.38095 -0.73512,1.4955"
       id="path64-0-8-4" />
    <use
       id="use64-6-4-8"
       xlink:href="#path64-0-8-4"
       transform="matrix(1.0006152,0.02941642,-0.02941642,1.0006152,5.2426106,-1.6784252)"
       style="display:inline"
       x="0"
       y="0" />
    <use
       id="use65-2-5-1"
       xlink:href="#path64-0-8-4"
       transform="matrix(0.99405171,-0.02111348,0.02111348,0.99405171,-3.2178066,5.6933134)"
       x="0"
       y="0" />
    <path
       style="display:inline;fill:#cccccc;stroke:#000000;stroke-width:1.37953"
       d="m 146.60592,110.33266 c -0.31165,0.30092 -0.56834,1.38095 -0.73512,1.4955"
       id="path64-9-0-0" />
    <use
       id="use64-20-3-3"
       xlink:href="#path64-9-0-0"
       transform="matrix(1.0006152,0.02941642,-0.02941642,1.0006152,5.6768146,-1.7047822)"
       style="display:inline"
       x="0"
       y="0" />
    <use
       id="use65-23-6-0"
       xlink:href="#path64-9-0-0"
       transform="matrix(0.99405171,-0.02111348,0.02111348,0.99405171,-3.5262216,5.7935804)"
       x="0"
       y="0" />
    <path
       style="display:inline;fill:#cccccc;stroke:#000000;stroke-width:1.37953"
       d="m 145.60592,116.33266 c -0.31165,0.30092 -0.56834,1.38095 -0.73512,1.4955"
       id="path64-2-1-4" />
    <use
       id="use64-8-0-4"
       xlink:href="#path64-2-1-4"
       transform="matrix(1.0006152,0.02941642,-0.02941642,1.0006152,5.8539276,-1.6790562)"
       style="display:inline"
       x="0"
       y="0" />
    <use
       id="use65-9-6-4"
       xlink:href="#path64-2-1-4"
       transform="matrix(0.99405171,-0.02111348,0.02111348,0.99405171,-3.6588506,5.8081564)"
       x="0"
       y="0" />
    <path
       style="display:inline;fill:#cccccc;stroke:#000000;stroke-width:1.37953"
       d="m 162.1983,106.72692 c -0.31165,0.30092 -0.56834,1.38095 -0.73512,1.4955"
       id="path64-15-4" />
    <use
       id="use64-5-7"
       xlink:href="#path64-15-4"
       transform="matrix(1.0006152,0.02941642,-0.02941642,1.0006152,5.5611546,-2.1612358)"
       style="display:inline"
       x="0"
       y="0" />
    <use
       id="use65-4-6"
       xlink:href="#path64-15-4"
       transform="matrix(0.99405171,-0.02111348,0.02111348,0.99405171,-3.3573436,6.1013419)"
       x="0"
       y="0" />
    <path
       style="display:inline;fill:#cccccc;stroke:#000000;stroke-width:1.37953"
       d="m 161.40775,101.45478 c -0.31165,0.30092 -0.56834,1.38095 -0.73512,1.4955"
       id="path64-1-7-3" />
    <use
       id="use64-2-6-1"
       xlink:href="#path64-1-7-3"
       transform="matrix(1.0006152,0.02941642,-0.02941642,1.0006152,5.4065536,-2.1347373)"
       style="display:inline"
       x="0"
       y="0" />
    <use
       id="use65-7-5-7"
       xlink:href="#path64-1-7-3"
       transform="matrix(0.99405171,-0.02111348,0.02111348,0.99405171,-3.2507326,6.0532909)"
       x="0"
       y="0" />
    <path
       style="display:inline;fill:#cccccc;stroke:#000000;stroke-width:1.37953"
       d="m 160.98616,96.613177 c -0.31165,0.30092 -0.56834,1.38095 -0.73512,1.4955"
       id="path64-0-6-5" />
    <use
       id="use64-6-9-9"
       xlink:href="#path64-0-6-5"
       transform="matrix(1.0006152,0.02941642,-0.02941642,1.0006152,5.2643896,-2.1193571)"
       style="display:inline"
       x="0"
       y="0" />
    <use
       id="use65-2-3-6"
       xlink:href="#path64-0-6-5"
       transform="matrix(0.99405171,-0.02111348,0.02111348,0.99405171,-3.1510176,6.0155909)"
       x="0"
       y="0" />
    <path
       style="display:inline;fill:#cccccc;stroke:#000000;stroke-width:1.37953"
       d="m 161.57319,111.38604 c -0.31165,0.30092 -0.56834,1.38095 -0.73512,1.4955"
       id="path64-9-7-2" />
    <use
       id="use64-20-4-17"
       xlink:href="#path64-9-7-2"
       transform="matrix(1.0006152,0.02941642,-0.02941642,1.0006152,5.6985936,-2.1457136)"
       style="display:inline"
       x="0"
       y="0" />
    <use
       id="use65-23-5-8"
       xlink:href="#path64-9-7-2"
       transform="matrix(0.99405171,-0.02111348,0.02111348,0.99405171,-3.4594326,6.1158579)"
       x="0"
       y="0" />
    <path
       style="display:inline;fill:#cccccc;stroke:#000000;stroke-width:1.37953"
       d="m 160.57319,117.38604 c -0.31165,0.30092 -0.56834,1.38095 -0.73512,1.4955"
       id="path64-2-2-57" />
    <use
       id="use64-8-5-4"
       xlink:href="#path64-2-2-57"
       transform="matrix(1.0006152,0.02941642,-0.02941642,1.0006152,5.8757066,-2.1199879)"
       style="display:inline"
       x="0"
       y="0" />
    <use
       id="use65-9-4-1"
       xlink:href="#path64-2-2-57"
       transform="matrix(0.99405171,-0.02111348,0.02111348,0.99405171,-3.5920616,6.1304339)"
       x="0"
       y="0" />
    <path
       style="display:inline;fill:#cccccc;stroke:#000000;stroke-width:1.37953"
       d="m 169.90963,109.07341 c -0.31165,0.30092 -0.56834,1.38095 -0.73512,1.4955"
       id="path64-15-4-1" />
    <use
       id="use64-5-7-0"
       xlink:href="#path64-15-4-1"
       transform="matrix(1.0006152,0.02941642,-0.02941642,1.0006152,5.6254361,-2.389519)"
       style="display:inline"
       x="0"
       y="0" />
    <use
       id="use65-4-6-8"
       xlink:href="#path64-15-4-1"
       transform="matrix(0.99405171,-0.02111348,0.02111348,0.99405171,-3.361017,6.2781125)"
       x="0"
       y="0" />
    <path
       style="display:inline;fill:#cccccc;stroke:#000000;stroke-width:1.37953"
       d="m 169.11908,103.80127 c -0.31165,0.30092 -0.56834,1.38095 -0.73512,1.4955"
       id="path64-1-7-3-5" />
    <use
       id="use64-2-6-1-0"
       xlink:href="#path64-1-7-3-5"
       transform="matrix(1.0006152,0.02941642,-0.02941642,1.0006152,5.4708351,-2.3630205)"
       style="display:inline"
       x="0"
       y="0" />
    <use
       id="use65-7-5-7-6"
       xlink:href="#path64-1-7-3-5"
       transform="matrix(0.99405171,-0.02111348,0.02111348,0.99405171,-3.254406,6.2300615)"
       x="0"
       y="0" />
    <path
       style="display:inline;fill:#cccccc;stroke:#000000;stroke-width:1.37953"
       d="m 168.69749,98.959661 c -0.31165,0.30092 -0.56834,1.380949 -0.73512,1.495499"
       id="path64-0-6-5-4" />
    <use
       id="use64-6-9-9-6"
       xlink:href="#path64-0-6-5-4"
       transform="matrix(1.0006152,0.02941642,-0.02941642,1.0006152,5.3286711,-2.3476403)"
       style="display:inline"
       x="0"
       y="0" />
    <use
       id="use65-2-3-6-2"
       xlink:href="#path64-0-6-5-4"
       transform="matrix(0.99405171,-0.02111348,0.02111348,0.99405171,-3.154691,6.1923615)"
       x="0"
       y="0" />
    <path
       style="display:inline;fill:#cccccc;stroke:#000000;stroke-width:1.37953"
       d="m 169.28452,113.73253 c -0.31165,0.30092 -0.56834,1.38095 -0.73512,1.4955"
       id="path64-9-7-2-5" />
    <use
       id="use64-20-4-17-8"
       xlink:href="#path64-9-7-2-5"
       transform="matrix(1.0006152,0.02941642,-0.02941642,1.0006152,5.7628751,-2.3739968)"
       style="display:inline"
       x="0"
       y="0" />
    <use
       id="use65-23-5-8-6"
       xlink:href="#path64-9-7-2-5"
       transform="matrix(0.99405171,-0.02111348,0.02111348,0.99405171,-3.463106,6.2926285)"
       x="0"
       y="0" />
    <path
       style="display:inline;fill:#cccccc;stroke:#000000;stroke-width:1.37953"
       d="m 168.28452,119.73253 c -0.31165,0.30092 -0.56834,1.38095 -0.73512,1.4955"
       id="path64-2-2-57-2" />
    <use
       id="use64-8-5-4-8"
       xlink:href="#path64-2-2-57-2"
       transform="matrix(1.0006152,0.02941642,-0.02941642,1.0006152,5.9399881,-2.3482711)"
       style="display:inline"
       x="0"
       y="0" />
    <use
       id="use65-9-4-1-4"
       xlink:href="#path64-2-2-57-2"
       transform="matrix(0.99405171,-0.02111348,0.02111348,0.99405171,-3.595735,6.3072045)"
       x="0"
       y="0" />
  </g>
</svg>
